<svg width="24" height="24" viewBox="0 0 24 24" fill="none" xmlns="http://www.w3.org/2000/svg">
<path d="M15.24 2H11.346C9.582 2 8.184 2 7.091 2.148C5.965 2.3 5.054 2.62 4.336 3.341C3.617 4.062 3.298 4.977 3.147 6.107C3 7.205 3 8.608 3 10.379V16.217C3 17.725 3.92 19.017 5.227 19.559C5.16 18.649 5.16 17.374 5.16 16.312V11.302C5.16 10.021 5.16 8.916 5.278 8.032C5.405 7.084 5.691 6.176 6.425 5.439C7.159 4.702 8.064 4.415 9.008 4.287C9.888 4.169 10.988 4.169 12.265 4.169H15.335C16.611 4.169 17.709 4.169 18.59 4.287C18.326 3.61337 17.8652 3.03489 17.2676 2.62696C16.6701 2.21902 15.9635 2.00054 15.24 2Z" fill="#404040"/>
<path d="M7.97556 6.98935L7.97525 6.98967C7.71533 7.25051 7.54325 7.61859 7.44883 8.32326C7.35156 9.04925 7.34998 10.0122 7.34998 11.3963V16.2163C7.34998 17.6004 7.35156 18.5633 7.44883 19.2893C7.54325 19.994 7.71533 20.3621 7.97525 20.6229L7.97556 20.6232C8.23453 20.8834 8.59975 21.0556 9.30032 21.1501C10.0227 21.2477 10.9812 21.2493 12.36 21.2493H15.24C16.6188 21.2493 17.5772 21.2477 18.2998 21.1501C19.0002 21.0556 19.3658 20.8835 19.6254 20.6232C19.885 20.3624 20.0569 19.9942 20.1512 19.2894C20.2484 18.5634 20.25 17.6004 20.25 16.2163V11.3963C20.25 10.0122 20.2484 9.0492 20.1512 8.32314C20.0569 7.61834 19.885 7.25019 19.6254 6.98938L7.97556 6.98935ZM7.97556 6.98935C8.23459 6.7291 8.59961 6.55697 9.29996 6.46241M7.97556 6.98935L9.29996 6.46241M9.29996 6.46241C10.0222 6.36489 10.9807 6.36328 12.36 6.36328M9.29996 6.46241L12.36 6.36328M12.36 6.36328H15.24M12.36 6.36328H15.24M15.24 6.36328C16.6188 6.36328 17.5772 6.36489 18.2998 6.46242M15.24 6.36328L18.2998 6.46242M18.2998 6.46242C19.0002 6.55695 19.3658 6.72904 19.6254 6.98935L18.2998 6.46242Z" stroke="#404040" stroke-width="1.5"/>
</svg>
