<svg width="24" height="24" viewBox="0 0 24 24" fill="none" xmlns="http://www.w3.org/2000/svg">
<path fill-rule="evenodd" clip-rule="evenodd" d="M18.5639 20.1929C18.5875 20.0292 18.5815 19.8613 18.5752 19.6855C18.5721 19.602 18.569 19.5169 18.569 19.4295C19.5725 19.299 20.0627 18.7837 20.0659 17.8795C20.0712 16.3836 20.0737 14.8877 20.0645 13.3918C20.0598 12.6125 19.6035 12.0874 18.8438 11.9454C18.7624 11.9303 18.6809 11.9159 18.5869 11.8988C18.5869 11.4865 18.5859 11.0759 18.5849 10.6663C18.5824 9.68283 18.58 8.70582 18.5919 7.72898C18.6007 7.00342 18.3547 6.41409 17.8337 5.91127C17.0955 5.19844 16.3712 4.47102 15.6559 3.73511C15.1606 3.22534 14.5761 2.99615 13.8656 3.00005C12.257 3.00871 10.6483 3.00746 9.03961 3.00621C8.2863 3.00563 7.53298 3.00505 6.77976 3.00548C5.339 3.00616 4.48734 3.86522 4.48688 5.3177L4.4867 7.35002C4.4867 8.73719 4.4866 10.1244 4.48484 11.5115C4.48465 11.6426 4.51963 11.7797 4.45515 11.9045C3.4982 12.0761 3.0181 12.5387 3.01068 13.354C2.99639 14.8992 2.99639 16.4447 3.01096 17.9899C3.01829 18.7609 3.54811 19.3096 4.31321 19.399C4.32453 19.4003 4.33631 19.4004 4.34837 19.4005C4.39652 19.4009 4.44847 19.4014 4.48707 19.4794C4.48707 19.6013 4.48465 19.7489 4.48734 19.8965C4.50896 21.0786 5.40431 21.9909 6.58327 21.994C9.88523 22.0025 13.1871 22.0014 16.489 21.9943C17.5518 21.9921 18.4127 21.2386 18.5639 20.1929ZM17.4478 7.60464V11.9083H5.63977C5.58624 11.8227 5.59227 11.7364 5.59821 11.6528C5.59941 11.6362 5.60062 11.6197 5.60127 11.6034C5.60164 11.5938 5.60192 11.5842 5.60192 11.5748C5.59969 9.48613 5.59969 7.39767 5.60062 5.30905C5.6009 4.48001 5.96466 4.11867 6.79841 4.11833C7.90407 4.11793 9.00974 4.11783 10.1154 4.11784L13.7335 4.118H14.0982C14.0982 4.80487 14.0964 5.46749 14.0988 6.12993C14.1025 7.14101 14.5644 7.60328 15.5694 7.60446C15.9072 7.60493 16.2449 7.60494 16.5868 7.60485L17.4478 7.60464ZM13.254 18.2908L11.5209 18.2907C9.2348 18.2907 6.94851 18.291 4.66259 18.2904C4.15884 18.2902 4.11978 18.25 4.11959 17.7348C4.11913 16.3388 4.11857 14.9428 4.11996 13.5468C4.12024 13.1085 4.19492 13.0337 4.63875 13.0335C9.23582 13.0327 13.8328 13.0327 18.4299 13.0335C18.8787 13.0335 18.9534 13.1064 18.954 13.5416C18.9553 14.9622 18.9554 16.3829 18.9538 17.8037C18.9532 18.2298 18.8906 18.29 18.4536 18.2902L16.1467 18.2908H13.254ZM6.90157 20.8972C5.90046 20.9088 5.45589 20.3133 5.63244 19.4195H17.4399C17.6202 20.3037 17.1785 20.9089 16.1745 20.8972C13.0838 20.8611 9.99229 20.8613 6.90157 20.8972ZM15.2437 4.97671L16.7603 6.47838H15.2437V4.97671ZM8.3581 14.5113C8.17358 14.5113 8.03442 14.5685 7.93265 14.6861C7.86938 14.7587 7.82512 14.8604 7.80054 14.9894C7.77475 15.1244 7.76167 15.3685 7.76167 15.7143C7.76167 16.0602 7.77493 16.3041 7.80054 16.4393C7.82494 16.5679 7.86919 16.6697 7.93237 16.7421C8.03414 16.8598 8.17339 16.917 8.35792 16.917C8.66787 16.917 8.85657 16.7572 8.93459 16.4284C8.94136 16.3998 8.96688 16.3796 8.99629 16.3796H9.74691C9.78634 16.3796 9.8163 16.4152 9.80962 16.4541C9.73986 16.8544 9.57305 17.1662 9.31385 17.3808C9.05482 17.5952 8.73318 17.7041 8.35792 17.7041C7.93831 17.7041 7.58132 17.5639 7.29715 17.287C7.11448 17.1043 7.00019 16.9007 6.95723 16.6815C6.91586 16.4712 6.8948 16.1458 6.8948 15.7141C6.8948 15.2825 6.91586 14.9571 6.95723 14.7468C7.00019 14.5278 7.1143 14.3242 7.29669 14.142C7.58132 13.8645 7.93831 13.7242 8.35792 13.7242C8.73318 13.7242 9.05482 13.8329 9.31385 14.0475C9.57296 14.2623 9.73967 14.5741 9.80962 14.9743C9.81231 14.9898 9.80916 15.0049 9.80183 15.0173C9.79088 15.036 9.77066 15.0487 9.747 15.0487H8.99118C8.97717 15.0487 8.96409 15.0442 8.95342 15.0363C8.94174 15.0276 8.93301 15.0149 8.92949 14.9999C8.85147 14.6711 8.66453 14.5113 8.3581 14.5113ZM12.1657 15.3311L11.7129 15.2619C11.5775 15.2427 11.4725 15.1997 11.4016 15.135C11.3434 15.0799 11.315 15.0063 11.315 14.9099C11.315 14.7893 11.357 14.6924 11.4434 14.6137C11.53 14.5347 11.6606 14.4946 11.8316 14.4946C12.1532 14.4946 12.3996 14.5762 12.5638 14.7372C12.5886 14.7616 12.6284 14.7615 12.6532 14.737L13.1215 14.2741C13.1469 14.249 13.1468 14.2078 13.1211 14.183C12.8051 13.878 12.3782 13.7234 11.8529 13.7234C11.4342 13.7234 11.0957 13.8354 10.8474 14.0563C10.5966 14.2788 10.4694 14.5752 10.4694 14.9365C10.4694 15.2721 10.5671 15.5379 10.7604 15.7274C10.9397 15.8994 11.1985 16.0107 11.529 16.0584L11.9826 16.1276C12.128 16.1469 12.2306 16.1843 12.2865 16.2372C12.3529 16.3035 12.3852 16.3914 12.3852 16.5061C12.3852 16.6379 12.3373 16.7358 12.239 16.8055C12.1354 16.8789 11.9787 16.9161 11.7729 16.9161C11.3984 16.9161 11.1074 16.815 10.908 16.6155C10.8831 16.5907 10.8428 16.5907 10.818 16.6155L10.339 17.0945C10.3141 17.1194 10.3141 17.1596 10.339 17.1845C10.5256 17.3714 10.7359 17.5061 10.9645 17.5855C11.1901 17.6637 11.4601 17.7034 11.7677 17.7034C12.1916 17.7034 12.5449 17.5958 12.8178 17.384C13.0953 17.1682 13.2361 16.8674 13.2361 16.4901C13.2361 16.1223 13.1307 15.838 12.9236 15.6458C12.7553 15.4852 12.5 15.3791 12.1657 15.3311ZM15.3108 16.0719L15.9717 13.9278C16.0034 13.8254 16.098 13.7553 16.2055 13.7553H16.5927C16.7595 13.7553 16.8772 13.9185 16.8248 14.0768L15.7348 17.3653C15.6743 17.5482 15.5035 17.6715 15.3109 17.6715C15.1182 17.6715 14.9472 17.5478 14.8868 17.3648L13.8014 14.0765C13.7492 13.9183 13.8671 13.7553 14.0337 13.7553H14.4161C14.5234 13.7553 14.6182 13.8254 14.6499 13.9278L15.3108 16.0719Z" fill="#45B058"/>
</svg>
