<svg width="24" height="24" viewBox="0 0 24 24" fill="none" xmlns="http://www.w3.org/2000/svg">
<path fill-rule="evenodd" clip-rule="evenodd" d="M11.9024 3.01062C12.0827 2.97642 12.2692 3.02582 12.4099 3.14489C12.552 3.26522 12.6335 3.44383 12.6335 3.63257V5.53263H20.6609C21.0018 5.53263 21.2784 5.81638 21.2784 6.16599V18.8331C21.2784 19.1827 21.0018 19.4664 20.6609 19.4664H12.6335V21.3665C12.6335 21.554 12.552 21.7338 12.4099 21.8542C12.2988 21.9492 12.158 21.9999 12.016 21.9999C11.9789 21.9999 11.9394 21.9961 11.9024 21.9885L2.02243 20.0884C1.72974 20.0327 1.51855 19.7704 1.51855 19.4664V5.53263C1.51855 5.22736 1.72974 4.96641 2.02243 4.91068L11.9024 3.01062ZM20.0434 18.1997V6.79934H12.6335V8.06605H14.486C14.8268 8.06605 15.1035 8.3498 15.1035 8.69941C15.1035 9.04902 14.8268 9.33276 14.486 9.33276H12.6335V10.5995H14.486C14.8268 10.5995 15.1035 10.8832 15.1035 11.2328C15.1035 11.5824 14.8268 11.8662 14.486 11.8662H12.6335V13.1329H14.486C14.8268 13.1329 15.1035 13.4166 15.1035 13.7662C15.1035 14.1159 14.8268 14.3996 14.486 14.3996H12.6335V15.6663H14.486C14.8268 15.6663 15.1035 15.9501 15.1035 16.2997C15.1035 16.6493 14.8268 16.933 14.486 16.933H12.6335V18.1997H20.0434ZM11.3985 16.2997V13.7662V11.2328V8.69941V6.16599V4.39639L2.75355 6.05832V18.9407L11.3985 20.6027V18.8331V16.2997ZM18.1909 8.06605H16.9559C16.6151 8.06605 16.3384 8.3498 16.3384 8.69941C16.3384 9.04902 16.6151 9.33276 16.9559 9.33276H18.1909C18.5318 9.33276 18.8084 9.04902 18.8084 8.69941C18.8084 8.3498 18.5318 8.06605 18.1909 8.06605ZM16.9559 10.5995H18.1909C18.5318 10.5995 18.8084 10.8832 18.8084 11.2328C18.8084 11.5824 18.5318 11.8662 18.1909 11.8662H16.9559C16.6151 11.8662 16.3384 11.5824 16.3384 11.2328C16.3384 10.8832 16.6151 10.5995 16.9559 10.5995ZM18.1909 13.1329H16.9559C16.6151 13.1329 16.3384 13.4166 16.3384 13.7662C16.3384 14.1159 16.6151 14.3996 16.9559 14.3996H18.1909C18.5318 14.3996 18.8084 14.1159 18.8084 13.7662C18.8084 13.4166 18.5318 13.1329 18.1909 13.1329ZM16.9559 15.6663H18.1909C18.5318 15.6663 18.8084 15.9501 18.8084 16.2997C18.8084 16.6493 18.5318 16.933 18.1909 16.933H16.9559C16.6151 16.933 16.3384 16.6493 16.3384 16.2997C16.3384 15.9501 16.6151 15.6663 16.9559 15.6663ZM7.22968 11.3552L5.6891 9.54937C5.46187 9.28463 5.07285 9.25929 4.81721 9.48983C4.56033 9.72037 4.53438 10.1207 4.75916 10.3829L6.45744 12.3736L4.73574 14.6441C4.52701 14.9202 4.57517 15.3192 4.84441 15.5333C4.95803 15.6232 5.0914 15.6663 5.22353 15.6663C5.40631 15.6663 5.58913 15.5827 5.71015 15.4231L7.28603 13.3449L9.08163 15.4497C9.20389 15.5928 9.37432 15.6663 9.54599 15.6663C9.69047 15.6663 9.83499 15.6144 9.95356 15.5092C10.2104 15.2787 10.2364 14.8797 10.0116 14.6162L8.05828 12.3265L10.0326 9.7229C10.2425 9.4455 10.1944 9.04775 9.92515 8.83368C9.65591 8.61707 9.26815 8.66901 9.05821 8.94388L7.22968 11.3552Z" fill="#2E7D32"/>
</svg>
