<svg width="24" height="24" viewBox="0 0 24 24" fill="none" xmlns="http://www.w3.org/2000/svg">
<path d="M16.3534 2C19.7304 2 21.9994 4.362 21.9994 7.888V16.102C21.9994 16.253 21.9724 16.388 21.9644 16.534C21.9594 16.619 21.9604 16.704 21.9534 16.789C21.9494 16.827 21.9384 16.862 21.9344 16.9C21.9014 17.214 21.8504 17.514 21.7794 17.805C21.7614 17.883 21.7404 17.958 21.7194 18.034C21.6394 18.316 21.5454 18.585 21.4324 18.842C21.3994 18.914 21.3634 18.983 21.3294 19.054C21.2074 19.299 21.0754 19.534 20.9224 19.752L20.7744 19.944C20.6154 20.15 20.4494 20.347 20.2614 20.526C20.2004 20.584 20.1314 20.634 20.0674 20.689C19.8744 20.855 19.6774 21.014 19.4604 21.15C19.3824 21.199 19.2964 21.235 19.2164 21.279C18.9954 21.401 18.7724 21.52 18.5294 21.612C18.4294 21.65 18.3184 21.67 18.2144 21.703C17.9754 21.777 17.7394 21.854 17.4824 21.898C17.4177 21.9093 17.3512 21.9173 17.2836 21.9236L16.8734 21.953C16.6994 21.966 16.5344 22 16.3534 22H7.63739C7.26139 22 6.90239 21.962 6.55539 21.905C6.54239 21.903 6.53039 21.901 6.51839 21.899C5.16539 21.666 4.04239 21.013 3.25539 20.028C3.24639 20.028 3.24639 20.018 3.23739 20.009C2.44639 19.013 1.99939 17.674 1.99939 16.102V7.888C1.99939 4.362 4.27039 2 7.63739 2H16.3534ZM16.3534 3.395H7.63739C5.06039 3.395 3.39539 5.162 3.39539 7.888V16.102C3.39539 16.867 3.53739 17.55 3.78039 18.141C3.81139 18.104 5.74839 15.742 5.75739 15.734C6.44939 14.944 7.74839 13.766 9.45339 14.479C9.86339 14.649 10.2234 14.888 10.5534 15.098C11.1264 15.481 11.4634 15.661 11.8134 15.631C11.9584 15.611 12.0944 15.568 12.2234 15.488C12.7814 15.144 14.3584 12.844 14.4534 12.719C15.5434 11.299 17.2234 10.919 18.6234 11.759C18.7174 11.815 19.1011 12.0782 19.5171 12.3748L19.8312 12.6006C20.1432 12.8273 20.4371 13.0482 20.6044 13.19V7.888C20.6044 5.162 18.9394 3.395 16.3534 3.395ZM8.47867 5.9996C9.17635 5.9996 9.80813 6.29298 10.2606 6.76104C10.7151 7.21269 11 7.83515 11 8.51456C11 9.86951 9.86627 10.9996 8.50483 10.9996C7.30813 10.9996 6.28778 10.1253 6.0591 8.99323C6.02131 8.82338 5.99999 8.6487 5.99999 8.46824C5.99999 7.10363 7.10852 5.9996 8.47867 5.9996Z" fill="#737373"/>
</svg>
