<svg width="24" height="24" viewBox="0 0 24 24" fill="none" xmlns="http://www.w3.org/2000/svg">
<path d="M15.7792 13.7623C15.5923 13.678 15.396 13.6547 15.2109 13.6384C14.7912 13.6028 14.3769 13.6627 13.9537 13.7321C13.8678 13.7462 13.8198 13.7351 13.763 13.69C13.3952 13.3943 13.0179 13.0425 12.5762 12.5828C12.3786 12.3768 12.2927 12.2085 12.4381 11.9583C12.4753 11.8945 12.4929 11.8211 12.51 11.75C12.5165 11.7233 12.5229 11.6965 12.5306 11.6699C12.5494 11.6014 12.5694 11.533 12.5896 11.4641C12.6883 11.1274 12.7905 10.779 12.7833 10.3426C12.7884 10.2386 12.7606 10.0395 12.7143 9.84728C12.6145 9.42996 12.3731 9.19246 11.9763 9.12155C11.3611 9.01298 10.8922 9.27779 10.7222 9.82947C10.5704 10.3263 10.5815 10.8083 10.7554 11.2618C10.9164 11.6792 11.158 12.0397 11.3955 12.3678L11.4038 12.3787C11.4437 12.4314 11.4637 12.4613 11.4438 12.5164C11.358 12.7578 11.2772 13.0052 11.1992 13.2444C11.0627 13.6627 10.9213 14.0953 10.749 14.5078C10.7203 14.5781 10.6815 14.619 10.6106 14.6536C10.1055 14.8948 9.56743 15.1523 9.02899 15.4171C8.78335 15.5379 8.46544 15.7082 8.18485 15.9545C7.91512 16.1949 7.79145 16.5001 7.84557 16.7922C7.89968 17.0844 8.1248 17.3251 8.46273 17.4528C8.61218 17.5088 8.75281 17.5326 8.88513 17.5326C9.26988 17.5326 9.58287 17.3312 9.82749 17.1358C10.3614 16.7086 10.8065 16.1301 11.2281 15.3153C11.2669 15.2393 11.3132 15.1971 11.3879 15.1698C12.0018 14.9484 12.6931 14.7635 13.5637 14.5877C13.6181 14.5765 13.6519 14.5915 13.707 14.63C13.9384 14.7942 14.1881 14.9694 14.4445 15.1398C14.753 15.3435 15.1721 15.5545 15.6764 15.3751C16.0345 15.2477 16.2435 14.965 16.2644 14.5793C16.2874 14.1686 16.1424 13.9243 15.7792 13.7623ZM15.484 14.5489C15.4784 14.6151 15.446 14.643 15.3558 14.6602C15.2542 14.6778 15.1558 14.6559 15.045 14.5903C14.9534 14.5382 14.8643 14.4826 14.7612 14.4179L14.7573 14.4156C14.9756 14.4039 15.1773 14.4045 15.3758 14.4495C15.4616 14.4695 15.4908 14.4875 15.484 14.5489ZM11.8072 13.8897C11.8883 13.6467 11.9685 13.4062 12.051 13.1582C12.3407 13.4688 12.5916 13.7138 12.85 13.9384C12.4361 14.0356 12.063 14.1338 11.6888 14.2446L11.8072 13.8897ZM11.7923 11.4022L11.76 11.5133C11.4274 11.0025 11.3312 10.5883 11.4384 10.1416C11.4829 9.95755 11.5504 9.89003 11.6956 9.88409C11.9009 9.87629 11.9551 9.9226 11.9828 10.1308C12.0228 10.4232 12.0103 10.6634 11.9434 10.8863C11.8927 11.0551 11.8435 11.2249 11.7923 11.4022ZM9.08921 16.6974C9.00982 16.743 8.92737 16.7609 8.84374 16.7514C8.78199 16.7442 8.73551 16.703 8.71956 16.6414C8.7065 16.5907 8.71532 16.5206 8.78029 16.4737C9.17488 16.1944 9.61137 15.9878 9.99561 15.8216C9.7369 16.2044 9.43969 16.4915 9.08921 16.6974ZM19.104 18.2864V13.0377V11.8994V8.16223V8.12321C19.104 7.99259 19.1057 7.86027 19.1074 7.72964C19.1159 7.00358 18.8699 6.41492 18.3491 5.91109C17.6112 5.19859 16.8868 4.47083 16.1709 3.73459C15.6755 3.22566 15.092 2.99664 14.3812 3.00004C12.0181 3.01361 9.65666 3.00343 7.29525 3.00513C5.8533 3.00513 5.0017 3.86521 5.0017 5.31734V7.06635C5.0017 8.54732 5.0017 10.03 5 11.511C5 11.5279 5 11.5449 5.0017 11.5618V11.8112V13.0377V18.2864V19.5638C5.0017 19.6673 5 19.781 5.0017 19.8963C5.02375 21.0787 5.91946 21.9914 7.09847 21.9931C10.3997 22.0016 13.7026 22.0016 17.0038 21.9948C17.9369 21.9914 18.7138 21.4112 18.992 20.5613C19.0205 20.476 19.0416 20.3864 19.0592 20.2952L19.0609 20.2965C19.0638 20.2813 19.0662 20.2629 19.0687 20.2451C19.0716 20.2276 19.076 20.2109 19.0786 20.1932C19.0896 20.114 19.0928 20.0334 19.0935 19.9518C19.1164 19.498 19.104 18.8653 19.104 18.8653V18.2864ZM15.7587 4.97636C16.2557 5.46832 16.7579 5.96537 17.2753 6.47769H15.7587V4.97636ZM17.981 19.5706V19.971C17.9063 20.5461 17.4653 20.9074 16.69 20.8972C13.5991 20.8616 10.5066 20.8616 7.4157 20.8972C6.63874 20.9074 6.19767 20.5512 6.12303 19.9727C6.11285 19.9116 6.10946 19.8488 6.10946 19.7827C6.10946 19.7131 6.11285 19.6402 6.12303 19.5638H6.12472V19.5537V18.2898V13.0343V11.8401V7.06635H6.11455C6.11624 6.47939 6.11624 5.89412 6.11624 5.30886C6.11624 4.47931 6.47927 4.11798 7.31391 4.11798H14.6136C14.6136 4.80502 14.6119 5.46832 14.6136 6.12992C14.617 7.14099 15.0801 7.60411 16.0844 7.60411C16.7019 7.60581 17.3194 7.60411 17.9623 7.60411V8.12321H17.964V13.0326H17.9662L17.981 14.5928V18.2898V19.5706Z" fill="#FB3449"/>
</svg>
