<svg width="24" height="24" viewBox="0 0 24 24" fill="none" xmlns="http://www.w3.org/2000/svg">
<path d="M21.9894 10.5131C21.9753 9.0255 20.7522 7.79449 19.2628 7.76928C19.1301 7.76722 18.9972 7.76756 18.8589 7.76808L18.7073 7.76859L18.707 7.27427C18.7066 6.81511 18.7061 6.3604 18.7085 5.9057C18.7095 5.66969 18.6895 5.45203 18.6469 5.24003C18.4043 4.03492 17.1269 3.01232 15.8572 3.00734C13.3114 2.99722 11.0763 2.99756 9.02434 3.00837C7.53772 3.01626 6.3107 4.23097 6.28909 5.71651C6.28223 6.19454 6.28395 6.68235 6.28549 7.1542C6.28635 7.35591 6.28703 7.55814 6.28703 7.76122C6.16324 7.77202 6.03806 7.77151 5.91735 7.77134C5.76063 7.77099 5.59911 7.77031 5.43964 7.79398C4.24331 7.97064 3.3311 8.81693 3.05916 10.0023C3.05504 10.0198 3.05401 10.0392 3.05315 10.0587C3.05247 10.0735 3.05213 10.0888 3.0487 10.1028L3.03892 10.1433C3.01989 10.222 3 10.3035 3 10.3887V15.1109C3 15.2747 3.03258 15.4349 3.06464 15.5699C3.07133 15.598 3.07596 15.627 3.08059 15.6558C3.08711 15.6953 3.09362 15.7347 3.10442 15.7726C3.45096 16.9887 4.53035 17.8139 5.79064 17.8264C5.90998 17.8278 6.02932 17.8271 6.14729 17.8271L6.2812 17.8268C6.29218 17.8466 6.29081 17.8689 6.28772 17.9022C6.28635 17.9166 6.28515 17.9305 6.28515 17.9444C6.28635 18.4727 6.28635 19.001 6.28635 19.5293L6.28652 20.175C6.28686 21.0901 6.73234 21.6891 7.61059 21.9558C7.61797 21.958 7.62568 21.9596 7.63271 21.9608C7.73354 21.9801 7.85322 21.9999 7.97479 21.9999H16.9762C17.1351 21.9999 17.2544 21.9853 17.363 21.9527C17.3903 21.9445 17.4189 21.9393 17.4472 21.9343C17.4842 21.9278 17.5225 21.9208 17.5602 21.9076C18.2376 21.6674 18.6975 21.0306 18.7049 20.3231C18.7106 19.7745 18.7094 19.2168 18.7083 18.6773C18.7078 18.4442 18.7075 18.2113 18.7075 17.9782V17.8317C18.828 17.8238 18.9482 17.8233 19.065 17.823C19.2339 17.8223 19.4084 17.8216 19.5799 17.7979C20.9184 17.612 21.9765 16.4263 21.989 15.0987C22.0034 13.5742 22.0034 12.0316 21.9894 10.5131ZM17.511 14.8817V20.1985C17.5108 20.6054 17.3155 20.8032 16.9141 20.8032C13.9679 20.8035 11.0218 20.8035 8.07544 20.8032C7.68227 20.8032 7.48285 20.6047 7.48285 20.2131L7.48251 14.8817H17.511ZM7.48336 7.5981C7.48199 7.0187 7.48045 6.43913 7.48302 5.85956C7.48714 4.8999 8.18347 4.2025 9.13854 4.2013C11.3666 4.19855 13.6258 4.19855 15.8539 4.2013C16.809 4.2025 17.5056 4.89956 17.5104 5.85888C17.5125 6.30106 17.512 6.74307 17.5115 7.19039L17.511 7.76465H7.48474C7.47788 7.7511 7.47839 7.73429 7.48114 7.70564C7.48234 7.69261 7.48354 7.67992 7.48354 7.66757L7.48336 7.5981ZM18.7162 14.873L18.7749 14.8733C18.8513 14.8742 18.9264 14.8749 19.002 14.872C19.335 14.8594 19.5946 14.5956 19.5929 14.2713C19.5912 13.9437 19.3347 13.6881 18.996 13.6766C18.9654 13.6758 18.935 13.6756 18.9041 13.6761L18.8652 13.6763C14.6197 13.6763 10.3743 13.6763 6.12877 13.6768L6.08487 13.6765C6.01766 13.6754 5.94873 13.6751 5.881 13.689C5.5835 13.7502 5.37311 14.032 5.40209 14.3305C5.43158 14.6327 5.67901 14.8605 5.99057 14.8721C6.06207 14.8747 6.13374 14.874 6.21107 14.8735L6.28 14.873V16.6124C5.51852 16.7287 5.03498 16.4764 4.76217 16.2426C4.39455 15.9275 4.1869 15.4517 4.19239 14.9373C4.2025 13.9852 4.20027 13.0175 4.19822 12.0815C4.19702 11.6057 4.19599 11.1297 4.1965 10.6541C4.19753 9.65978 4.88923 8.96529 5.87843 8.96495C8.08419 8.96426 10.2899 8.96409 12.4959 8.96409C14.7016 8.96409 16.9074 8.96444 19.1132 8.96495C20.1032 8.96529 20.7953 9.65927 20.7965 10.6529C20.7982 12.0866 20.7987 13.5204 20.7963 14.9543C20.7947 15.9374 20.1053 16.6268 19.1195 16.6309C19.0223 16.6311 18.9254 16.6311 18.8261 16.6311L18.7159 16.6309V14.873H18.7162ZM6.88803 10.1755C7.17078 10.1755 7.45336 10.1737 7.73594 10.1761C8.07647 10.1788 8.32338 10.4126 8.32373 10.7285C8.32407 11.0448 8.07784 11.2812 7.73765 11.2827C7.16615 11.2853 6.59465 11.2856 6.02332 11.2825C5.68724 11.2807 5.44016 11.0366 5.44479 10.721C5.44924 10.4134 5.6941 10.1797 6.0216 10.1762C6.31035 10.173 6.59928 10.1755 6.88803 10.1755ZM12.4926 16.0839C12.9659 16.0839 13.4393 16.0831 13.9125 16.0843C14.2728 16.0851 14.5219 16.3072 14.5271 16.629C14.5322 16.9589 14.28 17.1911 13.9117 17.1914C12.965 17.1925 12.0183 17.1926 11.0717 17.1913C10.7162 17.1908 10.4664 16.9595 10.4666 16.6371C10.4667 16.3151 10.7172 16.0851 11.0727 16.0841C11.5459 16.0829 12.0192 16.0839 12.4926 16.0839ZM12.4978 19.5553C12.0245 19.5553 11.5511 19.5564 11.0778 19.555C10.7198 19.554 10.4698 19.3286 10.4664 19.007C10.463 18.6784 10.716 18.448 11.0849 18.4478C12.0254 18.447 12.9659 18.4471 13.9064 18.4478C14.2774 18.4482 14.5293 18.6756 14.5271 19.0049C14.5249 19.3339 14.274 19.5547 13.8993 19.5553C13.4321 19.5559 12.965 19.5553 12.4978 19.5553Z" fill="#7500FD"/>
</svg>
