<svg width="20" height="20" viewBox="0 0 20 20" fill="none" xmlns="http://www.w3.org/2000/svg">
<path d="M17.4392 2.56037C16.8542 1.97537 16.0258 1.74537 15.2208 1.94621L4.29342 4.67788C2.83676 5.04205 1.86499 6.29537 1.87582 7.79703C1.88666 9.2987 2.87509 10.5379 4.33676 10.882L8.20842 11.7929L9.11927 15.6637C9.46344 17.1254 10.7025 18.1137 12.2042 18.1245C12.2117 18.1245 12.2201 18.1245 12.2276 18.1245C13.7184 18.1245 14.96 17.1554 15.3225 15.707L18.0542 4.77953C18.2542 3.97537 18.025 3.1462 17.4392 2.56037ZM16.8408 4.47621L14.1091 15.4037C13.8349 16.4979 12.9509 16.8812 12.2117 16.8745C11.5076 16.8695 10.5942 16.4745 10.3359 15.3779L9.4159 11.4687L12.9417 7.94204C13.1859 7.69788 13.1859 7.30204 12.9417 7.05787C12.6975 6.81371 12.3017 6.81371 12.0575 7.05787L8.53089 10.5845L4.62159 9.66453C3.52409 9.4062 3.12919 8.49205 3.12419 7.78788C3.11919 7.08371 3.5016 6.16371 4.59494 5.89037L15.5225 3.15869C15.6116 3.13619 15.7017 3.12538 15.79 3.12538C16.0733 3.12538 16.3467 3.23704 16.5542 3.44454C16.8267 3.71621 16.9342 4.10205 16.8408 4.47621Z" fill="#404040"/>
</svg>
