<svg width="56" height="56" viewBox="0 0 56 56" fill="none" xmlns="http://www.w3.org/2000/svg">
<g clip-path="url(#clip0_164_36094)">
<rect width="56" height="56" rx="28" fill="white"/>
<path d="M56.0076 35.1205L33.4288 11.0555C32.074 9.68996 30.1966 8.84375 28.1209 8.84375C23.9911 8.84375 20.6431 12.1917 20.6431 16.3216C20.6431 16.7299 20.6764 17.1304 20.7393 17.5211L23.5874 20.2962H15.2792V23.1902H13.4989C11.4292 23.1902 9.74542 24.874 9.74542 26.9438V31.1933C8.37076 31.6147 7.36816 32.8956 7.36816 34.4065C7.36816 35.3102 7.72604 36.1521 8.34091 36.7707L27.685 57.5638C28.7917 57.7132 29.9207 57.7919 31.0683 57.7919C44.1013 57.7919 54.8081 47.8396 56.0076 35.1205Z" fill="#EDEDED"/>
<path d="M11.7119 32.0611H9.74609V26.9411C9.74609 24.8714 11.4299 23.1875 13.4996 23.1875H15.295V25.1533H13.4996C12.5138 25.1533 11.7119 25.9553 11.7119 26.9411V32.0611Z" fill="#00E8F2"/>
<path d="M12.2632 37.3921L11.3642 35.6438C11.832 35.4033 12.1227 34.9279 12.1227 34.4032C12.1227 33.6344 11.4972 33.0088 10.7283 33.0088C9.95955 33.0088 9.33401 33.6344 9.33401 34.4032C9.33401 34.9279 9.62466 35.4033 10.0925 35.6438L9.19358 37.3921C8.06758 36.8131 7.36816 35.6678 7.36816 34.4032C7.36816 32.5503 8.87553 31.043 10.7283 31.043C12.5812 31.043 14.0885 32.5503 14.0885 34.4032C14.0886 35.6678 13.3892 36.8132 12.2632 37.3921Z" fill="#5372F9"/>
<path d="M46.4971 32.0611H44.5313V26.9411C44.5313 25.9553 43.7294 25.1533 42.7436 25.1533H40.9482V23.1875H42.7436C44.8133 23.1875 46.4971 24.8713 46.4971 26.9411V32.0611Z" fill="#00C2C9"/>
<path d="M47.0484 37.3921L46.1494 35.6438C46.6173 35.4033 46.9079 34.9279 46.9079 34.4032C46.9079 33.6344 46.2824 33.0088 45.5136 33.0088C44.7448 33.0088 44.1193 33.6344 44.1193 34.4032C44.1193 34.9279 44.4099 35.4033 44.8778 35.6438L43.9787 37.3921C42.8527 36.8131 42.1533 35.6678 42.1533 34.4032C42.1533 32.5503 43.6607 31.043 45.5135 31.043C47.3663 31.043 48.8737 32.5503 48.8737 34.4032C48.8738 35.6678 48.1743 36.8132 47.0484 37.3921Z" fill="#5372F9"/>
<path d="M32.1821 17.2266H24.0596V20.9897H32.1821V17.2266Z" fill="#00E8F2"/>
<path d="M32.1824 17.2266H28.1211V20.9894H32.1824V17.2266Z" fill="#00C2C9"/>
<path d="M32.0389 36.375H24.2051V43.0244H32.0389V36.375Z" fill="#00E8F2"/>
<path d="M32.0385 36.375H28.1211V43.0244H32.0385V36.375Z" fill="#00C2C9"/>
<path d="M38.1545 42.6367H18.0879V45.3362H38.1545V42.6367Z" fill="#FF9D1C"/>
<path d="M38.1539 42.6367H28.1211V45.337H38.1539V42.6367Z" fill="#CF7713"/>
<path d="M40.9631 20.293H15.2793V36.6858H40.9631V20.293Z" fill="#5372F9"/>
<path d="M40.9625 20.293H28.1211V36.6848H40.9625V20.293Z" fill="#204DE9"/>
<path d="M31.9225 32.8272H24.3199C21.9244 32.8272 19.9824 30.8852 19.9824 28.4898C19.9824 26.0943 21.9244 24.1523 24.3199 24.1523H31.9225C34.318 24.1523 36.26 26.0943 36.26 28.4898C36.26 30.8852 34.3181 32.8272 31.9225 32.8272Z" fill="#00A6FF"/>
<path d="M36.2603 28.4896C36.2603 29.6874 35.7749 30.7717 34.989 31.5566C34.2042 32.3414 33.1199 32.8268 31.922 32.8268H28.1211V24.1523H31.922C34.3177 24.1523 36.2603 26.0939 36.2603 28.4896Z" fill="#0083F4"/>
<path d="M24.5473 30.5457C25.6828 30.5457 26.6034 29.6252 26.6034 28.4897C26.6034 27.3541 25.6828 26.4336 24.5473 26.4336C23.4117 26.4336 22.4912 27.3541 22.4912 28.4897C22.4912 29.6252 23.4117 30.5457 24.5473 30.5457Z" fill="#004EB0"/>
<path d="M31.6957 30.5457C32.8313 30.5457 33.7518 29.6252 33.7518 28.4897C33.7518 27.3541 32.8313 26.4336 31.6957 26.4336C30.5602 26.4336 29.6396 27.3541 29.6396 28.4897C29.6396 29.6252 30.5602 30.5457 31.6957 30.5457Z" fill="#003C7D"/>
<path d="M35.5992 16.3216C35.5992 12.1917 32.2512 8.84375 28.1214 8.84375C23.9915 8.84375 20.6436 12.1917 20.6436 16.3216C20.6436 16.7299 20.6768 17.1304 20.7398 17.5211H35.5031C35.566 17.1305 35.5992 16.7299 35.5992 16.3216Z" fill="#5372F9"/>
<path d="M35.5987 16.3214C35.5987 16.7304 35.5654 17.1307 35.5028 17.5212H28.1211V8.84375C32.2509 8.84375 35.5987 12.1916 35.5987 16.3214Z" fill="#204DE9"/>
<path d="M32.1827 15.9739H24.0602C23.4884 15.9739 23.0205 15.506 23.0205 14.9342C23.0205 14.3624 23.4884 13.8945 24.0602 13.8945H32.1827C32.7545 13.8945 33.2224 14.3624 33.2224 14.9342C33.2224 15.506 32.7545 15.9739 32.1827 15.9739Z" fill="#FF9D1C"/>
<path d="M33.2217 14.9348C33.2217 15.2206 33.1042 15.4799 32.9163 15.6688C32.7284 15.8576 32.4681 15.9741 32.1824 15.9741H28.1211V13.8945H32.1824C32.7539 13.8945 33.2217 14.3623 33.2217 14.9348Z" fill="#CF7713"/>
</g>
<defs>
<clipPath id="clip0_164_36094">
<rect width="56" height="56" rx="28" fill="white"/>
</clipPath>
</defs>
</svg>
