<svg width="56" height="56" viewBox="0 0 56 56" fill="none" xmlns="http://www.w3.org/2000/svg">
<g clip-path="url(#clip0_924_33650)">
<rect width="56" height="56" rx="28" fill="#00A6FF"/>
<path d="M57.1712 33.3592C57.1712 33.0342 57.163 32.7112 57.1507 32.3893L41.5256 16.7236C41.2147 16.398 40.8044 16.1682 40.3433 16.0827L33.194 8.84375H22.2009V12.432L23.9237 14.2426H19.9132V17.1405H17.4512L16.9854 16.6726C16.5906 16.2849 16.0502 16.0453 15.453 16.0453C14.2434 16.0453 13.2627 17.026 13.2627 18.2356C13.2627 18.8402 13.5078 19.3872 13.904 19.7834L23.489 29.3587H16.5413V33.9337C15.5587 34.3457 14.8686 35.3165 14.8686 36.4485V44.1047C14.8686 44.8345 15.1555 45.4969 15.6225 45.9861L27.6798 58.0197C29.1206 58.2773 30.6039 58.4118 32.1186 58.4118C45.9548 58.4118 57.1712 47.1954 57.1712 33.3592Z" fill="#0073D9"/>
<path d="M39.9814 19.9375L39.7891 28.3513C39.7891 28.3513 39.7891 28.8334 40.2952 28.828C42.351 28.8045 40.4724 20.6115 40.4724 20.6115L39.9829 19.9375H39.9814Z" fill="#003C7D"/>
<path d="M41.0618 19.3506C40.7764 19.4392 40.3912 19.5655 40.3315 19.9012C40.2654 20.2713 40.5625 20.6076 40.9478 20.5376C41.3565 20.4646 41.7574 20.0593 41.6042 19.6266C41.5303 19.4171 41.2033 19.2316 40.9967 19.3657L41.0618 19.3506Z" fill="#B91C1C"/>
<path d="M46.7652 28.3254L47.4241 27.3224V19.4348L41.2551 19.3242L40.583 20.4481L46.494 20.6116L46.7652 28.3254Z" fill="#E4E4E4"/>
<path d="M46.7654 28.3233L46.4228 28.8255L40.6366 28.3233L40.2939 20.8694L40.6366 20.3672H46.7654V28.3233Z" fill="#003C7D"/>
<path d="M46.4223 20.8711H40.2939V28.8272H46.4223V20.8711Z" fill="#E0E0E2"/>
<path d="M40.2947 20.8704C40.2947 20.8704 39.8052 20.2145 40.05 19.7725C40.3926 19.1562 40.98 19.1562 40.98 19.1562H47.686L47.6551 26.9699L47.4158 27.4242L47.4246 19.4333L41.074 19.4622C40.863 19.5173 40.6824 19.6537 40.5718 19.8415C40.2947 20.2963 40.6374 20.3682 40.6374 20.3682L40.2947 20.8704Z" fill="#003C7D"/>
<path d="M47.4245 19.4336L46.7656 20.368V28.3241L47.4152 27.3354L47.4245 19.4336Z" fill="white"/>
<path d="M42.8301 22.9766C42.8443 23.3192 43.1017 24.0236 43.5643 24.7279C44.1703 25.6487 45.1615 26.3589 45.1615 26.3589L45.3191 25.6986C45.3191 25.6986 44.37 25.5101 43.7528 24.6677C42.9945 23.6325 42.9975 22.9766 42.9975 22.9766H42.8301Z" fill="#003C7D"/>
<path d="M44.0746 22.9766C44.079 23.3192 43.8607 24.0368 43.4383 24.7656C42.8837 25.7182 41.9331 26.4818 41.9331 26.4818L41.7373 25.8312C41.7373 25.8312 42.6747 25.5909 43.2444 24.7162C43.9449 23.6393 43.9062 22.9859 43.9062 22.9859L44.0746 22.9766Z" fill="#003C7D"/>
<path d="M44.6741 22.6758H42.1846V23.0537H44.6741V22.6758Z" fill="#003C7D"/>
<path d="M43.6266 22.2812H43.3613V23.0028H43.6266V22.2812Z" fill="#003C7D"/>
<path d="M38.8545 29.3582H31.3517V27.1289H24.0448V29.3582H16.542V34.8582H18.6887V31.0362H36.6788V34.8582H38.8545V29.3582Z" fill="#FF9D1C"/>
<path d="M38.8545 29.3582V34.858H36.679V31.0356H27.6982V27.1289H31.3514V29.3582H38.8545Z" fill="#CF7713"/>
<path d="M20.3214 44.105C20.3214 45.6106 19.1009 46.8312 17.5953 46.8312C16.0897 46.8312 14.8691 45.6106 14.8691 44.105V36.4488C14.8691 34.9432 16.0897 33.7227 17.5953 33.7227C19.1009 33.7227 20.3214 34.9432 20.3214 36.4488V44.105Z" fill="#00E8F2"/>
<path d="M40.5275 44.105C40.5275 45.6106 39.3069 46.8312 37.8013 46.8312C36.2957 46.8312 35.0752 45.6106 35.0752 44.105V36.4488C35.0752 34.9432 36.2957 33.7227 37.8013 33.7227C39.3069 33.7227 40.5275 34.9432 40.5275 36.4488V44.105Z" fill="#00C2C9"/>
<path d="M31.3523 12.332H24.0449V14.485H31.3523V12.332Z" fill="#FF9D1C"/>
<path d="M31.3514 12.332H27.6982V14.485H31.3514V12.332Z" fill="#CF7713"/>
<path d="M20.2115 17.1406H17.165V19.331H20.2115V17.1406Z" fill="#FF9D1C"/>
<path d="M15.453 20.4237C16.6627 20.4237 17.6434 19.443 17.6434 18.2333C17.6434 17.0236 16.6627 16.043 15.453 16.043C14.2433 16.043 13.2627 17.0236 13.2627 18.2333C13.2627 19.443 14.2433 20.4237 15.453 20.4237Z" fill="#00E8F2"/>
<path d="M38.231 17.1406H35.1846V19.331H38.231V17.1406Z" fill="#CF7713"/>
<path d="M39.9423 20.4237C41.152 20.4237 42.1326 19.443 42.1326 18.2333C42.1326 17.0236 41.152 16.043 39.9423 16.043C38.7326 16.043 37.752 17.0236 37.752 18.2333C37.752 19.443 38.7326 20.4237 39.9423 20.4237Z" fill="#00C2C9"/>
<path d="M27.9136 28.2054H27.483C23.32 28.2054 19.9141 24.7993 19.9141 20.6365V14.2422H35.4825V20.6365C35.4825 24.7994 32.0765 28.2054 27.9136 28.2054Z" fill="white"/>
<path d="M35.4822 14.2422V20.6365C35.4822 23.5635 33.7989 26.1167 31.3514 27.3752C30.318 27.9057 29.1495 28.2061 27.9135 28.2061H27.6982V14.2422H35.4822Z" fill="#E0E0E2"/>
<path d="M23.4402 22.7145C23.9547 22.7145 24.3717 22.2974 24.3717 21.783C24.3717 21.2686 23.9547 20.8516 23.4402 20.8516C22.9258 20.8516 22.5088 21.2686 22.5088 21.783C22.5088 22.2974 22.9258 22.7145 23.4402 22.7145Z" fill="#00A6FF"/>
<path d="M26.2791 22.7145C26.7935 22.7145 27.2106 22.2974 27.2106 21.783C27.2106 21.2686 26.7935 20.8516 26.2791 20.8516C25.7647 20.8516 25.3477 21.2686 25.3477 21.783C25.3477 22.2974 25.7647 22.7145 26.2791 22.7145Z" fill="#FF9D1C"/>
<path d="M29.117 22.7145C29.6314 22.7145 30.0484 22.2974 30.0484 21.783C30.0484 21.2686 29.6314 20.8516 29.117 20.8516C28.6026 20.8516 28.1855 21.2686 28.1855 21.783C28.1855 22.2974 28.6026 22.7145 29.117 22.7145Z" fill="#0073D9"/>
<path d="M31.9559 22.7145C32.4703 22.7145 32.8873 22.2974 32.8873 21.783C32.8873 21.2686 32.4703 20.8516 31.9559 20.8516C31.4414 20.8516 31.0244 21.2686 31.0244 21.783C31.0244 22.2974 31.4414 22.7145 31.9559 22.7145Z" fill="#CF7713"/>
<path d="M31.7589 19.2747H23.6364C23.0646 19.2747 22.5967 18.8068 22.5967 18.235C22.5967 17.6632 23.0646 17.1953 23.6364 17.1953H31.7589C32.3307 17.1953 32.7986 17.6632 32.7986 18.235C32.7986 18.8068 32.3307 19.2747 31.7589 19.2747Z" fill="#00A6FF"/>
<path d="M32.7988 18.2356C32.7988 18.5213 32.6814 18.7807 32.4935 18.9695C32.3056 19.1584 32.0453 19.2749 31.7595 19.2749H27.6982V17.1953H31.7595C32.331 17.1953 32.7988 17.6631 32.7988 18.2356Z" fill="#0073D9"/>
<path d="M33.194 8.84375H22.2012V12.4321H33.194V8.84375Z" fill="white"/>
<path d="M33.1951 8.84375H27.6982V12.4314H33.1951V8.84375Z" fill="#E0E0E2"/>
</g>
<defs>
<clipPath id="clip0_924_33650">
<rect width="56" height="56" rx="28" fill="white"/>
</clipPath>
</defs>
</svg>
