<svg width="56" height="56" viewBox="0 0 56 56" fill="none" xmlns="http://www.w3.org/2000/svg">
<g clip-path="url(#clip0_164_35639)">
<rect width="56" height="56" rx="28" fill="#00E8F2"/>
<path d="M63.2275 38.8119C63.2275 37.2645 63.0862 35.7502 62.8176 34.2803L44.538 15.9774C44.2682 15.6776 43.9426 15.4232 43.5694 15.2313L42.6666 16.9868L43.3028 17.6533C43.3707 17.8024 43.4127 17.9641 43.4248 18.1324L40.487 15.2313C40.3283 15.3128 40.1792 15.4066 40.0382 15.5093L32.9496 8.40521C32.2902 7.76382 31.3917 7.36719 30.4047 7.36719H22.3659C20.3546 7.36719 18.709 9.01273 18.709 11.0241C18.709 12.0166 19.1101 12.9197 19.7579 13.5801L23.2348 17.0537C21.0806 17.644 19.1712 18.8248 17.6901 20.4112L13.1876 15.9075C12.931 15.6379 12.6275 15.4079 12.2836 15.2311L11.3808 16.9866L12.0093 17.6363C12.0831 17.793 12.1282 17.9641 12.1396 18.1423L9.20121 15.231C8.07052 15.8124 7.36816 16.9624 7.36816 18.2324C7.36816 19.1834 7.76392 20.0432 8.39914 20.657L9.75531 21.9844V25.7264C9.75531 26.7599 10.1738 27.6972 10.8498 28.3787L15.2882 32.8161C15.8826 34.3527 16.7871 35.7344 17.9247 36.8855L23.339 42.2949H18.6134C17.5697 42.2949 16.7156 43.1488 16.7156 44.1926C16.7156 44.6676 16.8929 45.1028 17.1843 45.4362L35.5102 63.7232C36.386 63.816 37.2747 63.8645 38.1748 63.8645C52.011 63.8645 63.2275 52.6481 63.2275 38.8119Z" fill="#00C2C9"/>
<path d="M28.4903 14.3867H24.2812V17.084H28.4903V14.3867Z" fill="#004EB0"/>
<path d="M28.4899 14.3867H26.3857V17.0843H28.4899V14.3867Z" fill="#003C7D"/>
<path d="M30.4047 14.681H22.3659C20.3546 14.681 18.709 13.0354 18.709 11.0241C18.709 9.01283 20.3545 7.36719 22.3659 7.36719H30.4047C32.416 7.36719 34.0616 9.01273 34.0616 11.0241C34.0616 13.0354 32.4161 14.681 30.4047 14.681Z" fill="white"/>
<path d="M34.062 11.0237C34.062 12.0291 33.6504 12.9435 32.9879 13.6068C32.3246 14.2694 31.4104 14.6809 30.4048 14.6809H26.3857V7.36719H30.4048C32.4164 7.36719 34.062 9.01283 34.062 11.0237Z" fill="#E0E0E2"/>
<path d="M41.0414 20.5859H43.0155V25.7274C43.0155 27.8058 41.3247 29.4966 39.2463 29.4966H37.4434V27.5226H39.2463C40.2361 27.5226 41.0413 26.7173 41.0413 25.7274V20.5859H41.0414Z" fill="#003C7D"/>
<path d="M40.4873 15.2344L41.3901 16.9899C40.9203 17.2314 40.6284 17.7089 40.6284 18.2358C40.6284 19.0078 41.2564 19.6359 42.0285 19.6359C42.8005 19.6359 43.4286 19.0078 43.4286 18.2358C43.4286 17.7089 43.1367 17.2314 42.6668 16.9899L43.5696 15.2344C44.7003 15.8158 45.4027 16.9658 45.4027 18.2358C45.4027 20.0963 43.889 21.61 42.0285 21.61C40.1679 21.61 38.6543 20.0963 38.6543 18.2358C38.6543 16.9658 39.3567 15.8158 40.4873 15.2344Z" fill="#E0E0E2"/>
<path d="M9.75596 20.5859H11.73V25.7274C11.73 26.7173 12.5353 27.5226 13.5251 27.5226H15.3279V29.4966H13.5251C11.4468 29.4966 9.75586 27.8058 9.75586 25.7274L9.75596 20.5859Z" fill="#004EB0"/>
<path d="M9.20121 15.2344L10.104 16.9899C9.63415 17.2314 9.34223 17.7089 9.34223 18.2358C9.34223 19.0078 9.97031 19.6359 10.7423 19.6359C11.5144 19.6359 12.1425 19.0078 12.1425 18.2358C12.1425 17.7089 11.8506 17.2314 11.3807 16.9899L12.2835 15.2344C13.4142 15.8158 14.1165 16.9658 14.1165 18.2358C14.1165 20.0963 12.6029 21.61 10.7423 21.61C8.88179 21.61 7.36816 20.0963 7.36816 18.2358C7.36826 16.9658 8.07062 15.8158 9.20121 15.2344Z" fill="white"/>
<path d="M29.1513 39.7969H23.6191V42.4709H29.1513V39.7969Z" fill="#004EB0"/>
<path d="M29.1523 39.7969H26.3857V42.4709H29.1523V39.7969Z" fill="#003C7D"/>
<path d="M34.1575 46.0923H18.6144C17.5707 46.0923 16.7168 45.2384 16.7168 44.1946C16.7168 43.1509 17.5707 42.2969 18.6145 42.2969H34.1576C35.2013 42.2969 36.0554 43.1508 36.0554 44.1946C36.0553 45.2384 35.2013 46.0923 34.1575 46.0923Z" fill="#FF9D1C"/>
<path d="M36.0554 44.1938C36.0554 44.7159 35.8419 45.1899 35.4973 45.5345C35.1536 45.8782 34.6795 46.0917 34.1574 46.0917H26.3857V42.2969H34.1574C35.2006 42.2969 36.0554 43.1506 36.0554 44.1938Z" fill="#CF7713"/>
<path d="M26.3853 40.425C32.9554 40.425 38.2814 35.0989 38.2814 28.5289C38.2814 21.9589 32.9554 16.6328 26.3853 16.6328C19.8153 16.6328 14.4893 21.9589 14.4893 28.5289C14.4893 35.0989 19.8153 40.425 26.3853 40.425Z" fill="white"/>
<path d="M38.2818 28.5289C38.2818 35.0993 32.9552 40.425 26.3857 40.425V16.6328C32.9552 16.6328 38.2818 21.9594 38.2818 28.5289Z" fill="#E0E0E2"/>
<path d="M26.385 36.565C30.8234 36.565 34.4215 32.967 34.4215 28.5286C34.4215 24.0902 30.8234 20.4922 26.385 20.4922C21.9467 20.4922 18.3486 24.0902 18.3486 28.5286C18.3486 32.967 21.9467 36.565 26.385 36.565Z" fill="#004EB0"/>
<path d="M34.4231 28.5286C34.4231 28.6578 34.4192 28.787 34.4133 28.9152C34.2127 33.1741 30.6956 36.566 26.3857 36.566V20.4922C30.7005 20.4922 34.2215 23.8919 34.4143 28.1587C34.4153 28.1743 34.4153 28.191 34.4163 28.2066C34.4182 28.2517 34.4202 28.2976 34.4202 28.3427C34.4222 28.4043 34.4231 28.4669 34.4231 28.5286Z" fill="#003C7D"/>
<path d="M22.7563 13.5811C24.1681 13.5811 25.3125 12.4366 25.3125 11.0249C25.3125 9.61318 24.1681 8.46875 22.7563 8.46875C21.3446 8.46875 20.2002 9.61318 20.2002 11.0249C20.2002 12.4366 21.3446 13.5811 22.7563 13.5811Z" fill="#00E8F2"/>
<path d="M22.7558 12.3495C23.4877 12.3495 24.081 11.7562 24.081 11.0244C24.081 10.2925 23.4877 9.69922 22.7558 9.69922C22.024 9.69922 21.4307 10.2925 21.4307 11.0244C21.4307 11.7562 22.024 12.3495 22.7558 12.3495Z" fill="#004EB0"/>
<path d="M30.0161 13.5811C31.4278 13.5811 32.5723 12.4366 32.5723 11.0249C32.5723 9.61318 31.4278 8.46875 30.0161 8.46875C28.6044 8.46875 27.46 9.61318 27.46 11.0249C27.46 12.4366 28.6044 13.5811 30.0161 13.5811Z" fill="#00C2C9"/>
<path d="M30.0166 12.3495C30.7484 12.3495 31.3417 11.7562 31.3417 11.0244C31.3417 10.2925 30.7484 9.69922 30.0166 9.69922C29.2847 9.69922 28.6914 10.2925 28.6914 11.0244C28.6914 11.7562 29.2847 12.3495 30.0166 12.3495Z" fill="#003C7D"/>
</g>
<defs>
<clipPath id="clip0_164_35639">
<rect width="56" height="56" rx="28" fill="white"/>
</clipPath>
</defs>
</svg>
