<svg width="56" height="56" viewBox="0 0 56 56" fill="none" xmlns="http://www.w3.org/2000/svg">
<g clip-path="url(#clip0_164_35655)">
<rect width="56" height="56" rx="28" fill="#FF9D1C"/>
<path d="M63.3682 38.3193C63.3682 37.7853 63.3496 37.2557 63.3167 36.73L33.9971 7.36719H19.1877V10.0408L21.6664 12.6199V13.2693H19.3556C16.86 13.2693 14.7815 15.1449 14.4502 17.5592H12.4366V19.7859H12.0091C9.94486 19.7859 8.2655 21.4694 8.2655 23.5388V27.7875C6.89447 28.2089 5.89453 29.4894 5.89453 31.0001C5.89453 31.8289 6.19456 32.6061 6.71752 33.2065L16.3597 42.8676C16.4014 43.402 16.6316 43.8832 16.9841 44.2441L35.9983 63.2534C36.783 63.3276 37.5778 63.3672 38.3819 63.3672C52.1815 63.3672 63.3682 52.1529 63.3682 38.3193Z" fill="#CF7713"/>
<path d="M45.6839 28.0012H43.0734V23.7496C43.0734 22.9311 42.0085 22.2652 40.6995 22.2652H38.3154V20.6328H40.6995C43.4479 20.6328 45.6839 22.031 45.6839 23.7496V28.0012Z" fill="#003C7D"/>
<path d="M9.45655 28.0012H7.36816V23.7496C7.36816 22.031 9.15693 20.6328 11.3556 20.6328H13.2629V22.2652H11.3556C10.3084 22.2652 9.45655 22.9312 9.45655 23.7496V28.0012Z" fill="#004EB0"/>
<path d="M10.1881 33.8947L9.3996 32.2716C9.80999 32.0482 10.0649 31.6069 10.0649 31.1197C10.0649 30.4059 9.51625 29.8251 8.8419 29.8251C8.16755 29.8251 7.61887 30.4059 7.61887 31.1197C7.61887 31.6069 7.87381 32.0482 8.2842 32.2716L7.49569 33.8947C6.50802 33.3571 5.89453 32.2938 5.89453 31.1197C5.89453 29.3995 7.21671 28 8.8419 28C10.4671 28 11.7893 29.3995 11.7893 31.1197C11.7893 32.2938 11.1758 33.3571 10.1881 33.8947Z" fill="white"/>
<path d="M45.5564 33.8947L44.7678 32.2716C45.1782 32.0482 45.4332 31.6069 45.4332 31.1197C45.4332 30.4059 44.8845 29.8251 44.2102 29.8251C43.5358 29.8251 42.9871 30.4059 42.9871 31.1197C42.9871 31.6069 43.2421 32.0482 43.6525 32.2716L42.8638 33.8947C41.8762 33.3571 41.2627 32.2938 41.2627 31.1197C41.2627 29.3995 42.5849 28 44.2101 28C45.8353 28 47.1574 29.3995 47.1574 31.1197C47.1575 32.2938 46.5439 33.3571 45.5564 33.8947Z" fill="#E0E0E2"/>
<path d="M13.2627 16.2109H11.7891V23.5794H13.2627V16.2109Z" fill="#00A6FF"/>
<path d="M41.2628 16.2109H38.3154V23.5794H41.2628V16.2109Z" fill="#0073D9"/>
<path d="M27.8065 30.5151V28H23.7732V30.5151H16.2109V33.8947H18.1267V31.9298H33.4531V33.8947H35.3688V30.5151H27.8065Z" fill="#004EB0"/>
<path d="M35.3685 30.5151V33.8947H33.5995V31.9298H26.5264V28H28.388V30.5151H35.3685Z" fill="#003C7D"/>
<path d="M25.0528 8.84375H22.1055V13.2648H25.0528V8.84375Z" fill="#004EB0"/>
<path d="M30.9474 8.84375H28V13.2648H30.9474V8.84375Z" fill="#003C7D"/>
<path d="M33.2258 29.4733H18.3523C15.553 29.4733 13.2627 26.997 13.2627 23.9706V17.2918C13.2627 14.2653 15.553 11.7891 18.3523 11.7891H33.2257C36.025 11.7891 38.3153 14.2653 38.3153 17.2918V23.9706C38.3154 26.997 36.0251 29.4733 33.2258 29.4733Z" fill="white"/>
<path d="M38.3158 17.2913V23.97C38.3158 26.9965 36.1598 29.4733 33.5251 29.4733H26.5264V11.7891H33.5251C36.1598 11.7891 38.3158 14.2647 38.3158 17.2913Z" fill="#E0E0E2"/>
<path d="M32.4213 23.5781H20.6318V26.5255H32.4213V23.5781Z" fill="#00E8F2"/>
<path d="M32.4211 23.5781H26.5264V26.5255H32.4211V23.5781Z" fill="#00C2C9"/>
<path d="M21.9244 22.5391H19.9902V25.6621H21.9244V22.5391Z" fill="#004EB0"/>
<path d="M25.5162 22.5391H23.582V25.6621H25.5162V22.5391Z" fill="#004EB0"/>
<path d="M29.108 22.5391H27.1738V25.6621H29.108V22.5391Z" fill="#003C7D"/>
<path d="M32.7008 22.5391H30.7666V25.6621H32.7008V22.5391Z" fill="#003C7D"/>
<path d="M30.6785 20.632H22.3747C21.4121 20.632 20.6318 19.6423 20.6318 18.4215C20.6318 17.2006 21.4121 16.2109 22.3747 16.2109H30.6785C31.641 16.2109 32.4213 17.2006 32.4213 18.4215C32.4214 19.6423 31.641 20.632 30.6785 20.632Z" fill="#00E8F2"/>
<path d="M32.4211 18.4215C32.4211 19.0317 32.2261 19.5841 31.9109 19.9839C31.5956 20.3847 31.1592 20.632 30.678 20.632H26.5264V16.2109H30.678C31.6412 16.2109 32.4211 17.201 32.4211 18.4215Z" fill="#00C2C9"/>
<path d="M23.5792 20.632C24.393 20.632 25.0528 19.6423 25.0528 18.4215C25.0528 17.2006 24.393 16.2109 23.5792 16.2109C22.7653 16.2109 22.1055 17.2006 22.1055 18.4215C22.1055 19.6423 22.7653 20.632 23.5792 20.632Z" fill="#004EB0"/>
<path d="M28.7368 20.632C29.1438 20.632 29.4737 19.6423 29.4737 18.4215C29.4737 17.2006 29.1438 16.2109 28.7368 16.2109C28.3299 16.2109 28 17.2006 28 18.4215C28 19.6423 28.3299 20.632 28.7368 20.632Z" fill="#003C7D"/>
<path d="M33.895 7.36719H19.1582V8.84087H33.895V7.36719Z" fill="white"/>
<path d="M33.8948 7.36719H26.5264V8.84087H33.8948V7.36719Z" fill="#E0E0E2"/>
<path d="M20.632 43.2322C20.632 44.5863 19.3124 45.684 17.6847 45.684C16.0568 45.684 14.7373 44.5863 14.7373 43.2322V36.3463C14.7373 34.9922 16.0569 33.8945 17.6847 33.8945C19.3125 33.8945 20.632 34.9923 20.632 36.3463V43.2322Z" fill="#00E8F2"/>
<path d="M36.842 43.2322C36.842 44.5863 35.8522 45.684 34.6314 45.684C33.4105 45.684 32.4209 44.5863 32.4209 43.2322V36.3463C32.4209 34.9922 33.4106 33.8945 34.6314 33.8945C35.8523 33.8945 36.842 34.9923 36.842 36.3463V43.2322Z" fill="#00C2C9"/>
<path d="M45.6822 29.4172V30.0293H45.1094C45.1094 30.0293 44.85 29.8251 44.1821 29.8251C43.5142 29.8251 42.9707 30.4059 42.9707 31.1197C42.9707 31.6069 43.2232 32.0482 43.6297 32.2716L42.8486 33.8947C41.8703 33.3571 41.2627 32.2938 41.2627 31.1197C41.2627 29.3995 42.5723 28 44.182 28C45.7917 28 45.6822 28.8051 45.6822 28.8051V29.4172Z" fill="#E0E0E2"/>
</g>
<defs>
<clipPath id="clip0_164_35655">
<rect width="56" height="56" rx="28" fill="white"/>
</clipPath>
</defs>
</svg>
