<svg width="24" height="24" viewBox="0 0 24 24" fill="none" xmlns="http://www.w3.org/2000/svg">
<path d="M8.59135 19.0227C7.73431 19.0626 7.00104 18.8165 6.40342 18.2254C5.8058 17.6342 5.5545 16.9042 5.59701 16.0377H5.31445C4.8231 16.0377 4.33176 16.0415 3.84041 16.0377C3.7424 16.0382 3.64524 16.0195 3.55449 15.9825C3.46375 15.9456 3.38119 15.8912 3.31153 15.8225C3.17085 15.6837 3.09126 15.495 3.09027 15.2977C3.08927 15.1005 3.16695 14.9109 3.30623 14.7707C3.4455 14.6305 3.63496 14.5512 3.83291 14.5502C4.40928 14.5452 4.98564 14.5502 5.57889 14.5502V13.0552H5.32884C4.35448 13.0552 3.3797 13.0552 2.40451 13.0552C1.93066 13.0552 1.5981 12.7438 1.6006 12.3077C1.6031 11.8717 1.93129 11.5684 2.41326 11.5684C3.38012 11.5684 4.34718 11.5684 5.31445 11.5684H5.58075V10.0734C4.99689 10.0734 4.4224 10.0734 3.84729 10.0734C3.66642 10.0761 3.4909 10.0122 3.35441 9.89393C3.21792 9.77563 3.13009 9.61127 3.10777 9.43239C3.07987 9.25408 3.11888 9.07177 3.21737 8.92032C3.31585 8.76886 3.4669 8.65888 3.64163 8.6114C3.7401 8.58983 3.84095 8.58103 3.94168 8.58524C4.48554 8.58524 5.0294 8.58524 5.59389 8.58524C5.5545 7.73434 5.79705 7.00242 6.39217 6.40817C6.98729 5.81391 7.71743 5.56039 8.58947 5.60337V5.37102C8.58947 4.8727 8.58947 4.37437 8.58947 3.87604C8.58947 3.43564 8.90204 3.11547 9.32962 3.11111C9.75721 3.10675 10.0798 3.43564 10.0841 3.88663C10.0841 4.44725 10.0841 5.00475 10.0841 5.58094H11.5844V5.33676C11.5844 4.36586 11.5844 3.39453 11.5844 2.42279C11.5844 1.94565 11.8914 1.61862 12.3346 1.61924C12.7778 1.61986 13.081 1.95063 13.0847 2.42902C13.0847 3.39287 13.0847 4.3563 13.0847 5.31932V5.58717H14.585C14.585 5.00849 14.585 4.43604 14.585 3.86358C14.5806 3.68732 14.6406 3.51546 14.7539 3.38001C14.8672 3.24456 15.026 3.15475 15.2008 3.1273C15.5865 3.06501 15.9222 3.26497 16.0416 3.63186C16.0684 3.72855 16.0807 3.8287 16.0778 3.92899C16.0816 4.4784 16.0778 5.02842 16.0778 5.60025C16.9286 5.56288 17.6644 5.80083 18.2608 6.39384C18.8571 6.98685 19.1128 7.71441 19.0703 8.58586H19.301C19.8079 8.58586 20.3149 8.58275 20.8219 8.58586C20.9198 8.58454 21.0169 8.60258 21.1078 8.63894C21.1986 8.6753 21.2813 8.72924 21.3511 8.79766C21.4208 8.86608 21.4763 8.94761 21.5142 9.03753C21.5521 9.12745 21.5718 9.22398 21.572 9.32152C21.574 9.42044 21.5559 9.51874 21.519 9.61058C21.482 9.70242 21.4269 9.78592 21.3569 9.85612C21.287 9.92631 21.2035 9.98177 21.1116 10.0192C21.0197 10.0566 20.9212 10.0753 20.8219 10.074C20.253 10.0784 19.6842 10.074 19.0972 10.074V11.569H19.3403C20.3155 11.569 21.2903 11.569 22.2647 11.569C22.741 11.569 23.073 11.8804 23.0723 12.3165C23.0717 12.7525 22.7391 13.0596 22.2597 13.0602C21.2924 13.0602 20.3253 13.0602 19.3585 13.0602H19.0903V14.5552C19.6717 14.5552 20.2461 14.5552 20.8213 14.5552C20.9995 14.5585 21.1708 14.625 21.3043 14.7427C21.4379 14.8604 21.525 15.0216 21.5501 15.1975C21.5751 15.3734 21.5365 15.5525 21.4411 15.7025C21.3457 15.8526 21.1997 15.9639 21.0294 16.0165C20.9311 16.0388 20.8302 16.0481 20.7294 16.044C20.1855 16.044 19.6417 16.044 19.0772 16.044C19.1153 16.8948 18.8721 17.6268 18.2783 18.2241C17.6844 18.8215 16.9524 19.0707 16.0953 19.0296C16.0903 19.1049 16.0816 19.1716 16.0816 19.2382C16.0816 19.6886 16.0816 20.1396 16.0816 20.5899C16.0816 21.1774 15.8115 21.5143 15.3396 21.5181C14.8676 21.5218 14.5894 21.1811 14.5857 20.6018V19.0383H13.0854V19.2843C13.0854 20.2561 13.0854 21.2274 13.0854 22.1983C13.0854 22.6717 12.7728 23.0025 12.3352 23C11.8976 22.9975 11.5919 22.6667 11.5913 22.1902C11.5913 21.2264 11.5913 20.2629 11.5913 19.2999V19.0345H10.091C10.091 19.617 10.091 20.19 10.091 20.7631C10.0906 20.9407 10.0266 21.1122 9.91044 21.2468C9.79429 21.3815 9.63366 21.4703 9.45756 21.4973C9.28146 21.5243 9.10148 21.4876 8.95009 21.394C8.79871 21.3004 8.68589 21.156 8.63198 20.9867C8.60698 20.8974 8.5956 20.8048 8.59823 20.712C8.5901 20.1608 8.59135 19.6095 8.59135 19.0227ZM11.847 13.5648C11.847 13.8382 11.8314 14.1011 11.8507 14.3615C11.8664 14.5504 11.9548 14.7259 12.0974 14.8513C12.2401 14.9767 12.4259 15.0423 12.6159 15.0342C12.806 15.0262 12.9855 14.9451 13.117 14.8081C13.2484 14.6711 13.3215 14.4887 13.321 14.2992C13.3254 13.282 13.3298 12.2641 13.321 11.2469C13.313 10.8275 13.1484 10.4262 12.8595 10.1211C12.5705 9.81603 12.1779 9.62913 11.7582 9.59684C11.3149 9.56819 10.8701 9.56819 10.4267 9.59684C9.59467 9.64917 8.90078 10.3188 8.8714 11.1485C8.83327 12.2037 8.84515 13.2608 8.8564 14.3166C8.85604 14.4139 8.87554 14.5103 8.91371 14.5998C8.95188 14.6894 9.00792 14.7702 9.07844 14.8375C9.14895 14.9048 9.23246 14.9571 9.32389 14.9913C9.41533 15.0254 9.51277 15.0406 9.6103 15.0361C10.0254 15.023 10.3217 14.7103 10.3279 14.2749C10.3279 14.0438 10.3279 13.8127 10.3279 13.5648H11.847ZM14.3394 12.2953C14.3394 12.9481 14.3394 13.6034 14.3394 14.2531C14.3394 14.7066 14.6369 15.0249 15.0595 15.0361C15.4821 15.0473 15.814 14.7383 15.8178 14.2886C15.8286 12.968 15.8286 11.6473 15.8178 10.3263C15.814 9.87777 15.479 9.56819 15.0614 9.57878C14.6438 9.58937 14.3419 9.90456 14.34 10.3587C14.3375 11.004 14.3394 11.6493 14.3394 12.2953Z" fill="#404040"/>
<path d="M10.3311 12.0536C10.3311 11.7963 10.3211 11.5503 10.3348 11.3061C10.3436 11.1448 10.4549 11.0569 10.6168 11.0569C10.9272 11.0532 11.2379 11.0532 11.5488 11.0569C11.7095 11.0569 11.8233 11.136 11.8301 11.3061C11.8408 11.5509 11.8301 11.797 11.8301 12.0536H10.3311Z" fill="#404040"/>
</svg>
