<svg width="24" height="24" viewBox="0 0 24 24" fill="none" xmlns="http://www.w3.org/2000/svg">
<path d="M21.6918 12.2889C21.6538 12.3809 21.5989 12.4638 21.5299 12.5328L18.5299 15.5328C18.3839 15.6788 18.1919 15.7528 17.9999 15.7528C17.8079 15.7528 17.6158 15.6798 17.4698 15.5328C17.1768 15.2398 17.1768 14.7648 17.4698 14.4718L19.1898 12.7518H12.7508V19.1908L14.4708 17.4708C14.7638 17.1778 15.2389 17.1778 15.5319 17.4708C15.8249 17.7638 15.8249 18.2389 15.5319 18.5319L12.5319 21.5319C12.4629 21.6009 12.3799 21.6557 12.2889 21.6937C12.1979 21.7317 12.0998 21.7518 12.0018 21.7518C11.9038 21.7518 11.807 21.7317 11.715 21.6937C11.623 21.6557 11.5408 21.6009 11.4718 21.5319L8.4718 18.5319C8.17879 18.2389 8.17879 17.7638 8.4718 17.4708C8.7648 17.1778 9.23983 17.1778 9.53283 17.4708L11.2528 19.1908V12.7518H4.81384L6.53381 14.4718C6.82681 14.7648 6.82681 15.2398 6.53381 15.5328C6.38781 15.6788 6.19578 15.7528 6.00378 15.7528C5.81178 15.7528 5.61999 15.6798 5.47399 15.5328L2.47399 12.5328C2.40499 12.4638 2.34988 12.3809 2.31188 12.2889C2.23588 12.1059 2.23588 11.8989 2.31188 11.7159C2.34988 11.6239 2.40499 11.5408 2.47399 11.4718L5.47399 8.4718C5.76699 8.17879 6.24178 8.17879 6.53478 8.4718C6.82778 8.7648 6.82778 9.23983 6.53478 9.53283L4.81481 11.2528H11.2538V4.81384L9.53381 6.53381C9.24081 6.82681 8.76577 6.82681 8.47277 6.53381C8.17977 6.24081 8.17977 5.76577 8.47277 5.47277L11.4728 2.47277C11.5418 2.40377 11.6249 2.34891 11.7169 2.31091C11.8999 2.23491 12.1069 2.23491 12.2899 2.31091C12.3819 2.34891 12.4648 2.40377 12.5338 2.47277L15.5338 5.47277C15.8268 5.76577 15.8268 6.24081 15.5338 6.53381C15.3878 6.67981 15.1958 6.75378 15.0038 6.75378C14.8118 6.75378 14.62 6.68081 14.474 6.53381L12.7538 4.81384V11.2528H19.193L17.4728 9.53283C17.1798 9.23983 17.1798 8.7648 17.4728 8.4718C17.7658 8.17879 18.2408 8.17879 18.5338 8.4718L21.5338 11.4718C21.6028 11.5408 21.6579 11.6239 21.6959 11.7159C21.7679 11.8989 21.7678 12.1049 21.6918 12.2889Z" fill="white"/>
</svg>
