<svg width="24" height="24" viewBox="0 0 24 24" fill="none" xmlns="http://www.w3.org/2000/svg">
<path d="M12 10.751C13.333 10.751 14.417 9.66698 14.417 8.33398C14.417 7.00098 13.333 5.91699 12 5.91699C10.667 5.91699 9.58304 7.00098 9.58304 8.33398C9.58304 9.66698 10.667 10.751 12 10.751ZM12 7.41699C12.505 7.41699 12.917 7.82798 12.917 8.33398C12.917 8.83998 12.506 9.25098 12 9.25098C11.494 9.25098 11.083 8.83998 11.083 8.33398C11.083 7.82798 11.495 7.41699 12 7.41699ZM20.964 7.37598C20.456 7.05998 19.802 7.04108 19.214 7.33008L18.061 7.90698C17.84 4.75198 15.209 2.25 11.999 2.25C8.87402 2.25 6.29502 4.61903 5.95602 7.65503L3.65503 8.81006C2.78803 9.24506 2.24902 10.1181 2.24902 11.0891V19.5C2.24902 20.113 2.55903 20.6709 3.07703 20.9939C3.59403 21.3159 4.23204 21.347 4.78604 21.074L8.18903 19.3621C8.27003 19.3241 8.34402 19.303 8.43802 19.302C8.53902 19.296 8.61104 19.3059 8.68704 19.3359L14.778 21.613C15.018 21.706 15.261 21.752 15.462 21.752C15.511 21.752 15.557 21.7499 15.6 21.7439C15.883 21.7439 16.161 21.6779 16.467 21.5339L20.346 19.584C21.212 19.148 21.75 18.2749 21.75 17.3059V8.89111C21.75 8.23911 21.464 7.68698 20.964 7.37598ZM12 3.75C14.527 3.75 16.583 5.80698 16.583 8.33398C16.583 8.53298 16.565 8.72506 16.538 8.91406V8.91504C16.197 11.302 13.81 12.906 12 14.103C10.046 12.812 7.41702 11.047 7.41702 8.33398C7.41702 5.80698 9.47303 3.75 12 3.75ZM4.11902 19.731C4.00802 19.786 3.91503 19.749 3.87003 19.72C3.82503 19.692 3.75003 19.626 3.75003 19.5V11.0891C3.75003 10.6901 3.97204 10.3299 4.32904 10.1509L6.00903 9.30811C6.22803 10.5661 6.85202 11.623 7.65002 12.52V17.9719C7.61102 17.9879 7.57302 17.9949 7.53302 18.0139L4.11902 19.731ZM9.22104 17.9341C9.19804 17.9251 9.17302 17.923 9.15002 17.915V13.9199C9.86402 14.4879 10.597 14.9731 11.232 15.3931L11.584 15.626C11.71 15.71 11.855 15.752 12 15.752C12.145 15.752 12.29 15.71 12.416 15.626L12.768 15.3931C13.403 14.9741 14.136 14.4879 14.85 13.9199V20.0381L9.22104 17.9341ZM20.25 17.3059C20.25 17.7049 20.028 18.0649 19.672 18.2439L16.35 19.9141V12.52C17.075 11.706 17.661 10.7599 17.927 9.65088L19.881 8.6731C20.009 8.6101 20.119 8.61593 20.172 8.64893C20.242 8.69293 20.25 8.83311 20.25 8.89111V17.3059Z" fill="#404040"/>
</svg>
