<svg width="28" height="28" viewBox="0 0 28 28" fill="none" xmlns="http://www.w3.org/2000/svg">
<g clip-path="url(#clip0_1519_66039)">
<path d="M12.9577 12.7605L0.379531 7.46445C0.199336 7.38854 6.7176e-10 7.52089 6.7176e-10 7.71645V21.875C-6.85057e-06 22.0499 0.0523929 22.2207 0.150438 22.3655C0.248482 22.5103 0.387673 22.6224 0.550047 22.6874L12.75 27.5674C12.9296 27.6392 13.125 27.5069 13.125 27.3135V13.0125C13.125 12.9587 13.1091 12.9061 13.0793 12.8613C13.0496 12.8164 13.0072 12.7814 12.9577 12.7605ZM14.1061 11.2559L26.2639 6.13686C26.4825 6.04487 26.4883 5.73731 26.2735 5.63707L14.37 0.0820742C14.2542 0.028015 14.1279 0 14 0C13.8721 0 13.7458 0.028015 13.63 0.0820742L1.72654 5.63701C1.51167 5.73725 1.51752 6.04482 1.73605 6.1368L13.8939 11.2559C13.9617 11.2845 14.0383 11.2845 14.1061 11.2559ZM21.875 14C24.1888 14 26.2725 15.0034 27.7145 16.5976C27.8153 16.709 28 16.6382 28 16.488V7.71645C28 7.52089 27.8007 7.38854 27.6205 7.46445L15.0423 12.7605C14.9927 12.7814 14.9504 12.8164 14.9207 12.8612C14.8909 12.9061 14.875 12.9587 14.875 13.0125V17.6497C14.875 17.8147 15.091 17.8762 15.178 17.736C16.5678 15.4954 19.05 14 21.875 14Z" fill="white"/>
<path d="M21.875 15.75C18.4977 15.75 15.75 18.4977 15.75 21.875C15.75 25.2523 18.4977 28 21.875 28C25.2523 28 28 25.2523 28 21.875C28 18.4977 25.2523 15.75 21.875 15.75ZM23.8062 22.5688C24.1479 22.9105 24.1479 23.4645 23.8062 23.8062C23.6353 23.9771 23.4114 24.0625 23.1875 24.0625C22.9636 24.0625 22.7397 23.9771 22.5688 23.8062L21.875 23.1124L21.1812 23.8062C21.0103 23.9771 20.7864 24.0625 20.5625 24.0625C20.3386 24.0625 20.1147 23.9771 19.9438 23.8062C19.6021 23.4645 19.6021 22.9105 19.9438 22.5688L20.6376 21.875L19.9438 21.1812C19.6021 20.8395 19.6021 20.2855 19.9438 19.9438C20.2855 19.6021 20.8395 19.6021 21.1812 19.9438L21.875 20.6375L22.5688 19.9437C22.9105 19.602 23.4645 19.602 23.8062 19.9437C24.148 20.2855 24.148 20.8394 23.8062 21.1812L23.1124 21.875L23.8062 22.5688Z" fill="white"/>
</g>
<defs>
<clipPath id="clip0_1519_66039">
<rect width="28" height="28" fill="white"/>
</clipPath>
</defs>
</svg>
