<svg width="28" height="28" viewBox="0 0 28 28" fill="none" xmlns="http://www.w3.org/2000/svg">
<path d="M14.3375 11.9904C14.8961 12.1407 15.373 12.5051 15.6649 13.0045C15.9576 13.5094 16.0363 14.0974 15.8863 14.6605C15.7362 15.2235 15.3761 15.6947 14.8726 15.9874L13.1335 16.9963L18.6954 17.8643L22.3433 15.7485V5.24241C22.3436 5.17415 22.3304 5.1065 22.3044 5.04337C22.2785 4.98024 22.2403 4.92286 22.192 4.87456C22.1438 4.82625 22.0865 4.78795 22.0234 4.76188C21.9603 4.73582 21.8927 4.72248 21.8244 4.72266H17.7846V6.47266C17.7846 6.58869 17.7385 6.69997 17.6564 6.78202C17.5744 6.86406 17.4631 6.91016 17.3471 6.91016H13.7784C13.6623 6.91016 13.5511 6.86406 13.469 6.78202C13.387 6.69997 13.3409 6.58869 13.3409 6.47266V4.72266H9.301C9.16322 4.72289 9.03116 4.77772 8.93374 4.87514C8.83631 4.97257 8.78148 5.10463 8.78125 5.24241V14.475L12.6829 12.2122C13.1838 11.9236 13.7782 11.844 14.3375 11.9904ZM13.242 8.69778C13.2826 8.65712 13.3308 8.62486 13.3839 8.60285C13.437 8.58084 13.4939 8.56951 13.5513 8.56951C13.6088 8.56951 13.6657 8.58084 13.7187 8.60285C13.7718 8.62486 13.82 8.65712 13.8606 8.69778L15.0983 9.93503L17.2635 7.76985C17.3455 7.68781 17.4568 7.64172 17.5728 7.64172C17.6888 7.64172 17.8001 7.68781 17.8821 7.76985C17.9642 7.85188 18.0102 7.96314 18.0102 8.07916C18.0102 8.19517 17.9642 8.30644 17.8821 8.38847L15.4076 10.863C15.3671 10.9037 15.3189 10.9361 15.2658 10.9582C15.2127 10.9802 15.1558 10.9916 15.0983 10.9916C15.0408 10.9916 14.9839 10.9802 14.9308 10.9582C14.8777 10.9361 14.8295 10.9037 14.789 10.863L13.242 9.31641C13.2013 9.27581 13.1691 9.2276 13.1471 9.17452C13.1251 9.12145 13.1137 9.06455 13.1137 9.0071C13.1137 8.94964 13.1251 8.89274 13.1471 8.83967C13.1691 8.78659 13.2013 8.73838 13.242 8.69778Z" fill="white"/>
<path d="M14.2162 4.72266H16.9099V6.03516H14.2162V4.72266ZM25.537 16.4183C25.4512 16.2696 25.3368 16.1393 25.2004 16.035C25.0639 15.9308 24.9081 15.8547 24.742 15.8111C24.4068 15.7236 24.0506 15.7713 23.7502 15.9441L19.0007 18.6986C18.914 18.7489 18.8127 18.7679 18.7137 18.7524L11.7776 17.67C11.6882 17.6561 11.6054 17.6148 11.5404 17.5519C11.4755 17.4889 11.4316 17.4074 11.4149 17.3185C11.3983 17.2296 11.4095 17.1377 11.4472 17.0555C11.4849 16.9733 11.5471 16.9047 11.6253 16.8593L14.4337 15.2305C14.5823 15.1447 14.7126 15.0302 14.8168 14.8938C14.921 14.7574 14.9972 14.6016 15.0409 14.4356C15.0854 14.2698 15.0966 14.0968 15.0738 13.9266C15.0511 13.7565 14.9948 13.5925 14.9083 13.4442C14.7335 13.1449 14.4477 12.9266 14.113 12.8365C13.7779 12.7492 13.4219 12.797 13.1216 12.9695L6.86097 16.6003V21.9046H18.6547L18.6678 21.9007C18.6809 21.8972 18.6945 21.8941 18.7076 21.8915L25.0623 18.2055C25.3642 18.0305 25.5798 17.7479 25.6695 17.4106C25.7592 17.0733 25.7124 16.7207 25.537 16.4183ZM2.28516 14.9987H5.98684V23.277H2.28516V14.9987Z" fill="white"/>
</svg>
