<svg width="28" height="28" viewBox="0 0 28 28" fill="none" xmlns="http://www.w3.org/2000/svg">
<g clip-path="url(#clip0_1519_66027)">
<path d="M20.5629 15.4191L19.7203 12.9613C19.6938 12.8854 19.6515 12.8159 19.5963 12.7575C19.5584 13.3246 19.1006 13.7881 18.519 13.8179C18.3788 13.825 18.2384 13.8287 18.0981 13.8289H18.0852C17.716 13.8292 17.3473 13.8023 16.9821 13.7486C16.9801 13.822 16.9923 13.895 17.0181 13.9637C17.0715 14.1049 17.1787 14.2192 17.3163 14.2813C17.4539 14.3434 17.6105 14.3483 17.7517 14.295V14.2948L18.8337 13.8858L21.4015 21.3744C21.846 20.8885 22.4077 20.5194 23.0486 20.3021C23.4581 20.1627 23.8877 20.0915 24.3203 20.0913C24.9862 20.0912 25.6413 20.2591 26.2251 20.5795C26.8089 20.8999 27.3024 21.3624 27.66 21.9242C28.0857 21.9038 28.1947 21.6545 27.5106 20.7631C26.4076 19.3257 24.8733 19.0471 23.7942 19.0615C23.7264 18.879 23.6564 18.6882 23.5834 18.4865C22.9222 16.6581 21.4371 15.7873 20.5629 15.4191ZM15.4032 4.14253C15.4032 4.15016 15.4035 4.15801 15.4041 4.16678C15.4333 4.71749 15.5586 5.1011 15.5604 5.48164C15.5609 5.67788 15.523 5.87378 15.4162 6.07196C15.4055 6.09168 15.3892 6.10783 15.3694 6.11841C15.0562 6.28597 14.7196 6.33856 14.3772 6.33856C14.078 6.33833 13.7726 6.29928 13.4643 6.25899C13.1767 6.22154 12.9227 6.16235 12.6962 6.08175C13.056 6.54832 13.5663 6.87583 14.1404 7.00856C15.5177 7.32934 16.8941 6.47276 17.2152 5.09552C17.3522 4.51022 17.2781 3.89532 17.0058 3.35938C16.5473 3.41561 15.9301 3.52978 15.6187 3.7703C15.4765 3.87947 15.4045 3.99421 15.4032 4.14253ZM11.337 9.50488L11.3363 9.50328L11.3314 9.49281C11.2054 9.21609 11.1949 8.90669 11.3016 8.62212C11.4082 8.33754 11.6196 8.11136 11.8962 7.98569C12.0439 7.91797 12.2045 7.88302 12.367 7.88324C12.8124 7.88324 13.2193 8.14505 13.4036 8.55029L13.4091 8.56156C13.4176 8.57875 13.4316 8.60641 13.4511 8.64295C13.513 8.75843 13.5795 8.87136 13.6505 8.98148C13.7937 9.2046 13.9507 9.4185 14.1208 9.62189C14.326 8.54608 13.8935 7.35951 12.9908 7.13469C12.019 6.89234 10.6104 7.42018 10.0372 9.08678C9.26262 11.3833 9.09608 12.878 9.39045 15.4068C9.67514 16.8718 10.5349 17.2856 11.4012 17.386C11.405 17.3866 11.4087 17.3878 11.4125 17.3883L15.7291 18.0595L17.3461 22.1581C17.5668 22.7177 18.1028 23.0592 18.6701 23.0592C18.8438 23.0592 19.0205 23.0272 19.192 22.9596C19.9228 22.6711 20.2816 21.8447 19.9933 21.1139L18.0771 16.257C17.9857 16.0263 17.8357 15.8234 17.642 15.6684C17.4482 15.5133 17.2173 15.4116 16.9722 15.3731L13.3957 14.8168C13.3771 13.9775 13.4696 13.1083 13.6017 12.2802C13.3582 12.0887 13.1263 11.8829 12.9071 11.6639C11.9462 10.7072 11.4625 9.76953 11.337 9.50488Z" fill="white"/>
<path d="M18.0836 13.6009H18.0965C18.2318 13.6009 18.3682 13.5971 18.5057 13.5902C18.744 13.5739 18.9663 13.4648 19.1248 13.2862C19.2834 13.1076 19.3654 12.8739 19.3533 12.6354C19.3412 12.3969 19.2358 12.1727 19.06 12.0111C18.8842 11.8496 18.6519 11.7635 18.4133 11.7715C18.3043 11.7771 18.1988 11.7797 18.0965 11.7797C16.3518 11.7759 15.1666 11.0112 14.3493 10.2092C14.0127 9.8743 13.7136 9.50376 13.4573 9.1041C13.3833 8.9888 13.3137 8.87071 13.2487 8.75008C13.2328 8.72056 13.2175 8.69073 13.2028 8.66061L13.1947 8.64433C13.1452 8.53548 13.0748 8.43745 12.9874 8.35583C12.9 8.27422 12.7974 8.21063 12.6854 8.16868C12.5734 8.12674 12.4543 8.10727 12.3348 8.11138C12.2153 8.11549 12.0977 8.14311 11.9889 8.19265C11.88 8.24212 11.782 8.31255 11.7003 8.39992C11.6187 8.4873 11.5551 8.5899 11.5131 8.70187C11.4712 8.81384 11.4517 8.93298 11.4558 9.05248C11.4599 9.17199 11.4875 9.28952 11.537 9.39835C11.5673 9.46107 12.0253 10.4663 13.0669 11.5025C14.0972 12.5328 15.7733 13.6008 18.0836 13.6009ZM8.40436 16.7023V9.61406C8.40436 9.45296 8.34037 9.29845 8.22646 9.18452C8.11256 9.07059 7.95806 9.00657 7.79696 9.00654H0.607401C0.446288 9.0066 0.291793 9.07065 0.17789 9.1846C0.0639866 9.29854 -6.41227e-10 9.45306 1.06673e-08 9.61417V16.7024C-1.49396e-05 16.7822 0.0156849 16.8612 0.046203 16.9349C0.0767211 17.0086 0.12146 17.0756 0.177864 17.132C0.234267 17.1884 0.301232 17.2332 0.374933 17.2637C0.448633 17.2942 0.527627 17.3099 0.607401 17.3099H7.79696C7.87674 17.3099 7.95575 17.2942 8.02945 17.2637C8.10316 17.2331 8.17013 17.1884 8.22654 17.132C8.28294 17.0755 8.32768 17.0085 8.35819 16.9348C8.3887 16.8611 8.40439 16.7821 8.40436 16.7023ZM10.6712 22.9635C10.0697 21.1897 8.14448 20.2393 6.37054 20.8407C4.59683 21.4421 3.64634 23.3677 4.24783 25.1414C4.84919 26.9151 6.77453 27.8656 8.54847 27.2642C10.3222 26.6627 11.2726 24.7372 10.6712 22.9635ZM7.88962 25.3212C7.18887 25.5589 6.42803 25.1832 6.19058 24.4826C5.95313 23.7819 6.32865 23.0211 7.02917 22.7836C7.72991 22.5459 8.49076 22.9217 8.72821 23.6222C8.966 24.3229 8.59047 25.0836 7.88962 25.3212ZM22.5574 15.2277C23.516 15.2277 23.516 11.7559 22.5574 11.7559C21.5987 11.7559 20.8215 12.533 20.8215 13.4918C20.8215 14.4506 21.5987 15.2277 22.5574 15.2277Z" fill="white"/>
<path d="M20.403 23.457H13.1453C12.5178 22.1911 12.302 20.8988 12.2305 20.0581C12.4169 20.0011 12.5532 19.8297 12.5532 19.6247V18.3725C12.5532 18.2518 12.5053 18.1359 12.4199 18.0506C12.3345 17.9652 12.2187 17.9172 12.0979 17.9172H2.82069C2.69993 17.9172 2.58411 17.9652 2.49872 18.0506C2.41333 18.1359 2.36536 18.2518 2.36536 18.3725V19.6247C2.36536 19.7454 2.41333 19.8612 2.49872 19.9466C2.58411 20.032 2.69993 20.08 2.82069 20.08H2.87088C2.3764 21.2933 1.61328 23.3966 1.61328 24.823H3.57595C3.40521 23.9712 3.5179 23.0917 3.90879 22.2998C4.37721 21.3512 5.18677 20.6415 6.18849 20.3021C6.59806 20.1626 7.02777 20.0914 7.46043 20.0914C8.28832 20.0912 9.09542 20.3506 9.76818 20.8331C10.4409 21.3156 10.9455 21.9969 11.2108 22.7811C11.4342 23.4381 11.4798 24.1426 11.343 24.823H20.4352C20.3445 24.3731 20.3336 23.9107 20.403 23.457ZM23.2304 20.8408C21.4567 21.4422 20.5062 23.3678 21.1077 25.1415C21.7091 26.9152 23.6344 27.8657 25.4084 27.2643C27.1821 26.6629 28.1326 24.7374 27.5311 22.9637C26.9297 21.1899 25.0044 20.2395 23.2304 20.8408ZM24.7496 25.3214C24.0489 25.5591 23.288 25.1834 23.0506 24.4828C22.8131 23.7821 23.1887 23.0213 23.8892 22.7838C24.5899 22.5461 25.3508 22.9219 25.5882 23.6224C25.8259 24.3231 25.4504 25.0838 24.7496 25.3214ZM17.2885 3.10086C17.2404 2.75962 17.1328 2.42947 16.9705 2.12544C16.5356 1.30939 15.7279 0.708929 14.7413 0.579844C14.6129 0.56304 14.4835 0.554636 14.354 0.554688H14.3536C12.8904 0.554688 11.6178 1.64052 11.4233 3.13125C11.3836 3.43186 11.3906 3.73682 11.4441 4.03529C11.5564 4.66603 11.7463 5.11896 12.0609 5.43541C12.3753 5.75164 12.8257 5.9456 13.493 6.03325C13.8006 6.07355 14.0975 6.111 14.3762 6.11066C14.6843 6.11066 14.9685 6.0657 15.2302 5.93377C15.3058 5.78146 15.3314 5.64031 15.3318 5.48163C15.3337 5.15607 15.2083 4.75755 15.176 4.17975C15.1752 4.16735 15.1747 4.15494 15.1746 4.14252C15.1737 3.90814 15.3037 3.71987 15.4807 3.58862C15.6585 3.45498 15.8879 3.36324 16.1297 3.29403C16.5477 3.17519 17.0073 3.12692 17.2885 3.10086Z" fill="white"/>
</g>
<defs>
<clipPath id="clip0_1519_66027">
<rect width="28" height="28" fill="white"/>
</clipPath>
</defs>
</svg>
