<svg width="28" height="28" viewBox="0 0 28 28" fill="none" xmlns="http://www.w3.org/2000/svg">
<g clip-path="url(#clip0_1519_65993)">
<path d="M22.4766 0.480469V5.46895H27.4647L22.4766 0.480469Z" fill="white"/>
<path d="M21.6562 7.10938C21.2032 7.10938 20.8359 6.74209 20.8359 6.28906V0H9.07812C7.72116 0 6.61719 1.10398 6.61719 2.46094V11.6314C6.88745 11.6069 7.16095 11.5938 7.4375 11.5938C10.2336 11.5938 12.7366 12.8721 14.393 14.875H23.2969C23.7499 14.875 24.1172 15.2423 24.1172 15.6953C24.1172 16.1483 23.7499 16.5156 23.2969 16.5156H15.4737C15.9978 17.5383 16.3202 18.6523 16.4233 19.7969H23.2969C23.7499 19.7969 24.1172 20.1642 24.1172 20.6172C24.1172 21.0702 23.7499 21.4375 23.2969 21.4375H16.4233C16.1779 24.1467 14.7305 26.5139 12.6196 28H25.4844C26.8413 28 27.9453 26.896 27.9453 25.5391V7.10938H21.6562ZM23.2969 11.5938H11.2656C10.8126 11.5938 10.4453 11.2265 10.4453 10.7734C10.4453 10.3204 10.8126 9.95312 11.2656 9.95312H23.2969C23.7499 9.95312 24.1172 10.3204 24.1172 10.7734C24.1172 11.2265 23.7499 11.5938 23.2969 11.5938Z" fill="white"/>
<path d="M7.4375 13.2344C3.36662 13.2344 0.0546875 16.5463 0.0546875 20.6172C0.0546875 24.6881 3.36662 28 7.4375 28C11.5084 28 14.8203 24.6881 14.8203 20.6172C14.8203 16.5463 11.5084 13.2344 7.4375 13.2344ZM9.625 21.4375H7.4375C6.98447 21.4375 6.61719 21.0702 6.61719 20.6172V17.3359C6.61719 16.8829 6.98447 16.5156 7.4375 16.5156C7.89053 16.5156 8.25781 16.8829 8.25781 17.3359V19.7969H9.625C10.078 19.7969 10.4453 20.1642 10.4453 20.6172C10.4453 21.0702 10.078 21.4375 9.625 21.4375Z" fill="white"/>
</g>
<defs>
<clipPath id="clip0_1519_65993">
<rect width="28" height="28" fill="white"/>
</clipPath>
</defs>
</svg>
