<svg width="28" height="28" viewBox="0 0 28 28" fill="none" xmlns="http://www.w3.org/2000/svg">
<g clip-path="url(#clip0_1519_66016)">
<path d="M5.27344 18.7983L12.8346 22.4483L12.8421 14.6725L5.27344 10.503V18.7983ZM15.0849 14.6737L15.0819 22.451L22.6834 18.7973V10.4998L15.0849 14.6737ZM6.59093 8.65024L13.9605 12.707L21.3551 8.65024L13.9604 5.10059L6.59093 8.65024Z" fill="white"/>
<path d="M13.9745 1.80259C16.6626 1.80259 19.2575 2.69721 21.3641 4.30769H20.2885V6.22222H23.7369C24.2966 6.22222 24.7487 5.73378 24.6935 5.17629L24.349 1.69968L22.4357 1.88491L22.5402 2.93809C20.1072 1.04988 17.0956 0 13.9745 0C6.35002 0 0 6.37078 0 13.9913C0 16.1281 0.46888 18.1795 1.39354 20.0887L3.01568 19.3029C2.21062 17.6407 1.80241 15.8536 1.80241 13.9913C1.80241 7.27043 7.26277 1.80259 13.9745 1.80259ZM26.604 7.91126L24.9818 8.69705C25.7869 10.3593 26.1951 12.1464 26.1951 14.0087C26.1951 20.7296 20.7347 26.1974 14.023 26.1974C11.3349 26.1974 8.74001 25.3028 6.63337 23.6923H7.72459V21.7778H4.26061C3.70085 21.7778 3.2489 22.2643 3.304 22.8218L3.64856 26.2964L5.56183 26.1151L5.45743 25.062C7.89026 26.9501 10.9019 28 14.023 28C21.6475 28 27.9975 21.6292 27.9975 14.0087C27.9975 11.872 27.5286 9.82052 26.604 7.91126Z" fill="white"/>
</g>
<defs>
<clipPath id="clip0_1519_66016">
<rect width="28" height="28" fill="white"/>
</clipPath>
</defs>
</svg>
