<svg width="28" height="28" viewBox="0 0 28 28" fill="none" xmlns="http://www.w3.org/2000/svg">
<path d="M0 11.4337L10.1073 17.2205L12.7331 13.9259L2.09037 8.30646L0 11.4337ZM15.2386 13.9136L17.8742 17.2205L28 11.4231L25.8812 8.07827L15.2386 13.9136ZM3.62421 7.26226L13.9834 12.732L24.3575 7.04389L14.006 2.1543L3.62421 7.26226Z" fill="white"/>
<path d="M2.64062 20.2856L13.1727 25.8467V16.0063L10.9522 18.7923C10.8303 18.9454 10.6576 19.0498 10.4654 19.0865C10.2732 19.1233 10.0742 19.09 9.90441 18.9928L2.64062 14.834V20.2856ZM14.8117 16.0063V25.8212L25.3437 20.0383V14.834L18.0799 18.9927C17.9101 19.0899 17.7112 19.1231 17.519 19.0864C17.3268 19.0496 17.1541 18.9453 17.0322 18.7923L14.8117 16.0063Z" fill="white"/>
</svg>
