<svg width="32" height="32" viewBox="0 0 32 32" fill="none" xmlns="http://www.w3.org/2000/svg">
<path d="M28.4915 23.5976C28.4089 23.9327 28.3513 24.2771 28.2406 24.6044C27.9266 25.569 27.3191 26.4114 26.5029 27.0138C25.6867 27.6163 24.7027 27.9486 23.6884 27.9644C21.7574 28.0314 19.8857 26.8236 19.1112 24.9566C18.8372 24.3029 18.7091 23.5974 18.7359 22.8891C18.7627 22.1808 18.9437 21.487 19.2663 20.8559C19.5889 20.2248 20.0453 19.6717 20.6037 19.2352C21.1621 18.7986 21.809 18.4892 22.4993 18.3285C23.1603 18.1738 23.8465 18.1588 24.5137 18.2845C25.1809 18.4102 25.8145 18.6738 26.374 19.0584C26.9335 19.4431 27.4065 19.9403 27.7628 20.5182C28.1191 21.0961 28.3509 21.7421 28.4432 22.4147C28.4542 22.4621 28.4704 22.5081 28.4915 22.5519V23.5976ZM20.5434 23.4573L22.6863 25.6002L26.679 21.6153L25.9715 20.9015L22.6987 24.1742L21.2696 22.7295L20.5434 23.4573Z" fill="white"/>
<path d="M18.3532 25.8466H3.96003C3.44381 25.8466 3.00775 25.4538 3.00099 24.9376C2.95679 21.564 4.38676 17.7043 8.17022 15.2491C9.69906 17.2237 11.6908 18.3271 14.217 18.3271C16.7433 18.3271 18.7241 17.2361 20.267 15.2476C21.1252 15.7991 21.9025 16.4673 22.5766 17.233C20.6223 17.6429 19.162 18.6995 18.2924 20.4762C17.4228 22.2528 17.4851 24.0372 18.3532 25.8466Z" fill="white"/>
<path d="M19.5112 9.29562C19.508 10.6962 18.9516 12.0387 17.9633 13.0311C16.975 14.0235 15.6348 14.5853 14.2343 14.5944C13.5392 14.597 12.8503 14.4626 12.2073 14.1987C11.5642 13.9348 10.9794 13.5467 10.4865 13.0565C9.99362 12.5664 9.60225 11.9838 9.33477 11.3422C9.06729 10.7006 8.92899 10.0126 8.92777 9.31744C8.92531 8.62121 9.06007 7.93132 9.32438 7.2872C9.58869 6.64308 9.97736 6.05736 10.4681 5.56353C10.9589 5.0697 11.5422 4.67743 12.1847 4.40915C12.8272 4.14087 13.5162 4.00184 14.2125 4C15.6152 4.00655 16.9587 4.56648 17.9509 5.5581C18.9431 6.54972 19.5038 7.89287 19.5112 9.29562Z" fill="white"/>
</svg>
