<svg width="32" height="32" viewBox="0 0 32 32" fill="none" xmlns="http://www.w3.org/2000/svg">
<path d="M17.8718 22.7262C18.1976 22.9784 18.5338 23.1991 18.828 23.4619C19.295 23.8937 19.6657 24.4193 19.9156 25.0042C20.1655 25.5892 20.2892 26.2203 20.2784 26.8563C20.2784 27.3292 20.2784 27.7916 20.2784 28.2646C20.2784 28.7375 20.0578 29.0002 19.5428 29.0002H11.808C11.3035 29.0002 11.0619 28.769 11.0724 28.2646C11.0616 27.5137 11.0933 26.7629 11.167 26.0156C11.2577 25.3658 11.4936 24.7449 11.8575 24.199C12.2214 23.6531 12.704 23.1964 13.2689 22.8628L13.479 22.7367C12.9517 22.3689 12.5265 21.873 12.2434 21.2958C11.9603 20.7186 11.8286 20.0789 11.8606 19.4368C11.8696 18.9356 11.9838 18.4418 12.1956 17.9875C12.4074 17.5331 12.712 17.1282 13.09 16.799C13.4605 16.4608 13.8942 16.1991 14.3662 16.0292C14.8382 15.8592 15.3394 15.7843 15.8405 15.8087C16.3416 15.8331 16.8328 15.9564 17.286 16.1714C17.7393 16.3865 18.1456 16.6891 18.4814 17.0617C18.8394 17.462 19.1094 17.933 19.2739 18.4443C19.4384 18.9555 19.4938 19.4955 19.4363 20.0295C19.3789 20.5635 19.2099 21.0795 18.9404 21.544C18.6709 22.0085 18.3068 22.4113 17.8718 22.7262Z" fill="white"/>
<path d="M17.9766 15.1698C18.6728 14.5377 19.5793 14.1875 20.5197 14.1875C21.4601 14.1875 22.3666 14.5377 23.0628 15.1698C23.4745 15.5603 23.795 16.0368 24.0014 16.5653C24.2077 17.0938 24.2948 17.6613 24.2567 18.2273C24.2185 18.7934 24.0561 19.3441 23.7807 19.8401C23.5053 20.3361 23.1239 20.7653 22.6636 21.097C23.2436 21.4221 23.7513 21.8619 24.1558 22.3896C24.7507 23.1802 25.0718 24.1431 25.0703 25.1325V26.6879C25.0776 26.7723 25.0671 26.8572 25.0397 26.9373C25.0124 27.0174 24.9688 27.091 24.9114 27.1533C24.8541 27.2156 24.7843 27.2652 24.7067 27.2991C24.6291 27.3329 24.5453 27.3503 24.4606 27.3499H21.5811H21.5075C21.5786 26.4745 21.4545 25.5942 21.1437 24.7727C20.8329 23.9512 20.3433 23.209 19.7105 22.5998C20.1481 22.0129 20.4489 21.3354 20.5908 20.6171C20.7326 19.8988 20.7119 19.158 20.5302 18.4487C20.369 17.7492 20.0569 17.0933 19.6158 16.5269C19.1747 15.9606 18.6153 15.4974 17.9766 15.1698Z" fill="white"/>
<path d="M11.6822 22.6525C11.0443 23.2663 10.5526 24.0156 10.2433 24.8451C9.93407 25.6746 9.81501 26.5631 9.8954 27.4447H7.04746C6.50098 27.4447 6.28032 27.2345 6.29083 26.6775C6.27144 25.9975 6.28904 25.3169 6.34343 24.6387C6.41921 23.9396 6.66095 23.2687 7.04848 22.6819C7.43602 22.0951 7.95826 21.6094 8.57149 21.2653L8.70799 21.1917C8.16341 20.8065 7.72866 20.286 7.44668 19.6815C7.16471 19.077 7.04523 18.4095 7.10006 17.7447C7.1303 17.2571 7.25848 16.7806 7.47696 16.3436C7.69544 15.9067 7.99969 15.5182 8.37162 15.2014C9.05948 14.5862 9.95009 14.2461 10.8729 14.2461C11.7958 14.2461 12.6862 14.5862 13.374 15.2014C12.7289 15.5339 12.1655 16.0051 11.724 16.581C11.2825 17.157 10.9739 17.8236 10.8203 18.5329C10.6495 19.2405 10.6382 19.9772 10.7872 20.6898C10.9363 21.4023 11.242 22.0727 11.6822 22.6525Z" fill="white"/>
<path d="M18.5211 13.5992C18.419 13.5625 18.3205 13.5161 18.2268 13.4603L15.8718 12.1826C15.7538 12.1048 15.617 12.0635 15.4772 12.0635C15.3374 12.0635 15.2006 12.1048 15.0826 12.1826C14.3199 12.6132 13.5305 13.0298 12.7678 13.4464C12.5403 13.5714 12.3262 13.6686 12.0854 13.4464C11.9883 13.3685 11.9178 13.2605 11.8841 13.138C11.8504 13.0156 11.8551 12.8853 11.8979 12.7659C12.0451 11.9049 12.1789 11.0299 12.3261 10.1689C12.37 10.0033 12.3682 9.82824 12.3209 9.66373C12.2736 9.49922 12.1827 9.35181 12.0586 9.23829C11.4163 8.6411 10.814 7.98841 10.1851 7.37734C10.0885 7.30214 10.0173 7.19725 9.9813 7.0776C9.94527 6.95796 9.94638 6.82966 9.98456 6.71074C10.0303 6.6002 10.1072 6.50655 10.2051 6.44211C10.303 6.37768 10.4172 6.34546 10.533 6.34963L13.2091 5.94683C13.3291 5.9319 13.4433 5.88421 13.5397 5.80857C13.6361 5.73293 13.7114 5.63205 13.7579 5.5163L14.9352 3.01646C14.9691 2.89518 15.0393 2.78815 15.1355 2.7108C15.2317 2.63344 15.3487 2.58975 15.4703 2.58594C15.5856 2.59436 15.6959 2.6386 15.7865 2.71292C15.8772 2.78723 15.9443 2.88815 15.979 3.00256L17.1563 5.5024C17.2102 5.63151 17.2978 5.7427 17.4088 5.82358C17.5198 5.90445 17.6501 5.95188 17.7854 5.96073C18.6819 6.08572 19.5784 6.21077 20.4615 6.36354C20.653 6.42435 20.8182 6.55182 20.9296 6.72455C20.9725 6.83039 20.98 6.94812 20.9509 7.05887C20.9218 7.16963 20.8579 7.26703 20.7692 7.33563C20.127 7.97448 19.5246 8.62722 18.869 9.23829C18.7424 9.34699 18.6487 9.49128 18.5988 9.65381C18.549 9.81634 18.5452 9.99029 18.5881 10.155C18.7486 11.0577 18.8959 11.9743 19.0431 12.9326C19.0566 13.0128 19.0531 13.095 19.0333 13.1738C19.0135 13.2526 18.9779 13.326 18.9285 13.3892C18.879 13.4524 18.8171 13.5038 18.7468 13.54C18.6766 13.5762 18.5995 13.5964 18.5211 13.5992Z" fill="white"/>
<path d="M18 7L15.25 10L14 8.63636" stroke="#FF8A48" stroke-linecap="round" stroke-linejoin="round"/>
</svg>
