<svg width="32" height="32" viewBox="0 0 32 32" fill="none" xmlns="http://www.w3.org/2000/svg">
<path d="M12.89 19.4424L15.093 22.3395C15.4591 22.8255 15.7241 22.8255 16.0965 22.3395L18.0595 19.638L18.2173 19.436C19.101 20.3639 20.2875 20.6479 21.4236 20.9951C22.1553 21.1845 22.8263 21.5584 23.3722 22.0811C23.9181 22.6038 24.3208 23.2578 24.5418 23.9806C24.8826 25.022 25.3054 26.0382 25.6904 27.0734C25.7928 27.286 25.8367 27.522 25.8174 27.7572C25.7981 27.9924 25.7163 28.2181 25.5805 28.4111C25.4448 28.6041 25.26 28.7574 25.0452 28.8551C24.8304 28.9528 24.5934 28.9914 24.3587 28.9669C23.6392 28.9669 23.6391 28.9669 23.3614 28.3357C23.0837 27.7046 22.7302 26.8903 22.4399 26.1645C22.4076 26.0594 22.3373 25.9702 22.2428 25.9142C22.1483 25.8582 22.0362 25.8394 21.9286 25.8615C21.829 25.8704 21.736 25.9149 21.6665 25.9867C21.5969 26.0586 21.5556 26.153 21.55 26.2528C21.5484 26.3803 21.5787 26.5062 21.6383 26.6189C21.9349 27.3321 22.2694 28.0517 22.5408 28.7649L22.6166 28.9732H8.57281L8.68638 28.6829C8.97673 27.9823 9.27979 27.288 9.57013 26.5937C9.70268 26.2655 9.62689 26.013 9.36179 25.8931C9.09669 25.7731 8.85684 25.893 8.73061 26.2339C8.37083 27.0734 8.0111 27.9128 7.66395 28.7586C7.59452 28.929 7.51876 29.0111 7.3294 28.9985C7.14005 28.9858 6.91282 28.9985 6.69822 28.9985C6.48913 29.0034 6.28188 28.9579 6.09416 28.8657C5.90643 28.7735 5.74374 28.6373 5.61984 28.4688C5.49595 28.3003 5.41457 28.1045 5.38253 27.8978C5.3505 27.6911 5.36879 27.4798 5.43585 27.2817C5.91555 25.9499 6.40149 24.6244 6.94431 23.3178C7.15429 22.8154 7.47249 22.3655 7.87614 22C8.27979 21.6346 8.75893 21.3626 9.27966 21.2034C9.91084 20.9888 10.542 20.7868 11.1732 20.5722C11.8263 20.3358 12.4145 19.9487 12.89 19.4424ZM16.0459 27.4268C16.0447 27.3137 16.0015 27.205 15.9245 27.1221C15.8474 27.0393 15.7422 26.9881 15.6294 26.9787C15.5157 26.9767 15.4056 27.018 15.3212 27.0941C15.2368 27.1703 15.1846 27.2757 15.175 27.389C15.1724 27.4472 15.1816 27.5053 15.2019 27.56C15.2223 27.6146 15.2534 27.6646 15.2935 27.707C15.3335 27.7494 15.3815 27.7832 15.4349 27.8067C15.4883 27.8301 15.5458 27.8426 15.6041 27.8434C15.7142 27.8403 15.8191 27.7956 15.8975 27.7183C15.976 27.641 16.0224 27.5369 16.0271 27.4268H16.0459ZM15.6041 24.6559C15.6607 24.6576 15.7172 24.6479 15.7699 24.6274C15.8227 24.6069 15.8708 24.5761 15.9114 24.5366C15.952 24.4972 15.9843 24.45 16.0063 24.3979C16.0284 24.3457 16.0398 24.2897 16.0398 24.233C16.0398 24.1197 15.9956 24.0108 15.9166 23.9295C15.8377 23.8482 15.7301 23.8008 15.6168 23.7975C15.5028 23.7974 15.3932 23.8413 15.3109 23.9202C15.2285 23.999 15.1798 24.1065 15.175 24.2204C15.1748 24.3317 15.2172 24.4388 15.2935 24.5198C15.3698 24.6008 15.4741 24.6495 15.5852 24.6559H15.6041ZM15.1686 25.9814C15.1652 26.0949 15.206 26.2052 15.2827 26.2889C15.3593 26.3726 15.4656 26.423 15.5789 26.4296C15.6379 26.4338 15.6972 26.4262 15.7533 26.4071C15.8093 26.388 15.8611 26.3578 15.9052 26.3184C15.9494 26.2789 15.9851 26.231 16.0103 26.1774C16.0356 26.1239 16.0499 26.0658 16.0522 26.0067C16.0491 25.8932 16.0032 25.7852 15.9236 25.7043C15.8439 25.6235 15.7365 25.5759 15.6231 25.5712C15.5101 25.5693 15.4007 25.6107 15.3173 25.687C15.234 25.7633 15.183 25.8687 15.175 25.9814H15.1686Z" fill="white"/>
<path d="M13.8109 8.28316C12.9451 9.21724 11.7653 9.7993 10.4972 9.91794C10.3502 9.95517 10.1961 9.95448 10.0494 9.91594C9.90269 9.8774 9.76816 9.80227 9.65843 9.69758C9.54869 9.59289 9.46729 9.46206 9.42189 9.31735C9.37649 9.17264 9.36866 9.01877 9.39893 8.87016C9.42428 7.98476 9.60581 7.11082 9.93534 6.28864C10.3439 5.28348 11.0154 4.40675 11.8794 3.75042C12.7434 3.0941 13.7681 2.68234 14.846 2.55833C16.4703 2.35067 18.1114 2.78835 19.4166 3.77731C20.7219 4.76628 21.5873 6.22767 21.8269 7.84764C21.8723 8.13827 21.9017 8.43116 21.9152 8.725C21.9497 8.9583 21.891 9.19581 21.7515 9.38604C21.6121 9.57626 21.4033 9.70387 21.1704 9.74119C19.2289 10.2508 17.1703 10.0655 15.3509 9.2173C14.8271 8.96483 14.3474 8.60506 13.8109 8.28316Z" fill="white"/>
<path d="M13.9767 9.49512C15.869 10.7282 18.1561 11.2037 20.3831 10.8269C20.3831 10.8269 20.4273 10.8648 20.4273 10.8837C20.5418 12.0184 20.439 13.1644 20.1244 14.2606C19.8039 15.1754 19.2059 15.9675 18.4139 16.5264C17.6219 17.0853 16.6754 17.3832 15.7061 17.3786C14.5032 17.4448 13.3209 17.045 12.4052 16.2621C11.4895 15.4792 10.9107 14.3735 10.7891 13.1749C10.7238 12.4405 10.7027 11.7028 10.726 10.9658C10.7335 10.9266 10.7509 10.8899 10.7762 10.859C10.8016 10.8281 10.8341 10.8041 10.8711 10.7891C11.4076 10.625 11.9631 10.524 12.4744 10.3094C12.9902 10.0668 13.4918 9.79495 13.9767 9.49512Z" fill="white"/>
<path d="M25.9867 7.38702C25.829 7.39653 25.671 7.39653 25.5133 7.38702C24.7763 7.28851 24.0291 7.46856 23.4179 7.89196C23.3429 7.95808 23.2463 7.99455 23.1464 7.99455C23.0464 7.99455 22.95 7.95808 22.875 7.89196C22.7974 7.8291 22.7439 7.74149 22.7232 7.64383C22.7025 7.54616 22.716 7.44437 22.7614 7.35547C22.7891 7.27097 22.8103 7.18443 22.8246 7.09666C22.9157 6.79409 22.9157 6.47142 22.8246 6.16884C22.5975 5.44136 22.5975 4.66192 22.8246 3.93443C22.9039 3.60824 23.0859 3.31622 23.3439 3.10142C23.6019 2.88662 23.9221 2.76044 24.2573 2.74153C25.405 2.6721 26.5559 2.6721 27.7036 2.74153C28.1305 2.78263 28.5263 2.98254 28.8127 3.30167C29.0991 3.6208 29.2552 4.03587 29.25 4.46464C29.25 4.83704 29.25 5.20942 29.25 5.58813C29.2417 6.07029 29.0434 6.52973 28.6983 6.86656C28.3532 7.20339 27.8891 7.39042 27.4069 7.38702C26.9461 7.38702 26.4854 7.38702 26.0246 7.38702H25.9867ZM26.0878 5.37987H27.2617C27.3183 5.38595 27.3755 5.38054 27.43 5.36399C27.4844 5.34744 27.5349 5.32009 27.5785 5.28356C27.6221 5.24702 27.6579 5.20203 27.6838 5.15134C27.7096 5.10065 27.7248 5.04529 27.7288 4.98854C27.7283 4.92902 27.7153 4.87024 27.6905 4.8161C27.6658 4.76196 27.63 4.71365 27.5853 4.67433C27.5406 4.63501 27.4882 4.60557 27.4314 4.58792C27.3745 4.57028 27.3145 4.56482 27.2554 4.57193H24.9327C24.6234 4.57193 24.4593 4.72974 24.4593 4.98222C24.4593 5.23469 24.6234 5.37355 24.939 5.37987H26.0878Z" fill="white"/>
<path d="M24.3333 15.1124C24.6201 14.8727 24.9796 14.7372 25.3533 14.728C25.7269 14.7189 26.0927 14.8366 26.3909 15.0619C26.6932 15.2933 26.9187 15.6104 27.038 15.9718C27.1574 16.3332 27.1651 16.7222 27.06 17.088C26.9396 17.6607 26.657 18.1866 26.2458 18.6029C25.8608 18.9816 25.482 19.3666 25.0654 19.7075C24.9748 19.8118 24.8628 19.8954 24.737 19.9528C24.6113 20.0101 24.4746 20.0398 24.3364 20.0398C24.1981 20.0398 24.0616 20.0101 23.9359 19.9528C23.8101 19.8954 23.6981 19.8118 23.6075 19.7075C23.1139 19.3033 22.6537 18.86 22.2314 18.382C21.9694 18.082 21.777 17.7279 21.6679 17.3449C21.5587 16.9619 21.5356 16.5595 21.6002 16.1665C21.65 15.8834 21.7701 15.6173 21.9496 15.3926C22.129 15.168 22.362 14.992 22.6271 14.8808C22.8922 14.7696 23.181 14.7267 23.467 14.7562C23.7529 14.7856 24.0269 14.8864 24.2638 15.0493L24.3333 15.1124Z" fill="white"/>
<path d="M6.33855 3.49897C6.61968 3.26471 6.97075 3.13073 7.33648 3.11816C7.70221 3.10559 8.06174 3.21515 8.3583 3.42955C8.65794 3.63393 8.88882 3.92415 9.02061 4.26206C9.1524 4.59998 9.17904 4.96982 9.09689 5.3231C8.98891 5.94859 8.69141 6.52583 8.24473 6.9768C7.87864 7.34288 7.50622 7.71529 7.10857 8.04982C7.01438 8.15713 6.89839 8.24313 6.76832 8.30203C6.63825 8.36094 6.49705 8.39137 6.35426 8.39137C6.21148 8.39137 6.07043 8.36094 5.94036 8.30203C5.81029 8.24313 5.6943 8.15713 5.60011 8.04982C4.86935 7.5269 4.2618 6.85044 3.82013 6.06789C3.57563 5.56906 3.49599 5.00541 3.59284 4.45838C3.65897 4.17599 3.79541 3.91486 3.98933 3.69918C4.18325 3.48351 4.42839 3.32028 4.70219 3.2246C4.97598 3.12893 5.26954 3.10395 5.55558 3.15191C5.84162 3.19987 6.11093 3.31923 6.33855 3.49897Z" fill="white"/>
<path d="M6.33789 17.0125C6.56748 16.9098 6.7666 16.7495 6.91591 16.5471C7.06522 16.3447 7.1597 16.1071 7.19005 15.8574C7.31629 15.3525 7.53077 15.1695 7.85899 15.2263C8.07269 15.2695 8.26419 15.387 8.39941 15.558C8.53462 15.7291 8.60488 15.9425 8.59757 16.1604C8.59757 16.4003 8.52804 16.6401 8.49017 16.8989C8.67321 16.8989 8.85 16.9368 9.02042 16.9683C9.12102 16.9851 9.21731 17.0217 9.30365 17.076C9.38999 17.1303 9.46467 17.2011 9.52339 17.2845C9.58211 17.3679 9.62373 17.4621 9.64575 17.5617C9.66776 17.6613 9.66971 17.7642 9.6516 17.8646C9.55061 18.4327 9.43699 19.0007 9.32337 19.5688C9.29985 19.7489 9.20971 19.9137 9.07065 20.0305C8.9316 20.1474 8.75377 20.2078 8.5723 20.2C8.05388 20.2201 7.5347 20.199 7.01962 20.1369C6.38843 20.0422 6.35688 19.9665 6.38843 19.3353C6.38843 18.8556 6.42619 18.3696 6.42619 17.8899C6.40094 17.6374 6.33789 17.3534 6.33789 17.0125Z" fill="white"/>
<path d="M18.0777 17.7573C18.0623 17.8864 18.0259 18.0122 17.9703 18.1297C17.1877 19.2217 16.3923 20.3073 15.5844 21.4182C15.5213 21.3487 15.4645 21.2983 15.4203 21.2415C14.6671 20.2652 13.9182 19.2806 13.1734 18.2875C13.0832 18.1265 13.0293 17.9477 13.0156 17.7636C13.8092 18.1305 14.6731 18.32 15.5473 18.3189C16.4215 18.3178 17.2851 18.1262 18.0777 17.7573Z" fill="white"/>
<path d="M5.70709 18.5522C5.70709 18.8552 5.70709 19.1834 5.70709 19.4675C5.71806 19.5688 5.70613 19.6713 5.67226 19.7674C5.6384 19.8635 5.58345 19.9508 5.51139 20.0229C5.43932 20.0949 5.35201 20.1499 5.25589 20.1838C5.15977 20.2177 5.05734 20.2295 4.95602 20.2186C4.24909 20.2186 4.02819 20.0103 4.02188 19.2907C4.02188 18.7605 4.02188 18.2303 4.02188 17.7001C3.99771 17.5473 4.0273 17.3908 4.10556 17.2573C4.18381 17.1238 4.30586 17.0215 4.45104 16.968C4.61177 16.8908 4.79077 16.86 4.96804 16.879C5.14531 16.8979 5.31389 16.9659 5.45468 17.0753C5.59083 17.2106 5.67555 17.3891 5.69445 17.5802C5.71338 17.9039 5.71338 18.2285 5.69445 18.5522H5.70709Z" fill="white"/>
<path d="M9.81692 10.7891C9.74826 11.9434 9.82881 13.1016 10.0567 14.2353C9.63285 14.2357 9.22415 14.0781 8.91021 13.7934C8.59628 13.5086 8.39967 13.1171 8.35885 12.6952C8.30802 12.2506 8.43152 11.8036 8.70342 11.4481C8.97531 11.0926 9.37448 10.8564 9.81692 10.7891Z" fill="white"/>
<path d="M21.1152 14.2353C21.3448 13.1019 21.4276 11.9436 21.3615 10.7891C21.7925 10.8561 22.1824 11.0829 22.4537 11.4244C22.7251 11.7659 22.858 12.1971 22.8259 12.6321C22.7956 13.0658 22.6024 13.4721 22.2851 13.7694C21.9679 14.0668 21.55 14.2332 21.1152 14.2353Z" fill="white"/>
</svg>
