<svg width="32" height="32" viewBox="0 0 32 32" fill="none" xmlns="http://www.w3.org/2000/svg">
<path d="M17.5808 3.24414C18.1158 3.33483 18.6448 3.45814 19.1648 3.61337C21.9266 4.59551 23.6177 6.53394 24.0608 9.43975C24.3373 11.2785 23.8895 13.1528 22.8116 14.668C21.7338 16.1832 20.11 17.2209 18.2823 17.5627C17.346 17.7393 16.3841 17.7291 15.4517 17.5327C14.5194 17.3362 13.6351 16.9574 12.8496 16.418C12.0642 15.8786 11.3932 15.1893 10.8751 14.3896C10.357 13.59 10.0021 12.6958 9.83075 11.7585C9.65818 10.8155 9.67526 9.84752 9.88105 8.91118C10.0868 7.97483 10.4772 7.08888 11.0293 6.30511C11.5814 5.52134 12.2841 4.85545 13.0965 4.34637C13.9088 3.83728 14.8145 3.49522 15.7606 3.34014L16.2737 3.24414H17.5808ZM17.7027 7.26872C17.6952 7.24445 17.689 7.2198 17.6842 7.19487C17.67 7.00585 17.5869 6.82859 17.4508 6.6966C17.3148 6.56462 17.1351 6.48706 16.9458 6.47857C16.7553 6.48338 16.5729 6.55652 16.4319 6.68464C16.2909 6.81275 16.2007 6.9873 16.1777 7.17641C16.1602 7.22044 16.1333 7.2601 16.0989 7.29263C16.0644 7.32516 16.0233 7.34975 15.9783 7.3647C15.5624 7.49143 15.1996 7.75114 14.9455 8.10397C14.6914 8.45679 14.56 8.88327 14.5716 9.31793C14.5786 9.75186 14.7325 10.1706 15.0081 10.5059C15.2837 10.8411 15.6648 11.0731 16.0891 11.1641C16.4783 11.2153 16.8709 11.235 17.2632 11.2231C17.6029 11.2231 17.7987 11.4077 17.795 11.6957C17.7913 11.9837 17.5918 12.1536 17.2558 12.1573C16.9199 12.161 16.4842 12.1573 16.1002 12.1573C15.9174 12.1613 15.7425 12.233 15.6095 12.3585C15.4765 12.484 15.3948 12.6544 15.3802 12.8366C15.364 13.0143 15.4126 13.1918 15.5172 13.3364C15.6217 13.481 15.7751 13.5828 15.9489 13.6231C16.019 13.6231 16.0928 13.6526 16.1593 13.6637C16.2811 14.2065 16.5581 14.476 16.9605 14.4613C17.363 14.4465 17.6325 14.1548 17.699 13.6268L17.8836 13.5677C18.3054 13.4447 18.6735 13.1833 18.9286 12.8257C19.1838 12.468 19.3112 12.0349 19.2903 11.596C19.2755 11.1698 19.1185 10.7607 18.8441 10.4341C18.5697 10.1075 18.1939 9.88224 17.7765 9.79422C17.395 9.74118 17.0095 9.72142 16.6245 9.73515C16.2553 9.73515 16.067 9.55422 16.0706 9.25884C16.0743 8.96345 16.2737 8.801 16.6356 8.7973C16.9974 8.79361 17.374 8.7973 17.7654 8.7973C17.9391 8.79318 18.1056 8.72801 18.236 8.61321C18.3663 8.49841 18.452 8.34136 18.478 8.16964C18.5044 8.00247 18.4726 7.8313 18.388 7.68478C18.3033 7.53825 18.1708 7.42524 18.0128 7.3647C17.9242 7.32778 17.8208 7.29826 17.7027 7.26872Z" fill="white"/>
<path d="M28.9982 14.7124C28.6548 15.3032 28.3298 15.3992 27.7205 15.0817L26.3542 14.3985C26.2564 14.3598 26.1675 14.3012 26.0933 14.2266C26.0191 14.1519 25.9612 14.0628 25.923 13.9647C25.8849 13.8666 25.8674 13.7616 25.8717 13.6565C25.876 13.5513 25.902 13.4481 25.948 13.3535C25.9948 13.2598 26.0604 13.1767 26.1407 13.1094C26.2209 13.0421 26.3141 12.992 26.4146 12.9622C26.515 12.9324 26.6204 12.9236 26.7244 12.9363C26.8284 12.949 26.9286 12.9829 27.0189 13.0359C27.4768 13.2575 27.9273 13.4938 28.3852 13.7117C28.521 13.7644 28.645 13.8434 28.7502 13.9442C28.8554 14.0449 28.9396 14.1654 28.9982 14.2988V14.7124Z" fill="white"/>
<path d="M28.9977 6.61183C28.9403 6.74621 28.857 6.86794 28.7525 6.96997C28.6479 7.072 28.5242 7.15233 28.3884 7.20635C27.9047 7.43161 27.4357 7.68642 26.9519 7.91167C26.7874 7.9888 26.6007 8.00477 26.4254 7.95673C26.2501 7.90868 26.0978 7.79975 25.9956 7.64948C25.8956 7.50284 25.8517 7.3251 25.8721 7.14879C25.8924 6.97248 25.9756 6.80941 26.1064 6.68939C26.1871 6.61747 26.2779 6.55774 26.3759 6.51212L27.6942 5.84744C28.3367 5.52987 28.6432 5.6148 28.9977 6.21671V6.61183Z" fill="white"/>
<path d="M8.79688 27.3803V21.8198C9.09595 21.8198 9.3913 21.8198 9.69037 21.8198C9.73074 21.83 9.77281 21.8318 9.81387 21.8248C9.85494 21.8179 9.89414 21.8025 9.92889 21.7795C9.96365 21.7566 9.99319 21.7266 10.0157 21.6916C10.0382 21.6566 10.0532 21.6172 10.0596 21.5761C10.2604 20.9346 10.6636 20.3754 11.2087 19.982C11.7537 19.5887 12.4116 19.3824 13.0836 19.3939C14.7156 19.3939 16.3513 19.3939 17.9833 19.3939C18.1998 19.3885 18.4151 19.4263 18.6168 19.505C18.8186 19.5836 19.0026 19.7016 19.1583 19.8522C19.314 20.0027 19.4381 20.1827 19.5236 20.3817C19.609 20.5806 19.6539 20.7946 19.6558 21.0112C19.6548 21.2274 19.6111 21.4413 19.5272 21.6405C19.4432 21.8398 19.3207 22.0205 19.1666 22.1722C19.0125 22.3238 18.8299 22.4436 18.6293 22.5244C18.4288 22.6052 18.2142 22.6456 17.998 22.6431C17.2189 22.6431 16.4399 22.6431 15.6608 22.6431C15.557 22.6311 15.4517 22.6413 15.3521 22.673C15.2525 22.7047 15.1607 22.7571 15.0828 22.827C15.005 22.8968 14.9429 22.9823 14.9006 23.0779C14.8583 23.1735 14.8368 23.277 14.8375 23.3816C14.8371 23.4837 14.858 23.5849 14.8988 23.6785C14.9395 23.7722 14.9992 23.8564 15.0742 23.9258C15.1491 23.9952 15.2376 24.0483 15.3342 24.0818C15.4307 24.1152 15.5331 24.1282 15.635 24.12C16.558 24.12 17.4811 24.12 18.4005 24.12C18.7235 24.1145 19.042 24.0433 19.3365 23.9106C19.6311 23.7779 19.8955 23.5866 20.1136 23.3484C21.2656 22.189 22.4287 21.037 23.577 19.8776C23.8448 19.5871 24.1772 19.3635 24.5472 19.225C24.9173 19.0865 25.3147 19.0368 25.7075 19.0801C26.2796 19.1347 26.8118 19.3975 27.2029 19.8186C27.3203 19.9455 27.3894 20.1097 27.3982 20.2825C27.407 20.4552 27.3548 20.6255 27.2508 20.7638C27.1852 20.851 27.1123 20.9325 27.0329 21.0075C25.305 22.7391 23.566 24.4597 21.8454 26.2025C21.481 26.5842 21.0408 26.8856 20.5531 27.0871C20.0654 27.2887 19.5409 27.3861 19.0134 27.3729C15.7198 27.3729 12.4263 27.3729 9.13284 27.3729L8.79688 27.3803Z" fill="white"/>
<path d="M3.24828 24.6004V21.0558C3.23651 20.9425 3.2499 20.828 3.28741 20.7204C3.32491 20.6128 3.38559 20.5149 3.46526 20.4334C3.54492 20.352 3.64159 20.2891 3.74831 20.2493C3.85503 20.2094 3.9692 20.1936 4.08274 20.2029H6.44585C6.55752 20.1912 6.6703 20.2042 6.7764 20.2409C6.88251 20.2776 6.97929 20.3372 7.0599 20.4153C7.14051 20.4935 7.203 20.5883 7.24298 20.6932C7.28296 20.7982 7.29946 20.9106 7.2913 21.0226C7.2913 23.4102 7.2913 25.7991 7.2913 28.1892C7.30214 28.2996 7.28808 28.4109 7.25001 28.515C7.21195 28.6192 7.15088 28.7134 7.07144 28.7907C6.992 28.868 6.89621 28.9264 6.79109 28.9617C6.68598 28.9969 6.57423 29.008 6.46424 28.9942H4.05317C3.94559 29.0043 3.83716 28.9906 3.73542 28.9542C3.63367 28.9178 3.54112 28.8596 3.46436 28.7835C3.3876 28.7075 3.32844 28.6155 3.2911 28.5141C3.25377 28.4127 3.23917 28.3043 3.24828 28.1966V24.6004Z" fill="white"/>
<path d="M7.98612 7.23949C7.98772 7.36361 7.95801 7.48613 7.89975 7.59573C7.84148 7.70533 7.75651 7.79849 7.65273 7.86658C7.54894 7.93466 7.42965 7.97549 7.3059 7.98529C7.18216 7.99509 7.05796 7.97353 6.94475 7.92263C6.36869 7.66045 5.80375 7.36873 5.24246 7.07331C5.07555 6.98166 4.9505 6.8291 4.89339 6.64745C4.83628 6.4658 4.8515 6.2691 4.93594 6.09843C5.01654 5.92044 5.16441 5.78165 5.34713 5.71244C5.52985 5.64323 5.73248 5.64924 5.91077 5.72916C6.48314 5.99504 7.04816 6.28676 7.60945 6.58218C7.73008 6.64235 7.8302 6.73687 7.89722 6.85383C7.96425 6.9708 7.99519 7.10499 7.98612 7.23949Z" fill="white"/>
<path d="M7.17374 12.9439C7.34362 12.9334 7.51224 12.9785 7.65417 13.0724C7.7961 13.1664 7.90356 13.304 7.96024 13.4645C8.01178 13.6215 8.00926 13.7911 7.95303 13.9464C7.8968 14.1017 7.79008 14.2337 7.65002 14.3213C7.07027 14.6314 6.48321 14.9306 5.88499 15.2038C5.70964 15.2758 5.51324 15.2776 5.33658 15.2089C5.15993 15.1401 5.01651 15.0061 4.93594 14.8345C4.8515 14.6639 4.83628 14.4672 4.89339 14.2855C4.9505 14.1039 5.07555 13.9513 5.24246 13.8597C5.80375 13.5606 6.37607 13.2873 6.94475 13.0066C7.01853 12.9774 7.09535 12.9563 7.17374 12.9439Z" fill="white"/>
</svg>
