<svg width="32" height="32" viewBox="0 0 32 32" fill="none" xmlns="http://www.w3.org/2000/svg">
<path d="M3 17.3238V15.6152C3.02939 15.4251 3.05146 15.2326 3.09065 15.0449C3.10196 14.8758 3.18074 14.7173 3.31071 14.6024C3.44069 14.4874 3.61185 14.4249 3.78868 14.4276C4.03362 14.3995 4.29572 14.3901 4.5431 14.3431C5.20506 14.2343 5.80439 13.9017 6.23223 13.4056C6.66007 12.9095 6.88807 12.2828 6.87488 11.6394C6.87379 11.2647 6.79257 10.8941 6.63629 10.5506C6.48 10.2071 6.25197 9.89793 5.96619 9.64213C5.88924 9.58023 5.82633 9.50386 5.78141 9.41776C5.73648 9.33165 5.71049 9.23764 5.70499 9.14152C5.69948 9.0454 5.7146 8.94921 5.74942 8.85891C5.78423 8.76861 5.838 8.6861 5.9074 8.6165C6.50672 7.90919 7.18516 7.26698 7.93057 6.70137C8.07158 6.58087 8.25558 6.51706 8.44442 6.52318C8.63325 6.5293 8.81237 6.60488 8.94457 6.73423L9.20667 6.96892C9.74755 7.40734 10.4367 7.6418 11.145 7.6284C11.8533 7.61501 12.5322 7.35468 13.0546 6.89617C13.3327 6.64496 13.5551 6.34253 13.7083 6.00698C13.8615 5.67144 13.9424 5.30971 13.9461 4.94348C13.9608 4.32623 14.2253 4.07745 14.8622 4.04928C14.9611 4.03857 15.0593 4.02211 15.1561 4H16.9344C17.0838 4.01878 17.2307 4.04459 17.3801 4.05867C17.4891 4.05513 17.5977 4.07357 17.6988 4.1128C17.7999 4.15203 17.8914 4.21118 17.9671 4.2864C18.0428 4.36163 18.1012 4.45127 18.1385 4.5495C18.1758 4.64773 18.1911 4.75237 18.1835 4.85665C18.1835 4.97869 18.1835 5.09134 18.1835 5.22277C18.241 5.88402 18.549 6.50227 19.0493 6.96097C19.5497 7.41968 20.2079 7.68713 20.8998 7.71292C21.3156 7.72214 21.7289 7.65009 22.1147 7.5012C22.5004 7.3523 22.8504 7.12967 23.1434 6.84688C23.2024 6.77669 23.2753 6.71833 23.3578 6.67514C23.4403 6.63196 23.5309 6.60479 23.6244 6.5952C23.718 6.58561 23.8125 6.59378 23.9027 6.61925C23.9929 6.64472 24.077 6.68698 24.1501 6.74362C24.9287 7.33548 25.6287 8.01648 26.2345 8.7714C26.333 8.89588 26.3836 9.04909 26.3777 9.20516C26.3719 9.36123 26.3101 9.5106 26.2027 9.62805C26.1218 9.72427 26.0312 9.81111 25.9455 9.9003C25.6841 10.1791 25.4848 10.5062 25.36 10.8614C25.2351 11.2166 25.1873 11.5925 25.2194 11.9661C25.2515 12.3396 25.3629 12.703 25.5467 13.0338C25.7305 13.3647 25.9829 13.6561 26.2884 13.8902C26.8058 14.263 27.4296 14.4759 28.0764 14.5004C28.6937 14.5426 28.9459 14.8078 28.9729 15.404C28.9729 15.5002 29.0023 15.5988 28.9999 15.695C28.9803 16.4578 28.9753 17.2205 28.9239 17.9833C28.9067 18.1474 28.8255 18.2992 28.6965 18.4084C28.5675 18.5176 28.4003 18.5762 28.2283 18.5724C28.0593 18.5724 27.8902 18.5865 27.7212 18.5982C26.3986 18.6733 25.2033 19.8609 25.1494 21.1329C25.1233 21.5441 25.1911 21.9557 25.3481 22.3391C25.505 22.7226 25.7474 23.0686 26.0582 23.3532C26.1355 23.4147 26.1987 23.4908 26.2441 23.5768C26.2895 23.6627 26.3159 23.7566 26.3219 23.8528C26.3279 23.9489 26.3132 24.0452 26.2788 24.1357C26.2444 24.2261 26.191 24.3089 26.1219 24.3788C25.5278 25.0901 24.8469 25.7307 24.0938 26.2869C24.0131 26.3484 23.9204 26.3939 23.8212 26.4209C23.722 26.4479 23.6181 26.4558 23.5157 26.4441C23.2634 26.3628 23.0338 26.2271 22.8446 26.0475C22.5497 25.8022 22.2061 25.6164 21.8344 25.5016C21.4628 25.3867 21.0707 25.345 20.6818 25.3789C20.2928 25.4129 19.9151 25.5219 19.5712 25.6993C19.2273 25.8767 18.9244 26.1189 18.6807 26.4113C18.2969 26.8806 18.0852 27.458 18.0782 28.0542C18.0659 28.6714 17.799 28.9202 17.1621 28.9507C17.0632 28.9614 16.9651 28.9779 16.8682 29H15.1414C14.9161 28.9718 14.6883 28.9484 14.4654 28.9108C14.3048 28.8888 14.1568 28.815 14.0459 28.7014C13.935 28.5879 13.8678 28.4416 13.8555 28.2865C13.8359 28.1246 13.8384 27.9626 13.831 27.7983C13.7775 27.1332 13.4707 26.51 12.9689 26.0474C12.4672 25.5849 11.8056 25.3151 11.1098 25.2894C10.6943 25.2791 10.281 25.3507 9.89549 25.4997C9.50999 25.6486 9.16046 25.8718 8.86863 26.1555C8.80543 26.2271 8.72794 26.286 8.64067 26.3285C8.55341 26.3711 8.45812 26.3965 8.36046 26.4033C8.26279 26.4101 8.16469 26.3981 8.07193 26.368C7.97917 26.3379 7.89362 26.2904 7.8203 26.2282C7.07558 25.65 6.40106 24.9934 5.80939 24.2708C5.7075 24.1593 5.64643 24.019 5.63538 23.8711C5.62433 23.7233 5.6639 23.576 5.74816 23.4517C5.83837 23.334 5.93829 23.2233 6.04697 23.1208C6.31301 22.8412 6.51627 22.5122 6.64412 22.1542C6.77198 21.7962 6.82173 21.4169 6.79027 21.0397C6.75881 20.6625 6.64684 20.2956 6.46126 19.9616C6.27568 19.6276 6.02045 19.3337 5.71144 19.0981C5.197 18.7215 4.57066 18.5119 3.92341 18.4996C3.35026 18.4738 3.06372 18.1804 3.03678 17.6383C3.03075 17.5329 3.01845 17.4279 3 17.3238ZM22.4209 20.2082C23.3517 18.7324 23.6994 16.9857 23.401 15.2852C23.1026 13.5847 22.1779 12.043 20.7945 10.94C19.3493 9.80455 17.5149 9.22489 15.6483 9.31382C13.7817 9.40275 12.0164 10.1539 10.6959 11.4211C9.33585 12.734 8.55623 14.4986 8.51928 16.3481C8.48233 18.1975 9.19088 19.9895 10.4975 21.3512C13.1036 24.1206 17.314 24.3107 20.023 22.5576C20.0037 22.531 19.9824 22.5059 19.9593 22.4824C18.9257 21.4858 17.888 20.4914 16.8462 19.4994C16.8055 19.4726 16.7595 19.4541 16.7111 19.4448C16.6627 19.4355 16.6128 19.4357 16.5645 19.4455C16.1679 19.5552 15.7646 19.6414 15.3569 19.7036C14.6071 19.783 13.8485 19.6775 13.1531 19.3969C12.4578 19.1163 11.8488 18.6701 11.3841 18.1006C10.9144 17.5612 10.5882 16.9207 10.4333 16.234C10.2785 15.5473 10.2996 14.8349 10.495 14.1577C10.5093 14.059 10.5593 13.9683 10.6363 13.9014C10.7133 13.8345 10.8124 13.7956 10.9163 13.7916C11.105 13.8066 11.2832 13.8808 11.4233 14.0028C12.092 14.613 12.7411 15.2444 13.3828 15.8804C13.4417 15.9478 13.5177 15.9996 13.6035 16.0308C13.6892 16.062 13.7819 16.0717 13.8727 16.0588C14.316 15.9907 14.7569 15.925 15.2002 15.8663C15.277 15.8634 15.3497 15.8327 15.4038 15.7804C15.4578 15.7282 15.4893 15.6582 15.4917 15.5847C15.5505 15.1904 15.6043 14.7961 15.6803 14.4112C15.7085 14.3016 15.7046 14.1867 15.6692 14.0791C15.6338 13.9714 15.5681 13.8752 15.4794 13.801C14.8181 13.1814 14.169 12.55 13.5199 11.9234C13.1893 11.5995 13.3069 11.1559 13.7478 11.055C14.3811 10.8969 15.042 10.8681 15.6876 10.9705C16.353 11.0801 16.9851 11.3285 17.5392 11.6979C18.0934 12.0674 18.5561 12.549 18.8946 13.1087C19.2332 13.6684 19.4393 14.2925 19.4984 14.9369C19.5575 15.5813 19.4682 16.2303 19.2367 16.838C19.2048 16.9018 19.1968 16.9743 19.2142 17.0432C19.2317 17.1121 19.2733 17.173 19.3322 17.2158C20.2711 18.1077 21.206 19.0042 22.1368 19.9055C22.2373 20.0012 22.3321 20.1023 22.4209 20.2082Z" fill="white"/>
</svg>
