<svg width="32" height="32" viewBox="0 0 32 32" fill="none" xmlns="http://www.w3.org/2000/svg">
<path d="M6.06382 16.0104C6.06382 11.8605 6.06382 7.70432 6.06382 3.55444C6.05601 3.20391 6.11951 2.85547 6.25046 2.53022C6.38141 2.20497 6.57709 1.90972 6.8256 1.66239C7.07412 1.41506 7.37022 1.2208 7.69609 1.0914C8.02195 0.961995 8.37074 0.900165 8.72123 0.909636C13.2636 0.947419 17.804 0.947419 22.3422 0.909636C22.6927 0.900165 23.0415 0.961995 23.3674 1.0914C23.6932 1.2208 23.9893 1.41506 24.2378 1.66239C24.4864 1.90972 24.682 2.20497 24.813 2.53022C24.9439 2.85547 25.0074 3.20391 24.9996 3.55444C24.9744 11.8626 24.9744 20.1686 24.9996 28.4726C25.0065 28.8229 24.9424 29.1709 24.8111 29.4958C24.6799 29.8206 24.4842 30.1155 24.2358 30.3627C23.9875 30.6098 23.6917 30.8041 23.3663 30.9338C23.0408 31.0635 22.6925 31.126 22.3422 31.1174C17.7998 31.0796 13.2594 31.0796 8.72123 31.1174C8.36826 31.1262 8.01725 31.0628 7.68963 30.9311C7.36201 30.7995 7.0647 30.6024 6.81592 30.3518C6.56714 30.1013 6.37209 29.8026 6.24277 29.4741C6.11345 29.1455 6.05257 28.794 6.06382 28.4411C6.08901 24.3101 6.06382 20.154 6.06382 16.0104ZM24.0046 25.0154V7.08091H7.03362V25.0154H24.0046ZM15.5097 4.49276H16.7691C17.1092 4.49276 17.317 4.31641 17.3233 4.03304C17.3249 3.96482 17.3115 3.89708 17.2843 3.83448C17.2571 3.77188 17.2168 3.71592 17.1659 3.67044C17.115 3.62496 17.055 3.59103 16.9897 3.57101C16.9245 3.55099 16.8556 3.54533 16.788 3.55444H14.1998C14.1318 3.54598 14.0629 3.55262 13.9978 3.57385C13.9327 3.59508 13.873 3.63042 13.8231 3.67732C13.7732 3.72422 13.7343 3.7815 13.709 3.84517C13.6838 3.90883 13.673 3.97729 13.6772 4.04564C13.6802 4.11059 13.6965 4.17422 13.7252 4.23255C13.7539 4.29089 13.7944 4.34267 13.844 4.38464C13.8937 4.42661 13.9516 4.45786 14.0139 4.47646C14.0762 4.49507 14.1416 4.50063 14.2061 4.49276H15.5097ZM15.5097 28.5356C15.6797 28.5356 15.8434 28.5356 16.0135 28.5356C16.1343 28.5373 16.251 28.4913 16.3382 28.4076C16.4254 28.324 16.4762 28.2093 16.4795 28.0885C16.4848 28.0256 16.4768 27.9623 16.4559 27.9027C16.4351 27.8431 16.4019 27.7887 16.3585 27.7429C16.315 27.6971 16.2623 27.661 16.204 27.637C16.1456 27.613 16.0829 27.6016 16.0198 27.6036C15.6884 27.5847 15.3561 27.5847 15.0248 27.6036C14.9644 27.6027 14.9046 27.6141 14.8487 27.6369C14.7929 27.6598 14.7424 27.6937 14.7001 27.7367C14.6577 27.7796 14.6244 27.8307 14.6023 27.8868C14.5802 27.943 14.5697 28.003 14.5714 28.0633C14.5687 28.126 14.579 28.1886 14.6018 28.2471C14.6246 28.3056 14.6594 28.3588 14.7038 28.4032C14.7482 28.4476 14.8013 28.4823 14.8598 28.5051C14.9183 28.5279 14.9809 28.5383 15.0437 28.5356C15.1948 28.5482 15.3711 28.5356 15.5034 28.5356H15.5097Z" fill="white"/>
<path d="M20.7862 24.0769H10.2634C10.0997 22.3893 10.3327 21.0416 11.863 20.053C11.9092 20.0068 11.9656 19.9719 12.0276 19.9512C12.0896 19.9305 12.1555 19.9245 12.2203 19.9337C12.285 19.9429 12.3468 19.967 12.4006 20.004C12.4544 20.0411 12.4989 20.0902 12.5305 20.1474C12.9117 20.5668 13.3769 20.9011 13.8959 21.1288C14.4149 21.3564 14.9761 21.4722 15.5428 21.4687C16.1095 21.4651 16.6691 21.3422 17.1852 21.1081C17.7012 20.8739 18.1622 20.5338 18.5381 20.1097C18.727 19.8956 18.8655 19.8641 19.1048 20.0152C19.5778 20.2758 19.9786 20.6499 20.2711 21.1039C20.5635 21.5579 20.7383 22.0775 20.7799 22.6159C20.824 23.0882 20.7862 23.5731 20.7862 24.0769Z" fill="white"/>
<path d="M18.6529 17.383C18.658 17.7979 18.58 18.2096 18.4236 18.5939C18.2671 18.9782 18.0354 19.3273 17.742 19.6207C17.4486 19.9141 17.0995 20.1458 16.7152 20.3023C16.3309 20.4587 15.9192 20.5367 15.5043 20.5316C15.0894 20.5367 14.6778 20.4587 14.2935 20.3023C13.9092 20.1458 13.56 19.9141 13.2666 19.6207C12.9732 19.3273 12.7415 18.9782 12.5851 18.5939C12.4286 18.2096 12.3506 17.7979 12.3557 17.383C12.3557 16.5479 12.6875 15.7471 13.278 15.1566C13.8685 14.5661 14.6693 14.2344 15.5043 14.2344C16.3394 14.2344 17.1403 14.5661 17.7308 15.1566C18.3213 15.7471 18.6529 16.5479 18.6529 17.383Z" fill="white"/>
<path d="M15.5223 12.4963H9.85475C9.73178 12.5028 9.6085 12.49 9.48946 12.4585C9.43734 12.4498 9.38767 12.4303 9.34356 12.4011C9.29946 12.372 9.26197 12.334 9.23348 12.2895C9.205 12.245 9.1861 12.195 9.17814 12.1427C9.17017 12.0905 9.17328 12.0372 9.18721 11.9862C9.25836 11.8161 9.37907 11.6713 9.53359 11.5706C9.61545 11.5139 9.76031 11.5706 9.87366 11.5706H21.1143C21.219 11.5612 21.3244 11.5612 21.4291 11.5706C21.5399 11.5818 21.6421 11.635 21.7148 11.7194C21.7874 11.8037 21.8249 11.9128 21.8195 12.024C21.827 12.135 21.7921 12.2448 21.722 12.3312C21.6519 12.4176 21.5518 12.4743 21.4416 12.49C21.3391 12.5026 21.2355 12.5026 21.133 12.49L15.5223 12.4963Z" fill="white"/>
<path d="M15.5214 9.95867H9.94194C9.83918 9.96497 9.73614 9.96497 9.63338 9.95867C9.51648 9.95867 9.40442 9.91223 9.32175 9.82956C9.23908 9.74689 9.19261 9.63476 9.19261 9.51785C9.18385 9.39621 9.22319 9.27597 9.30207 9.18297C9.38095 9.08996 9.49319 9.03157 9.61463 9.02035C9.70898 9.01405 9.80362 9.01405 9.89797 9.02035H21.1384C21.2328 9.01405 21.3276 9.01405 21.4219 9.02035C21.5434 9.03157 21.6555 9.08996 21.7343 9.18297C21.8132 9.27597 21.8526 9.39621 21.8438 9.51785C21.8438 9.63476 21.7973 9.74689 21.7147 9.82956C21.632 9.91223 21.5199 9.95867 21.403 9.95867C21.3003 9.96497 21.1972 9.96497 21.0945 9.95867H15.5214Z" fill="white"/>
</svg>
