<svg width="32" height="32" viewBox="0 0 32 32" fill="none" xmlns="http://www.w3.org/2000/svg">
<path d="M26.5625 17.73C25.096 17.73 23.6712 17.73 22.2464 17.73C21.9877 17.7304 21.7298 17.7599 21.4774 17.8177C20.6041 18.0386 20.1987 18.7042 20.0258 19.5271C19.8215 20.4673 19.8337 21.4426 20.0616 22.3772C20.3378 23.4845 21.0333 24.0392 22.1481 24.0412C23.4983 24.0412 24.8516 24.0412 26.2018 24.0412H26.5238C26.5346 24.1154 26.5416 24.1901 26.5446 24.2651C26.5446 25.1001 26.5446 25.9382 26.5446 26.7732C26.543 27.3628 26.3118 27.9278 25.9014 28.345C25.4909 28.7621 24.9347 28.9976 24.3538 29C17.9672 29 11.5795 29 5.19085 29C4.61002 28.9976 4.05366 28.7621 3.64322 28.345C3.23279 27.9278 3.00157 27.3628 3 26.7732C3 22.8461 3 18.913 3 14.9737C3.00079 14.3842 3.23188 13.8191 3.64257 13.4022C4.05326 12.9853 4.61005 12.7508 5.19085 12.75H24.3538C24.9344 12.7516 25.4907 12.9864 25.9012 13.4031C26.3117 13.8198 26.543 14.3845 26.5446 14.9737C26.5625 15.8965 26.5625 16.7951 26.5625 17.73Z" fill="white"/>
<path d="M7.0625 11.9293L8.98633 10.3638C10.8663 8.83452 12.7462 7.30613 14.6262 5.77864C14.7514 5.66073 14.9026 5.56943 15.0695 5.51104C15.2364 5.45265 15.415 5.42857 15.5929 5.44045C15.7708 5.45234 15.9438 5.49991 16.0999 5.57988C16.2561 5.65986 16.3917 5.77033 16.4974 5.90368C16.6675 6.12804 16.7687 6.39108 16.7902 6.6647C16.8199 7.20794 16.8199 7.75222 16.7902 8.29546C16.7838 8.34419 16.7661 8.39104 16.7383 8.4328C16.7105 8.47456 16.6732 8.51023 16.6292 8.53736C14.2299 9.65715 11.8287 10.7706 9.42557 11.8777C9.36298 11.9117 9.29292 11.9322 9.2206 11.9375C8.54417 11.9321 7.84728 11.9293 7.0625 11.9293Z" fill="white"/>
<path d="M24.5168 23.3113H22.2359C21.4548 23.3113 21.1472 23.0797 20.9893 22.3115C20.8369 21.6068 20.8369 20.8777 20.9893 20.173C21.1363 19.5055 21.4656 19.2522 22.1488 19.2522H26.912C27.0812 19.242 27.2507 19.2677 27.4093 19.3276C27.568 19.3875 27.7122 19.4803 27.8324 19.5999C27.9527 19.7196 28.0464 19.8633 28.1073 20.0216C28.1682 20.18 28.1949 20.3495 28.1858 20.519C28.1858 21.0447 28.1858 21.5678 28.1858 22.0936C28.1872 22.2546 28.1565 22.4143 28.0954 22.5632C28.0342 22.7122 27.944 22.8473 27.8298 22.9608C27.7157 23.0743 27.58 23.1638 27.4308 23.224C27.2816 23.2841 27.1218 23.3138 26.9609 23.3113C26.1553 23.314 25.336 23.3113 24.5168 23.3113ZM23.3437 19.6581C22.9167 19.658 22.5065 19.8253 22.2012 20.1243C21.896 20.4232 21.7199 20.8299 21.7106 21.2572C21.707 21.6893 21.8744 22.1053 22.1764 22.4142C22.4783 22.723 22.8902 22.8996 23.3219 22.9054C23.749 22.9055 24.1591 22.7381 24.4643 22.4392C24.7696 22.1403 24.9458 21.7336 24.955 21.3063C24.9586 20.8742 24.7911 20.4582 24.4892 20.1493C24.1872 19.8405 23.7754 19.6638 23.3437 19.6581Z" fill="white"/>
<path d="M25.0807 11.125L23.3125 9.83919C24.677 9.06885 25.2752 7.95486 25.0807 6.41704C24.7595 6.41704 24.4501 6.43136 24.1436 6.41704C24.0796 6.41356 24.0171 6.39696 23.9602 6.36833C23.9033 6.3397 23.8533 6.2997 23.8135 6.25095C23.794 6.19125 23.7886 6.12805 23.7978 6.06605C23.807 6.00406 23.8304 5.9449 23.8665 5.89298C24.5148 5.03386 25.175 4.16043 25.8381 3.30131C25.8945 3.21058 25.9738 3.13531 26.0685 3.0826C26.1631 3.02989 26.27 3.00149 26.3791 3.00006C26.4882 2.99862 26.5959 3.02421 26.692 3.07441C26.7881 3.12461 26.8695 3.19777 26.9285 3.28699C27.6092 4.14611 28.2752 5.03386 28.9354 5.91875C28.9682 5.96779 28.9891 6.02338 28.9967 6.08138C29.0044 6.13939 28.9985 6.19832 28.9795 6.25381C28.9454 6.30003 28.9014 6.33854 28.8505 6.36671C28.7997 6.39488 28.7432 6.41204 28.6848 6.41704C28.3901 6.43995 28.0689 6.41704 27.7418 6.41704C27.733 7.35433 27.4854 8.2749 27.021 9.09647C26.5566 9.91803 25.89 10.615 25.0807 11.125Z" fill="white"/>
<path d="M20.875 11.9375H11.125C11.252 11.8647 11.3185 11.8222 11.3881 11.7858C13.8619 10.5476 16.3387 9.32469 18.8034 8.06836C18.9872 7.95952 19.1934 7.89466 19.4062 7.87882C19.619 7.86297 19.8327 7.89657 20.0304 7.977C20.2282 8.05744 20.4048 8.18255 20.5465 8.3426C20.6883 8.50265 20.7914 8.69334 20.8478 8.89985C20.8615 8.94535 20.8706 8.99212 20.875 9.03944V11.9375Z" fill="white"/>
<path d="M22.5002 20.8532C22.5037 20.7458 22.5284 20.6402 22.5728 20.5424C22.6173 20.4445 22.6806 20.3564 22.7592 20.283C22.8379 20.2096 22.9303 20.1524 23.031 20.1146C23.1318 20.0769 23.239 20.0593 23.3466 20.063C23.5591 20.0735 23.7591 20.1662 23.9043 20.3213C24.0496 20.4764 24.1287 20.6818 24.1249 20.8941C24.1217 21.0017 24.0972 21.1076 24.0529 21.2058C24.0086 21.3039 23.9453 21.3924 23.8667 21.466C23.788 21.5397 23.6956 21.5972 23.5946 21.6351C23.4937 21.673 23.3862 21.6907 23.2784 21.687C23.0654 21.6764 22.865 21.5834 22.7197 21.4277C22.5744 21.272 22.4957 21.0659 22.5002 20.8532Z" fill="white"/>
</svg>
