<svg width="32" height="32" viewBox="0 0 32 32" fill="none" xmlns="http://www.w3.org/2000/svg">
<path d="M15.9327 19.3863C20.5076 19.3863 24.4139 20.1116 24.4139 23.014C24.4139 25.9151 20.5327 26.6668 15.9327 26.6668C11.3578 26.6668 7.45144 25.9415 7.45144 23.0404C7.45144 20.138 11.3327 19.3863 15.9327 19.3863ZM23.2474 17.6387C24.9964 17.6062 26.8768 17.8464 27.5716 18.0169C29.0437 18.3063 30.0119 18.8971 30.413 19.7557C30.7521 20.4606 30.7521 21.2783 30.413 21.982C29.7994 23.3137 27.8211 23.7412 27.0523 23.8517C26.8935 23.8757 26.7657 23.7376 26.7825 23.5779C27.1752 19.8878 24.0509 18.1382 23.2426 17.7359C23.208 17.7179 23.2009 17.6903 23.2044 17.6735C23.2068 17.6615 23.2211 17.6423 23.2474 17.6387ZM8.75478 17.6391C8.78105 17.6427 8.79418 17.662 8.79657 17.6728C8.80015 17.6908 8.79299 17.7172 8.75956 17.7364C7.95012 18.1387 4.82576 19.8883 5.21854 23.5771C5.23525 23.7381 5.1087 23.8749 4.94992 23.8521C4.18107 23.7417 2.20282 23.3142 1.58917 21.9825C1.24892 21.2776 1.24892 20.461 1.58917 19.7562C1.99031 18.8976 2.95735 18.3068 4.42939 18.0162C5.12542 17.8469 7.00457 17.6067 8.75478 17.6391ZM15.9327 5.3335C19.0475 5.3335 21.5451 7.84319 21.5451 10.9773C21.5451 14.1102 19.0475 16.6223 15.9327 16.6223C12.8179 16.6223 10.3203 14.1102 10.3203 10.9773C10.3203 7.84319 12.8179 5.3335 15.9327 5.3335ZM23.5519 6.27469C26.5604 6.27469 28.9231 9.12181 28.1184 12.2931C27.5752 14.4282 25.6089 15.8463 23.4181 15.7887C23.1985 15.7827 22.9824 15.7623 22.7734 15.7263C22.6218 15.6998 22.5454 15.5281 22.6314 15.4008C23.4671 14.164 23.9434 12.6762 23.9434 11.0791C23.9434 9.4124 23.4229 7.85856 22.5192 6.5845C22.4905 6.54487 22.469 6.48363 22.4977 6.438C22.5215 6.40078 22.5657 6.38156 22.6075 6.37196C22.9119 6.30951 23.2247 6.27469 23.5519 6.27469ZM8.44856 6.27457C8.77568 6.27457 9.08847 6.30939 9.3941 6.37184C9.43469 6.38144 9.48006 6.40186 9.50394 6.43788C9.5314 6.48351 9.5111 6.54475 9.48245 6.58438C8.57869 7.85844 8.05816 9.41228 8.05816 11.079C8.05816 12.6761 8.53451 14.1639 9.37022 15.4007C9.45618 15.528 9.37978 15.6997 9.22815 15.7261C9.01803 15.7634 8.80314 15.7826 8.58346 15.7886C6.39271 15.8462 4.42641 14.4281 3.8832 12.293C3.07733 9.12169 5.44 6.27457 8.44856 6.27457Z" fill="white"/>
</svg>
