<svg width="26" height="26" viewBox="0 0 26 26" fill="none" xmlns="http://www.w3.org/2000/svg">
<path d="M4.84817 8.29782C4.73464 8.26814 4.6432 8.24607 4.55253 8.22172C4.03136 8.07408 3.72659 7.61291 3.77688 7.04748C3.80398 6.80036 3.91748 6.57071 4.09741 6.39894C4.27733 6.22717 4.51215 6.12428 4.76053 6.10839C4.85501 6.10078 4.95026 6.10002 5.04474 6.10002C10.3199 6.10002 15.5945 6.10002 20.8687 6.10002C21.0751 6.09357 21.2812 6.12187 21.4782 6.18373C21.9255 6.34354 22.1693 6.76971 22.1419 7.26589C22.1269 7.48481 22.0445 7.69374 21.9061 7.86414C21.7676 8.03453 21.5799 8.15809 21.3685 8.21791C21.2779 8.24379 21.1849 8.26434 21.0676 8.29402V8.65854C21.0676 13.1485 21.0688 17.6385 21.0714 22.1285C21.0714 22.9001 20.8344 23.5424 20.2157 24.0196C19.8644 24.3011 19.428 24.4554 18.9776 24.4571C18.5966 24.4571 18.2217 24.4571 17.8149 24.4571V8.28793H15.6746V24.4632H15.3782C12.6352 24.4632 9.88534 24.4473 7.13931 24.4708C5.9263 24.4807 5.07522 23.6718 4.89387 22.757C4.85523 22.5232 4.83942 22.2862 4.84664 22.0493C4.8436 17.5883 4.8436 13.1269 4.84664 8.66539L4.84817 8.29782Z" fill="white"/>
<path d="M23.2159 10.3898V3.96384H2.70445V10.3898C2.76693 10.4058 2.83702 10.4279 2.90788 10.4431C3.17041 10.4991 3.40312 10.6497 3.56152 10.8661C3.71992 11.0826 3.79292 11.3498 3.76659 11.6166C3.73262 11.8922 3.59635 12.145 3.38472 12.3251C3.17309 12.5052 2.90151 12.5994 2.62368 12.5892C1.44038 12.5351 0.533675 11.6143 0.528342 10.4294C0.519199 8.26508 0.519199 6.10077 0.528342 3.93645C0.533675 2.72948 1.44267 1.81018 2.6473 1.78583C3.47401 1.76909 4.30148 1.77974 5.12818 1.77974C11.0962 1.77974 17.0647 1.77797 23.0338 1.77441C24.0113 1.77441 24.7527 2.13513 25.1855 3.02171C25.3106 3.2767 25.3785 3.5559 25.3843 3.8398C25.4006 6.0721 25.4021 8.30263 25.3889 10.5314C25.3813 11.6569 24.3382 12.628 23.2235 12.5907C22.9549 12.5838 22.698 12.4797 22.5006 12.2977C22.3032 12.1157 22.1789 11.8682 22.1507 11.6014C22.1275 11.3342 22.2043 11.0679 22.3661 10.8539C22.5279 10.6398 22.7633 10.4932 23.0269 10.4423C23.0856 10.4279 23.1488 10.4073 23.2159 10.3898Z" fill="white"/>
</svg>
