<svg width="26" height="26" viewBox="0 0 26 26" fill="none" xmlns="http://www.w3.org/2000/svg">
<g clip-path="url(#clip0_1615_67827)">
<path d="M16.565 0.573242H17.1915C17.3132 0.606762 17.4363 0.638968 17.556 0.675117C18.17 0.872293 18.6004 1.27716 18.9143 1.82794C19.9112 3.57624 20.9147 5.31994 21.9058 7.07152C21.9469 7.15565 22.009 7.22781 22.0861 7.28109C22.1632 7.33437 22.2527 7.367 22.346 7.37583C23.2015 7.50728 24.007 8.34528 24.0747 9.20892C24.1228 9.82411 24.1142 10.4432 24.1208 11.0611C24.1267 11.5869 23.9069 11.7992 23.3732 11.7992C22.1697 11.7992 20.9661 11.7992 19.7618 11.7992C19.5135 11.7957 19.2653 11.8118 19.0195 11.8471C17.2 12.1422 15.9451 13.1663 15.3818 14.9086C14.8185 16.651 15.2384 18.2094 16.5347 19.5015C17.4126 20.377 18.5089 20.7595 19.7381 20.7641C20.9674 20.7687 22.2098 20.7641 23.4456 20.7641C23.8957 20.7641 24.1169 20.979 24.1215 21.4214C24.1267 21.9353 24.132 22.4493 24.1215 22.9633C24.103 23.729 23.8194 24.381 23.1758 24.8148C22.8856 25.012 22.529 25.1079 22.2026 25.2499H2.49969C2.28911 25.1789 2.06603 25.1329 1.86927 25.0336C1.00919 24.5992 0.574877 23.89 0.574219 22.9245C0.574219 18.4907 0.574219 14.0568 0.574219 9.62299C0.574219 9.57435 0.574219 9.52637 0.574219 9.47839C0.615018 8.31899 1.49945 7.38766 2.65566 7.32194C3.2716 7.2871 3.89083 7.31076 4.50808 7.29105C4.66556 7.28728 4.81987 7.24604 4.9582 7.17077C7.87076 5.48162 10.7734 3.77539 13.6913 2.0961C14.6316 1.55912 15.5101 0.897926 16.565 0.573242ZM7.08898 7.2503L7.11136 7.30091C7.72796 7.30091 8.34521 7.30748 8.96181 7.29565C9.11153 7.29251 9.25827 7.25328 9.38954 7.18129C12.135 5.58941 14.8769 3.9936 17.6152 2.39384C17.6896 2.35046 17.7613 2.30182 17.8383 2.25319C17.8127 2.20784 17.7995 2.17892 17.7811 2.15328C17.4198 1.66429 16.8322 1.57227 16.2399 1.91733C13.52 3.50131 10.7984 5.08617 8.07541 6.67191C7.74638 6.86383 7.41691 7.05663 7.087 7.2503H7.08898ZM20.7331 7.28447C20.3225 6.56544 19.9303 5.87926 19.5276 5.17534L15.9741 7.24504L15.9872 7.28447H20.7331Z" fill="white"/>
<path d="M25.2339 18.2639C25.1023 18.6339 24.9516 18.9868 24.6311 19.2497C24.3051 19.5155 23.8956 19.6577 23.4749 19.6513C22.1989 19.6566 20.9236 19.6651 19.6483 19.6513C17.9091 19.6309 16.5488 18.4288 16.2876 16.7062C16.0244 14.9657 17.3359 13.2069 19.087 12.9644C19.341 12.9319 19.5969 12.9161 19.8529 12.9171C21.0322 12.9125 22.2114 12.9171 23.3907 12.9171C24.3475 12.9171 24.8996 13.32 25.1918 14.2283C25.2038 14.2577 25.2179 14.2863 25.2339 14.3138V18.2639ZM18.5217 16.2711C18.5194 16.5666 18.6345 16.851 18.8417 17.062C19.0489 17.273 19.3313 17.3935 19.6272 17.3969C19.9231 17.3917 20.2053 17.2716 20.4141 17.0622C20.6229 16.8528 20.7419 16.5705 20.7459 16.275C20.7425 15.9832 20.6249 15.7043 20.4184 15.498C20.2118 15.2917 19.9325 15.1742 19.6404 15.1708C19.4941 15.1676 19.3486 15.1938 19.2125 15.2478C19.0765 15.3017 18.9527 15.3824 18.8484 15.4849C18.7441 15.5875 18.6614 15.7099 18.6053 15.845C18.5492 15.98 18.5208 16.1249 18.5217 16.2711Z" fill="white"/>
</g>
<defs>
<clipPath id="clip0_1615_67827">
<rect width="26" height="26" fill="white"/>
</clipPath>
</defs>
</svg>
