<svg width="26" height="26" viewBox="0 0 26 26" fill="none" xmlns="http://www.w3.org/2000/svg">
<path d="M10.232 10.6032C10.0078 11.3856 9.78754 12.1473 9.57304 12.9065C9.36691 13.638 9.79721 14.3219 10.547 14.4326C10.714 14.4512 10.883 14.4354 11.0437 14.3863C11.8933 14.1514 12.7436 13.9185 13.5836 13.6528C13.8329 13.571 14.0607 13.4345 14.2503 13.2533C15.0993 12.433 15.9251 11.5882 16.767 10.7609C16.8614 10.6714 16.9843 10.6179 17.1142 10.6097C19.3245 10.6007 21.5346 10.5987 23.7445 10.6039C24.435 10.6039 24.9323 11.0967 24.9323 11.7838C24.9323 15.3644 24.9323 18.9458 24.9323 22.5281C24.9323 23.212 24.4305 23.7055 23.7406 23.7061H2.98333C2.28313 23.7061 1.79102 23.2107 1.79102 22.505C1.79102 18.9407 1.79102 15.3762 1.79102 11.8115C1.79102 11.0928 2.28185 10.6065 3.00266 10.6058C5.33321 10.6058 7.66377 10.6058 9.99432 10.6058L10.232 10.6032ZM19.1214 15.9953C20.1176 15.9953 21.1137 15.9953 22.1096 15.9953C22.4793 15.9953 22.6152 15.8564 22.6172 15.4838C22.6172 15.0425 22.6204 14.6011 22.6172 14.1598C22.6172 13.8381 22.4677 13.6856 22.1457 13.6856C20.1454 13.6831 18.1452 13.6831 16.1454 13.6856C15.8233 13.6856 15.6771 13.8394 15.6751 14.1611C15.6751 14.5941 15.6751 15.0277 15.6751 15.4607C15.6751 15.8654 15.804 15.9947 16.2072 15.9953C17.1799 15.9962 18.1519 15.9962 19.1233 15.9953H19.1214ZM4.87458 15.2233C4.87191 15.0288 4.94439 14.8408 5.07696 14.6983C5.20953 14.5558 5.39198 14.4699 5.58637 14.4583C6.03728 14.4352 6.37481 14.7285 6.41539 15.1782C6.4418 15.4645 6.59512 15.6247 6.82766 15.608C7.07244 15.5906 7.21415 15.3925 7.18259 15.1049C7.12462 14.6056 6.90754 14.1784 6.46049 13.9468C6.15259 13.7879 5.96899 13.6419 6.01537 13.2623C6.0405 13.0577 5.82664 12.9065 5.62888 12.9142C5.53117 12.9183 5.43862 12.9591 5.36988 13.0286C5.30115 13.0981 5.26134 13.191 5.25849 13.2887C5.2498 13.3845 5.2498 13.481 5.25849 13.5769C5.27073 13.7056 5.21791 13.7525 5.10132 13.7995C4.41401 14.0787 4.00626 14.7601 4.11641 15.4176C4.25103 16.2109 4.82949 16.7243 5.63726 16.7687C6.10556 16.7938 6.41539 17.1026 6.41346 17.5407C6.4146 17.7381 6.33882 17.9283 6.20214 18.0709C6.06546 18.2136 5.8786 18.2975 5.68106 18.305C5.23659 18.3185 4.91581 18.0213 4.87651 17.5587C4.85203 17.2756 4.69743 17.127 4.45072 17.1495C4.2214 17.1701 4.08549 17.3425 4.10804 17.6128C4.1512 18.1332 4.37342 18.5778 4.83657 18.8165C5.14834 18.978 5.31969 19.1298 5.2746 19.5049C5.25012 19.7089 5.42662 19.8395 5.63726 19.844C5.8479 19.8485 5.98511 19.7307 6.02376 19.5223C6.03781 19.4351 6.04062 19.3464 6.03212 19.2585C6.01795 19.097 6.06176 19.0089 6.23375 18.9413C6.55798 18.8148 6.82774 18.579 6.99641 18.2749C7.16507 17.9707 7.22204 17.6173 7.15746 17.2756C7.01381 16.528 6.42829 16.0294 5.65466 15.9966C5.1928 15.9767 4.87587 15.6621 4.87651 15.2226L4.87458 15.2233ZM14.1343 17.5394C12.4951 17.5394 10.8558 17.5394 9.21618 17.5394C8.90505 17.5394 8.73564 17.6758 8.73306 17.9203C8.73048 18.1648 8.90055 18.3063 9.20974 18.3108H9.28188C12.5121 18.3108 15.7426 18.3108 18.9732 18.3108C19.0834 18.3108 19.2212 18.3198 19.2953 18.2613C19.3971 18.1828 19.5091 18.0425 19.5104 17.928C19.5117 17.8135 19.4003 17.6745 19.3011 17.5902C19.2367 17.5343 19.1033 17.542 19.0015 17.542C17.3813 17.5381 15.7595 17.5368 14.1362 17.5381L14.1343 17.5394ZM7.95042 21.3945C9.21812 21.3945 10.4865 21.3945 11.7548 21.3945C12.0376 21.3945 12.2057 21.2337 12.1986 20.9975C12.1915 20.7614 12.0299 20.6321 11.7561 20.6237C11.7155 20.6237 11.6756 20.6237 11.6356 20.6237C9.17925 20.6237 6.72309 20.6237 4.26714 20.6237C4.17919 20.6193 4.091 20.6249 4.00432 20.6405C3.94703 20.6522 3.89326 20.6771 3.84726 20.7131C3.80127 20.7492 3.7643 20.7955 3.7393 20.8483C3.7143 20.9011 3.70196 20.959 3.70324 21.0174C3.70452 21.0758 3.71938 21.1331 3.74666 21.1848C3.83942 21.3733 4.01012 21.3964 4.19757 21.3958C5.44938 21.3941 6.7014 21.3932 7.95364 21.3932L7.95042 21.3945ZM21.124 21.0638C21.0753 20.9458 21.0203 20.8304 20.9591 20.7183C20.5127 20.0106 19.6798 19.6529 18.8508 19.8819C18.387 20.0106 17.949 20.2384 17.5116 20.4532C16.7637 20.8219 16.0359 20.7453 15.6004 20.0267C15.5766 19.9841 15.5441 19.947 15.5051 19.9177C15.466 19.8884 15.4213 19.8677 15.3737 19.8567C15.3262 19.8457 15.2768 19.8448 15.2289 19.854C15.1809 19.8633 15.1355 19.8824 15.0954 19.9102C15.0519 19.9354 15.014 19.9692 14.9838 20.0093C14.9536 20.0495 14.9319 20.0954 14.9199 20.1441C14.9079 20.1929 14.9058 20.2436 14.9138 20.2931C14.9218 20.3427 14.9398 20.3902 14.9665 20.4327C15.2841 20.9596 15.7325 21.3102 16.3573 21.3977C16.9821 21.4852 17.5419 21.2986 18.0849 21.0117C18.3705 20.8521 18.6705 20.7196 18.9809 20.616C19.4827 20.4629 19.989 20.6649 20.2924 21.0902C20.3337 21.1494 20.3568 21.2414 20.4135 21.2652C20.5424 21.3205 20.7047 21.3984 20.8245 21.3649C20.9443 21.3314 21.0235 21.1712 21.124 21.0638ZM11.4314 15.9953C12.1696 15.9953 12.9072 16.003 13.6447 15.9883C13.7826 15.9883 13.9604 15.9284 14.0416 15.8313C14.1131 15.7457 14.1311 15.5315 14.0712 15.4452C14.0248 15.3856 13.9665 15.3362 13.9 15.3003C13.8334 15.2644 13.7601 15.2428 13.6847 15.2368C12.6978 15.2201 11.7116 15.2278 10.7248 15.2278C10.2037 15.2278 9.68127 15.2149 9.16143 15.2374C9.08961 15.2436 9.01991 15.2648 8.95694 15.2999C8.89398 15.3349 8.83919 15.383 8.7962 15.4407C8.76861 15.503 8.75653 15.5709 8.76102 15.6389C8.76551 15.7068 8.78642 15.7726 8.82196 15.8306C8.90248 15.9284 9.07962 15.9883 9.21747 15.9908C9.95567 16.0037 10.6932 15.9953 11.4314 15.9953ZM21.4738 17.5394C21.2258 17.5394 20.9772 17.5349 20.7292 17.5394C20.4644 17.5459 20.3027 17.6996 20.3072 17.9293C20.3118 18.159 20.4651 18.3031 20.7189 18.307C21.2149 18.3151 21.7109 18.3151 22.2069 18.307C22.4594 18.3031 22.6146 18.1474 22.6178 17.928C22.621 17.7086 22.4594 17.5459 22.194 17.542C21.9537 17.533 21.7134 17.5381 21.4738 17.5381V17.5394Z" fill="white"/>
<path d="M16.6188 9.8056C15.7962 8.98531 14.9788 8.16887 14.1504 7.34214C14.1916 7.29839 14.2432 7.23984 14.2979 7.18515L17.9966 3.48963C18.4997 2.98716 19.0099 2.98394 19.5091 3.47998C19.857 3.82547 20.2067 4.16839 20.5494 4.51838C20.9443 4.92242 20.9578 5.48344 20.5642 5.8759C19.2682 7.18022 17.9674 8.48047 16.662 9.77665C16.649 9.78827 16.6345 9.79802 16.6188 9.8056Z" fill="white"/>
<path d="M13.9178 12.5028C13.0928 11.6806 12.2745 10.8667 11.4629 10.0612L13.5809 7.94971L16.0287 10.3945L13.9178 12.5028Z" fill="white"/>
<path d="M10.9866 10.7461L13.2063 12.9651C13.1619 12.9812 13.1077 13.0037 13.0524 13.0198C12.3225 13.2295 11.5921 13.4354 10.8622 13.6483C10.6889 13.6992 10.5292 13.7095 10.392 13.5756C10.2548 13.4418 10.2632 13.2823 10.3108 13.1086C10.5389 12.3269 10.7592 11.5445 10.9866 10.7461Z" fill="white"/>
<path d="M21.2261 6.24854C21.4561 6.8488 21.3627 7.368 20.9556 7.79262C20.3346 8.44243 19.6905 9.06907 19.0528 9.70215C18.8647 9.88873 18.6444 9.88937 18.4788 9.72209C18.3133 9.55482 18.3171 9.34122 18.5072 9.15014C19.083 8.5711 19.675 8.00236 20.2386 7.40982C20.5884 7.04567 20.8983 6.63713 21.2261 6.24854Z" fill="white"/>
<path d="M19.6816 2.59188C19.9986 2.19685 20.4089 1.99869 20.9191 2.09905C21.4073 2.19492 21.7326 2.49794 21.8537 2.98948C21.9826 3.52283 21.7835 3.94167 21.3829 4.28523C20.8199 3.72485 20.2607 3.16898 19.6816 2.59188Z" fill="white"/>
</svg>
