<svg width="26" height="26" viewBox="0 0 26 26" fill="none" xmlns="http://www.w3.org/2000/svg">
<path d="M23.5625 5.41683V11.9168C23.5597 12.4188 23.359 12.8993 23.0041 13.2542C22.6492 13.6092 22.1686 13.8098 21.6667 13.8127H20.8542V8.66683C20.8542 8.02036 20.5974 7.40038 20.1402 6.94326C19.6831 6.48614 19.0631 6.22933 18.4167 6.22933H7.58333C6.93687 6.22933 6.31688 6.48614 5.85976 6.94326C5.40264 7.40038 5.14583 8.02036 5.14583 8.66683V13.8127H4.33333C3.8314 13.8098 3.35084 13.6092 2.99592 13.2542C2.641 12.8993 2.44034 12.4188 2.4375 11.9168V5.41683C2.44034 4.9149 2.641 4.43434 2.99592 4.07942C3.35084 3.72449 3.8314 3.52384 4.33333 3.521H21.6667C22.1686 3.52384 22.6492 3.72449 23.0041 4.07942C23.359 4.43434 23.5597 4.9149 23.5625 5.41683ZM19.2292 8.66683V20.5835C19.2263 21.0854 19.0257 21.566 18.6707 21.9209C18.3158 22.2758 17.8353 22.4765 17.3333 22.4793H8.66667C8.16474 22.4765 7.68418 22.2758 7.32925 21.9209C6.97433 21.566 6.77368 21.0854 6.77083 20.5835V8.66683C6.77364 8.45221 6.86014 8.24718 7.01191 8.09541C7.16368 7.94364 7.36872 7.85714 7.58333 7.85433H18.4167C18.6313 7.85714 18.8363 7.94364 18.9881 8.09541C19.1399 8.24718 19.2264 8.45221 19.2292 8.66683ZM15.1667 16.4018C15.1655 16.0082 15.0433 15.6245 14.8165 15.3028C14.5897 14.9811 14.2695 14.7369 13.8992 14.6035L12.7292 14.1918C12.6749 14.1735 12.6279 14.1385 12.5948 14.0918C12.5617 14.0451 12.5443 13.9891 12.545 13.9318C12.5478 13.859 12.5787 13.7901 12.6312 13.7396C12.6838 13.6891 12.7538 13.6609 12.8267 13.661H13C13.297 13.6592 13.589 13.7378 13.845 13.8885C13.9361 13.9553 14.0401 14.0024 14.1504 14.0267C14.2606 14.0511 14.3748 14.0522 14.4855 14.0299C14.5963 14.0077 14.7011 13.9626 14.7935 13.8976C14.8858 13.8325 14.9636 13.749 15.0218 13.6522C15.08 13.5554 15.1174 13.4475 15.1316 13.3355C15.1458 13.2234 15.1365 13.1097 15.1043 13.0014C15.072 12.8932 15.0176 12.7928 14.9444 12.7068C14.8712 12.6208 14.7809 12.551 14.6792 12.5018C14.3978 12.3305 14.0905 12.206 13.7692 12.1335V11.9168C13.7692 11.7013 13.6836 11.4947 13.5312 11.3423C13.3788 11.1899 13.1722 11.1043 12.9567 11.1043C12.7412 11.1043 12.5345 11.1899 12.3821 11.3423C12.2298 11.4947 12.1442 11.7013 12.1442 11.9168V12.1443C11.764 12.2641 11.4319 12.5021 11.1962 12.8235C10.9604 13.145 10.8333 13.5332 10.8333 13.9318C10.8345 14.3254 10.9567 14.7091 11.1835 15.0309C11.4103 15.3526 11.7305 15.5967 12.1008 15.7302L13.2708 16.1418C13.3251 16.1601 13.3721 16.1952 13.4052 16.2419C13.4383 16.2886 13.4557 16.3446 13.455 16.4018C13.4522 16.4746 13.4213 16.5435 13.3688 16.594C13.3162 16.6445 13.2462 16.6727 13.1733 16.6727H13C12.703 16.6744 12.411 16.5958 12.155 16.4452C12.0639 16.3784 11.9599 16.3313 11.8496 16.3069C11.7394 16.2826 11.6252 16.2815 11.5145 16.3037C11.4037 16.326 11.2989 16.371 11.2065 16.4361C11.1142 16.5011 11.0364 16.5847 10.9782 16.6815C10.92 16.7783 10.8826 16.8861 10.8684 16.9982C10.8542 17.1102 10.8635 17.224 10.8958 17.3322C10.928 17.4405 10.9824 17.5408 11.0556 17.6268C11.1288 17.7129 11.2191 17.7827 11.3208 17.8318C11.6022 18.0032 11.9095 18.1276 12.2308 18.2002V18.4168C12.2308 18.6323 12.3164 18.839 12.4688 18.9914C12.6212 19.1437 12.8278 19.2293 13.0433 19.2293C13.2588 19.2293 13.4655 19.1437 13.6179 18.9914C13.7702 18.839 13.8558 18.6323 13.8558 18.4168V18.1893C14.236 18.0695 14.5681 17.8316 14.8038 17.5101C15.0396 17.1887 15.1667 16.8005 15.1667 16.4018Z" fill="white"/>
</svg>
