<svg width="60" height="60" viewBox="0 0 60 60" fill="none" xmlns="http://www.w3.org/2000/svg">
<path fill-rule="evenodd" clip-rule="evenodd" d="M54.2078 6.38184C53.9673 6.40498 53.7274 6.33277 53.5396 6.18075C53.3518 6.02874 53.2313 5.80908 53.2039 5.56906C53.1765 5.32904 53.2444 5.08785 53.3931 4.89743C53.5417 4.707 53.7592 4.58256 53.9987 4.5509L58.0366 4.07465C58.1717 4.05921 58.3085 4.07383 58.4372 4.11748C58.5659 4.16113 58.6833 4.23271 58.7811 4.3271C58.8789 4.42148 58.9546 4.53634 59.0028 4.66343C59.051 4.79052 59.0704 4.92669 59.0598 5.06219H59.0602L58.7296 9.11453C58.7104 9.35826 58.5953 9.58441 58.4094 9.74325C58.2236 9.90209 57.9823 9.98061 57.7385 9.96156C57.4948 9.94242 57.2686 9.82725 57.1098 9.64137C56.9509 9.4555 56.8724 9.21415 56.8915 8.97039L57.0122 7.49148L46.0382 18.9024C45.9037 19.0501 45.7248 19.1502 45.5284 19.1873C45.3321 19.2245 45.129 19.1968 44.9498 19.1084L33.8161 13.6166L26.345 20.1237C26.6691 19.1489 26.8842 18.1413 26.9864 17.1191L33.0663 11.8238C33.2115 11.6974 33.3925 11.6197 33.5841 11.6013C33.7757 11.583 33.9682 11.625 34.1347 11.7215L45.1605 17.16L55.6948 6.20652L54.2078 6.38184ZM13.0745 27.8462C19.7776 27.8462 25.2115 22.4124 25.2115 15.7093C25.2115 9.00613 19.7776 3.57227 13.0745 3.57227C6.37148 3.57227 0.9375 9.00625 0.9375 15.7094C0.9375 22.4124 6.37148 27.8462 13.0745 27.8462ZM13.9972 22.534V23.3896C13.9972 23.6343 13.9 23.869 13.727 24.042C13.554 24.215 13.3193 24.3122 13.0746 24.3122C12.8299 24.3122 12.5952 24.215 12.4222 24.042C12.2492 23.869 12.152 23.6343 12.152 23.3896V22.517C11.4062 22.3961 10.693 22.1323 10.0823 21.7255C9.22336 21.1534 8.56535 20.3097 8.28727 19.1939C8.23253 18.9582 8.27286 18.7103 8.39953 18.504C8.5262 18.2978 8.72902 18.1497 8.96406 18.0919C9.19911 18.0341 9.44747 18.0712 9.65537 18.1952C9.86326 18.3191 10.014 18.52 10.0748 18.7543C10.2318 19.384 10.6073 19.863 11.0987 20.1903C11.6903 20.5843 12.4464 20.7722 13.2116 20.7538C13.3645 20.7491 13.5171 20.7371 13.6689 20.7178C14.3142 20.6396 14.9612 20.4327 15.4249 20.0809C15.8068 19.7911 16.0611 19.385 16.0484 18.8508C16.0457 18.7865 16.0401 18.7224 16.0315 18.6586C15.9511 17.9964 15.5766 17.5554 15.0782 17.2545C14.4723 16.8886 13.6795 16.6956 12.938 16.5739C12.0381 16.4261 11.0634 16.1586 10.2725 15.6421C9.37453 15.0559 8.72953 14.1893 8.66695 12.8978C8.60437 11.6102 9.15926 10.5773 10.0343 9.86582C10.6066 9.40047 11.3177 9.08102 12.0754 8.92855L12.1521 8.91367V8.02914C12.1521 7.78445 12.2493 7.54978 12.4223 7.37675C12.5954 7.20373 12.83 7.10652 13.0747 7.10652C13.3194 7.10652 13.5541 7.20373 13.7271 7.37675C13.9001 7.54978 13.9973 7.78445 13.9973 8.02914V8.89973C14.1216 8.92117 14.2451 8.94742 14.3674 8.97848C15.6789 9.31094 16.8717 10.1732 17.4984 11.6657C17.5914 11.891 17.5915 12.1439 17.4986 12.3692C17.4057 12.5945 17.2274 12.7739 17.0027 12.8682C16.7779 12.9625 16.525 12.964 16.2992 12.8724C16.0733 12.7808 15.8929 12.6036 15.7973 12.3794C15.4209 11.4829 14.706 10.9653 13.9206 10.7662C13.4344 10.6442 12.9272 10.6321 12.4358 10.7308C11.9674 10.8251 11.5348 11.017 11.1949 11.2933C10.7538 11.652 10.4739 12.1696 10.505 12.8116C10.5341 13.4099 10.8435 13.8183 11.2746 14.0998C11.8127 14.4511 12.5423 14.6441 13.2338 14.7577C14.1671 14.9109 15.1843 15.1657 16.0298 15.6762C16.9828 16.2516 17.7015 17.1159 17.8627 18.4427C17.8754 18.5485 17.8835 18.6707 17.8867 18.8078C17.9154 20.0153 17.364 20.9155 16.5352 21.5444C15.8176 22.0884 14.8958 22.4091 13.9972 22.534ZM51.7664 19.41C51.1312 19.41 50.6132 19.9281 50.6132 20.5633V55.2736C50.6132 55.9089 51.1312 56.4269 51.7664 56.4269H56.9877C57.6229 56.4269 58.1409 55.9088 58.1409 55.2736V20.5633C58.1409 19.9281 57.6229 19.41 56.9877 19.41H51.7664ZM37.7886 34.4186H43.01C43.6453 34.4186 44.1634 34.9367 44.1633 35.572V55.2737C44.1633 55.909 43.6453 56.4271 43.01 56.4271H37.7886C37.1534 56.4271 36.6354 55.909 36.6354 55.2737V35.572C36.6354 34.9367 37.1535 34.4186 37.7886 34.4186ZM23.8106 29.2847H29.0319C29.6672 29.2847 30.1852 29.8028 30.1852 30.438V55.2737C30.1852 55.909 29.6671 56.427 29.0319 56.427H23.8106C23.1755 56.427 22.6574 55.9089 22.6574 55.2737V30.438C22.6574 29.8027 23.1755 29.2847 23.8106 29.2847ZM9.83273 41.9852H15.0539C15.6891 41.9852 16.2071 42.5032 16.2071 43.1384V55.2735C16.2071 55.9088 15.6891 56.4268 15.0539 56.4268H9.83273C9.19746 56.4268 8.67938 55.9087 8.67938 55.2735V43.1385C8.67949 42.5032 9.19746 41.9852 9.83273 41.9852Z" fill="#00A763"/>
</svg>
