<svg width="60" height="60" viewBox="0 0 60 60" fill="none" xmlns="http://www.w3.org/2000/svg">
<g clip-path="url(#clip0_1523_68257)">
<path d="M55.5801 50.7624H54.5477V24.9801C53.5885 24.5661 52.7701 23.8825 52.1918 23.0124C51.2389 24.4507 49.6065 25.4036 47.7536 25.4036C45.9006 25.4036 44.2683 24.4507 43.3154 23.0124C42.3624 24.4507 40.7301 25.4036 38.8771 25.4036C37.0242 25.4036 35.3918 24.4507 34.4389 23.0124C33.4859 24.4507 31.8536 25.4036 30.0006 25.4036C28.1477 25.4036 26.5154 24.4507 25.5624 23.0124C25.0781 23.7498 24.4176 24.3548 23.6407 24.7726C22.8637 25.1904 21.9948 25.4078 21.1126 25.4052C20.2304 25.4025 19.3628 25.18 18.5884 24.7575C17.8139 24.3351 17.157 23.7262 16.6771 22.986C16.1901 23.7112 15.5321 24.3054 14.7612 24.7163C13.9903 25.1271 13.1301 25.342 12.2565 25.3419C11.3767 25.3413 10.5108 25.1226 9.73622 24.7053C8.96167 24.288 8.3027 23.6851 7.81829 22.9507C7.24476 23.8154 6.42417 24.5124 5.45358 24.9183V50.7624H4.42123C3.35358 50.7624 2.48888 51.6272 2.48888 52.6948V56.3654H57.5124V52.6948C57.5124 51.6272 56.6477 50.7624 55.5801 50.7624ZM25.9771 50.7624H11.4624V32.8595C11.4624 31.6595 12.433 30.6801 13.6418 30.6801H23.7977C24.9977 30.6801 25.9771 31.6595 25.9771 32.8595V50.7624ZM47.533 42.3448C47.533 43.1213 46.9065 43.7477 46.1301 43.7477H34.2977C33.5212 43.7477 32.8859 43.1213 32.8859 42.3448V31.6419C32.8859 30.8654 33.5212 30.2389 34.2977 30.2389H46.1301C46.9065 30.2389 47.533 30.8654 47.533 31.6419V42.3448ZM52.8183 17.6389H59.6742L56.9654 11.9036C56.6742 11.286 56.0565 10.8889 55.3683 10.8889H50.5506L52.8183 17.6389ZM9.45947 10.8271H4.64182C3.96241 10.8271 3.33594 11.2242 3.04476 11.8419L0.335938 17.5771H7.183L9.45947 10.8271ZM53.0742 19.4036V20.083C53.0742 22.0419 54.6624 23.6389 56.6301 23.6389C58.5889 23.6389 60.1771 22.0419 60.1771 20.083V19.4036H53.0742Z" fill="#A664FF"/>
<path d="M47.7536 23.6387C49.7125 23.6387 51.3095 22.0416 51.3095 20.0828V19.4034H44.1978V20.0828C44.1978 22.0416 45.7948 23.6387 47.7536 23.6387ZM41.2154 12.5828L40.8713 10.8887H34.8095L35.2683 17.6387H42.2389L41.2154 12.5828ZM8.70069 20.021C8.70069 21.9799 10.2977 23.5769 12.2566 23.5769C14.2154 23.5769 15.8125 21.9799 15.8125 20.021V19.4034H8.70069V20.021ZM48.6889 10.8887H42.6713L43.6948 15.9446L44.0389 17.6387H50.9566L48.6889 10.8887ZM17.5772 20.0828C17.5772 22.0416 19.1654 23.6387 21.133 23.6387C23.0919 23.6387 24.6801 22.0416 24.6801 20.0828V19.4034H17.5772V20.0828ZM6.93598 20.021V19.3416H-0.175781V20.021C-0.175781 21.9799 1.42128 23.5769 3.3801 23.5769C5.33892 23.5769 6.93598 21.9799 6.93598 20.021ZM17.3301 10.8887H11.3213L9.07128 17.5769H15.9801L17.3301 10.8887ZM26.9654 10.8887L26.5066 17.6387H33.4948L33.0448 10.8887H26.9654ZM38.8772 23.6387C40.836 23.6387 42.433 22.0416 42.433 20.0828V19.4034H35.3213V20.0828C35.3213 22.0416 36.9183 23.6387 38.8772 23.6387ZM25.1919 10.8887H19.1389L17.7713 17.6387H24.7419L25.1919 10.8887ZM26.4448 20.0828C26.4448 22.0416 28.0419 23.6387 30.0007 23.6387C31.9595 23.6387 33.5566 22.0416 33.5566 20.0828V19.4034H26.4448V20.0828ZM11.9036 9.12398H54.5477V7.3328C54.5477 5.29457 52.8977 3.63574 50.8595 3.63574H9.15069C7.11245 3.63574 5.45363 5.29457 5.45363 7.3328V9.06221H11.9213L11.9036 9.12398Z" fill="#A664FF"/>
</g>
<defs>
<clipPath id="clip0_1523_68257">
<rect width="60" height="60" fill="white"/>
</clipPath>
</defs>
</svg>
