<svg width="60" height="60" viewBox="0 0 60 60" fill="none" xmlns="http://www.w3.org/2000/svg">
<path d="M22.5525 55.6251C21.7237 55.6285 20.9275 55.3024 20.3391 54.7187C19.7507 54.135 19.4183 53.3414 19.415 52.5126C19.4117 51.6838 19.7377 50.8877 20.3215 50.2993C20.9052 49.7109 21.6987 49.3785 22.5275 49.3751H22.5525C23.3813 49.3751 24.1762 49.7044 24.7622 50.2904C25.3483 50.8765 25.6775 51.6713 25.6775 52.5001C25.6775 53.3289 25.3483 54.1238 24.7622 54.7099C24.1762 55.2959 23.3813 55.6251 22.5525 55.6251ZM45.6775 52.5001C45.6775 51.6713 45.3483 50.8765 44.7622 50.2904C44.1762 49.7044 43.3813 49.3751 42.5525 49.3751H42.5275C41.9105 49.3801 41.3088 49.5675 40.7982 49.9139C40.2876 50.2603 39.891 50.75 39.6583 51.3215C39.4256 51.8929 39.3672 52.5204 39.4906 53.125C39.614 53.7295 39.9136 54.284 40.3516 54.7185C40.7896 55.1531 41.3465 55.4482 41.952 55.5668C42.5575 55.6854 43.1845 55.622 43.7541 55.3848C44.3237 55.1476 44.8102 54.747 45.1525 54.2337C45.4948 53.7203 45.6775 53.1171 45.6775 52.5001ZM52.4 20.9001L49.875 36.3501C49.8427 37.2556 49.6199 38.1441 49.2212 38.9577C48.8224 39.7713 48.2567 40.4918 47.5608 41.072C46.865 41.6523 46.0546 42.0794 45.1826 42.3255C44.3106 42.5715 43.3965 42.6311 42.5 42.5001H21.825C20.6194 42.5031 19.4537 42.0691 18.5435 41.2785C17.6334 40.4879 17.0407 39.3943 16.875 38.2001L13.1225 12.0801C13.0244 11.3293 12.6556 10.6401 12.0852 10.142C11.5148 9.64389 10.7822 9.3712 10.025 9.37514H9.375C8.87772 9.37514 8.40081 9.1776 8.04917 8.82597C7.69754 8.47434 7.5 7.99742 7.5 7.50014C7.5 7.00286 7.69754 6.52595 8.04917 6.17432C8.40081 5.82268 8.87772 5.62514 9.375 5.62514H10.025C11.6839 5.6145 13.2899 6.20865 14.5424 7.29643C15.7949 8.38422 16.6082 9.8911 16.83 11.5351L17.3525 15.0001H47.5C48.2313 15.0028 48.9531 15.1659 49.6145 15.4778C50.2759 15.7898 50.8609 16.243 51.3281 16.8056C51.7953 17.3682 52.1335 18.0264 52.3187 18.7339C52.5039 19.4413 52.5316 20.1808 52.4 20.9001ZM38.7675 24.0901C38.5934 23.9159 38.3866 23.7777 38.1591 23.6834C37.9315 23.5891 37.6876 23.5405 37.4412 23.5405C37.1949 23.5405 36.951 23.5891 36.7234 23.6834C36.4959 23.7777 36.2891 23.9159 36.115 24.0901L30.775 29.4301L28.775 27.4301C28.4215 27.0884 27.948 26.8992 27.4564 26.9032C26.9647 26.9073 26.4944 27.1043 26.1466 27.4517C25.7988 27.7992 25.6014 28.2694 25.5968 28.761C25.5923 29.2526 25.7811 29.7264 26.1225 30.0801L29.455 33.4151C29.8073 33.7658 30.2842 33.9627 30.7812 33.9627C31.2783 33.9627 31.7552 33.7658 32.1075 33.4151L38.7675 26.7501C38.9429 26.5759 39.082 26.3687 39.177 26.1404C39.272 25.9121 39.3209 25.6674 39.3209 25.4201C39.3209 25.1729 39.272 24.9281 39.177 24.6999C39.082 24.4716 38.9429 24.2644 38.7675 24.0901Z" fill="#E101D8"/>
</svg>
