<svg width="60" height="60" viewBox="0 0 60 60" fill="none" xmlns="http://www.w3.org/2000/svg">
<g clip-path="url(#clip0_1523_68243)">
<path d="M45.8203 29.2968L31.7578 33.9843L45.8203 38.6718L59.8828 33.9843L45.8203 29.2968ZM0.117188 33.9843L14.1797 38.6718L28.2422 33.9843L14.1797 29.2968L0.117188 33.9843ZM30.5558 0.0901767C30.195 -0.0300589 29.8049 -0.0300589 29.4441 0.0901767L15.9375 4.5924L30 9.2799L44.0625 4.5924L30.5558 0.0901767ZM15.9375 59.9999L28.2422 55.8984V37.6901L15.9375 41.7917V59.9999ZM0.117188 54.6315C0.117162 55.0004 0.233239 55.36 0.448972 55.6593C0.664706 55.9586 0.969154 56.1824 1.31918 56.299L12.4219 59.9999V41.7917L0.117188 37.6901V54.6315ZM31.7578 55.8984L44.0625 59.9999V41.7917L31.7578 37.6901V55.8984ZM47.5781 59.9999L58.6808 56.299C59.0308 56.1824 59.3353 55.9586 59.551 55.6593C59.7667 55.36 59.8828 55.0004 59.8828 54.6315V37.6901L47.5781 41.7917V59.9999ZM15.9375 26.8359L28.2422 30.9374V12.3998L15.9375 8.29811V26.8359ZM44.0625 26.8359V8.29811L31.7578 12.3998V30.9374L44.0625 26.8359Z" fill="#1570EF"/>
</g>
<defs>
<clipPath id="clip0_1523_68243">
<rect width="60" height="60" fill="white"/>
</clipPath>
</defs>
</svg>
