<svg width="26" height="26" viewBox="0 0 26 26" fill="none" xmlns="http://www.w3.org/2000/svg">
<g clip-path="url(#clip0_1615_67846)">
<path d="M13 0C5.82058 0 0 5.82058 0 13C0 20.1794 5.82058 26 13 26C20.1794 26 26 20.1794 26 13C26 5.82058 20.1794 0 13 0ZM16.7342 18.1251C16.1671 18.8152 15.4288 19.2807 14.5675 19.516C14.193 19.6177 14.0218 19.8156 14.0432 20.2062C14.0593 20.5914 14.0432 20.9712 14.0379 21.3564C14.0379 21.6988 13.8613 21.8807 13.5243 21.8914C13.3049 21.8967 13.0856 21.9021 12.8663 21.9021C12.6737 21.9021 12.4811 21.9021 12.2885 21.8967C11.9247 21.8914 11.7535 21.6827 11.7535 21.3296C11.7481 21.0514 11.7481 20.7679 11.7481 20.4897C11.7428 19.8691 11.7214 19.8477 11.1276 19.7514C10.3679 19.6284 9.61893 19.4572 8.92346 19.1202C8.37778 18.8527 8.31893 18.7189 8.47407 18.1412C8.59177 17.7132 8.70947 17.2852 8.84321 16.8626C8.93951 16.5523 9.03045 16.4132 9.1963 16.4132C9.29259 16.4132 9.41564 16.4613 9.58148 16.5469C10.3519 16.9481 11.1704 17.1728 12.0317 17.2798C12.1761 17.2959 12.3206 17.3066 12.465 17.3066C12.8663 17.3066 13.2568 17.2317 13.6366 17.0658C14.5942 16.6486 14.744 15.5412 13.9362 14.8778C13.6634 14.6531 13.3477 14.4872 13.0214 14.3428C12.1815 13.9737 11.3095 13.6955 10.5177 13.2193C9.23374 12.449 8.42058 11.3951 8.51687 9.83292C8.62387 8.06749 9.62428 6.96543 11.2453 6.37695C11.914 6.13621 11.9193 6.14156 11.9193 5.44609C11.9193 5.2107 11.914 4.97531 11.9247 4.73457C11.9407 4.21029 12.0263 4.11934 12.5506 4.10329H13.1605C14.1556 4.10329 14.1556 4.14609 14.1609 5.2214C14.1663 6.01317 14.1663 6.01317 14.9527 6.13621C15.5572 6.23251 16.1296 6.40905 16.686 6.65514C16.9909 6.78889 17.1086 7.00288 17.0123 7.32922C16.8733 7.8107 16.7395 8.29753 16.5897 8.77366C16.4934 9.06255 16.4025 9.1963 16.2313 9.1963C16.135 9.1963 16.0173 9.15885 15.8675 9.08395C15.0971 8.70947 14.2893 8.52757 13.444 8.52757C13.337 8.52757 13.2247 8.53292 13.1177 8.53827C12.8663 8.55432 12.6202 8.58642 12.3848 8.68807C11.5502 9.05185 11.4165 9.97202 12.128 10.5391C12.4864 10.828 12.8984 11.0313 13.321 11.2078C14.0593 11.5128 14.7975 11.807 15.4984 12.1922C17.7025 13.4226 18.3016 16.2206 16.7342 18.1251Z" fill="white"/>
</g>
<defs>
<clipPath id="clip0_1615_67846">
<rect width="26" height="26" fill="white"/>
</clipPath>
</defs>
</svg>
