<svg width="60" height="60" viewBox="0 0 60 60" fill="none" xmlns="http://www.w3.org/2000/svg">
<path d="M12.1449 21.9154V23.261C12.1449 24.5245 12.6602 25.7633 13.5584 26.6607C14.282 27.3816 14.9279 28.0283 15.5667 28.6672V33.041L12.7855 34.4872L16.0467 41.4313C16.1263 41.601 16.241 41.7518 16.3833 41.8738C16.5256 41.9959 16.6922 42.0863 16.872 42.1391C17.0519 42.1919 17.2409 42.2059 17.4266 42.1801C17.6122 42.1544 17.7903 42.0895 17.949 41.9898L22.5964 39.0719L16.8902 33.3657V29.9933L18.0055 31.1104C18.9075 32.0104 20.1284 32.5177 21.4026 32.5222H23.7752C25.0493 32.5175 26.2702 32.0102 27.1723 31.1104L28.299 29.981V33.3692L22.5964 39.0719L27.2437 41.9889C27.4024 42.0885 27.5804 42.1532 27.766 42.1789C27.9516 42.2045 28.1405 42.1905 28.3202 42.1377C28.4999 42.0849 28.6664 41.9946 28.8086 41.8726C28.9509 41.7507 29.0656 41.6 29.1452 41.4304L32.4064 34.4863L29.6226 33.0392V28.6539L31.6184 26.6598C32.5198 25.7575 33.0282 24.5355 33.0329 23.2601V21.9269C33.6839 21.7842 34.2665 21.4231 34.6838 20.9035C35.1011 20.3839 35.3281 19.7372 35.327 19.0707C35.3249 18.4179 35.1032 17.7848 34.6976 17.2733C34.2921 16.7618 33.7262 16.4016 33.0911 16.2507C33.1414 16.0769 33.1705 15.896 33.1705 15.7098V14.8072C26.1161 12.701 19.0617 12.701 12.0073 14.8072V15.7098C12.0073 15.8995 12.0355 16.0848 12.0876 16.2613C10.8134 16.5763 9.8711 17.7119 9.8711 19.0707C9.87026 19.7327 10.095 20.3753 10.5084 20.8924C10.9217 21.4095 11.499 21.7704 12.1449 21.9154ZM13.4684 17.6245L14.9799 18.3119C15.759 18.6648 16.6299 18.7195 17.4655 18.5281C20.8362 17.7446 24.3416 17.7446 27.7123 18.5281C28.547 18.7195 29.4179 18.6657 30.1979 18.3119L31.7093 17.6245V23.261C31.7057 24.1847 31.3372 25.0696 30.684 25.7228C29.4505 26.9536 28.2629 28.1439 26.2352 30.176C25.582 30.8279 24.698 31.1957 23.7752 31.1995H21.4017C20.4792 31.1955 19.5955 30.8277 18.9426 30.176C17.3676 28.5975 16.0926 27.3181 14.4937 25.7236C13.8408 25.0703 13.4723 24.1855 13.4684 23.2619V17.6245Z" fill="#FB5B0F"/>
<path d="M37.0244 35.8856L33.7862 34.6679L30.345 41.9915C29.6727 43.4332 27.8674 43.9573 26.5421 43.112L22.598 40.6326L18.6539 43.112C18.3363 43.3111 17.98 43.4404 17.6088 43.4914C17.2375 43.5425 16.8595 43.5141 16.5 43.4082C16.1405 43.3022 15.8076 43.1212 15.5233 42.8769C15.239 42.6327 15.0098 42.3309 14.8509 41.9915L11.4097 34.6591L6.48621 36.5121C5.09888 37.0336 3.90367 37.966 3.06019 39.1847C2.2167 40.4035 1.76508 41.8505 1.76563 43.3326V54.6532C1.76563 56.2679 3.07151 57.5738 4.67739 57.5738H9.43327V49.3768C9.43327 49.2012 9.50299 49.0329 9.6271 48.9088C9.7512 48.7847 9.91953 48.715 10.095 48.715C10.2705 48.715 10.4389 48.7847 10.563 48.9088C10.6871 49.0329 10.7568 49.2012 10.7568 49.3768V57.5738H34.4303V57.4856C33.9362 56.8591 33.6539 56.0826 33.6539 55.2268V39.5297C33.6539 37.6062 35.145 36.0268 37.0244 35.8856ZM17.0303 11.2326C17.0303 7.58852 17.9392 4.44735 19.3421 2.67382C17.2561 3.1528 15.3946 4.32595 14.0625 6.00111C12.7304 7.67628 12.0066 9.75415 12.0097 11.8944V13.4297C13.6774 12.9444 15.3539 12.5738 17.0303 12.3268V11.2326ZM18.3539 12.1503C19.7656 11.9826 21.1774 11.9032 22.5892 11.9032C23.9921 11.9032 25.4127 11.9826 26.8244 12.1503V11.2326C26.8244 6.0444 24.8656 2.42676 23.1009 2.42676H22.0686C20.3127 2.42676 18.3539 6.0444 18.3539 11.2326V12.1503ZM28.148 12.3268C29.8244 12.5738 31.5009 12.9444 33.1686 13.4297V11.8944C33.1686 7.3944 30.045 3.63558 25.8362 2.67382C27.2392 4.44735 28.148 7.58852 28.148 11.2326V12.3268ZM44.4953 37.187H48.7094V42.8315H44.4953V37.187Z" fill="#FB5B0F"/>
<path d="M55.8844 37.1875H50.0318V43.4946C50.0318 43.6701 49.9621 43.8384 49.8379 43.9625C49.7138 44.0866 49.5455 44.1563 49.37 44.1563H43.8324C43.6569 44.1563 43.4885 44.0866 43.3644 43.9625C43.2403 43.8384 43.1706 43.6701 43.1706 43.4946V37.1875H37.318C37.0099 37.1875 36.7048 37.2482 36.4202 37.3661C36.1356 37.484 35.8771 37.6569 35.6593 37.8747C35.4415 38.0926 35.2687 38.3513 35.1509 38.6359C35.0331 38.9205 34.9725 39.2256 34.9727 39.5337V55.2254C34.9725 55.5335 35.0331 55.8386 35.1509 56.1232C35.2687 56.4079 35.4415 56.6665 35.6593 56.8844C35.8771 57.1023 36.1356 57.2751 36.4202 57.393C36.7048 57.5109 37.0099 57.5716 37.318 57.5716H55.8844C56.1925 57.5716 56.4975 57.5109 56.7821 57.393C57.0667 57.2751 57.3253 57.1023 57.5431 56.8844C57.7609 56.6665 57.9336 56.4079 58.0514 56.1232C58.1693 55.8386 58.2298 55.5335 58.2297 55.2254V39.5337C58.2298 39.2255 58.1692 38.9204 58.0514 38.6357C57.9335 38.351 57.7607 38.0923 57.5428 37.8744C57.3249 37.6565 57.0662 37.4837 56.7815 37.3659C56.4968 37.248 56.1926 37.1874 55.8844 37.1875ZM51.6774 52.7434H40.9241C40.7486 52.7434 40.5803 52.6737 40.4562 52.5496C40.3321 52.4254 40.2624 52.2571 40.2624 52.0816C40.2624 51.9061 40.3321 51.7378 40.4562 51.6137C40.5803 51.4896 40.7486 51.4199 40.9241 51.4199H51.6765C51.852 51.4199 52.0203 51.4896 52.1444 51.6137C52.2685 51.7378 52.3382 51.9061 52.3382 52.0816C52.3382 52.2571 52.2685 52.4254 52.1444 52.5496C52.0203 52.6737 51.8529 52.7434 51.6774 52.7434ZM51.6774 49.0578H40.9241C40.7486 49.0578 40.5803 48.9881 40.4562 48.864C40.3321 48.7399 40.2624 48.5715 40.2624 48.396C40.2624 48.2205 40.3321 48.0522 40.4562 47.9281C40.5803 47.804 40.7486 47.7343 40.9241 47.7343H51.6765C51.852 47.7343 52.0203 47.804 52.1444 47.9281C52.2685 48.0522 52.3382 48.2205 52.3382 48.396C52.3382 48.5715 52.2685 48.7399 52.1444 48.864C52.0203 48.9881 51.8529 49.0578 51.6774 49.0578Z" fill="#FB5B0F"/>
</svg>
