<svg width="26" height="26" viewBox="0 0 26 26" fill="none" xmlns="http://www.w3.org/2000/svg">
<g clip-path="url(#clip0_1615_67843)">
<path d="M15.6899 5.81502C16.8921 6.56877 17.735 7.84427 17.8885 9.32484C18.3926 9.56198 18.9427 9.68517 19.4998 9.68565C21.606 9.68565 23.313 7.9786 23.313 5.87277C23.313 3.76662 21.606 2.05957 19.4998 2.05957C17.4138 2.06022 15.7217 3.73677 15.6899 5.81502ZM13.1918 13.6225C15.2979 13.6225 17.005 11.9151 17.005 9.80928C17.005 7.70345 15.2976 5.9964 13.1918 5.9964C11.0859 5.9964 9.37791 7.70377 9.37791 9.8096C9.37791 11.9154 11.0859 13.6225 13.1918 13.6225ZM14.8093 13.8824H11.5736C8.88147 13.8824 6.69128 16.0729 6.69128 18.765V22.722L6.70134 22.784L6.97389 22.8693C9.54307 23.6721 11.7751 23.9397 13.6123 23.9397C17.2006 23.9397 19.2805 22.9167 19.4087 22.8515L19.6634 22.7226H19.6906V18.765C19.6916 16.0729 17.5014 13.8824 14.8093 13.8824ZM21.118 9.94588H17.9073C17.8747 11.1856 17.3534 12.3622 16.4569 13.2192C18.8499 13.9307 20.6008 16.1498 20.6008 18.7709V19.9903C23.7709 19.8741 25.5977 18.9756 25.718 18.9153L25.9727 18.7861H26V14.8279C26 12.1361 23.8098 9.94588 21.118 9.94588ZM6.50081 9.6863C7.24677 9.6863 7.94082 9.46858 8.52877 9.09771C8.71325 7.90445 9.34809 6.82729 10.3027 6.0879C10.3066 6.01652 10.3134 5.94578 10.3134 5.87375C10.3134 3.7676 8.60599 2.06054 6.50081 2.06054C4.39433 2.06054 2.68761 3.7676 2.68761 5.87375C2.68761 7.97893 4.39433 9.6863 6.50081 9.6863ZM9.9253 13.2192C9.03384 12.3663 8.51329 11.1972 8.47588 9.96405C8.3568 9.95529 8.23901 9.94588 8.11766 9.94588H4.88234C2.19019 9.94588 0 12.1361 0 14.8279V18.7855L0.0100587 18.8465L0.282616 18.9325C2.34367 19.5759 4.1831 19.8725 5.78081 19.9659V18.7709C5.78146 16.1498 7.53166 13.9314 9.9253 13.2192Z" fill="white"/>
</g>
<defs>
<clipPath id="clip0_1615_67843">
<rect width="26" height="26" fill="white"/>
</clipPath>
</defs>
</svg>
