<svg width="26" height="26" viewBox="0 0 26 26" fill="none" xmlns="http://www.w3.org/2000/svg">
<path d="M21.9375 1.625H15.8438C15.1974 1.62554 14.5778 1.88252 14.1208 2.33952C13.6638 2.79652 13.4068 3.4162 13.4062 4.0625V10.1562C13.4068 10.8026 13.6638 11.4222 14.1208 11.8792C14.5778 12.3362 15.1974 12.5932 15.8438 12.5938H21.9375C22.5838 12.5932 23.2035 12.3362 23.6605 11.8792C24.1175 11.4222 24.3745 10.8026 24.375 10.1562V4.0625C24.3745 3.4162 24.1175 2.79652 23.6605 2.33952C23.2035 1.88252 22.5838 1.62554 21.9375 1.625ZM21.0437 8.85625C21.043 9.19504 20.9078 9.51968 20.6679 9.75886C20.4279 9.99804 20.1029 10.1322 19.7641 10.1319H18.0172C17.6784 10.1322 17.3533 9.99804 17.1134 9.75886C16.8734 9.51968 16.7383 9.19504 16.7375 8.85625V4.49313C16.7375 4.38538 16.7803 4.28205 16.8565 4.20586C16.9327 4.12968 17.036 4.08688 17.1438 4.08688C17.2515 4.08688 17.3548 4.12968 17.431 4.20586C17.5072 4.28205 17.55 4.38538 17.55 4.49313V8.85625C17.5509 8.97952 17.6005 9.09743 17.688 9.18421C17.7756 9.271 17.8939 9.31959 18.0172 9.31938H19.7641C19.8873 9.31959 20.0057 9.271 20.0932 9.18421C20.1808 9.09743 20.2304 8.97952 20.2312 8.85625V4.49313C20.2312 4.38538 20.274 4.28205 20.3502 4.20586C20.4264 4.12968 20.5298 4.08688 20.6375 4.08688C20.7452 4.08688 20.8486 4.12968 20.9248 4.20586C21.0009 4.28205 21.0437 4.38538 21.0437 4.49313V8.85625ZM21.9375 13.4062H15.8438C15.1974 13.4068 14.5778 13.6638 14.1208 14.1208C13.6638 14.5778 13.4068 15.1974 13.4062 15.8438V21.9375C13.4068 22.5838 13.6638 23.2035 14.1208 23.6605C14.5778 24.1175 15.1974 24.3745 15.8438 24.375H21.9375C22.5838 24.3745 23.2035 24.1175 23.6605 23.6605C24.1175 23.2035 24.3745 22.5838 24.375 21.9375V15.8438C24.3745 15.1974 24.1175 14.5778 23.6605 14.1208C23.2035 13.6638 22.5838 13.4068 21.9375 13.4062ZM20.6375 21.9131H17.1438C17.0707 21.9131 16.999 21.8934 16.9362 21.8563C16.8733 21.8191 16.8215 21.7658 16.7863 21.7019C16.7524 21.6365 16.7364 21.5634 16.74 21.4899C16.7436 21.4164 16.7665 21.3452 16.8066 21.2834L19.8778 16.6806H17.1438C17.036 16.6806 16.9327 16.6378 16.8565 16.5616C16.7803 16.4854 16.7375 16.3821 16.7375 16.2744C16.7375 16.1666 16.7803 16.0633 16.8565 15.9871C16.9327 15.9109 17.036 15.8681 17.1438 15.8681H20.6375C20.7105 15.8682 20.7822 15.8878 20.8451 15.925C20.908 15.9621 20.9597 16.0154 20.995 16.0794C21.0288 16.1447 21.0448 16.2178 21.0412 16.2913C21.0377 16.3648 21.0147 16.4361 20.9747 16.4978L17.9034 21.1006H20.6375C20.7452 21.1006 20.8486 21.1434 20.9248 21.2196C21.0009 21.2958 21.0437 21.3991 21.0437 21.5069C21.0437 21.6146 21.0009 21.718 20.9248 21.7941C20.8486 21.8703 20.7452 21.9131 20.6375 21.9131ZM10.1562 13.4062H4.0625C3.4162 13.4068 2.79652 13.6638 2.33952 14.1208C1.88252 14.5778 1.62554 15.1974 1.625 15.8438V21.9375C1.62554 22.5838 1.88252 23.2035 2.33952 23.6605C2.79652 24.1175 3.4162 24.3745 4.0625 24.375H10.1562C10.8026 24.3745 11.4222 24.1175 11.8792 23.6605C12.3362 23.2035 12.5932 22.5838 12.5938 21.9375V15.8438C12.5932 15.1974 12.3362 14.5778 11.8792 14.1208C11.4222 13.6638 10.8026 13.4068 10.1562 13.4062ZM7.51562 20.8528C7.51562 20.9606 7.47282 21.0639 7.39664 21.1401C7.32045 21.2163 7.21712 21.2591 7.10938 21.2591C7.00163 21.2591 6.8983 21.2163 6.82211 21.1401C6.74593 21.0639 6.70312 20.9606 6.70312 20.8528V15.6162C6.70312 15.5085 6.74593 15.4052 6.82211 15.329C6.8983 15.2528 7.00163 15.21 7.10938 15.21C7.21712 15.21 7.32045 15.2528 7.39664 15.329C7.47282 15.4052 7.51562 15.5085 7.51562 15.6162V20.8528ZM9.945 1.625H4.27375C3.57129 1.62511 2.89763 1.90421 2.40092 2.40092C1.90421 2.89763 1.62511 3.57129 1.625 4.27375V9.945C1.62511 10.6475 1.90421 11.3211 2.40092 11.8178C2.89763 12.3145 3.57129 12.5936 4.27375 12.5938H9.945C10.6475 12.5936 11.3211 12.3145 11.8178 11.8178C12.3145 11.3211 12.5936 10.6475 12.5938 9.945V4.27375C12.5936 3.57129 12.3145 2.89763 11.8178 2.40092C11.3211 1.90421 10.6475 1.62511 9.945 1.625ZM10.1644 10.1319H5.90281C5.65183 10.1317 5.4112 10.0319 5.23373 9.85439C5.05626 9.67693 4.95647 9.43629 4.95625 9.18531V5.03344C4.95647 4.78246 5.05626 4.54182 5.23373 4.36435C5.4112 4.18689 5.65183 4.08709 5.90281 4.08688H8.31594C8.56692 4.08709 8.80755 4.18689 8.98502 4.36435C9.16249 4.54182 9.26228 4.78246 9.2625 5.03344V9.18531C9.2616 9.23043 9.25615 9.27535 9.24625 9.31938H10.1644C10.2721 9.31938 10.3755 9.36218 10.4516 9.43836C10.5278 9.51455 10.5706 9.61788 10.5706 9.72563C10.5706 9.83337 10.5278 9.9367 10.4516 10.0129C10.3755 10.0891 10.2721 10.1319 10.1644 10.1319Z" fill="white"/>
<path d="M8.31672 4.89941H5.90359C5.82955 4.89941 5.76953 4.95944 5.76953 5.03348V9.18535C5.76953 9.25939 5.82955 9.31941 5.90359 9.31941H8.31672C8.39076 9.31941 8.45078 9.25939 8.45078 9.18535V5.03348C8.45078 4.95944 8.39076 4.89941 8.31672 4.89941Z" fill="white"/>
</svg>
