<svg width="26" height="26" viewBox="0 0 26 26" fill="none" xmlns="http://www.w3.org/2000/svg">
<path d="M22.5936 21.3379H20.0859V16.3078L18.4765 17.9172L15.5194 18.8543L15.387 18.8576C15.1618 18.8576 14.9465 18.7583 14.8008 18.5861H11.1517C10.9662 18.5861 10.8205 18.4371 10.8205 18.2549C10.8205 18.0695 10.9662 17.9238 11.1517 17.9238H14.6353C14.6386 17.9039 14.6452 17.8808 14.6518 17.8576L15.5592 14.9965L15.8936 14.6621H11.1517C10.9662 14.6621 10.8205 14.5131 10.8205 14.3309C10.8205 14.1455 10.9662 13.9998 11.1517 13.9998H16.5559L20.0859 10.4698V6.83059H16.3108C16.1287 6.83059 15.9797 6.68157 15.9797 6.49945V2.73438H6.07197C5.34015 2.73438 4.7474 3.33043 4.7474 4.06225V21.3379H1.06942C0.981598 21.3379 0.897371 21.3728 0.83527 21.4349C0.773169 21.497 0.738281 21.5812 0.738281 21.669C0.738281 21.7568 0.773169 21.8411 0.83527 21.9032C0.897371 21.9653 0.981598 22.0002 1.06942 22.0002H22.5936C22.6814 22.0002 22.7656 21.9653 22.8277 21.9032C22.8898 21.8411 22.9247 21.7568 22.9247 21.669C22.9247 21.5812 22.8898 21.497 22.8277 21.4349C22.7656 21.3728 22.6814 21.3379 22.5936 21.3379ZM11.1517 6.15175H14.9664C15.1485 6.15175 15.2976 6.30076 15.2976 6.48289C15.2976 6.66502 15.1485 6.81403 14.9664 6.81403H11.1517C10.9662 6.81403 10.8205 6.66502 10.8205 6.48289C10.8205 6.30076 10.9662 6.15175 11.1517 6.15175ZM11.1517 10.0758H17.599C17.7811 10.0758 17.9301 10.2248 17.9301 10.4069C17.9301 10.589 17.7811 10.7381 17.599 10.7381H11.1517C10.9662 10.7381 10.8205 10.589 10.8205 10.4069C10.8205 10.2248 10.9662 10.0758 11.1517 10.0758ZM9.75094 19.1821C9.75094 19.3676 9.60193 19.5133 9.4198 19.5133H7.56541C7.38329 19.5133 7.23427 19.3676 7.23427 19.1821V17.3244C7.23427 17.1423 7.38329 16.9933 7.56541 16.9933H9.4198C9.60193 16.9933 9.75094 17.1423 9.75094 17.3244V19.1821ZM9.75094 15.2581C9.75094 15.4436 9.60193 15.5926 9.4198 15.5926H7.56541C7.38329 15.5926 7.23427 15.4436 7.23427 15.2581V13.4004C7.23427 13.2183 7.38329 13.0693 7.56541 13.0693H9.4198C9.60193 13.0693 9.75094 13.2183 9.75094 13.4004V15.2581ZM9.75094 11.3374C9.75094 11.5195 9.60193 11.6686 9.4198 11.6686H7.56541C7.38329 11.6686 7.23427 11.5195 7.23427 11.3374V9.4764C7.23427 9.29428 7.38329 9.14526 7.56541 9.14526H9.4198C9.60193 9.14526 9.75094 9.29428 9.75094 9.4764V11.3374ZM9.75094 7.4134C9.75094 7.59552 9.60193 7.74454 9.4198 7.74454H7.56541C7.38329 7.74454 7.23427 7.59552 7.23427 7.4134V5.55238C7.23427 5.37026 7.38329 5.22124 7.56541 5.22124H9.4198C9.60193 5.22124 9.75094 5.37026 9.75094 5.55238V7.4134Z" fill="white"/>
<path d="M16.6424 2.92676V6.16863H19.8942L16.6424 2.92676ZM15.4172 18.1924L17.7683 17.4473L16.0298 15.7088L15.2847 18.0566C15.2582 18.1394 15.3344 18.2155 15.4172 18.1924ZM16.3702 15.1164L21.4426 10.044L23.4261 12.0272L18.3534 17.0996L16.3702 15.1164ZM23.6725 8.75815C23.4109 8.49986 22.9937 8.49986 22.7321 8.75815L21.9141 9.57607L23.8977 11.5596L24.7156 10.7417C24.9739 10.4834 24.9739 10.0628 24.7156 9.80455L23.6725 8.75815ZM8.84898 9.84727L8.26882 10.4201L8.09663 10.2443C8.07915 10.2267 8.05837 10.2127 8.03548 10.2031C8.01259 10.1935 7.98803 10.1886 7.96322 10.1885C7.9384 10.1884 7.91381 10.1932 7.89085 10.2026C7.86789 10.212 7.84701 10.2258 7.8294 10.2433C7.81179 10.2608 7.79779 10.2816 7.78821 10.3045C7.77863 10.3274 7.77365 10.3519 7.77356 10.3767C7.77346 10.4015 7.77826 10.4261 7.78767 10.4491C7.79708 10.4721 7.81092 10.4929 7.8284 10.5105L8.13272 10.8185C8.14985 10.8364 8.1704 10.8507 8.19316 10.8605C8.21591 10.8703 8.24041 10.8754 8.26518 10.8755H8.26684C8.29145 10.8755 8.31584 10.8707 8.33858 10.8613C8.36132 10.8518 8.38196 10.838 8.39929 10.8205L9.11356 10.1175C9.1313 10.1001 9.14545 10.0794 9.15518 10.0565C9.16492 10.0336 9.17006 10.0091 9.1703 9.98425C9.17055 9.9594 9.1659 9.93475 9.15662 9.91171C9.14734 9.88866 9.13361 9.86766 9.11621 9.84992C9.09882 9.83218 9.0781 9.81804 9.05524 9.8083C9.03238 9.79857 9.00783 9.79343 8.98298 9.79318C8.95813 9.79294 8.93348 9.79759 8.91044 9.80687C8.88739 9.81615 8.86672 9.82988 8.84898 9.84727ZM8.84898 5.96498L8.26882 6.53719L8.09663 6.36168C8.07913 6.34407 8.05832 6.33008 8.03541 6.32051C8.0125 6.31093 7.98793 6.30597 7.9631 6.30589C7.93827 6.30581 7.91367 6.31063 7.8907 6.32006C7.86773 6.32949 7.84684 6.34335 7.82923 6.36085C7.81162 6.37836 7.79763 6.39916 7.78806 6.42207C7.77848 6.44498 7.77352 6.46955 7.77344 6.49438C7.77336 6.51921 7.77818 6.54381 7.78761 6.56678C7.79704 6.58975 7.8109 6.61064 7.8284 6.62825L8.13272 6.93621C8.1499 6.95399 8.17048 6.96814 8.19323 6.97781C8.21599 6.98748 8.24045 6.99248 8.26518 6.99251H8.26684C8.29143 6.99262 8.31581 6.98785 8.33854 6.97847C8.36128 6.96909 8.38193 6.95529 8.39929 6.93787L9.11356 6.23486C9.1313 6.21746 9.14545 6.19674 9.15518 6.17388C9.16492 6.15102 9.17006 6.12647 9.1703 6.10162C9.17055 6.07678 9.1659 6.05213 9.15662 6.02908C9.14734 6.00603 9.13361 5.98504 9.11621 5.96729C9.09882 5.94955 9.0781 5.93541 9.05524 5.92567C9.03238 5.91594 9.00783 5.9108 8.98298 5.91056C8.95813 5.91031 8.93348 5.91496 8.91044 5.92424C8.88739 5.93352 8.86639 5.94725 8.84865 5.96464L8.84898 5.96498Z" fill="white"/>
</svg>
