<svg width="26" height="26" viewBox="0 0 26 26" fill="none" xmlns="http://www.w3.org/2000/svg">
<path d="M22.2948 20.8568L19.3251 15.4658C18.027 16.9049 16.2776 17.8592 14.3648 18.1714L17.4401 23.7574C17.4752 23.8215 17.5269 23.875 17.5898 23.9121C17.6528 23.9493 17.7245 23.9688 17.7976 23.9686C17.8721 23.9662 17.9445 23.9433 18.0068 23.9024C18.0692 23.8616 18.1191 23.8044 18.1511 23.7371L19.3089 21.2996L21.8967 21.4743C21.9694 21.4791 22.0421 21.4644 22.1071 21.4315C22.1722 21.3986 22.2272 21.3488 22.2664 21.2874C22.3111 21.2255 22.3375 21.1523 22.3425 21.0762C22.3475 21 22.331 20.924 22.2948 20.8568ZM6.6745 15.4658L3.70482 20.8568C3.66916 20.9185 3.65039 20.9886 3.65039 21.0599C3.65039 21.1312 3.66916 21.2013 3.70482 21.263C3.74401 21.3245 3.79901 21.3742 3.86405 21.4071C3.9291 21.44 4.00179 21.4548 4.07451 21.4499L6.66232 21.2752L7.82013 23.7127C7.85213 23.78 7.90204 23.8372 7.96437 23.878C8.02671 23.9189 8.09908 23.9418 8.17357 23.9443C8.24665 23.9445 8.31843 23.9249 8.38135 23.8878C8.44426 23.8506 8.49599 23.7971 8.53107 23.733L11.6064 18.1471C9.70703 17.8353 7.96893 16.8903 6.6745 15.4658Z" fill="white"/>
<path d="M20.7188 9.75C20.7188 8.22338 20.2661 6.73104 19.4179 5.4617C18.5698 4.19235 17.3643 3.20302 15.9538 2.61881C14.5434 2.03459 12.9914 1.88174 11.4941 2.17957C9.99686 2.4774 8.62151 3.21254 7.54202 4.29202C6.46254 5.37151 5.7274 6.74686 5.42957 8.24415C5.13174 9.74144 5.28459 11.2934 5.86881 12.7038C6.45302 14.1143 7.44235 15.3198 8.7117 16.1679C9.98104 17.0161 11.4734 17.4688 13 17.4688C15.0471 17.4688 17.0104 16.6555 18.458 15.208C19.9055 13.7604 20.7188 11.7971 20.7188 9.75ZM13 16.6563C11.6341 16.6563 10.2988 16.2512 9.1631 15.4923C8.02737 14.7335 7.14218 13.6549 6.61946 12.3929C6.09674 11.131 5.95998 9.74234 6.22646 8.40266C6.49293 7.06298 7.15069 5.8324 8.11655 4.86655C9.0824 3.90069 10.313 3.24293 11.6527 2.97646C12.9923 2.70998 14.381 2.84674 15.6429 3.36946C16.9049 3.89218 17.9835 4.77737 18.7423 5.9131C19.5012 7.04882 19.9063 8.38408 19.9063 9.75C19.9063 11.5817 19.1786 13.3383 17.8835 14.6335C16.5883 15.9286 14.8317 16.6563 13 16.6563Z" fill="white"/>
<path d="M13 3.65625C11.7948 3.65625 10.6166 4.01364 9.6145 4.68323C8.61238 5.35282 7.83133 6.30454 7.37011 7.41802C6.90889 8.53151 6.78821 9.75676 7.02334 10.9388C7.25847 12.1209 7.83884 13.2067 8.69107 14.0589C9.5433 14.9112 10.6291 15.4915 11.8112 15.7267C12.9932 15.9618 14.2185 15.8411 15.332 15.3799C16.4455 14.9187 17.3972 14.1376 18.0668 13.1355C18.7364 12.1334 19.0938 10.9552 19.0938 9.75C19.0938 8.13384 18.4517 6.58387 17.3089 5.44107C16.1661 4.29827 14.6162 3.65625 13 3.65625ZM16.9488 8.76281L15.2628 10.4894L15.6691 12.9269C15.6786 12.9854 15.6751 13.0453 15.659 13.1024C15.6429 13.1594 15.6145 13.2123 15.5758 13.2572C15.537 13.3021 15.489 13.338 15.4349 13.3623C15.3808 13.3867 15.3221 13.3989 15.2628 13.3981C15.1948 13.3985 15.1277 13.3817 15.0678 13.3494L13 12.2159L10.9363 13.3575C10.8707 13.3931 10.7966 13.41 10.7221 13.4063C10.6476 13.4026 10.5755 13.3784 10.5138 13.3364C10.4521 13.2945 10.4032 13.2363 10.3724 13.1684C10.3415 13.1004 10.33 13.0253 10.3391 12.9513L10.7453 10.5137L9.05938 8.78719C9.00797 8.73351 8.97228 8.66676 8.95618 8.5942C8.94008 8.52164 8.94419 8.44606 8.96807 8.37568C8.99195 8.30529 9.03468 8.24281 9.09161 8.19503C9.14854 8.14725 9.21748 8.116 9.29094 8.10469L11.5944 7.71875L12.6303 5.50875C12.6626 5.43782 12.7147 5.37769 12.7802 5.33552C12.8458 5.29336 12.9221 5.27093 13 5.27093C13.0779 5.27093 13.1542 5.29336 13.2198 5.33552C13.2853 5.37769 13.3374 5.43782 13.3697 5.50875L14.4056 7.71875L16.7172 8.07219C16.7906 8.0835 16.8596 8.11475 16.9165 8.16253C16.9734 8.21031 17.0162 8.27279 17.0401 8.34318C17.0639 8.41356 17.0681 8.48914 17.052 8.5617C17.0359 8.63426 17.0002 8.70101 16.9488 8.75469V8.76281Z" fill="white"/>
</svg>
