<svg width="26" height="26" viewBox="0 0 26 26" fill="none" xmlns="http://www.w3.org/2000/svg">
<g clip-path="url(#clip0_1615_67821)">
<path d="M0.801684 3.35182L1.87865 2.27485L4.1211 4.51725L3.04413 5.59421L0.801684 3.35182ZM0 7.61719H3.10065V9.14062H0V7.61719ZM0.818543 13.387L3.05871 11.1467L4.13568 12.2237L1.89551 14.4639L0.818543 13.387ZM21.8754 4.51953L24.1178 2.27703L25.1948 3.35405L22.9523 5.59645L21.8754 4.51953ZM22.8993 7.61719H26V9.14062H22.8993V7.61719ZM21.8588 12.2259L22.9358 11.149L25.1759 13.3891L24.099 14.4661L21.8588 12.2259ZM13 26C15.1 26 16.8086 24.2914 16.8086 22.1914V19.8047H9.19141V22.1914C9.19141 24.2914 10.9 26 13 26ZM21.2509 6.89934C20.5591 2.90184 17.089 0 13 0C8.91099 0 5.44086 2.90184 4.74906 6.90011C4.26999 9.67027 5.18573 12.4784 7.1986 14.4102C8.27684 15.4454 8.93217 16.8281 9.11229 18.2812H16.8878C17.0682 16.8275 17.7234 15.4452 18.8014 14.4102C20.8143 12.4784 21.73 9.67027 21.2509 6.89934ZM13.7617 13.7109H12.2383V12.1875H13.7617V13.7109ZM14.3539 8.69644C13.9831 8.96949 13.7617 9.40682 13.7617 9.86639V10.6641H12.2383V9.86639C12.2383 8.92455 12.6915 8.02862 13.4507 7.46967C13.6484 7.32413 13.7617 7.10029 13.7617 6.85547C13.7617 6.43546 13.42 6.09375 13 6.09375C12.58 6.09375 12.2383 6.43546 12.2383 6.85547V7.61719H10.7148V6.85547C10.7148 5.59543 11.74 4.57031 13 4.57031C14.26 4.57031 15.2852 5.59543 15.2852 6.85547C15.2852 7.5789 14.937 8.26714 14.3539 8.69644Z" fill="white"/>
</g>
<defs>
<clipPath id="clip0_1615_67821">
<rect width="26" height="26" fill="white"/>
</clipPath>
</defs>
</svg>
