<svg width="24" height="24" viewBox="0 0 24 24" fill="none" xmlns="http://www.w3.org/2000/svg">
<path d="M21.6363 12L22.8522 9.89866C22.9983 9.64584 23.038 9.34534 22.9627 9.06323C22.8873 8.78111 22.7029 8.54049 22.4502 8.39425L20.3467 7.17839V4.75548C20.3467 4.46339 20.2306 4.18327 20.0241 3.97673C19.8175 3.77019 19.5374 3.65416 19.2453 3.65416H16.8235L15.6087 1.55173C15.4628 1.29879 15.2223 1.11419 14.9402 1.03852C14.8005 1.00107 14.6548 0.991527 14.5113 1.01042C14.3679 1.02932 14.2296 1.07629 14.1043 1.14865L12.0008 2.36451L9.89725 1.14755C9.6443 1.00151 9.34369 0.961933 9.06156 1.03753C8.77943 1.11312 8.53889 1.29769 8.39284 1.55063L7.17697 3.65416H4.75515C4.46306 3.65416 4.18293 3.77019 3.97639 3.97673C3.76985 4.18327 3.65382 4.46339 3.65382 4.75548V7.17729L1.55028 8.39315C1.42498 8.46556 1.31518 8.56195 1.22716 8.67682C1.13913 8.79169 1.07461 8.92278 1.03728 9.0626C0.999944 9.20241 0.990534 9.34822 1.00958 9.49168C1.02863 9.63513 1.07577 9.77343 1.1483 9.89866L2.36416 12L1.1483 14.1013C1.00291 14.3544 0.963464 14.6546 1.03856 14.9367C1.11366 15.2187 1.2972 15.4596 1.54918 15.6068L3.65272 16.8227V19.2445C3.65272 19.5366 3.76875 19.8167 3.97529 20.0232C4.18183 20.2298 4.46196 20.3458 4.75405 20.3458H7.17697L8.39284 22.4493C8.49034 22.616 8.62955 22.7544 8.79678 22.851C8.96401 22.9475 9.15349 22.9989 9.34659 23C9.53822 23 9.72875 22.9493 9.89835 22.8513L11.9997 21.6355L14.1032 22.8513C14.356 22.9974 14.6565 23.0372 14.9387 22.9618C15.2208 22.8864 15.4614 22.7021 15.6076 22.4493L16.8224 20.3458H19.2442C19.5363 20.3458 19.8164 20.2298 20.023 20.0232C20.2295 19.8167 20.3456 19.5366 20.3456 19.2445V16.8227L22.4491 15.6068C22.5744 15.5344 22.6842 15.438 22.7722 15.3231C22.8602 15.2083 22.9248 15.0772 22.9621 14.9374C22.9994 14.7976 23.0088 14.6517 22.9898 14.5083C22.9707 14.3648 22.9236 14.2265 22.8511 14.1013L21.6363 12ZM9.24636 6.48236C9.68465 6.4825 10.1049 6.65675 10.4147 6.96676C10.7245 7.27678 10.8985 7.69716 10.8984 8.13544C10.8982 8.57372 10.724 8.99399 10.414 9.3038C10.1039 9.61361 9.68355 9.78757 9.24526 9.78743C8.80698 9.78728 8.38671 9.61303 8.0769 9.30302C7.76709 8.99301 7.59313 8.57262 7.59327 8.13434C7.59342 7.69606 7.76766 7.27579 8.07768 6.96598C8.38769 6.65618 8.80808 6.48221 9.24636 6.48236ZM9.57676 17.0551L7.81464 15.7346L14.4226 6.92399L16.1847 8.24447L9.57676 17.0551ZM14.753 17.4956C14.536 17.4955 14.3211 17.4527 14.1206 17.3696C13.9202 17.2865 13.738 17.1647 13.5846 17.0112C13.4312 16.8577 13.3096 16.6755 13.2266 16.4749C13.1436 16.2744 13.1009 16.0595 13.101 15.8425C13.1011 15.6255 13.1439 15.4106 13.227 15.2101C13.3101 15.0097 13.4319 14.8275 13.5854 14.6741C13.7389 14.5207 13.9211 14.3991 14.1217 14.3161C14.3222 14.2331 14.5371 14.1904 14.7541 14.1905C15.1924 14.1907 15.6127 14.3649 15.9225 14.6749C16.2323 14.9849 16.4062 15.4053 16.4061 15.8436C16.406 16.2819 16.2317 16.7022 15.9217 17.012C15.6117 17.3218 15.1913 17.4957 14.753 17.4956Z" fill="white"/>
</svg>
