<svg width="24" height="24" viewBox="0 0 24 24" fill="none" xmlns="http://www.w3.org/2000/svg">
<g clip-path="url(#clip0_1438_73789)">
<path d="M4.33384 23.036C3.70829 23.1664 3.11719 22.6915 3.11719 22.0525V3.43235C3.11719 2.96295 3.44361 2.55623 3.90276 2.45864C8.84407 1.40834 13.8021 0.713489 18.7416 0.380512C19.0284 0.361762 19.2609 0.581137 19.2609 0.869887V20.4918C19.2609 20.7805 19.0284 21.0299 18.7416 21.0486C13.9457 21.3719 9.13239 22.0364 4.33384 23.036Z" fill="white"/>
<path d="M5.39062 9.25106C9.25313 8.48606 13.125 7.93855 16.9856 7.6123M5.39062 11.8554C7.03669 11.5287 8.69028 11.2411 10.35 10.9929M5.39062 14.4579C7.03669 14.1312 8.69028 13.8436 10.35 13.5954M5.39062 19.7942C9.25313 19.0292 13.125 18.4817 16.9856 18.1554M5.39062 17.0623C7.03669 16.7356 8.69028 16.448 10.35 16.1998" stroke="#FF6362" stroke-width="0.46875" stroke-miterlimit="10" stroke-linecap="round" stroke-linejoin="round"/>
<path d="M12.1614 16.4159C13.6994 16.2136 15.2416 16.0454 16.787 15.9115C17.0664 15.8871 17.2914 15.6415 17.2914 15.3602V10.2265C17.2914 9.94523 17.0645 9.73711 16.787 9.76148C15.2458 9.89461 13.7045 10.0634 12.1614 10.2659C11.882 10.3034 11.6552 10.5621 11.6552 10.8415V15.9752C11.657 16.2565 11.882 16.4534 12.1614 16.4159ZM5.71142 6.63961C6.09204 6.56461 6.47079 6.49336 6.85142 6.42398C7.13079 6.37336 7.35579 6.10523 7.35579 5.82398V4.50773C7.35579 4.22648 7.12892 4.04086 6.85142 4.09148C6.47079 4.16086 6.09204 4.23398 5.71142 4.30711C5.43204 4.36148 5.20704 4.63523 5.20704 4.91461V6.23086C5.20517 6.51211 5.43204 6.69398 5.71142 6.63961ZM8.70392 6.09961C9.08454 6.03586 9.46329 5.97586 9.84392 5.91773C10.1233 5.87461 10.3502 5.61398 10.3502 5.33273V4.01648C10.3502 3.73523 10.1233 3.54211 9.84392 3.58523C9.46329 3.64336 9.08267 3.70523 8.70392 3.76711C8.42454 3.81398 8.19954 4.08023 8.19954 4.35961V5.67586C8.19954 5.95711 8.42454 6.14648 8.70392 6.09961ZM11.6983 5.64773C12.0789 5.59523 12.4595 5.54648 12.8383 5.49773C13.1177 5.46211 13.3445 5.20898 13.3445 4.92773V3.61148C13.3445 3.33023 13.1177 3.12961 12.8383 3.16523C12.4577 3.21211 12.077 3.26273 11.6983 3.31523C11.4189 3.35273 11.192 3.61336 11.192 3.89273V5.20898C11.1939 5.49023 11.4208 5.68523 11.6983 5.64773Z" fill="#FF6362"/>
</g>
<defs>
<clipPath id="clip0_1438_73789">
<rect width="24" height="24" fill="white"/>
</clipPath>
</defs>
</svg>
