<svg width="24" height="24" viewBox="0 0 24 24" fill="none" xmlns="http://www.w3.org/2000/svg">
<path d="M3.11111 10.8889H9.77778C10.0725 10.8889 10.3551 10.7718 10.5635 10.5635C10.7718 10.3551 10.8889 10.0725 10.8889 9.77778V3.11111C10.8889 2.81643 10.7718 2.53381 10.5635 2.32544C10.3551 2.11706 10.0725 2 9.77778 2H3.11111C2.81643 2 2.53381 2.11706 2.32544 2.32544C2.11706 2.53381 2 2.81643 2 3.11111V9.77778C2 10.0725 2.11706 10.3551 2.32544 10.5635C2.53381 10.7718 2.81643 10.8889 3.11111 10.8889ZM14.2222 10.8889H20.8889C21.1836 10.8889 21.4662 10.7718 21.6746 10.5635C21.8829 10.3551 22 10.0725 22 9.77778V3.11111C22 2.81643 21.8829 2.53381 21.6746 2.32544C21.4662 2.11706 21.1836 2 20.8889 2H14.2222C13.9275 2 13.6449 2.11706 13.4365 2.32544C13.2282 2.53381 13.1111 2.81643 13.1111 3.11111V9.77778C13.1111 10.0725 13.2282 10.3551 13.4365 10.5635C13.6449 10.7718 13.9275 10.8889 14.2222 10.8889ZM3.11111 22H9.77778C10.0725 22 10.3551 21.8829 10.5635 21.6746C10.7718 21.4662 10.8889 21.1836 10.8889 20.8889V14.2222C10.8889 13.9275 10.7718 13.6449 10.5635 13.4365C10.3551 13.2282 10.0725 13.1111 9.77778 13.1111H3.11111C2.81643 13.1111 2.53381 13.2282 2.32544 13.4365C2.11706 13.6449 2 13.9275 2 14.2222V20.8889C2 21.1836 2.11706 21.4662 2.32544 21.6746C2.53381 21.8829 2.81643 22 3.11111 22ZM17.5556 22C20.0067 22 22 20.0067 22 17.5556C22 15.1044 20.0067 13.1111 17.5556 13.1111C15.1044 13.1111 13.1111 15.1044 13.1111 17.5556C13.1111 20.0067 15.1044 22 17.5556 22Z" fill="white"/>
</svg>
