<svg width="24" height="24" viewBox="0 0 24 24" fill="none" xmlns="http://www.w3.org/2000/svg">
<g clip-path="url(#clip0_1438_73780)">
<path d="M0 19.1999C0 20.5199 1.08 21.5999 2.4 21.5999H22.2C23.16 21.5999 24 20.7599 24 19.7999V7.7999C24 6.8399 23.16 5.9999 22.2 5.9999H21.6V17.9999C21.6 18.7199 21.12 19.1999 20.4 19.1999V4.7999C20.4 3.4799 19.32 2.3999 18 2.3999H2.4C1.08 2.3999 0 3.4799 0 4.7999V19.1999ZM3.6 4.7999H16.8V9.5999H3.6V4.7999ZM3.6 11.9999H8.4V17.9999H3.6V11.9999ZM9.6 11.9999H16.8V13.1999H9.6V11.9999ZM9.6 14.3999H16.8V15.5999H9.6V14.3999ZM9.6 16.7999H16.8V17.9999H9.6V16.7999Z" fill="white"/>
</g>
<defs>
<clipPath id="clip0_1438_73780">
<rect width="24" height="24" fill="white"/>
</clipPath>
</defs>
</svg>
