<svg width="24" height="24" viewBox="0 0 24 24" fill="none" xmlns="http://www.w3.org/2000/svg">
<g clip-path="url(#clip0_1438_73990)">
<path d="M7.33464 11L6.66797 13.0667H8.0013L7.33464 11Z" fill="white"/>
<path d="M20.871 1H10.5161C9.96384 1 9.51613 1.44772 9.51613 2V4.60825H12.3548V6.05155H3.12903C1.92258 6.05155 1 6.98969 1 8.2165V16.1546C1 17.3814 1.92258 18.3196 3.12903 18.3196H3.83871V22L8.30968 18.3196H12.0645C12.6168 18.3196 13.0645 17.8719 13.0645 17.3196V13.268H20.871C22.0774 13.268 23 12.3299 23 11.1031V3.16495C23 1.93814 22.0774 1 20.871 1ZM8.66452 15.3608L8.30968 14.2062H6.10968L5.68387 15.3608H3.98064L6.32258 8.93814H8.02581L10.3677 15.3608H8.66452ZM19.4516 9.65979V11.1031C18.529 11.1031 17.5355 10.8144 16.6839 10.3814C15.8323 10.8144 14.8387 11.0309 13.8452 11.1031L13.7742 9.65979C14.271 9.65979 14.7677 9.58763 15.2645 9.4433C14.6258 8.79381 14.2 8 13.9871 7.13402H15.4774C15.6903 7.78351 16.1161 8.28866 16.6129 8.72165C17.3935 8.07217 17.8903 7.13402 17.9613 6.05155H13.7032V4.60825H15.8323V3.16495H17.2516V4.60825H19.5935L19.6645 5.3299C19.7355 6.84536 19.1677 8.36083 18.1032 9.4433C18.6 9.58763 19.0258 9.65979 19.4516 9.65979Z" fill="white"/>
</g>
<defs>
<clipPath id="clip0_1438_73990">
<rect width="24" height="24" fill="white"/>
</clipPath>
</defs>
</svg>
