<svg width="24" height="24" viewBox="0 0 24 24" fill="none" xmlns="http://www.w3.org/2000/svg">
<path d="M19.3333 4.575V17.85C19.3331 17.9625 19.3758 18.0709 19.453 18.154C19.5301 18.2371 19.6362 18.2888 19.7503 18.299C19.8643 18.3091 19.9781 18.277 20.0693 18.2089C20.1604 18.1408 20.2223 18.0417 20.2427 17.931L20.25 17.85V5.7H21.3958C21.7984 5.70001 22.1863 5.84865 22.4824 6.11641C22.7786 6.38417 22.9614 6.75147 22.9945 7.1454L23 7.275V18.075C23 18.8221 22.7089 19.5409 22.1863 20.084C21.6637 20.6271 20.9492 20.9532 20.1895 20.9955L20.0208 21H3.97917C3.21821 21 2.48607 20.7142 1.93296 20.2011C1.37984 19.688 1.04767 18.9865 1.00458 18.2406L1 18.075V4.575C1.00002 4.17973 1.15141 3.79891 1.42412 3.50815C1.69684 3.21738 2.07094 3.03793 2.47217 3.0054L2.60417 3H17.7292C18.1318 3.00001 18.5196 3.14865 18.8158 3.41641C19.1119 3.68417 19.2947 4.05147 19.3278 4.4454L19.3333 4.575ZM8.10142 11.1036H5.8125C5.40991 11.1036 5.02204 11.2523 4.72589 11.52C4.42974 11.7878 4.24696 12.1551 4.21383 12.549L4.20833 12.6786V14.925C4.20835 15.3203 4.35974 15.7011 4.63246 15.9919C4.90517 16.2826 5.27927 16.4621 5.6805 16.4946L5.8125 16.5H8.10142C8.50415 16.5 8.89214 16.3512 9.18832 16.0833C9.48449 15.8153 9.66717 15.4478 9.70008 15.0537L9.70467 14.925V12.6786C9.70488 12.2832 9.55359 11.9021 9.28085 11.6112C9.00811 11.3202 8.63388 11.1406 8.2325 11.1081L8.10142 11.1036ZM15.4375 15.15H12.2292L12.1357 15.1563C11.9711 15.1785 11.8203 15.2585 11.7112 15.3814C11.602 15.5043 11.5419 15.6619 11.5419 15.825C11.5419 15.9881 11.602 16.1457 11.7112 16.2686C11.8203 16.3915 11.9711 16.4715 12.1357 16.4937L12.2292 16.5H15.4375L15.531 16.4937C15.6956 16.4715 15.8463 16.3915 15.9555 16.2686C16.0647 16.1457 16.1248 15.9881 16.1248 15.825C16.1248 15.6619 16.0647 15.5043 15.9555 15.3814C15.8463 15.2585 15.6956 15.1785 15.531 15.1563L15.4375 15.15ZM5.8125 12.4536H8.10142C8.15292 12.4536 8.20291 12.4707 8.24333 12.5021C8.28374 12.5334 8.31222 12.5772 8.32417 12.6264L8.33058 12.6786V14.925C8.3305 14.9757 8.31298 15.0249 8.28087 15.0646C8.24876 15.1043 8.20394 15.1321 8.15367 15.1437L8.10142 15.15H5.8125C5.76087 15.1499 5.71078 15.1327 5.67035 15.1012C5.62992 15.0697 5.60152 15.0257 5.58975 14.9763L5.58333 14.925V12.6786C5.58321 12.6278 5.60064 12.5784 5.63276 12.5385C5.66489 12.4986 5.70983 12.4706 5.76025 12.459L5.8125 12.4536ZM15.4375 11.1036H12.2292L12.1357 11.109C11.9704 11.1305 11.8188 11.2102 11.7089 11.3333C11.599 11.4564 11.5385 11.6145 11.5385 11.7781C11.5385 11.9418 11.599 12.0999 11.7089 12.223C11.8188 12.3461 11.9704 12.4258 12.1357 12.4473L12.2292 12.4536H15.4375L15.531 12.4473C15.6962 12.4258 15.8479 12.3461 15.9578 12.223C16.0676 12.0999 16.1282 11.9418 16.1282 11.7781C16.1282 11.6145 16.0676 11.4564 15.9578 11.3333C15.8479 11.2102 15.6962 11.1305 15.531 11.109L15.4375 11.1036ZM15.4375 7.0473H4.89583L4.80233 7.0536C4.63778 7.07583 4.48699 7.1558 4.37783 7.27872C4.26868 7.40165 4.20854 7.55922 4.20854 7.7223C4.20854 7.88538 4.26868 8.04295 4.37783 8.16588C4.48699 8.2888 4.63778 8.36877 4.80233 8.391L4.89583 8.3973H15.4375L15.531 8.391C15.6956 8.36877 15.8463 8.2888 15.9555 8.16588C16.0647 8.04295 16.1248 7.88538 16.1248 7.7223C16.1248 7.55922 16.0647 7.40165 15.9555 7.27872C15.8463 7.1558 15.6956 7.07583 15.531 7.0536L15.4375 7.0473Z" fill="white"/>
</svg>
