<svg width="40" height="40" viewBox="0 0 40 40" fill="none" xmlns="http://www.w3.org/2000/svg">
<path d="M20 40C31.0457 40 40 31.0457 40 20C40 8.95431 31.0457 0 20 0C8.95431 0 0 8.95431 0 20C0 31.0457 8.95431 40 20 40Z" fill="url(#paint0_linear_323_51753)"/>
<path d="M29.3767 17.3601C29.7953 14.5654 27.666 13.0627 24.7567 12.0601L25.7007 8.27341L23.3967 7.70008L22.4767 11.3867C21.8713 11.2347 21.25 11.0934 20.63 10.9521L21.5567 7.24141L19.2527 6.66675L18.3087 10.4521C17.8073 10.3374 17.314 10.2254 16.8367 10.1054L16.8393 10.0934L13.6607 9.30008L13.0473 11.7614C13.0473 11.7614 14.758 12.1534 14.722 12.1774C15.6553 12.4107 15.8233 13.0281 15.7953 13.5187L14.7207 17.8321C14.7847 17.8481 14.8673 17.8721 14.9607 17.9081L14.7167 17.8481L13.21 23.8907C13.0953 24.1734 12.806 24.5987 12.1527 24.4374C12.1767 24.4707 10.478 24.0201 10.478 24.0201L9.33398 26.6574L12.334 27.4054C12.8913 27.5454 13.438 27.6921 13.9753 27.8294L13.022 31.6587L15.3247 32.2321L16.2687 28.4454C16.898 28.6147 17.5087 28.7721 18.106 28.9214L17.1647 32.6921L19.4687 33.2654L20.422 29.4441C24.3527 30.1881 27.3073 29.8881 28.5513 26.3334C29.554 23.4721 28.502 21.8201 26.434 20.7441C27.9407 20.3974 29.074 19.4067 29.3767 17.3601ZM24.11 24.7441C23.3993 27.6067 18.5793 26.0587 17.0167 25.6707L18.2833 20.5974C19.846 20.9881 24.8553 21.7601 24.11 24.7441ZM24.8233 17.3187C24.174 19.9227 20.1633 18.5987 18.8633 18.2747L20.01 13.6747C21.31 13.9987 25.5007 14.6027 24.8233 17.3187Z" fill="white"/>
<defs>
<linearGradient id="paint0_linear_323_51753" x1="20" y1="0" x2="20" y2="40" gradientUnits="userSpaceOnUse">
<stop stop-color="#FEAF4F"/>
<stop offset="1" stop-color="#F08300"/>
</linearGradient>
</defs>
</svg>
