<svg width="40" height="40" viewBox="0 0 40 40" fill="none" xmlns="http://www.w3.org/2000/svg">
<path d="M20 40C31.0457 40 40 31.0457 40 20C40 8.95431 31.0457 0 20 0C8.95431 0 0 8.95431 0 20C0 31.0457 8.95431 40 20 40Z" fill="url(#paint0_linear_323_51768)"/>
<g clip-path="url(#clip0_323_51768)">
<path d="M13.36 25.2643C13.4787 25.1103 13.6419 25.0205 13.815 25.0205H29.513C29.7998 25.0205 29.9432 25.4697 29.7405 25.7327L26.6395 29.7558C26.5208 29.9098 26.3575 29.9997 26.1844 29.9997H10.4865C10.1997 29.9997 10.0563 29.5505 10.259 29.2874L13.36 25.2643Z" fill="white"/>
<path d="M13.36 10.2438C13.4837 10.0898 13.6469 10 13.815 10H29.513C29.7998 10 29.9432 10.4491 29.7405 10.7122L26.6395 14.7353C26.5208 14.8893 26.3575 14.9791 26.1844 14.9791H10.4865C10.1997 14.9791 10.0563 14.53 10.259 14.2669L13.36 10.2438Z" fill="white"/>
<path d="M26.6395 17.7057C26.5208 17.5517 26.3575 17.4619 26.1844 17.4619H10.4865C10.1997 17.4619 10.0563 17.9111 10.259 18.1741L13.36 22.1972C13.4787 22.3512 13.6419 22.4411 13.815 22.4411H29.513C29.7998 22.4411 29.9432 21.9919 29.7405 21.7288L26.6395 17.7057Z" fill="white"/>
</g>
<defs>
<linearGradient id="paint0_linear_323_51768" x1="20" y1="0" x2="20" y2="40" gradientUnits="userSpaceOnUse">
<stop stop-color="#3EBDD2"/>
<stop offset="0.403877" stop-color="#7558E8"/>
<stop offset="1" stop-color="#C817F8"/>
</linearGradient>
<clipPath id="clip0_323_51768">
<rect width="20" height="20" fill="white" transform="translate(10 10)"/>
</clipPath>
</defs>
</svg>
