<svg width="14" height="14" viewBox="0 0 14 14" fill="none" xmlns="http://www.w3.org/2000/svg">
<path d="M9.30449 2.26989C8.92166 2.75543 8.39106 3.10837 7.78988 3.2774C7.71143 3.30068 7.62843 3.30503 7.5479 3.29009C7.46738 3.27515 7.39171 3.24136 7.32732 3.19159C7.26293 3.14181 7.21171 3.07752 7.17802 3.00417C7.14433 2.93081 7.12915 2.85056 7.13378 2.77022C7.20484 2.18092 7.44714 1.62416 7.83176 1.16643C8.21564 0.717383 8.71431 0.376744 9.27657 0.179485C9.36156 0.146786 9.45386 0.136788 9.54407 0.15051C9.63427 0.164231 9.71916 0.201182 9.79009 0.2576C9.86103 0.314018 9.91547 0.387887 9.94787 0.471684C9.98027 0.555482 9.98947 0.646214 9.97455 0.734642C9.87941 1.29658 9.63909 1.82517 9.27657 2.26989H9.30449ZM11.7335 5.69679C11.806 5.62762 11.8624 5.5438 11.8987 5.45113C11.935 5.35845 11.9504 5.25914 11.9437 5.16006C11.9371 5.06098 11.9086 4.9645 11.8602 4.8773C11.8119 4.7901 11.7448 4.71425 11.6637 4.65501C11.1788 4.26395 10.5854 4.02515 9.96059 3.96963C9.01134 3.90795 8.24356 4.51794 7.32921 4.51794C6.41486 4.51794 5.8495 3.96963 4.83743 3.96963C4.27951 4.0039 3.73891 4.17331 3.26392 4.46273C2.78892 4.75216 2.39431 5.15258 2.11532 5.62825C1.15211 7.05384 1.31962 9.74053 2.84819 12.0845C3.3996 12.9138 4.13247 13.8528 5.09568 13.8528C5.94722 13.8528 6.18453 13.3114 7.34317 13.3114C8.50181 13.3114 8.73913 13.8597 9.56972 13.8528C10.5329 13.8528 11.3007 12.811 11.8521 11.9817C12.0658 11.6708 12.257 11.3456 12.4245 11.0085C12.4909 10.8597 12.5015 10.6927 12.4542 10.537C12.4069 10.3813 12.3048 10.2472 12.1662 10.1586C11.7987 9.92344 11.49 9.60993 11.263 9.24142C11.0359 8.8729 10.8964 8.45886 10.8548 8.0301C10.8132 7.60134 10.8706 7.16888 11.0228 6.76491C11.1749 6.36094 11.4178 5.99585 11.7335 5.69679Z" fill="black"/>
</svg>
