<svg width="14" height="14" viewBox="0 0 14 14" fill="none" xmlns="http://www.w3.org/2000/svg">
<g clip-path="url(#clip0_1003_36857)">
<path d="M13.4167 7.14351C13.4167 6.72108 13.3785 6.32003 13.3129 5.92969H7.13934V8.34129H10.6741C10.5157 9.13267 10.0513 9.80108 9.36291 10.2556V11.8598H11.4718C12.7065 10.7422 13.4167 9.09524 13.4167 7.14351Z" fill="#4285F4"/>
<path d="M7.13942 13.4148C8.90954 13.4148 10.3901 12.8373 11.4718 11.8588L9.36299 10.2546C8.77295 10.6396 8.02448 10.8749 7.13942 10.8749C5.4294 10.8749 3.98162 9.74661 3.46261 8.22266H1.28821V9.87495C2.36448 11.9711 4.57713 13.4148 7.13942 13.4148Z" fill="#34A853"/>
<path d="M3.46254 8.22241C3.32596 7.83741 3.25494 7.42568 3.25494 6.9979C3.25494 6.57012 3.33142 6.15839 3.46254 5.77339V4.12109H1.28814C0.840149 4.98734 0.583374 5.96054 0.583374 6.9979C0.583374 8.03526 0.840149 9.00845 1.28814 9.8747L3.46254 8.22241Z" fill="#FBBC05"/>
<path d="M7.13942 3.12196C8.10643 3.12196 8.96963 3.44814 9.65255 4.08446L11.521 2.25571C10.3901 1.21835 8.90954 0.582031 7.13942 0.582031C4.57713 0.582031 2.36448 2.02578 1.28821 4.12189L3.46261 5.77419C3.98162 4.25023 5.4294 3.12196 7.13942 3.12196Z" fill="#EA4335"/>
</g>
<defs>
<clipPath id="clip0_1003_36857">
<rect width="14" height="14" fill="white"/>
</clipPath>
</defs>
</svg>
