<?xml version="1.0" encoding="utf-8"?>
<!-- Generator: Adobe Illustrator 25.2.3, SVG Export Plug-In . SVG Version: 6.00 Build 0)  -->
<svg version="1.1" id="Layer_1" xmlns="http://www.w3.org/2000/svg" xmlns:xlink="http://www.w3.org/1999/xlink" x="0px" y="0px"
	 viewBox="0 0 252 109.4" style="enable-background:new 0 0 252 109.4;" xml:space="preserve">
<style type="text/css">
	.st0{fill:url(#SVGID_1_);}
	.st1{fill:url(#SVGID_2_);}
	.st2{fill:url(#SVGID_3_);}
	.st3{fill:url(#SVGID_4_);}
	.st4{fill:#2D2D2B;}
</style>
<g>
	<g>
		<g>
			
				<radialGradient id="SVGID_1_" cx="-6000.0171" cy="-8242.3037" r="51.8321" gradientTransform="matrix(0.9986 5.233597e-02 -5.233597e-02 0.9986 5619.1499 8621.7725)" gradientUnits="userSpaceOnUse">
				<stop  offset="0" style="stop-color:#00CDFE"/>
				<stop  offset="0.4105" style="stop-color:#1F7CDC"/>
				<stop  offset="0.8088" style="stop-color:#2A2A96"/>
			</radialGradient>
			<path class="st0" d="M35,53.3c8.9-6.9,16-16,20.4-26.7c0.2,0.2,0.6,0.6,1,1c0,0,0,0,0.1,0.1c1,1.1,2,2.4,2.9,3.6
				c6.5,9.4,7.6,21.8,3.1,32.3c-1.3,3.1-3.1,5.8-5.3,8.3c0.7-5.7-1.2-10.8-6.4-13.7c-1.6-0.9-3.2-1.5-4.9-2.1l0,0
				c-3.9-1-6.2-1.6-9-2.3c-0.5-0.1-1.1-0.2-1.6-0.4C35.1,53.3,35,53.3,35,53.3z"/>
			
				<radialGradient id="SVGID_2_" cx="-6051.4385" cy="-8207.1807" r="68.1902" gradientTransform="matrix(0.9986 5.233597e-02 -5.233597e-02 0.9986 5619.1499 8621.7725)" gradientUnits="userSpaceOnUse">
				<stop  offset="0" style="stop-color:#00CDFE"/>
				<stop  offset="0.4661" style="stop-color:#1F7CDC"/>
				<stop  offset="0.8" style="stop-color:#2A2A96"/>
				<stop  offset="1" style="stop-color:#160C5A"/>
			</radialGradient>
			<path class="st1" d="M6.1,109c1-11.4,5.9-22.2,12.6-31.4c6.2-8.5,14.4-15.5,23.8-20.1c1-0.5,3.1-1.5,3.2-1.5l0,0
				c1.7,0.6,3.4,1.3,4.9,2.1c5.3,2.9,7.1,8,6.4,13.7c-4.5,5.2-10.6,9.1-16.7,12.3c-8.7,4.6-17.8,7.6-25.3,14.1
				C12,101.1,8.1,105.2,6.1,109z"/>
		</g>
		<g>
			
				<radialGradient id="SVGID_3_" cx="3965.73" cy="9058.5039" r="51.832" gradientTransform="matrix(-0.9986 -5.233597e-02 5.232693e-02 -0.9986 3493.6855 9286.165)" gradientUnits="userSpaceOnUse">
				<stop  offset="0" style="stop-color:#0AF0C8"/>
				<stop  offset="0.1806" style="stop-color:#07DECE"/>
				<stop  offset="0.5" style="stop-color:#00B4DC"/>
				<stop  offset="1" style="stop-color:#005ABE"/>
			</radialGradient>
			<path class="st2" d="M31.2,56.1c-8.9,6.9-16,16-20.4,26.7c-0.2-0.2-0.6-0.6-1-1c0,0,0,0-0.1-0.1c-1-1.1-2-2.4-2.9-3.6
				c-6.5-9.4-7.6-21.8-3.1-32.3C5,42.8,6.8,40,9,37.6c-0.7,5.7,1.2,10.8,6.4,13.7c1.6,0.9,3.2,1.5,4.9,2.1l0,0c3.9,1,6.2,1.6,9,2.3
				c0.5,0.1,1.1,0.2,1.6,0.4C31,56.1,31.1,56.1,31.2,56.1z"/>
			
				<radialGradient id="SVGID_4_" cx="3914.3086" cy="9093.627" r="68.1901" gradientTransform="matrix(-0.9986 -5.233597e-02 5.232693e-02 -0.9986 3493.6855 9286.165)" gradientUnits="userSpaceOnUse">
				<stop  offset="0" style="stop-color:#0AF0C8"/>
				<stop  offset="0.2348" style="stop-color:#07DECE"/>
				<stop  offset="0.65" style="stop-color:#00B4DC"/>
				<stop  offset="1" style="stop-color:#004AC3"/>
			</radialGradient>
			<path class="st3" d="M60,0.4c-1,11.4-5.9,22.2-12.6,31.4C41.2,40.4,33,47.3,23.5,52c-1,0.5-3.1,1.5-3.2,1.5l0,0
				c-1.7-0.6-3.4-1.3-4.9-2.1c-5.3-2.9-7.1-8-6.4-13.7c4.5-5.2,10.6-9.1,16.7-12.3c8.7-4.6,17.8-7.6,25.3-14.1
				C54.1,8.3,58,4.2,60,0.4z"/>
		</g>
	</g>
	<g>
		<g>
			<g>
				<path class="st4" d="M109.6,89.4c0-0.3,0.1-0.6,0.2-0.9c0.1-0.3,0.2-0.5,0.4-0.7c0.2-0.2,0.4-0.4,0.6-0.5
					c0.2-0.2,0.5-0.3,0.7-0.4c-0.6-0.6-0.9-1.3-0.9-1.9c0-0.3,0.1-0.6,0.2-0.9s0.3-0.5,0.5-0.7c0.2-0.2,0.4-0.3,0.7-0.4
					c0.3-0.1,0.6-0.2,0.9-0.2c0.3,0,0.6,0,0.9,0.2c0.3,0.1,0.5,0.2,0.7,0.4c0.2,0.2,0.3,0.4,0.4,0.6c0.1,0.2,0.1,0.5,0.1,0.7
					c0,0.3,0,0.6-0.1,0.8c-0.1,0.2-0.2,0.4-0.4,0.6c-0.2,0.2-0.3,0.4-0.6,0.5c-0.2,0.2-0.4,0.3-0.7,0.4l2,2.1
					c0.3-0.5,0.5-1.1,0.6-1.8l1,0.1c0,0.3-0.1,0.7-0.3,1.1c-0.1,0.4-0.3,0.8-0.6,1.2c0.3,0.3,0.6,0.6,0.8,0.9
					c0.2,0.3,0.4,0.6,0.6,0.9H116c-0.1-0.2-0.2-0.3-0.4-0.5c-0.1-0.2-0.3-0.4-0.5-0.5c-0.3,0.3-0.7,0.6-1.2,0.8
					c-0.5,0.2-1,0.3-1.6,0.3c-0.5,0-1-0.1-1.4-0.2c-0.4-0.2-0.6-0.4-0.9-0.6c-0.2-0.2-0.4-0.5-0.5-0.8
					C109.6,90,109.6,89.7,109.6,89.4z M110.7,89.4c0,0.2,0,0.3,0.1,0.5c0.1,0.2,0.2,0.3,0.3,0.5c0.1,0.1,0.3,0.3,0.5,0.4
					c0.2,0.1,0.5,0.1,0.8,0.1c0.4,0,0.8-0.1,1.1-0.2c0.3-0.2,0.7-0.4,0.9-0.6l-2.4-2.5c-0.2,0.1-0.3,0.2-0.5,0.3
					c-0.2,0.1-0.3,0.2-0.4,0.4c-0.1,0.1-0.2,0.3-0.3,0.5C110.8,88.9,110.7,89.1,110.7,89.4z M113.8,84.8c0-0.3-0.1-0.5-0.3-0.7
					c-0.2-0.2-0.4-0.3-0.8-0.3c-0.4,0-0.6,0.1-0.8,0.3c-0.2,0.2-0.3,0.5-0.3,0.8c0,0.5,0.3,1.1,0.9,1.6c0.2-0.1,0.4-0.2,0.5-0.3
					c0.2-0.1,0.3-0.2,0.4-0.4c0.1-0.1,0.2-0.3,0.3-0.5C113.7,85.2,113.8,85,113.8,84.8z"/>
				<path class="st4" d="M125.5,88.1c0.1,0.2,0.3,0.4,0.5,0.7c0.2,0.3,0.4,0.6,0.6,0.9c0.2,0.3,0.4,0.7,0.6,1c0.2,0.4,0.4,0.7,0.5,1
					h-1.3c-0.2-0.3-0.3-0.6-0.5-1c-0.2-0.3-0.4-0.6-0.6-0.9c-0.2-0.3-0.4-0.6-0.6-0.8c-0.2-0.3-0.4-0.5-0.5-0.7c-0.1,0-0.2,0-0.3,0
					c-0.1,0-0.2,0-0.3,0h-1.1v3.4h-1.2v-8.6c0.3-0.1,0.7-0.1,1.1-0.2c0.4,0,0.8,0,1.2,0c1.2,0,2.1,0.2,2.8,0.7s1,1.1,1,2.1
					c0,0.6-0.2,1.1-0.5,1.5C126.6,87.6,126.1,87.9,125.5,88.1z M123.7,84c-0.5,0-0.9,0-1.2,0v3.3h0.9c0.4,0,0.8,0,1.1-0.1
					c0.3,0,0.6-0.1,0.8-0.2c0.2-0.1,0.4-0.3,0.5-0.5c0.1-0.2,0.2-0.5,0.2-0.8c0-0.3-0.1-0.6-0.2-0.8c-0.1-0.2-0.3-0.4-0.5-0.5
					c-0.2-0.1-0.5-0.2-0.8-0.3C124.3,84.1,124,84,123.7,84z"/>
				<path class="st4" d="M128.7,88.5c0-0.6,0.1-1.1,0.3-1.5c0.2-0.4,0.4-0.8,0.7-1.1c0.3-0.3,0.6-0.5,1-0.6c0.4-0.1,0.7-0.2,1.1-0.2
					c0.9,0,1.5,0.3,2,0.8c0.5,0.5,0.7,1.4,0.7,2.5c0,0.1,0,0.1,0,0.2c0,0.1,0,0.2,0,0.2H130c0.1,0.7,0.2,1.2,0.6,1.5
					c0.3,0.4,0.9,0.5,1.6,0.5c0.4,0,0.8,0,1-0.1c0.3-0.1,0.5-0.1,0.6-0.2l0.2,1c-0.1,0.1-0.4,0.2-0.7,0.2s-0.8,0.1-1.2,0.1
					c-0.6,0-1.1-0.1-1.5-0.3c-0.4-0.2-0.8-0.4-1-0.7c-0.3-0.3-0.5-0.7-0.6-1.1C128.8,89.4,128.7,89,128.7,88.5z M133.2,87.8
					c0-0.5-0.1-1-0.4-1.3c-0.3-0.3-0.6-0.5-1.1-0.5c-0.3,0-0.5,0.1-0.7,0.2c-0.2,0.1-0.4,0.2-0.5,0.4c-0.1,0.2-0.3,0.4-0.3,0.6
					c-0.1,0.2-0.1,0.4-0.2,0.7H133.2z"/>
				<path class="st4" d="M136.1,85.4c0.3-0.1,0.6-0.1,1.1-0.2c0.4-0.1,1-0.1,1.5-0.1c0.5,0,0.9,0.1,1.3,0.2c0.3,0.1,0.6,0.4,0.8,0.6
					c0.2,0.3,0.3,0.6,0.4,0.9c0.1,0.4,0.1,0.8,0.1,1.2v3.7h-1.2v-3.4c0-0.4,0-0.7-0.1-1c-0.1-0.3-0.1-0.5-0.3-0.7
					c-0.1-0.2-0.3-0.3-0.5-0.4c-0.2-0.1-0.5-0.1-0.8-0.1c-0.1,0-0.3,0-0.4,0c-0.1,0-0.3,0-0.4,0c-0.1,0-0.2,0-0.3,0
					c-0.1,0-0.2,0-0.2,0v5.5h-1.2V85.4z"/>
				<path class="st4" d="M142.9,88.5c0-0.6,0.1-1.1,0.3-1.5c0.2-0.4,0.4-0.8,0.7-1.1c0.3-0.3,0.6-0.5,1-0.6c0.4-0.1,0.7-0.2,1.1-0.2
					c0.9,0,1.5,0.3,2,0.8c0.5,0.5,0.7,1.4,0.7,2.5c0,0.1,0,0.1,0,0.2c0,0.1,0,0.2,0,0.2h-4.5c0.1,0.7,0.2,1.2,0.6,1.5
					c0.3,0.4,0.9,0.5,1.6,0.5c0.4,0,0.8,0,1-0.1c0.3-0.1,0.5-0.1,0.6-0.2l0.2,1c-0.1,0.1-0.4,0.2-0.7,0.2c-0.4,0.1-0.8,0.1-1.2,0.1
					c-0.6,0-1.1-0.1-1.5-0.3c-0.4-0.2-0.8-0.4-1-0.7c-0.3-0.3-0.5-0.7-0.6-1.1C143,89.4,142.9,89,142.9,88.5z M147.4,87.8
					c0-0.5-0.1-1-0.4-1.3c-0.3-0.3-0.6-0.5-1.1-0.5c-0.3,0-0.5,0.1-0.7,0.2c-0.2,0.1-0.4,0.2-0.5,0.4c-0.1,0.2-0.3,0.4-0.3,0.6
					c-0.1,0.2-0.1,0.4-0.2,0.7H147.4z"/>
				<path class="st4" d="M155.6,91.7c-0.2-0.6-0.5-1.3-0.7-2.1c-0.3-0.8-0.5-1.6-0.7-2.4c-0.2,0.8-0.5,1.6-0.7,2.4
					c-0.3,0.8-0.5,1.5-0.7,2.1h-1c-0.4-0.9-0.8-1.8-1.1-2.9s-0.7-2.3-1-3.6h1.3c0.1,0.4,0.2,0.8,0.3,1.3c0.1,0.5,0.2,0.9,0.4,1.4
					c0.1,0.5,0.3,0.9,0.4,1.3c0.1,0.4,0.3,0.8,0.4,1.1c0.1-0.4,0.3-0.8,0.4-1.2c0.1-0.4,0.3-0.9,0.4-1.3c0.1-0.4,0.2-0.9,0.4-1.3
					c0.1-0.4,0.2-0.8,0.3-1.2h1c0.1,0.4,0.2,0.8,0.3,1.2c0.1,0.4,0.2,0.9,0.4,1.3c0.1,0.4,0.3,0.9,0.4,1.3c0.1,0.4,0.3,0.9,0.4,1.2
					c0.1-0.3,0.3-0.7,0.4-1.1c0.1-0.4,0.3-0.9,0.4-1.3c0.1-0.5,0.3-0.9,0.4-1.4c0.1-0.5,0.2-0.9,0.3-1.3h1.2c-0.3,1.3-0.7,2.5-1,3.6
					s-0.7,2.1-1.1,2.9H155.6z"/>
				<path class="st4" d="M162.1,85.1c0.5,0,0.9,0.1,1.2,0.2c0.3,0.1,0.6,0.3,0.8,0.5c0.2,0.2,0.3,0.5,0.4,0.8c0.1,0.3,0.1,0.6,0.1,1
					v4.1c-0.1,0-0.2,0-0.4,0.1c-0.2,0-0.4,0.1-0.6,0.1c-0.2,0-0.5,0-0.7,0.1c-0.3,0-0.5,0-0.8,0c-0.4,0-0.7,0-1-0.1
					c-0.3-0.1-0.6-0.2-0.8-0.4s-0.4-0.4-0.5-0.6c-0.1-0.3-0.2-0.6-0.2-1c0-0.4,0.1-0.7,0.2-0.9c0.1-0.3,0.3-0.5,0.6-0.6
					c0.3-0.2,0.5-0.3,0.9-0.4c0.3-0.1,0.7-0.1,1.1-0.1c0.1,0,0.2,0,0.4,0c0.1,0,0.2,0,0.4,0c0.1,0,0.2,0,0.3,0.1c0.1,0,0.1,0,0.2,0
					v-0.3c0-0.2,0-0.4-0.1-0.6c0-0.2-0.1-0.4-0.2-0.5c-0.1-0.1-0.3-0.3-0.4-0.4c-0.2-0.1-0.4-0.1-0.7-0.1c-0.4,0-0.7,0-1,0.1
					c-0.3,0.1-0.5,0.1-0.6,0.2l-0.1-1c0.2-0.1,0.4-0.1,0.8-0.2C161.3,85.1,161.7,85.1,162.1,85.1z M162.2,90.9c0.3,0,0.5,0,0.7,0
					c0.2,0,0.4,0,0.5-0.1v-1.9c-0.1,0-0.2-0.1-0.4-0.1c-0.2,0-0.4,0-0.7,0c-0.2,0-0.4,0-0.6,0c-0.2,0-0.4,0.1-0.5,0.2
					c-0.2,0.1-0.3,0.2-0.4,0.3c-0.1,0.1-0.2,0.3-0.2,0.5c0,0.4,0.1,0.7,0.4,0.9C161.4,90.8,161.8,90.9,162.2,90.9z"/>
				<path class="st4" d="M167.7,85.5c0.1-0.1,0.4-0.2,0.6-0.3c0.3-0.1,0.6-0.2,1-0.2c0.5,0,0.9,0.1,1.2,0.3c0.4,0.2,0.7,0.4,0.9,0.7
					c0.3,0.3,0.4,0.7,0.6,1.1c0.1,0.4,0.2,0.9,0.2,1.4c0,0.5-0.1,1-0.2,1.4c-0.2,0.4-0.4,0.8-0.7,1.1c-0.3,0.3-0.6,0.5-1,0.7
					c-0.4,0.2-0.9,0.2-1.4,0.2c-0.5,0-1,0-1.4-0.1c-0.4-0.1-0.8-0.2-1-0.2v-9.3l1.2-0.2V85.5z M167.7,90.7c0.1,0,0.3,0.1,0.5,0.1
					c0.2,0,0.5,0,0.8,0c0.6,0,1.1-0.2,1.5-0.6s0.6-1,0.6-1.8c0-0.3,0-0.6-0.1-0.9c-0.1-0.3-0.2-0.5-0.3-0.8
					c-0.2-0.2-0.3-0.4-0.6-0.5c-0.2-0.1-0.5-0.2-0.9-0.2c-0.3,0-0.6,0.1-0.9,0.2c-0.3,0.1-0.5,0.2-0.6,0.3V90.7z"/>
				<path class="st4" d="M175.9,91.9c-0.7,0-1.2-0.2-1.5-0.5c-0.3-0.3-0.5-0.7-0.5-1.4v-7.8l1.2-0.2v7.8c0,0.2,0,0.4,0.1,0.5
					c0,0.1,0.1,0.2,0.2,0.3c0.1,0.1,0.2,0.1,0.3,0.2c0.1,0,0.3,0.1,0.5,0.1L175.9,91.9z"/>
				<path class="st4" d="M177,88.5c0-0.6,0.1-1.1,0.3-1.5c0.2-0.4,0.4-0.8,0.7-1.1c0.3-0.3,0.6-0.5,1-0.6c0.4-0.1,0.7-0.2,1.1-0.2
					c0.9,0,1.5,0.3,2,0.8c0.5,0.5,0.7,1.4,0.7,2.5c0,0.1,0,0.1,0,0.2c0,0.1,0,0.2,0,0.2h-4.5c0.1,0.7,0.2,1.2,0.6,1.5
					c0.3,0.4,0.9,0.5,1.6,0.5c0.4,0,0.8,0,1-0.1c0.3-0.1,0.5-0.1,0.6-0.2l0.2,1c-0.1,0.1-0.4,0.2-0.7,0.2s-0.8,0.1-1.2,0.1
					c-0.6,0-1.1-0.1-1.5-0.3c-0.4-0.2-0.8-0.4-1-0.7c-0.3-0.3-0.5-0.7-0.6-1.1C177.1,89.4,177,89,177,88.5z M181.5,87.8
					c0-0.5-0.1-1-0.4-1.3c-0.3-0.3-0.6-0.5-1.1-0.5c-0.3,0-0.5,0.1-0.7,0.2c-0.2,0.1-0.4,0.2-0.5,0.4c-0.1,0.2-0.3,0.4-0.3,0.6
					c-0.1,0.2-0.1,0.4-0.2,0.7H181.5z"/>
				<path class="st4" d="M187.3,91.7v-8.7h5.3v1h-4.1v2.6h3.6v1h-3.6v3h4.4v1H187.3z"/>
				<path class="st4" d="M194.4,85.4c0.3-0.1,0.6-0.1,1.1-0.2c0.4-0.1,1-0.1,1.5-0.1c0.5,0,0.9,0.1,1.3,0.2c0.3,0.1,0.6,0.4,0.8,0.6
					c0.2,0.3,0.3,0.6,0.4,0.9c0.1,0.4,0.1,0.8,0.1,1.2v3.7h-1.2v-3.4c0-0.4,0-0.7-0.1-1c-0.1-0.3-0.1-0.5-0.3-0.7
					c-0.1-0.2-0.3-0.3-0.5-0.4c-0.2-0.1-0.5-0.1-0.8-0.1c-0.1,0-0.3,0-0.4,0c-0.1,0-0.3,0-0.4,0c-0.1,0-0.2,0-0.3,0
					c-0.1,0-0.2,0-0.2,0v5.5h-1.2V85.4z"/>
				<path class="st4" d="M201.2,88.5c0-0.6,0.1-1.1,0.3-1.5c0.2-0.4,0.4-0.8,0.7-1.1c0.3-0.3,0.6-0.5,1-0.6c0.4-0.1,0.7-0.2,1.1-0.2
					c0.9,0,1.5,0.3,2,0.8c0.5,0.5,0.7,1.4,0.7,2.5c0,0.1,0,0.1,0,0.2c0,0.1,0,0.2,0,0.2h-4.5c0.1,0.7,0.2,1.2,0.6,1.5
					c0.3,0.4,0.9,0.5,1.6,0.5c0.4,0,0.8,0,1-0.1c0.3-0.1,0.5-0.1,0.6-0.2l0.2,1c-0.1,0.1-0.4,0.2-0.7,0.2s-0.8,0.1-1.2,0.1
					c-0.6,0-1.1-0.1-1.5-0.3c-0.4-0.2-0.8-0.4-1-0.7c-0.3-0.3-0.5-0.7-0.6-1.1C201.3,89.4,201.2,89,201.2,88.5z M205.7,87.8
					c0-0.5-0.1-1-0.4-1.3c-0.3-0.3-0.6-0.5-1.1-0.5c-0.3,0-0.5,0.1-0.7,0.2c-0.2,0.1-0.4,0.2-0.5,0.4c-0.1,0.2-0.3,0.4-0.3,0.6
					c-0.1,0.2-0.1,0.4-0.2,0.7H205.7z"/>
				<path class="st4" d="M211,85.1c0.1,0,0.2,0,0.3,0c0.1,0,0.3,0,0.4,0.1c0.1,0,0.2,0,0.3,0.1c0.1,0,0.2,0,0.2,0.1l-0.2,1
					c-0.1,0-0.2-0.1-0.5-0.1c-0.2,0-0.5-0.1-0.8-0.1c-0.2,0-0.4,0-0.6,0.1c-0.2,0-0.4,0.1-0.4,0.1v5.5h-1.2v-6.2
					c0.3-0.1,0.6-0.2,1-0.3C210,85.1,210.5,85.1,211,85.1z"/>
				<path class="st4" d="M217.5,91.1c-0.1,0.1-0.3,0.2-0.6,0.3c-0.3,0.1-0.6,0.2-1,0.2c-0.4,0-0.8-0.1-1.1-0.2s-0.6-0.3-0.9-0.6
					c-0.3-0.3-0.5-0.6-0.6-1c-0.2-0.4-0.2-0.9-0.2-1.4c0-0.5,0.1-0.9,0.2-1.3c0.1-0.4,0.3-0.7,0.6-1c0.3-0.3,0.6-0.5,1-0.7
					c0.4-0.2,0.8-0.2,1.3-0.2c0.5,0,1,0,1.4,0.1c0.4,0.1,0.7,0.2,1,0.2v5.8c0,1-0.3,1.7-0.8,2.2s-1.3,0.7-2.4,0.7
					c-0.4,0-0.8,0-1.2-0.1c-0.4-0.1-0.7-0.1-0.9-0.2l0.2-1c0.2,0.1,0.5,0.2,0.9,0.2c0.3,0.1,0.7,0.1,1.1,0.1c0.7,0,1.2-0.1,1.5-0.4
					c0.3-0.3,0.5-0.7,0.5-1.3V91.1z M217.5,86.2c-0.1,0-0.3-0.1-0.5-0.1s-0.5,0-0.8,0c-0.6,0-1.1,0.2-1.4,0.6
					c-0.3,0.4-0.5,1-0.5,1.6c0,0.4,0,0.7,0.1,1c0.1,0.3,0.2,0.5,0.4,0.7c0.2,0.2,0.4,0.3,0.6,0.4c0.2,0.1,0.4,0.1,0.7,0.1
					c0.3,0,0.6,0,0.9-0.1c0.3-0.1,0.5-0.2,0.6-0.3V86.2z"/>
				<path class="st4" d="M219.9,92.9c0.1,0,0.2,0.1,0.4,0.1c0.1,0,0.3,0.1,0.4,0.1c0.5,0,0.8-0.1,1.1-0.3c0.3-0.2,0.5-0.5,0.7-1
					c-0.5-1-1-2.1-1.5-3.2c-0.5-1.1-0.8-2.3-1.1-3.4h1.3c0.1,0.4,0.2,0.8,0.3,1.2c0.1,0.4,0.3,0.9,0.4,1.3c0.2,0.5,0.3,0.9,0.5,1.4
					c0.2,0.5,0.4,0.9,0.6,1.3c0.3-0.9,0.6-1.7,0.8-2.6c0.2-0.9,0.5-1.7,0.7-2.7h1.2c-0.3,1.2-0.6,2.4-1,3.5
					c-0.4,1.1-0.8,2.2-1.2,3.2c-0.2,0.4-0.3,0.7-0.5,1c-0.2,0.3-0.4,0.5-0.6,0.7c-0.2,0.2-0.5,0.3-0.7,0.4c-0.3,0.1-0.6,0.1-0.9,0.1
					c-0.1,0-0.2,0-0.3,0c-0.1,0-0.2,0-0.3,0c-0.1,0-0.2,0-0.3-0.1c-0.1,0-0.1,0-0.2-0.1L219.9,92.9z"/>
			</g>
			<g>
				<path class="st4" d="M90.8,65.7c-0.2,0.4-0.5,0.8-0.7,1.3c-0.3,0.5-0.5,1-0.8,1.6c-0.3,0.5-0.5,1.1-0.8,1.6
					c-0.2,0.5-0.5,1-0.7,1.5c-0.2-0.5-0.4-0.9-0.7-1.5c-0.2-0.5-0.5-1.1-0.8-1.6c-0.3-0.5-0.5-1.1-0.8-1.6c-0.3-0.5-0.5-0.9-0.7-1.3
					h-1.1c-0.1,0.6-0.1,1.3-0.2,2c-0.1,0.7-0.1,1.4-0.2,2.2c-0.1,0.7-0.1,1.5-0.1,2.3c0,0.8-0.1,1.5-0.1,2.3h1.2
					c0-1.2,0.1-2.3,0.2-3.5c0.1-1.1,0.1-2.2,0.2-3.2c0.1,0.1,0.2,0.3,0.3,0.6c0.1,0.3,0.3,0.6,0.4,0.9c0.2,0.3,0.3,0.7,0.5,1.1
					c0.2,0.4,0.3,0.7,0.5,1.1c0.2,0.4,0.3,0.7,0.4,1c0.1,0.3,0.2,0.6,0.3,0.8h1c0.1-0.2,0.2-0.5,0.3-0.8c0.1-0.3,0.3-0.6,0.4-1
					c0.2-0.4,0.3-0.7,0.5-1.1c0.2-0.4,0.3-0.7,0.5-1.1c0.2-0.3,0.3-0.6,0.4-0.9c0.1-0.3,0.2-0.5,0.3-0.6c0.1,1,0.2,2.1,0.2,3.2
					c0.1,1.1,0.1,2.3,0.2,3.5h1.2c-0.1-3-0.4-5.9-0.6-8.7H90.8z"/>
				<path class="st4" d="M102.2,68.6c-0.2-0.3-0.5-0.5-0.8-0.6c-0.3-0.1-0.8-0.2-1.3-0.2c-0.6,0-1.1,0-1.5,0.1
					c-0.4,0.1-0.8,0.1-1.1,0.2v6.3h1.2v-5.5c0,0,0.1,0,0.2,0c0.1,0,0.2,0,0.3,0c0.1,0,0.2,0,0.4,0s0.3,0,0.4,0c0.3,0,0.6,0,0.8,0.1
					c0.2,0.1,0.4,0.2,0.5,0.4c0.1,0.2,0.2,0.4,0.3,0.7c0.1,0.3,0.1,0.6,0.1,1v3.4h1.2v-3.7c0-0.4,0-0.8-0.1-1.2
					C102.5,69.2,102.4,68.8,102.2,68.6z"/>
				<path class="st4" d="M111.4,71.4c-0.2-0.2-0.4-0.3-0.6-0.4c-0.2-0.1-0.5-0.2-0.8-0.3c-0.2-0.1-0.4-0.2-0.6-0.2
					c-0.2-0.1-0.3-0.2-0.4-0.2c-0.1-0.1-0.2-0.2-0.3-0.3c-0.1-0.1-0.1-0.2-0.1-0.4c0-0.3,0.1-0.5,0.4-0.6c0.2-0.1,0.5-0.2,0.9-0.2
					c0.4,0,0.7,0,1,0.1c0.3,0.1,0.5,0.1,0.6,0.2l0.2-1c-0.1,0-0.2-0.1-0.3-0.1c-0.1,0-0.3-0.1-0.4-0.1c-0.2,0-0.3-0.1-0.5-0.1
					c-0.2,0-0.4,0-0.6,0c-0.7,0-1.3,0.2-1.7,0.5c-0.4,0.3-0.6,0.8-0.6,1.4c0,0.3,0.1,0.5,0.2,0.7c0.1,0.2,0.2,0.4,0.4,0.5
					c0.2,0.1,0.4,0.3,0.6,0.4c0.2,0.1,0.5,0.2,0.7,0.3c0.5,0.2,0.9,0.4,1.1,0.6c0.2,0.2,0.3,0.4,0.3,0.7c0,0.3-0.1,0.5-0.3,0.6
					c-0.2,0.1-0.6,0.2-1.1,0.2c-0.5,0-0.9-0.1-1.2-0.2c-0.3-0.1-0.5-0.2-0.6-0.2l-0.2,1c0.1,0,0.3,0.1,0.7,0.2
					c0.3,0.1,0.8,0.1,1.4,0.1c0.8,0,1.5-0.2,1.9-0.5c0.4-0.3,0.7-0.8,0.7-1.4c0-0.3,0-0.6-0.1-0.8C111.7,71.7,111.6,71.5,111.4,71.4
					z"/>
				<path class="st4" d="M116.5,73.4c-0.2,0.1-0.5,0.1-0.8,0.1c-0.2,0-0.4,0-0.5-0.1c-0.2,0-0.3-0.1-0.4-0.3
					c-0.1-0.1-0.2-0.3-0.2-0.5c0-0.2-0.1-0.5-0.1-0.8v-3h2.5v-1h-2.5v-2l-1.2,0.2v5.8c0,0.4,0,0.8,0.1,1.1c0.1,0.3,0.2,0.6,0.4,0.8
					c0.2,0.2,0.4,0.4,0.7,0.5c0.3,0.1,0.7,0.2,1.1,0.2c0.4,0,0.7,0,1-0.1c0.3-0.1,0.5-0.2,0.6-0.2l-0.2-1
					C116.9,73.3,116.8,73.3,116.5,73.4z"/>
				<path class="st4" d="M121.6,67.8c-0.1,0-0.3,0-0.4-0.1c-0.1,0-0.2,0-0.3,0c-0.5,0-1,0-1.4,0.1c-0.4,0.1-0.8,0.2-1,0.3v6.2h1.2
					v-5.5c0.1,0,0.2,0,0.4-0.1c0.2,0,0.4-0.1,0.6-0.1c0.3,0,0.6,0,0.8,0.1c0.2,0,0.4,0.1,0.5,0.1l0.2-1c-0.1,0-0.1,0-0.2-0.1
					C121.8,67.9,121.7,67.8,121.6,67.8z"/>
				<path class="st4" d="M126.7,70.5c-0.2,0.9-0.5,1.7-0.8,2.6c-0.2-0.4-0.4-0.9-0.6-1.3c-0.2-0.5-0.4-0.9-0.5-1.4
					c-0.2-0.5-0.3-0.9-0.4-1.3c-0.1-0.4-0.2-0.8-0.3-1.2h-1.3c0.3,1.2,0.7,2.3,1.1,3.4c0.5,1.1,0.9,2.2,1.5,3.2
					c-0.2,0.5-0.4,0.8-0.7,1c-0.3,0.2-0.6,0.3-1.1,0.3c-0.1,0-0.3,0-0.4-0.1c-0.1,0-0.3-0.1-0.4-0.1l-0.2,0.9c0,0,0.1,0,0.2,0.1
					c0.1,0,0.2,0,0.3,0.1c0.1,0,0.2,0,0.3,0c0.1,0,0.2,0,0.3,0c0.3,0,0.6,0,0.9-0.1c0.3-0.1,0.5-0.2,0.7-0.4
					c0.2-0.2,0.4-0.4,0.6-0.7c0.2-0.3,0.4-0.6,0.5-1c0.4-1,0.8-2,1.2-3.2c0.4-1.1,0.7-2.3,1-3.5h-1.2
					C127.1,68.8,126.9,69.7,126.7,70.5z"/>
				<path class="st4" d="M137.5,68.7c-0.3-0.3-0.6-0.5-1-0.7c-0.4-0.2-0.8-0.2-1.2-0.2c-0.4,0-0.9,0.1-1.2,0.2
					c-0.4,0.2-0.7,0.4-1,0.7c-0.3,0.3-0.5,0.7-0.6,1.1c-0.2,0.4-0.2,0.9-0.2,1.4c0,0.5,0.1,1,0.2,1.4c0.2,0.4,0.4,0.8,0.6,1.1
					c0.3,0.3,0.6,0.5,1,0.7c0.4,0.2,0.8,0.2,1.2,0.2c0.4,0,0.9-0.1,1.2-0.2c0.4-0.2,0.7-0.4,1-0.7c0.3-0.3,0.5-0.7,0.6-1.1
					c0.2-0.4,0.2-0.9,0.2-1.4c0-0.5-0.1-1-0.2-1.4C138,69.3,137.8,69,137.5,68.7z M136.7,72.9c-0.3,0.4-0.8,0.6-1.3,0.6
					c-0.6,0-1-0.2-1.3-0.6c-0.3-0.4-0.5-1-0.5-1.7c0-0.7,0.2-1.3,0.5-1.7c0.3-0.4,0.8-0.6,1.3-0.6c0.6,0,1,0.2,1.3,0.6
					c0.3,0.4,0.5,1,0.5,1.7C137.2,71.9,137,72.5,136.7,72.9z"/>
				<path class="st4" d="M141.5,66.1c0.2-0.3,0.6-0.4,1.1-0.4c0.3,0,0.5,0,0.7,0.1c0.2,0,0.3,0.1,0.4,0.1l0.2-1
					c-0.1,0-0.3-0.1-0.5-0.1c-0.2-0.1-0.5-0.1-0.9-0.1c-0.9,0-1.5,0.2-1.9,0.7c-0.4,0.5-0.6,1.1-0.6,1.9v0.6h-1v1h1v5.5h1.2v-5.5
					h2.5v-1H143l0,0h-1.8v-0.6C141.2,66.8,141.3,66.4,141.5,66.1z"/>
				<polygon class="st4" points="149.1,70.4 152.7,70.4 152.7,69.3 149.1,69.3 149.1,66.8 153.1,66.8 153.1,65.7 147.8,65.7 
					147.8,74.4 153.5,74.4 153.5,73.4 149.1,73.4 				"/>
				<path class="st4" d="M156.3,73.3c-0.1-0.1-0.1-0.2-0.2-0.3c0-0.1-0.1-0.3-0.1-0.5v-7.8l-1.2,0.2v7.8c0,0.6,0.2,1.1,0.5,1.4
					c0.3,0.3,0.8,0.4,1.5,0.5l0.2-1c-0.2,0-0.3-0.1-0.5-0.1C156.4,73.4,156.3,73.4,156.3,73.3z"/>
				<path class="st4" d="M160.9,67.7c-0.4,0-0.7,0.1-1.1,0.2s-0.7,0.4-1,0.6c-0.3,0.3-0.5,0.6-0.7,1.1c-0.2,0.4-0.3,0.9-0.3,1.5
					c0,0.5,0.1,0.9,0.2,1.4c0.1,0.4,0.3,0.8,0.6,1.1c0.3,0.3,0.6,0.5,1,0.7c0.4,0.2,0.9,0.3,1.5,0.3c0.5,0,0.9,0,1.2-0.1
					c0.4-0.1,0.6-0.2,0.7-0.2l-0.2-1c-0.1,0.1-0.4,0.1-0.6,0.2c-0.3,0.1-0.6,0.1-1,0.1c-0.7,0-1.3-0.2-1.6-0.5
					c-0.3-0.4-0.5-0.9-0.6-1.5h4.5c0-0.1,0-0.1,0-0.2c0-0.1,0-0.1,0-0.2c0-1.1-0.2-2-0.7-2.5C162.5,68,161.8,67.7,160.9,67.7z
					 M159.2,70.5c0-0.2,0.1-0.4,0.2-0.7c0.1-0.2,0.2-0.4,0.3-0.6c0.1-0.2,0.3-0.3,0.5-0.4c0.2-0.1,0.4-0.2,0.7-0.2
					c0.5,0,0.8,0.2,1.1,0.5c0.3,0.3,0.4,0.8,0.4,1.3H159.2z"/>
				<path class="st4" d="M169.2,73.4c-0.3,0.1-0.5,0.1-0.8,0.1c-0.4,0-0.7-0.1-1-0.2c-0.3-0.1-0.5-0.3-0.7-0.5
					c-0.2-0.2-0.3-0.5-0.4-0.8c-0.1-0.3-0.1-0.6-0.1-1c0-0.8,0.2-1.4,0.5-1.8c0.3-0.4,0.8-0.6,1.5-0.6c0.3,0,0.5,0,0.7,0.1
					c0.2,0.1,0.4,0.1,0.6,0.2l0.3-1c-0.3-0.1-0.5-0.2-0.8-0.2c-0.3-0.1-0.6-0.1-0.9-0.1c-0.5,0-0.9,0.1-1.3,0.3
					c-0.4,0.2-0.7,0.4-1,0.7c-0.3,0.3-0.5,0.7-0.6,1.1c-0.1,0.4-0.2,0.9-0.2,1.4c0,0.5,0.1,1,0.2,1.4c0.1,0.4,0.3,0.8,0.6,1.1
					c0.3,0.3,0.6,0.5,1,0.7c0.4,0.2,0.9,0.3,1.4,0.3c0.2,0,0.3,0,0.5,0c0.2,0,0.3,0,0.5-0.1c0.2,0,0.3-0.1,0.4-0.1
					c0.1,0,0.2-0.1,0.3-0.1l-0.2-1C169.6,73.3,169.4,73.4,169.2,73.4z"/>
				<path class="st4" d="M174.3,73.4c-0.2,0.1-0.5,0.1-0.8,0.1c-0.2,0-0.4,0-0.5-0.1c-0.2,0-0.3-0.1-0.4-0.3
					c-0.1-0.1-0.2-0.3-0.2-0.5c0-0.2-0.1-0.5-0.1-0.8v-3h2.5v-1h-2.5v-2l-1.2,0.2v5.8c0,0.4,0,0.8,0.1,1.1c0.1,0.3,0.2,0.6,0.4,0.8
					c0.2,0.2,0.4,0.4,0.7,0.5c0.3,0.1,0.7,0.2,1.1,0.2c0.4,0,0.7,0,1-0.1c0.3-0.1,0.5-0.2,0.6-0.2l-0.2-1
					C174.7,73.3,174.5,73.3,174.3,73.4z"/>
				<path class="st4" d="M179.3,67.8c-0.1,0-0.3,0-0.4-0.1c-0.1,0-0.2,0-0.3,0c-0.5,0-1,0-1.4,0.1c-0.4,0.1-0.8,0.2-1,0.3v6.2h1.2
					v-5.5c0.1,0,0.2,0,0.4-0.1c0.2,0,0.4-0.1,0.6-0.1c0.3,0,0.6,0,0.8,0.1c0.2,0,0.4,0.1,0.5,0.1l0.2-1c-0.1,0-0.1,0-0.2-0.1
					C179.6,67.9,179.5,67.8,179.3,67.8z"/>
				<rect x="181" y="67.9" class="st4" width="1.2" height="6.5"/>
				<path class="st4" d="M188,73.4c-0.3,0.1-0.5,0.1-0.8,0.1c-0.4,0-0.7-0.1-1-0.2c-0.3-0.1-0.5-0.3-0.7-0.5
					c-0.2-0.2-0.3-0.5-0.4-0.8c-0.1-0.3-0.1-0.6-0.1-1c0-0.8,0.2-1.4,0.5-1.8c0.3-0.4,0.8-0.6,1.5-0.6c0.3,0,0.5,0,0.7,0.1
					c0.2,0.1,0.4,0.1,0.6,0.2l0.3-1c-0.3-0.1-0.5-0.2-0.8-0.2c-0.3-0.1-0.6-0.1-0.9-0.1c-0.5,0-0.9,0.1-1.3,0.3
					c-0.4,0.2-0.7,0.4-1,0.7c-0.3,0.3-0.5,0.7-0.6,1.1c-0.1,0.4-0.2,0.9-0.2,1.4c0,0.5,0.1,1,0.2,1.4c0.1,0.4,0.3,0.8,0.6,1.1
					c0.3,0.3,0.6,0.5,1,0.7c0.4,0.2,0.9,0.3,1.4,0.3c0.2,0,0.3,0,0.5,0c0.2,0,0.3,0,0.5-0.1c0.2,0,0.3-0.1,0.4-0.1
					c0.1,0,0.2-0.1,0.3-0.1l-0.2-1C188.5,73.3,188.3,73.4,188,73.4z"/>
				<rect x="190" y="67.9" class="st4" width="1.2" height="6.5"/>
				<path class="st4" d="M196.3,73.4c-0.2,0.1-0.5,0.1-0.8,0.1c-0.2,0-0.4,0-0.5-0.1c-0.2,0-0.3-0.1-0.4-0.3
					c-0.1-0.1-0.2-0.3-0.2-0.5c0-0.2-0.1-0.5-0.1-0.8v-3h2.5v-1h-2.5v-2l-1.2,0.2v5.8c0,0.4,0,0.8,0.1,1.1c0.1,0.3,0.2,0.6,0.4,0.8
					c0.2,0.2,0.4,0.4,0.7,0.5c0.3,0.1,0.7,0.2,1.1,0.2c0.4,0,0.7,0,1-0.1c0.3-0.1,0.5-0.2,0.6-0.2l-0.2-1
					C196.7,73.3,196.5,73.3,196.3,73.4z"/>
				<path class="st4" d="M201.4,70.5c-0.2,0.9-0.5,1.7-0.8,2.6c-0.2-0.4-0.4-0.9-0.6-1.3c-0.2-0.5-0.4-0.9-0.5-1.4
					c-0.2-0.5-0.3-0.9-0.4-1.3c-0.1-0.4-0.2-0.8-0.3-1.2h-1.3c0.3,1.2,0.7,2.3,1.1,3.4c0.5,1.1,0.9,2.2,1.5,3.2
					c-0.2,0.5-0.4,0.8-0.7,1c-0.3,0.2-0.6,0.3-1.1,0.3c-0.1,0-0.3,0-0.4-0.1c-0.1,0-0.3-0.1-0.4-0.1l-0.2,0.9c0,0,0.1,0,0.2,0.1
					c0.1,0,0.2,0,0.3,0.1c0.1,0,0.2,0,0.3,0c0.1,0,0.2,0,0.3,0c0.3,0,0.6,0,0.9-0.1c0.3-0.1,0.5-0.2,0.7-0.4
					c0.2-0.2,0.4-0.4,0.6-0.7c0.2-0.3,0.4-0.6,0.5-1c0.4-1,0.8-2,1.2-3.2c0.4-1.1,0.7-2.3,1-3.5H202
					C201.8,68.8,201.6,69.7,201.4,70.5z"/>
				<path class="st4" d="M213.1,72.6c0.3-0.4,0.4-0.8,0.6-1.2c0.1-0.4,0.2-0.8,0.3-1.1l-1-0.1c-0.1,0.6-0.3,1.2-0.6,1.8l-2-2.1
					c0.2-0.1,0.5-0.3,0.7-0.4c0.2-0.2,0.4-0.3,0.6-0.5c0.2-0.2,0.3-0.4,0.4-0.6c0.1-0.2,0.1-0.5,0.1-0.8c0-0.3,0-0.5-0.1-0.7
					c-0.1-0.2-0.2-0.4-0.4-0.6c-0.2-0.2-0.4-0.3-0.7-0.4c-0.3-0.1-0.6-0.2-0.9-0.2c-0.3,0-0.6,0-0.9,0.2c-0.3,0.1-0.5,0.2-0.7,0.4
					c-0.2,0.2-0.4,0.4-0.5,0.7c-0.1,0.3-0.2,0.6-0.2,0.9c0,0.7,0.3,1.3,0.9,1.9c-0.2,0.1-0.5,0.3-0.7,0.4c-0.2,0.2-0.4,0.3-0.6,0.5
					c-0.2,0.2-0.3,0.4-0.4,0.7c-0.1,0.3-0.2,0.5-0.2,0.9c0,0.3,0,0.5,0.1,0.8c0.1,0.3,0.2,0.5,0.5,0.8c0.2,0.2,0.5,0.4,0.9,0.6
					c0.4,0.2,0.8,0.2,1.4,0.2c0.6,0,1.1-0.1,1.6-0.3c0.5-0.2,0.8-0.5,1.2-0.8c0.2,0.2,0.3,0.4,0.5,0.5c0.1,0.2,0.3,0.3,0.4,0.5h1.2
					c-0.2-0.3-0.4-0.6-0.6-0.9C213.7,73.2,213.4,72.9,213.1,72.6z M209.2,66.8c0.2-0.2,0.5-0.3,0.8-0.3c0.3,0,0.6,0.1,0.8,0.3
					c0.2,0.2,0.3,0.4,0.3,0.7c0,0.2,0,0.4-0.1,0.6c-0.1,0.2-0.2,0.3-0.3,0.5c-0.1,0.1-0.3,0.3-0.4,0.4c-0.2,0.1-0.3,0.2-0.5,0.3
					c-0.6-0.5-0.9-1-0.9-1.6C208.9,67.3,209,67,209.2,66.8z M210.9,73.3c-0.3,0.2-0.7,0.2-1.1,0.2c-0.3,0-0.6,0-0.8-0.1
					c-0.2-0.1-0.4-0.2-0.5-0.4c-0.1-0.1-0.2-0.3-0.3-0.5c-0.1-0.2-0.1-0.3-0.1-0.5c0-0.3,0-0.5,0.1-0.7c0.1-0.2,0.2-0.4,0.3-0.5
					c0.1-0.1,0.3-0.3,0.4-0.4c0.2-0.1,0.3-0.2,0.5-0.3l2.4,2.5C211.6,73,211.3,73.2,210.9,73.3z"/>
				<path class="st4" d="M227.3,67.7c-0.1,0.7-0.3,1.3-0.4,1.9c-0.1,0.6-0.3,1.2-0.4,1.8c-0.1,0.6-0.3,1.1-0.4,1.5
					c-0.3-0.9-0.7-1.8-1.1-2.9c-0.4-1-0.7-2.1-1.1-3.3h-1.1c-0.3,1.1-0.7,2.2-1.1,3.3c-0.4,1-0.7,2-1.1,2.9c-0.1-0.5-0.3-1-0.4-1.6
					c-0.1-0.6-0.3-1.1-0.4-1.8c-0.1-0.6-0.3-1.2-0.4-1.9c-0.1-0.7-0.2-1.3-0.4-2h-1.3c0.3,1.7,0.6,3.2,0.9,4.6
					c0.3,1.4,0.7,2.8,1.2,4h1.2c0.4-0.9,0.7-1.8,1.1-2.8c0.4-1,0.7-2,1.1-3.1c0.4,1.1,0.7,2.2,1.1,3.1c0.4,1,0.7,1.9,1.1,2.8h1.2
					c0.4-1.3,0.8-2.6,1.2-4c0.3-1.4,0.7-3,1-4.6h-1.2C227.5,66.4,227.4,67,227.3,67.7z"/>
				<path class="st4" d="M233.9,68.4c-0.2-0.2-0.5-0.4-0.8-0.5c-0.3-0.1-0.7-0.2-1.2-0.2c-0.4,0-0.8,0-1.1,0.1
					c-0.4,0.1-0.6,0.1-0.8,0.2l0.1,1c0.1-0.1,0.4-0.1,0.6-0.2c0.3-0.1,0.6-0.1,1-0.1c0.3,0,0.5,0,0.7,0.1c0.2,0.1,0.3,0.2,0.4,0.4
					c0.1,0.1,0.2,0.3,0.2,0.5c0,0.2,0.1,0.4,0.1,0.6v0.3c0,0-0.1,0-0.2,0c-0.1,0-0.2,0-0.3-0.1c-0.1,0-0.2,0-0.4,0
					c-0.1,0-0.2,0-0.4,0c-0.4,0-0.7,0-1.1,0.1c-0.3,0.1-0.6,0.2-0.9,0.4c-0.3,0.2-0.4,0.4-0.6,0.6c-0.1,0.3-0.2,0.6-0.2,0.9
					c0,0.4,0.1,0.7,0.2,1c0.1,0.3,0.3,0.5,0.5,0.6c0.2,0.2,0.5,0.3,0.8,0.4c0.3,0.1,0.6,0.1,1,0.1c0.3,0,0.5,0,0.8,0
					c0.3,0,0.5,0,0.7-0.1c0.2,0,0.4-0.1,0.6-0.1c0.2,0,0.3-0.1,0.4-0.1v-4.1c0-0.4,0-0.7-0.1-1C234.2,68.9,234.1,68.6,233.9,68.4z
					 M233.3,73.5c-0.1,0-0.3,0.1-0.5,0.1c-0.2,0-0.5,0-0.7,0c-0.5,0-0.8-0.1-1.1-0.2c-0.3-0.2-0.4-0.5-0.4-0.9
					c0-0.2,0.1-0.4,0.2-0.5c0.1-0.1,0.2-0.2,0.4-0.3c0.2-0.1,0.3-0.1,0.5-0.2c0.2,0,0.4,0,0.6,0c0.3,0,0.5,0,0.7,0
					c0.2,0,0.3,0.1,0.4,0.1V73.5z"/>
				<path class="st4" d="M239.5,73.4c-0.2,0.1-0.5,0.1-0.8,0.1c-0.2,0-0.4,0-0.5-0.1c-0.2,0-0.3-0.1-0.4-0.3
					c-0.1-0.1-0.2-0.3-0.2-0.5c0-0.2-0.1-0.5-0.1-0.8v-3h2.5v-1h-2.5v-2l-1.2,0.2v5.8c0,0.4,0,0.8,0.1,1.1c0.1,0.3,0.2,0.6,0.4,0.8
					c0.2,0.2,0.4,0.4,0.7,0.5c0.3,0.1,0.7,0.2,1.1,0.2c0.4,0,0.7,0,1-0.1c0.3-0.1,0.5-0.2,0.6-0.2l-0.2-1
					C239.9,73.3,239.7,73.3,239.5,73.4z"/>
				<path class="st4" d="M243.9,67.7c-0.4,0-0.7,0.1-1.1,0.2c-0.4,0.1-0.7,0.4-1,0.6c-0.3,0.3-0.5,0.6-0.7,1.1
					c-0.2,0.4-0.3,0.9-0.3,1.5c0,0.5,0.1,0.9,0.2,1.4c0.1,0.4,0.3,0.8,0.6,1.1c0.3,0.3,0.6,0.5,1,0.7c0.4,0.2,0.9,0.3,1.5,0.3
					c0.5,0,0.9,0,1.2-0.1c0.4-0.1,0.6-0.2,0.7-0.2l-0.2-1c-0.1,0.1-0.4,0.1-0.6,0.2c-0.3,0.1-0.6,0.1-1,0.1c-0.7,0-1.3-0.2-1.6-0.5
					c-0.3-0.4-0.5-0.9-0.6-1.5h4.5c0-0.1,0-0.1,0-0.2c0-0.1,0-0.1,0-0.2c0-1.1-0.2-2-0.7-2.5C245.4,68,244.8,67.7,243.9,67.7z
					 M242.2,70.5c0-0.2,0.1-0.4,0.2-0.7c0.1-0.2,0.2-0.4,0.3-0.6c0.1-0.2,0.3-0.3,0.5-0.4c0.2-0.1,0.4-0.2,0.7-0.2
					c0.5,0,0.8,0.2,1.1,0.5c0.3,0.3,0.4,0.8,0.4,1.3H242.2z"/>
				<path class="st4" d="M251.8,67.9c-0.1,0-0.2,0-0.3-0.1c-0.1,0-0.3,0-0.4-0.1c-0.1,0-0.2,0-0.3,0c-0.5,0-1,0-1.4,0.1
					c-0.4,0.1-0.8,0.2-1,0.3v6.2h1.2v-5.5c0.1,0,0.2,0,0.4-0.1c0.2,0,0.4-0.1,0.6-0.1c0.3,0,0.6,0,0.8,0.1c0.2,0,0.4,0.1,0.5,0.1
					l0.2-1C251.9,67.9,251.9,67.9,251.8,67.9z"/>
				<path class="st4" d="M190.6,65.2c-0.4,0-0.8,0.3-0.8,0.8c0,0.4,0.3,0.8,0.8,0.8c0.4,0,0.8-0.3,0.8-0.8
					C191.4,65.5,191,65.2,190.6,65.2z"/>
				<path class="st4" d="M181.6,65.2c-0.4,0-0.8,0.3-0.8,0.8c0,0.4,0.3,0.8,0.8,0.8c0.4,0,0.8-0.3,0.8-0.8
					C182.4,65.5,182,65.2,181.6,65.2z"/>
				<rect x="104.6" y="67.9" class="st4" width="1.2" height="6.5"/>
				<path class="st4" d="M105.2,65.2c-0.4,0-0.8,0.3-0.8,0.8c0,0.4,0.3,0.8,0.8,0.8c0.4,0,0.8-0.3,0.8-0.8
					C106,65.5,105.6,65.2,105.2,65.2z"/>
				<rect x="94.3" y="67.9" class="st4" width="1.2" height="6.5"/>
				<path class="st4" d="M94.9,65.2c-0.4,0-0.8,0.3-0.8,0.8c0,0.4,0.3,0.8,0.8,0.8c0.4,0,0.8-0.3,0.8-0.8
					C95.6,65.5,95.3,65.2,94.9,65.2z"/>
			</g>
		</g>
		<g>
			<path class="st4" d="M87.8,23.1c-0.5,0.1-0.8,0.3-1.2,0.6c-0.3,0.3-0.6,0.6-0.8,1.1c-0.2,0.4-0.3,0.9-0.3,1.5v1.6h-2.1v1.6h2.1v0
				h4.8v-1.6H87v-1.6c0-0.7,0.2-1.2,0.6-1.4c0.4-0.3,0.9-0.4,1.6-0.4h1.2v-1.5h-1.2C88.7,22.9,88.2,22.9,87.8,23.1z"/>
			<path class="st4" d="M118.5,26.5c0,0.4-0.1,0.8-0.3,1c-0.2,0.2-0.5,0.4-0.9,0.4h-1c-0.4,0-0.7-0.1-0.9-0.4
				c-0.2-0.3-0.3-0.6-0.3-1.1v-1.5c0-0.5-0.1-1.1-0.3-1.6c-0.2-0.5-0.5-1-0.8-1.3c-0.4-0.4-0.8-0.7-1.2-0.9c-0.5-0.2-1-0.3-1.5-0.3
				c-0.5,0-1.1,0.1-1.5,0.3c-0.5,0.2-0.9,0.5-1.2,0.9c-0.4,0.4-0.6,0.8-0.8,1.3c-0.2,0.5-0.3,1-0.3,1.6v1.5c0,0.4-0.1,0.8-0.3,1.1
				c-0.2,0.3-0.5,0.4-0.9,0.4H95.3c-0.4,0-0.6-0.1-0.9-0.3c-0.2-0.2-0.3-0.5-0.3-0.9V15.3h-1.6v11.3c0,0.5,0.1,0.9,0.2,1.2
				c0.1,0.3,0.3,0.6,0.5,0.9c0.2,0.2,0.5,0.4,0.9,0.6c0.3,0.1,0.8,0.2,1.2,0.2h10.8c0.5,0,0.9-0.1,1.3-0.4c0.4-0.2,0.6-0.6,0.8-1.2
				h0c0.3,0.6,0.7,1,1.2,1.3c0.5,0.3,1.1,0.5,1.7,0.5c0.6,0,1.2-0.2,1.8-0.5c0.6-0.3,1-0.8,1.3-1.3h0.1c0.2,0.5,0.4,0.9,0.8,1.2
				c0.3,0.2,0.8,0.4,1.3,0.4l0,0h1c0.9,0,1.6-0.3,2-0.8c0.5-0.6,0.7-1.3,0.7-2.2V15.3h-1.6V26.5z M113.5,25.7c0,0.3-0.1,0.6-0.2,0.9
				c-0.1,0.3-0.3,0.6-0.5,0.8c-0.2,0.2-0.5,0.4-0.7,0.5c-0.3,0.1-0.6,0.2-0.9,0.2c-0.3,0-0.6-0.1-0.9-0.2c-0.3-0.1-0.5-0.3-0.7-0.5
				c-0.2-0.2-0.4-0.5-0.5-0.8c-0.1-0.3-0.2-0.6-0.2-0.9v-0.8c0-0.4,0.1-0.7,0.2-1c0.1-0.3,0.3-0.6,0.5-0.8c0.2-0.2,0.5-0.4,0.7-0.5
				c0.3-0.1,0.6-0.2,0.9-0.2c0.3,0,0.6,0.1,0.9,0.2c0.3,0.1,0.5,0.3,0.7,0.5c0.2,0.2,0.4,0.5,0.5,0.8c0.1,0.3,0.2,0.6,0.2,1V25.7z"
				/>
			<rect x="122.3" y="15.3" class="st4" width="1.6" height="14.2"/>
			<path class="st4" d="M132.7,22c-0.4-0.4-0.8-0.7-1.3-0.9c-0.5-0.2-1-0.3-1.6-0.3c-0.5,0-1.1,0.1-1.5,0.3
				c-0.5,0.2-0.9,0.5-1.2,0.9c-0.4,0.4-0.6,0.8-0.8,1.3c-0.2,0.5-0.3,1-0.3,1.6v0.8c0,0.6,0.1,1.1,0.3,1.5c0.2,0.5,0.5,0.9,0.8,1.2
				c0.3,0.3,0.8,0.6,1.2,0.8c0.5,0.2,1,0.3,1.5,0.3h2.3v0.6c0,0.5-0.1,0.9-0.3,1.4c-0.2,0.4-0.5,0.8-1,1.1c-0.4,0.3-0.9,0.6-1.5,0.8
				c-0.6,0.2-1.2,0.3-1.9,0.3v1.4c0.9,0,1.8-0.1,2.5-0.4c0.8-0.3,1.4-0.6,2-1.1c0.6-0.5,1-1.1,1.3-1.7c0.3-0.7,0.5-1.4,0.5-2.2v-4.8
				c0-0.5-0.1-1.1-0.3-1.6C133.4,22.8,133.1,22.4,132.7,22z M132.2,27.8h-2.3c-0.3,0-0.6-0.1-0.9-0.2c-0.3-0.1-0.5-0.3-0.7-0.5
				c-0.2-0.2-0.4-0.4-0.5-0.7c-0.1-0.3-0.2-0.6-0.2-0.9v-0.8c0-0.4,0.1-0.7,0.2-1c0.1-0.3,0.3-0.6,0.5-0.8c0.2-0.2,0.4-0.4,0.7-0.5
				c0.3-0.1,0.6-0.2,0.9-0.2c0.3,0,0.6,0.1,0.9,0.2c0.3,0.1,0.5,0.3,0.7,0.5c0.2,0.2,0.4,0.5,0.5,0.8c0.1,0.3,0.2,0.6,0.2,1V27.8z"
				/>
			<path class="st4" d="M144,23.1c-0.5,0.1-0.8,0.3-1.2,0.6c-0.3,0.3-0.6,0.6-0.8,1.1c-0.2,0.4-0.3,0.9-0.3,1.5v1.6h-2.1v1.6h2.1v0
				h4.8v-1.6h-3.4v-1.6c0-0.7,0.2-1.2,0.6-1.4c0.4-0.3,0.9-0.4,1.6-0.4h1.2v-1.5h-1.2C145,22.9,144.5,22.9,144,23.1z"/>
			<path class="st4" d="M165.8,28.6c0.5-0.6,0.7-1.3,0.7-2.2v-5.2H165v5.2c0,0.4-0.1,0.8-0.3,1c-0.2,0.2-0.5,0.4-0.9,0.4h-12.2
				c-0.4,0-0.6-0.1-0.9-0.3c-0.2-0.2-0.3-0.5-0.3-0.9V15.3h-1.6v11.3c0,0.5,0.1,0.9,0.2,1.2c0.1,0.3,0.3,0.6,0.5,0.9
				c0.2,0.2,0.5,0.4,0.9,0.6c0.3,0.1,1.2,0.2,1.2,0.2h12.2C164.7,29.5,165.3,29.2,165.8,28.6z"/>
			<path class="st4" d="M209,26.5c0,0.4-0.1,0.8-0.3,1c-0.2,0.2-0.5,0.4-0.9,0.4h-3.6v-0.1c0.2-0.2,0.4-0.5,0.5-0.7
				c0.1-0.3,0.2-0.6,0.2-0.8c0-0.7-0.1-1.3-0.4-1.8c-0.3-0.6-0.7-1.1-1.1-1.5c-0.5-0.5-1-0.9-1.6-1.3c-0.6-0.4-1.2-0.7-1.8-1
				l4.6-5.1v-0.1h-1.8l-5.2,5.7v0.3c0.7,0.2,1.4,0.5,2,0.8c0.7,0.3,1.3,0.7,1.8,1.1c0.5,0.4,1,0.9,1.3,1.4c0.3,0.5,0.5,1,0.5,1.6
				c0,0.2-0.1,0.4-0.2,0.6c-0.1,0.2-0.3,0.4-0.5,0.5c-0.2,0.1-0.5,0.3-0.9,0.3c-0.4,0.1-0.8,0.1-1.2,0.1h-7.1h0h-0.6v-3
				c0-0.7-0.1-1.4-0.4-1.9c-0.2-0.6-0.6-1.1-1-1.6c-0.4-0.5-0.9-0.8-1.5-1.1c-0.6-0.3-1.2-0.4-1.9-0.4h-6.8v1.5h1.9v0.1
				c-0.3,0.1-0.6,0.2-0.8,0.3c-0.2,0.2-0.5,0.3-0.6,0.6c-0.2,0.2-0.3,0.5-0.4,0.8c-0.1,0.3-0.2,0.6-0.2,0.8c0,0.6,0.1,1.1,0.4,1.5
				c0.3,0.4,0.6,0.8,1,1.1c0.4,0.3,0.9,0.6,1.3,0.8c0.5,0.2,0.9,0.4,1.4,0.6l0,0.1c-0.2-0.1-0.4-0.1-0.7-0.1c-0.3,0-0.6,0-1,0h-11.5
				c-0.3,0-0.6-0.1-0.8-0.4c-0.2-0.2-0.3-0.6-0.3-1v-2.5h-1.6V30c0,0.5-0.1,1-0.3,1.4c-0.2,0.4-0.4,0.8-0.8,1.2
				c-0.3,0.3-0.8,0.6-1.3,0.8c-0.5,0.2-1.1,0.3-1.8,0.3v1.4c0.9,0,1.7-0.1,2.4-0.3s1.3-0.6,1.8-1c0.5-0.4,0.8-1,1.1-1.6
				c0.3-0.6,0.4-1.3,0.4-2.1c0-0.2,0-0.4,0-0.6s0-0.4-0.1-0.6h0.1c0.1,0.3,0.3,0.4,0.5,0.6c0.2,0.1,0.4,0.2,0.7,0.2h14.1
				c0.4,0,0.7,0,0.9-0.1c0.2-0.1,0.3-0.2,0.5-0.4c0.8,0.2,1.6,0.5,2.4,0.6c0.9,0.2,1.7,0.3,2.6,0.3l0.2-0.2v-0.2h0.6h0h14.5
				c0.9,0,1.6-0.3,2-0.8c0.5-0.6,0.7-1.3,0.7-2.2V15.3H209V26.5z M186.6,27.2c-0.4-0.1-0.8-0.3-1.3-0.5c-0.5-0.2-0.9-0.4-1.3-0.7
				c-0.4-0.2-0.7-0.5-1-0.9c-0.3-0.4-0.4-0.8-0.4-1.3c0-0.2,0-0.5,0.1-0.7c0.1-0.2,0.2-0.4,0.4-0.6c0.2-0.2,0.4-0.3,0.6-0.4
				c0.2-0.1,0.5-0.2,0.7-0.2c0.3,0,0.6,0.1,0.9,0.2c0.3,0.1,0.5,0.3,0.7,0.5c0.2,0.2,0.3,0.5,0.4,0.8c0.1,0.3,0.1,0.6,0.1,0.9V27.2z
				 M191.2,28.2c-0.5,0-1-0.1-1.6-0.3c-0.6-0.1-1.1-0.3-1.5-0.4v-3.1c0-0.4-0.1-0.8-0.2-1.1c-0.1-0.3-0.3-0.6-0.5-0.9
				c-0.2-0.3-0.4-0.5-0.7-0.7c-0.3-0.2-0.6-0.3-0.9-0.3v-0.1h2.2c0.4,0,0.8,0.1,1.2,0.3c0.4,0.2,0.7,0.4,1,0.7
				c0.3,0.3,0.5,0.7,0.7,1.1c0.2,0.4,0.2,0.9,0.2,1.3V28.2z"/>
			<rect x="212.8" y="15.3" class="st4" width="1.6" height="14.2"/>
			<path class="st4" d="M229,27.3c0.2-0.5,0.3-1,0.3-1.6v-0.8c0-0.6-0.1-1.1-0.3-1.6c-0.2-0.5-0.5-0.9-0.8-1.3
				c-0.4-0.4-0.8-0.7-1.2-0.9c-0.5-0.2-1-0.3-1.5-0.3c-0.5,0-1.1,0.1-1.5,0.3c-0.5,0.2-0.9,0.5-1.2,0.9c-0.4,0.4-0.6,0.8-0.8,1.3
				c-0.2,0.5-0.3,1-0.3,1.6v0.8c0,0.6,0.1,1.1,0.3,1.6c0.2,0.5,0.5,0.9,0.8,1.3c0.4,0.4,0.8,0.7,1.2,0.9c0.5,0.2,1,0.3,1.5,0.3
				c0.5,0,1.1-0.1,1.5-0.3c0.5-0.2,0.9-0.5,1.2-0.9C228.5,28.2,228.8,27.8,229,27.3z M227.7,25.6c0,0.3-0.1,0.7-0.2,1
				c-0.1,0.3-0.3,0.6-0.5,0.8c-0.2,0.2-0.5,0.4-0.7,0.5c-0.3,0.1-0.6,0.2-0.9,0.2c-0.3,0-0.6-0.1-0.9-0.2c-0.3-0.1-0.5-0.3-0.7-0.5
				c-0.2-0.2-0.4-0.5-0.5-0.8c-0.1-0.3-0.2-0.6-0.2-1v-0.8c0-0.4,0.1-0.7,0.2-1c0.1-0.3,0.3-0.6,0.5-0.8c0.2-0.2,0.4-0.4,0.7-0.5
				c0.3-0.1,0.6-0.2,0.9-0.2c0.3,0,0.6,0.1,0.9,0.2c0.3,0.1,0.5,0.3,0.7,0.5c0.2,0.2,0.4,0.5,0.5,0.8c0.1,0.3,0.2,0.6,0.2,1V25.6z"
				/>
			<path class="st4" d="M232,30c0,0.5-0.1,1-0.3,1.4c-0.2,0.4-0.4,0.8-0.8,1.2c-0.3,0.3-0.8,0.6-1.3,0.8c-0.5,0.2-1.1,0.3-1.8,0.3
				v1.4c0.9,0,1.7-0.1,2.4-0.4c0.7-0.2,1.3-0.6,1.8-1c0.5-0.4,0.8-1,1.1-1.6c0.2-0.6,0.4-1.3,0.4-2.1v-6.1H232V30z"/>
			<rect x="235.9" y="15.3" class="st4" width="1.6" height="14.2"/>
			<path class="st4" d="M240.2,30c0,0.5-0.1,1-0.3,1.4c-0.2,0.4-0.4,0.8-0.8,1.2c-0.3,0.3-0.8,0.6-1.3,0.8c-0.5,0.2-1.1,0.3-1.8,0.3
				v1.4c0.9,0,1.7-0.1,2.4-0.4c0.7-0.2,1.3-0.6,1.8-1c0.5-0.4,0.8-1,1.1-1.6c0.2-0.6,0.4-1.3,0.4-2.1v-6.1h-1.6V30z"/>
			<path class="st4" d="M251.5,23.3c-0.2-0.5-0.5-0.9-0.8-1.3c-0.4-0.4-0.8-0.7-1.3-0.9c-0.5-0.2-1-0.3-1.6-0.3
				c-0.5,0-1.1,0.1-1.5,0.3c-0.5,0.2-0.9,0.5-1.2,0.9c-0.4,0.4-0.6,0.8-0.8,1.3c-0.2,0.5-0.3,1-0.3,1.6v0.8c0,0.6,0.1,1.1,0.3,1.5
				c0.2,0.5,0.5,0.9,0.8,1.2c0.3,0.3,0.8,0.6,1.2,0.8c0.5,0.2,1,0.3,1.5,0.3h2.3v0.6c0,0.5-0.1,0.9-0.3,1.4c-0.2,0.4-0.5,0.8-1,1.1
				c-0.4,0.3-0.9,0.6-1.5,0.8c-0.6,0.2-1.2,0.3-1.9,0.3v1.4c0.9,0,1.8-0.1,2.5-0.4c0.8-0.3,1.4-0.6,2-1.1c0.6-0.5,1-1.1,1.3-1.7
				c0.3-0.7,0.5-1.4,0.5-2.2v-4.8C251.8,24.3,251.7,23.8,251.5,23.3z M250.2,27.8h-2.3c-0.3,0-0.6-0.1-0.9-0.2
				c-0.3-0.1-0.5-0.3-0.7-0.5c-0.2-0.2-0.4-0.4-0.5-0.7c-0.1-0.3-0.2-0.6-0.2-0.9v-0.8c0-0.4,0.1-0.7,0.2-1c0.1-0.3,0.3-0.6,0.5-0.8
				c0.2-0.2,0.4-0.4,0.7-0.5c0.3-0.1,0.6-0.2,0.9-0.2c0.3,0,0.6,0.1,0.9,0.2c0.3,0.1,0.5,0.3,0.7,0.5c0.2,0.2,0.4,0.5,0.5,0.8
				c0.1,0.3,0.2,0.6,0.2,1V27.8z"/>
			<path class="st4" d="M241,18.1c-0.5,0-0.9,0.4-0.9,0.9c0,0.5,0.4,0.9,0.9,0.9c0.5,0,0.9-0.4,0.9-0.9
				C242,18.5,241.5,18.1,241,18.1z"/>
			<path class="st4" d="M226.4,18.9c0.5,0,0.9-0.4,0.9-0.9c0-0.5-0.4-0.9-0.9-0.9c-0.5,0-0.9,0.4-0.9,0.9
				C225.5,18.5,225.9,18.9,226.4,18.9z"/>
			<path class="st4" d="M163.2,31.2c-0.5,0-0.9,0.4-0.9,0.9c0,0.5,0.4,0.9,0.9,0.9c0.5,0,0.9-0.4,0.9-0.9
				C164.1,31.6,163.7,31.2,163.2,31.2z"/>
			<circle class="st4" cx="224.3" cy="18" r="0.9"/>
		</g>
		<g>
			<path class="st4" d="M90.1,47.1c-0.4-0.4-0.8-0.7-1.2-0.9c-0.5-0.2-1-0.3-1.5-0.3c-0.5,0-1.1,0.1-1.5,0.3
				c-0.5,0.2-0.9,0.5-1.2,0.9c-0.4,0.4-0.6,0.8-0.8,1.3c-0.2,0.5-0.3,1-0.3,1.6v0.8c0,0.6,0.1,1.1,0.3,1.6c0.2,0.5,0.5,0.9,0.8,1.3
				c0.4,0.4,0.8,0.7,1.2,0.9c0.5,0.2,1,0.3,1.5,0.3c0.5,0,1.1-0.1,1.5-0.3c0.5-0.2,0.9-0.5,1.2-0.9c0.4-0.4,0.6-0.8,0.8-1.3
				c0.2-0.5,0.3-1,0.3-1.6V50c0-0.6-0.1-1.1-0.3-1.6C90.7,47.9,90.4,47.5,90.1,47.1z M89.6,50.8c0,0.3-0.1,0.7-0.2,1
				c-0.1,0.3-0.3,0.6-0.5,0.8c-0.2,0.2-0.5,0.4-0.7,0.5c-0.3,0.1-0.6,0.2-0.9,0.2c-0.3,0-0.6-0.1-0.9-0.2c-0.3-0.1-0.5-0.3-0.7-0.5
				c-0.2-0.2-0.4-0.5-0.5-0.8c-0.1-0.3-0.2-0.6-0.2-1V50c0-0.4,0.1-0.7,0.2-1c0.1-0.3,0.3-0.6,0.5-0.8c0.2-0.2,0.4-0.4,0.7-0.5
				c0.3-0.1,0.6-0.2,0.9-0.2c0.3,0,0.6,0.1,0.9,0.2c0.3,0.1,0.5,0.3,0.7,0.5c0.2,0.2,0.4,0.5,0.5,0.8c0.1,0.3,0.2,0.6,0.2,1V50.8z"
				/>
			<path class="st4" d="M99.6,47.6c-0.4-0.4-0.8-0.7-1.2-0.9c-0.5-0.2-1-0.3-1.6-0.3h-2.9V48h2.9c0.3,0,0.6,0.1,0.9,0.2
				c0.3,0.1,0.5,0.3,0.7,0.5c0.2,0.2,0.4,0.5,0.5,0.8c0.1,0.3,0.2,0.6,0.2,1V53h-5.7v1.6h7.3v-4.1c0-0.6-0.1-1.1-0.3-1.6
				C100.2,48.4,99.9,48,99.6,47.6z"/>
			<path class="st4" d="M159.4,51.6c0,0.4-0.1,0.8-0.3,1c-0.2,0.2-0.5,0.4-0.9,0.4c-0.4,0-0.7-0.1-0.9-0.4c-0.2-0.3-0.3-0.6-0.3-1.1
				V50c0-0.5-0.1-1.1-0.3-1.6c-0.2-0.5-0.5-1-0.8-1.3c-0.4-0.4-0.8-0.7-1.2-0.9c-0.5-0.2-1-0.3-1.5-0.3s-1.1,0.1-1.5,0.3
				c-0.5,0.2-0.9,0.5-1.2,0.9c-0.4,0.4-0.6,0.8-0.8,1.3c-0.2,0.5-0.3,1-0.3,1.6v1.5c0,0.4-0.1,0.8-0.3,1.1c-0.2,0.3-0.5,0.4-0.9,0.4
				c-0.6,0-5.8-0.1-6-0.3c-0.3-0.2-0.4-0.6-0.4-1.1V48H140v3.6c0,0.5-0.1,0.8-0.4,1.1c-0.3,0.2-0.7,0.3-1.2,0.3h-10.3
				c-0.2-0.1-0.3-0.3-0.4-0.6c-0.1-0.3-0.1-0.6-0.1-1v-1.5c0-0.6-0.1-1.2-0.2-1.7c-0.2-0.5-0.4-0.9-0.7-1.3
				c-0.3-0.4-0.7-0.6-1.1-0.8c-0.4-0.2-1-0.3-1.5-0.3c-0.8,0-1.5,0.2-2,0.5c-0.6,0.4-1.3,1.1-1.8,1.6l1,1c0.3-0.4,1-1,1.4-1.2
				c0.4-0.2,0.8-0.3,1.3-0.3c0.3,0,0.6,0.1,0.9,0.2c0.3,0.1,0.5,0.3,0.6,0.5c0.2,0.2,0.3,0.5,0.4,0.8c0.1,0.3,0.1,0.6,0.1,1v1.4
				c0,0.3,0,0.5,0,0.7c0,0.2,0.1,0.3,0.1,0.5c0,0.1,0.1,0.2,0.1,0.3c0.1,0.1,0.1,0.2,0.2,0.3l-0.1,0.1c-0.2-0.1-0.4-0.1-0.6-0.1
				c-0.2,0-0.5,0-0.7,0h-14.9v-2.4c0-0.6-0.1-1.1-0.3-1.6c-0.2-0.5-0.5-0.9-0.8-1.3c-0.4-0.4-0.8-0.7-1.2-0.9
				c-0.5-0.2-1-0.3-1.6-0.3h-2.9V48h2.9c0.3,0,0.6,0.1,0.9,0.2c0.3,0.1,0.5,0.3,0.7,0.5c0.2,0.2,0.4,0.5,0.5,0.8
				c0.1,0.3,0.2,0.6,0.2,1V53h-5.7v1.6h35.5c0.3,0,0.5,0,0.8,0c0.2,0,0.5-0.1,0.7-0.2c0.2-0.1,0.4-0.2,0.6-0.4
				c0.2-0.2,0.3-0.4,0.5-0.6h0c0.2,0.5,0.5,0.8,0.9,1c0.4,0.2,5.6,0.3,6.3,0.3c0.5,0,0.9-0.1,1.3-0.4c0.4-0.2,0.6-0.6,0.8-1.2h0
				c0.3,0.6,0.7,1,1.2,1.3c0.5,0.3,1.1,0.5,1.7,0.5c0.6,0,1.2-0.2,1.8-0.5c0.6-0.3,1-0.8,1.3-1.3h0.1c0.2,0.5,0.4,0.9,0.8,1.2
				c0.3,0.2,0.8,0.4,1.3,0.4l0,0c0,0,0,0,0,0h0c0.9,0,1.6-0.3,2-0.8c0.5-0.6,0.7-1.3,0.7-2.2V40.4h-1.6V51.6z M155.4,50.8
				c0,0.3-0.1,0.6-0.2,0.9c-0.1,0.3-0.3,0.6-0.5,0.8c-0.2,0.2-0.5,0.4-0.7,0.5c-0.3,0.1-0.6,0.2-0.9,0.2c-0.3,0-0.6-0.1-0.9-0.2
				c-0.3-0.1-0.5-0.3-0.7-0.5c-0.2-0.2-0.4-0.5-0.5-0.8c-0.1-0.3-0.2-0.6-0.2-0.9V50c0-0.4,0.1-0.7,0.2-1c0.1-0.3,0.3-0.6,0.5-0.8
				c0.2-0.2,0.5-0.4,0.7-0.5c0.3-0.1,0.6-0.2,0.9-0.2c0.3,0,0.6,0.1,0.9,0.2c0.3,0.1,0.5,0.3,0.7,0.5c0.2,0.2,0.4,0.5,0.5,0.8
				c0.1,0.3,0.2,0.6,0.2,1V50.8z"/>
			<rect x="163.2" y="40.4" class="st4" width="1.6" height="14.2"/>
			<path class="st4" d="M200,45.9c-0.4-0.4-0.8-0.6-1.2-0.8c-0.5-0.2-1-0.3-1.5-0.3c-0.5,0-1.1,0.1-1.5,0.3
				c-0.5,0.2-0.9,0.5-1.2,0.8c-0.3,0.3-0.6,0.7-0.8,1.1c-0.2,0.4-0.3,0.9-0.3,1.4c0,0.7,0.2,1.3,0.5,1.8c0.3,0.5,0.7,0.9,1.2,1.3
				c0.5,0.4,1,0.7,1.6,1c0.6,0.3,1.1,0.5,1.6,0.7l0,0c-0.2-0.1-0.5-0.1-0.8-0.1c-0.3,0-0.6,0-1,0h-15.6c-0.4,0-0.7-0.1-0.9-0.4
				c-0.2-0.3-0.3-0.6-0.3-1.1v-5.3h-3.9c-0.5,0-1,0.1-1.5,0.3c-0.5,0.2-0.9,0.5-1.2,0.9c-0.4,0.4-0.6,0.8-0.8,1.3
				c-0.2,0.5-0.3,1-0.3,1.6v0.5c0,0.6,0.1,1.1,0.3,1.6c0.2,0.5,0.5,0.9,0.8,1.3c0.4,0.4,0.8,0.7,1.2,0.9c0.5,0.2,1,0.3,1.5,0.3
				c0.6,0,1.2-0.2,1.8-0.5c0.6-0.3,1-0.8,1.3-1.3h0c0.2,0.5,0.4,0.9,0.8,1.2c0.3,0.2,0.8,0.4,1.3,0.4h20.2v-6c0-0.5-0.1-1-0.3-1.5
				C200.6,46.7,200.4,46.2,200,45.9z M178.1,50.8c0,0.3-0.1,0.6-0.2,0.9c-0.1,0.3-0.3,0.6-0.5,0.8c-0.2,0.2-0.4,0.4-0.7,0.5
				c-0.3,0.1-0.6,0.2-0.9,0.2c-0.3,0-0.6-0.1-0.9-0.2c-0.3-0.1-0.5-0.3-0.7-0.5c-0.2-0.2-0.4-0.5-0.5-0.8c-0.1-0.3-0.2-0.6-0.2-0.9
				v-0.5c0-0.3,0.1-0.7,0.2-1c0.1-0.3,0.3-0.6,0.5-0.8c0.2-0.2,0.4-0.4,0.7-0.5c0.3-0.1,0.6-0.2,0.9-0.2h2.3V50.8z M199.5,52.3
				c-0.4-0.2-0.9-0.4-1.4-0.6c-0.5-0.2-1-0.5-1.5-0.8c-0.5-0.3-0.9-0.7-1.2-1.1c-0.3-0.4-0.5-0.9-0.5-1.4c0-0.3,0.1-0.5,0.2-0.8
				c0.1-0.2,0.3-0.5,0.5-0.7c0.2-0.2,0.5-0.3,0.7-0.5c0.3-0.1,0.6-0.2,0.9-0.2c0.3,0,0.6,0.1,0.9,0.2c0.3,0.1,0.5,0.3,0.7,0.5
				c0.2,0.2,0.4,0.5,0.5,0.7c0.1,0.3,0.2,0.6,0.2,0.9V52.3z"/>
			<path class="st4" d="M236.4,51.6c0,0.4-0.1,0.8-0.3,1c-0.2,0.2-0.5,0.4-0.9,0.4h-5.7v-2.3c0-0.8-0.1-1.6-0.3-2.2
				c-0.2-0.6-0.5-1.1-0.9-1.5c-0.4-0.4-0.8-0.7-1.3-0.9c-0.5-0.2-1-0.3-1.6-0.3c-0.6,0-1.2,0.1-1.7,0.3c-0.5,0.2-1,0.5-1.5,0.8
				c-0.5,0.3-0.9,0.7-1.3,1.2c-0.4,0.5-0.8,1-1.3,1.5l0,0c0.2-0.4,0.3-1.1,0.3-2.1v-5.1h-1.6V53h-12.2c-0.4,0-0.6-0.1-0.9-0.3
				c-0.2-0.2-0.3-0.5-0.3-0.9V40.4h-1.6v11.3c0,0.5,0.1,0.9,0.2,1.2c0.1,0.3,0.3,0.6,0.5,0.9c0.2,0.2,0.5,0.4,0.9,0.6
				c0.3,0.1,0.8,0.2,1.2,0.2h0h29.2c0.9,0,1.6-0.3,2-0.8c0.5-0.6,0.7-1.3,0.7-2.2V40.4h-1.6V51.6z M227.9,53h-8v-1.6
				c0.4-0.5,0.7-1,1.1-1.4c0.4-0.5,0.8-0.9,1.2-1.3c0.4-0.4,0.9-0.7,1.4-0.9c0.5-0.2,1-0.3,1.6-0.3c0.4,0,0.7,0.1,1,0.2
				c0.3,0.1,0.6,0.3,0.9,0.6c0.2,0.3,0.4,0.6,0.6,1c0.1,0.4,0.2,0.9,0.2,1.5V53z"/>
			<rect x="240.2" y="40.4" class="st4" width="1.6" height="14.2"/>
			<path class="st4" d="M251.5,48.4c-0.2-0.5-0.5-0.9-0.8-1.3c-0.4-0.4-0.8-0.7-1.3-0.9c-0.5-0.2-1-0.3-1.6-0.3
				c-0.5,0-1.1,0.1-1.5,0.3c-0.5,0.2-0.9,0.5-1.2,0.9c-0.4,0.4-0.6,0.8-0.8,1.3c-0.2,0.5-0.3,1-0.3,1.6v0.8c0,0.6,0.1,1.1,0.3,1.5
				c0.2,0.5,0.5,0.9,0.8,1.2c0.3,0.3,0.8,0.6,1.2,0.8c0.5,0.2,1,0.3,1.5,0.3h2.3v0.6c0,0.5-0.1,0.9-0.3,1.4c-0.2,0.4-0.5,0.8-1,1.1
				c-0.4,0.3-0.9,0.6-1.5,0.8c-0.6,0.2-1.2,0.3-1.9,0.3v1.4c0.9,0,1.8-0.1,2.5-0.4c0.8-0.3,1.4-0.6,2-1.1c0.6-0.5,1-1.1,1.3-1.7
				c0.3-0.7,0.5-1.4,0.5-2.2V50C251.8,49.5,251.7,48.9,251.5,48.4z M250.2,53h-2.3c-0.3,0-0.6-0.1-0.9-0.2c-0.3-0.1-0.5-0.3-0.7-0.5
				c-0.2-0.2-0.4-0.4-0.5-0.7c-0.1-0.3-0.2-0.6-0.2-0.9V50c0-0.4,0.1-0.7,0.2-1c0.1-0.3,0.3-0.6,0.5-0.8c0.2-0.2,0.4-0.4,0.7-0.5
				c0.3-0.1,0.6-0.2,0.9-0.2c0.3,0,0.6,0.1,0.9,0.2c0.3,0.1,0.5,0.3,0.7,0.5c0.2,0.2,0.4,0.5,0.5,0.8c0.1,0.3,0.2,0.6,0.2,1V53z"/>
			<path class="st4" d="M88.4,44c0.5,0,0.9-0.4,0.9-0.9c0-0.5-0.4-0.9-0.9-0.9c-0.5,0-0.9,0.4-0.9,0.9C87.5,43.6,87.9,44,88.4,44z"
				/>
			<path class="st4" d="M86.3,44c0.5,0,0.9-0.4,0.9-0.9c0-0.5-0.4-0.9-0.9-0.9c-0.5,0-0.9,0.4-0.9,0.9C85.4,43.6,85.8,44,86.3,44z"
				/>
			<path class="st4" d="M141.9,45.1c0.5,0,0.9-0.4,0.9-0.9c0-0.5-0.4-0.9-0.9-0.9c-0.5,0-0.9,0.4-0.9,0.9
				C141,44.7,141.4,45.1,141.9,45.1z"/>
			<path class="st4" d="M139.8,45.1c0.5,0,0.9-0.4,0.9-0.9c0-0.5-0.4-0.9-0.9-0.9c-0.5,0-0.9,0.4-0.9,0.9
				C138.8,44.7,139.3,45.1,139.8,45.1z"/>
			<path class="st4" d="M177.4,44c0.5,0,0.9-0.4,0.9-0.9c0-0.5-0.4-0.9-0.9-0.9c-0.5,0-0.9,0.4-0.9,0.9
				C176.5,43.6,176.9,44,177.4,44z"/>
			<path class="st4" d="M175.3,44c0.5,0,0.9-0.4,0.9-0.9c0-0.5-0.4-0.9-0.9-0.9c-0.5,0-0.9,0.4-0.9,0.9
				C174.4,43.6,174.8,44,175.3,44z"/>
			<path class="st4" d="M198.3,42.7c0.5,0,0.9-0.4,0.9-0.9c0-0.5-0.4-0.9-0.9-0.9c-0.5,0-0.9,0.4-0.9,0.9
				C197.3,42.3,197.8,42.7,198.3,42.7z"/>
			<path class="st4" d="M196.2,42.7c0.5,0,0.9-0.4,0.9-0.9c0-0.5-0.4-0.9-0.9-0.9c-0.5,0-0.9,0.4-0.9,0.9
				C195.2,42.3,195.6,42.7,196.2,42.7z"/>
			<path class="st4" d="M123.8,56.3c-0.5,0-0.9,0.4-0.9,0.9s0.4,0.9,0.9,0.9c0.5,0,0.9-0.4,0.9-0.9S124.3,56.3,123.8,56.3z"/>
		</g>
	</g>
</g>
</svg>
