<svg width="938" height="722" viewBox="0 0 938 722" fill="none" xmlns="http://www.w3.org/2000/svg">
<path d="M687.894 458.8C693.742 454.697 699.768 450.864 706.164 447.577C739.071 430.667 769.877 413.312 795.579 386.675C826.021 355.125 847.359 312.516 847.362 267.811C847.366 223.107 823.31 177.274 783.703 158.731C734.412 135.654 678.021 157.597 624.385 163.128C555.244 170.259 486.502 149.213 418.272 134.679C350.041 120.145 275.888 112.752 213.922 144.747C164.028 170.507 127.286 221.495 117.684 278.297C108.081 335.098 125.845 396.371 164.212 438.786C219.57 499.984 306.643 516.464 387.381 520.368C446.878 523.245 506.557 521.175 565.647 514.186C592.301 511.033 617.249 505.611 640.786 492.353C657.719 482.816 672.166 469.834 687.894 458.8Z" stroke="#F2E5FF" stroke-width="2.5965" stroke-miterlimit="10"/>
<path d="M321.51 514.9C279.947 509.984 238.124 499.942 201.4 477.933C164.675 455.925 133.327 420.792 121.096 377.809C108.865 334.826 118.529 284.178 150.01 255.515C189.189 219.843 247.234 225.516 298.248 216.164C364.009 204.108 421.694 165.069 480.688 132.431C539.682 99.7933 606.096 72.4014 672.037 86.2152C725.13 97.337 772.986 136.312 797.386 188.301C821.785 240.29 822.151 304.063 798.343 355.341C763.993 429.325 688.141 468.988 614.696 494.826C560.572 513.867 504.928 528.201 448.482 537.644C427.732 541.115 406.554 543.926 385.652 540.64C364.751 537.353 343.879 527.255 330.945 509.171L321.51 514.9Z" fill="#F2E5FF"/>
<path d="M0 597.789H937.105" stroke="#D4D4D4" stroke-width="5" stroke-miterlimit="10"/>
<path opacity="0.15" d="M114.06 649.711C138.654 649.711 158.591 645.915 158.591 641.233C158.591 636.55 138.654 632.754 114.06 632.754C89.4667 632.754 69.5298 636.55 69.5298 641.233C69.5298 645.915 89.4667 649.711 114.06 649.711Z" fill="#171717"/>
<path d="M93.632 624.733C83.997 624.733 73.2717 610.628 73.2717 601.069C73.2717 591.354 81.0182 583.449 90.5392 583.449C100.061 583.449 107.808 591.354 107.808 601.069C107.807 610.219 103.959 624.733 93.632 624.733ZM90.5392 589.308C84.2487 589.308 79.131 594.584 79.131 601.069C79.131 608.224 87.8041 618.873 93.632 618.873C98.9864 618.873 101.948 608.346 101.948 601.069C101.948 594.584 96.8297 589.308 90.5392 589.308Z" fill="#171717"/>
<path d="M126.944 639.975H101.592C97.3797 639.975 93.8712 636.746 93.5229 632.548L88.28 569.371H141.306L135.002 632.68C134.589 636.821 131.105 639.975 126.944 639.975Z" fill="#171717"/>
<path d="M94.429 493.597C92.6524 499.544 91.8584 505.665 92.8667 511.553C93.3677 514.486 94.203 517.349 95.3627 520.095C96.5566 522.829 98.0364 525.45 99.7229 527.951C101.467 530.417 103.318 532.834 105.412 535.069C105.907 535.608 106.448 536.275 106.991 536.926C107.522 537.585 108.086 538.204 108.583 538.896L109.989 541.058C110.475 541.762 110.766 542.628 111.152 543.406C111.56 544.175 111.757 545.073 112.011 545.926C112.307 546.766 112.355 547.697 112.462 548.593C112.531 549.041 112.519 549.498 112.478 549.957L112.386 551.321C112.321 551.771 112.197 552.214 112.101 552.656C112 553.099 111.904 553.541 111.717 553.953L111.204 555.197C110.995 555.589 110.766 555.969 110.547 556.351C110.34 556.743 110.073 557.089 109.811 557.437C109.549 557.784 109.302 558.143 108.994 558.445C107.838 559.744 106.55 560.789 105.012 561.656L104.035 560.106C106.205 558.195 107.982 555.627 108.584 552.982C108.702 552.66 108.73 552.32 108.767 551.985C108.801 551.649 108.868 551.32 108.88 550.986L108.836 549.981C108.838 549.649 108.816 549.317 108.72 548.986C108.566 548.327 108.524 547.662 108.224 547.024C107.969 546.383 107.805 545.727 107.41 545.122C107.042 544.514 106.787 543.874 106.349 543.292L105.09 541.534C104.642 540.964 104.108 540.437 103.625 539.886L102.069 538.189C100.956 536.996 99.8448 535.801 98.8267 534.511C97.7542 533.273 96.8097 531.916 95.8619 530.57C94.0727 527.799 92.3993 524.913 91.2106 521.784C90.0336 518.66 89.1973 515.384 88.8959 512.048C88.2106 505.358 89.8006 498.643 92.7331 492.902L94.429 493.597Z" fill="#DAC0FE"/>
<path d="M117.458 491.789C120.737 494.477 123.421 498.219 124.658 502.537C125.306 504.679 125.583 506.922 125.615 509.148C125.646 511.38 125.286 513.569 124.844 515.71C124.345 517.838 123.629 519.892 122.798 521.871L122.243 523.229C122.079 523.654 121.877 524.079 121.738 524.505L121.383 525.784C121.252 526.214 121.238 526.62 121.148 527.044C121.041 527.474 121.083 527.867 121.064 528.278C121.017 528.701 121.13 529.069 121.166 529.467C121.18 529.878 121.368 530.214 121.447 530.61C121.622 530.955 121.749 531.341 121.987 531.668C122.801 533.048 124.364 534.223 125.996 534.965L125.637 536.762C123.311 536.52 121.143 535.527 119.408 533.693C118.974 533.247 118.646 532.698 118.293 532.174C118.037 531.606 117.68 531.044 117.531 530.437C117.366 529.834 117.164 529.215 117.136 528.606C117.078 527.996 116.98 527.365 117.04 526.778C117.086 526.189 117.054 525.558 117.185 524.997L117.535 523.288C117.676 522.731 117.873 522.209 118.043 521.667C118.223 521.127 118.396 520.572 118.562 520.15C119.295 518.344 119.822 516.488 120.303 514.643C120.745 512.791 121.02 510.919 121.135 509.053C121.222 507.187 121.091 505.33 120.774 503.493C120.125 499.809 118.397 496.338 116.124 493.044L117.458 491.789Z" fill="#DAC0FE"/>
<path opacity="0.15" d="M790.513 653.843C839.699 653.843 879.573 647.941 879.573 640.66C879.573 633.379 839.699 627.477 790.513 627.477C741.326 627.477 701.452 633.379 701.452 640.66C701.452 647.941 741.326 653.843 790.513 653.843Z" fill="#171717"/>
<path d="M796.182 425.922H783.682V548.185H796.182V425.922Z" fill="#27481F"/>
<path d="M793.055 417.705C792.891 426.553 792.071 434.006 791.38 438.822C790.852 442.525 790.407 444.658 790.407 444.658C756.283 433.584 740.627 412.432 734.111 391.093C733.502 389.147 732.986 387.19 732.541 385.245C725.65 355.55 734.885 327.262 734.885 327.262C750.529 330.531 762.095 337.351 770.591 346.129C772.056 347.629 773.415 349.175 774.692 350.781C790.419 370.491 793.43 397.667 793.055 417.705Z" fill="#49883A"/>
<path d="M837.293 358.596C836.613 382.338 827.379 409.994 798.739 436.548C796.547 438.587 794.227 440.626 791.79 442.653C791.532 442.876 791.274 443.087 791.016 443.298C791.016 443.298 786.27 436.337 781.384 425.017C781.313 424.853 781.243 424.701 781.184 424.537C779.473 420.541 777.751 416.006 776.227 411.049C774.974 407.006 773.849 402.693 772.946 398.147C769.501 380.674 769.489 359.956 779.016 339.448C786.165 324.003 798.727 308.687 819.281 294.941C819.281 294.941 838.347 322.175 837.293 358.596Z" fill="#49883A"/>
<path opacity="0.5" d="M798.739 436.549C796.548 438.588 794.227 440.627 791.79 442.654C791.532 442.877 791.274 443.088 791.016 443.299C791.016 443.299 786.271 436.338 781.384 425.018C781.317 424.863 781.25 424.694 781.184 424.538L781.185 424.538C780.771 423.572 780.357 422.572 779.946 421.546C779.789 421.154 779.635 420.741 779.478 420.34C779.21 419.652 778.94 418.97 778.675 418.257C778.468 417.698 778.266 417.111 778.061 416.538C777.847 415.936 777.63 415.347 777.42 414.73C777.012 413.531 776.613 412.305 776.228 411.05C774.974 407.007 773.849 402.694 772.947 398.147C770.134 383.898 769.607 367.48 774.693 350.781C773.415 349.176 772.056 347.629 770.591 346.129C767.307 354.797 761.97 374.669 761.336 392.589C753.448 389.497 743.961 386.962 732.541 385.245C732.986 387.191 733.502 389.148 734.111 391.093C729.248 389.933 723.986 388.913 718.303 388.07C722.791 403.374 740.791 452.123 787.759 452.85C788.954 452.873 790.161 452.861 791.391 452.814C793.325 452.756 795.305 452.604 797.344 452.369C797.344 452.369 799.454 445.725 798.739 436.549Z" fill="#27481F"/>
<path d="M791.684 450.257C791.684 450.292 791.684 450.339 791.673 450.374C791.649 450.667 791.626 450.948 791.591 451.218C791.567 451.346 791.555 451.475 791.544 451.604C791.52 451.827 791.497 452.038 791.462 452.249C791.38 452.893 791.286 453.491 791.192 454.065C791.134 454.44 791.063 454.803 790.993 455.155C790.372 458.307 789.669 460.182 789.669 460.182C786.329 460.393 783.142 460.381 780.071 460.17C724.467 456.444 713.053 387.328 713.053 387.328C714.846 387.551 716.592 387.797 718.303 388.066C723.986 388.91 729.248 389.93 734.111 391.09C754.208 395.871 767.509 403.078 776.228 411.046C778.853 413.437 781.056 415.91 782.895 418.394C788.052 425.331 790.454 432.456 791.38 438.819C791.579 440.132 791.708 441.409 791.79 442.651C791.966 445.417 791.895 447.983 791.684 450.257Z" fill="#49883A"/>
<path opacity="0.38" d="M837.293 358.594C836.953 370.465 834.469 383.308 828.492 396.515C822.527 409.722 813.059 423.268 798.739 436.545C798.68 436.592 798.622 436.651 798.563 436.698C797.719 437.483 796.852 438.268 795.961 439.053C795.704 439.288 795.446 439.522 795.176 439.756C794.075 440.717 792.95 441.69 791.79 442.651C791.708 441.409 791.579 440.131 791.38 438.819C790.454 432.456 788.051 425.331 782.895 418.393C781.056 415.909 778.852 413.436 776.227 411.046C774.974 407.003 773.849 402.691 772.946 398.144C776.122 399.995 778.934 401.952 781.395 403.991C783.141 405.421 784.688 406.886 786.106 408.374C793.43 389.214 808.184 369.597 837.293 358.594Z" fill="#27481F"/>
<path opacity="0.2" d="M791.684 450.257C791.684 450.292 791.684 450.339 791.673 450.374C791.649 450.667 791.626 450.949 791.591 451.218C791.567 451.347 791.555 451.476 791.544 451.605C791.52 451.828 791.497 452.038 791.462 452.249C791.38 452.894 791.286 453.492 791.192 454.066C791.122 454.441 791.063 454.804 790.993 455.156C790.372 458.308 789.669 460.183 789.669 460.183C786.329 460.394 783.142 460.382 780.071 460.171C779.556 456.339 778.067 442.078 781.384 425.016C781.806 422.848 782.31 420.633 782.895 418.395C788.052 425.332 790.454 432.457 791.38 438.82C791.579 440.132 791.708 441.41 791.79 442.652C791.966 445.417 791.895 447.984 791.684 450.257Z" fill="#27481F"/>
<path d="M845.203 532.555L831.457 622.53C829.922 632.561 821.297 639.967 811.149 639.967H769.876C760.888 639.967 753.083 634.154 750.365 625.846C750.013 624.78 749.744 623.666 749.568 622.53L735.822 532.555H845.203Z" fill="#FD7F0B"/>
<path d="M788.227 460.293C788.227 460.293 773.167 370.971 868.952 358.094C868.952 358.094 874.96 455.974 788.227 460.293Z" fill="#49883A"/>
<path opacity="0.4" d="M845.203 532.555L831.457 622.53C829.922 632.561 821.297 639.967 811.149 639.967H769.876C760.888 639.967 753.083 634.154 750.365 625.846C803.954 617.256 818.321 562.085 821.227 532.555H845.203Z" fill="#C86000"/>
<path opacity="0.15" d="M646.054 641.747C646.054 630.757 548.148 621.848 427.375 621.848C306.602 621.848 208.696 630.757 208.696 641.747C208.696 650.661 273.109 658.206 361.888 660.738C371.556 676.599 355.418 695.57 343.049 702.413C321.33 703.497 305.743 705.914 308.197 711.069C319.805 735.444 418.449 709.507 418.449 709.507C418.449 709.507 457.023 711.905 457.023 708.237C457.023 706.549 450.228 705.009 439.057 703.837L439.882 703.788L398.239 661.471C407.772 661.586 417.495 661.647 427.375 661.647C548.148 661.647 646.054 652.737 646.054 641.747Z" fill="#171717"/>
<path d="M665.37 495.572C662.488 543.138 638.511 590.668 599.207 616.824C552.357 648.007 486.85 641.105 433.496 645.077C387.372 648.511 340.896 651.464 294.76 646.554C256.956 642.523 218.824 627.546 200.766 590.844C182.672 554.06 180.715 505.182 198.809 467.952C204.574 456.069 212.297 445.511 221.379 436.3C222.855 434.788 224.39 433.312 225.949 431.87C227.003 430.898 228.07 429.937 229.16 428.999C230.824 427.558 232.535 426.152 234.269 424.781C234.843 424.335 235.417 423.89 236.003 423.445C236.577 422.999 237.163 422.566 237.749 422.132C238.335 421.699 238.921 421.265 239.519 420.843C239.964 420.527 240.409 420.21 240.855 419.894C241.593 419.367 242.343 418.851 243.105 418.347C249.843 413.8 256.944 409.804 264.268 406.371C271.393 403.008 278.729 400.172 286.112 397.875C310.381 390.34 335.728 387.668 360.771 384.375C413.914 377.403 468.019 375.024 521.584 375.059C565.294 375.071 614.512 381.61 643.738 419.132C660.238 440.319 667.023 468.479 665.37 495.572Z" fill="#FD7F0B"/>
<path d="M575.385 415.238C575.385 415.238 586.659 404.647 592.634 398.517C598.609 392.386 585.573 392.188 579.148 399.827C572.723 407.467 575.385 415.238 575.385 415.238Z" fill="#F9B384"/>
<path d="M264.269 406.375C256.944 409.809 249.843 413.805 243.105 418.351C242.343 418.855 241.593 419.371 240.855 419.898C240.41 420.215 239.964 420.531 239.519 420.847C238.921 421.269 238.335 421.703 237.749 422.136C237.164 422.57 236.578 423.004 236.003 423.449C235.417 423.894 234.843 424.339 234.269 424.785C232.558 426.144 230.882 427.539 229.23 428.968L229.16 429.003C228.07 429.941 227.004 430.902 225.949 431.874C224.39 433.316 222.855 434.792 221.379 436.304C221.508 437.546 222.316 438.742 223.645 439.014C232.44 440.794 236.845 449.185 243.934 453.956C249.195 457.496 255.414 458.468 261.367 456.438C254.958 470.012 251.423 483.478 254.19 498.67C255.032 503.264 256.492 507.737 258.482 511.961C250.245 505.843 242.311 492.738 239.047 479.448C238.584 477.562 236.678 476.38 234.795 476.873C232.91 477.336 231.756 479.239 232.219 481.126C236.259 497.579 246.544 513.389 257.228 519.57C259.773 521.042 262.357 521.978 264.915 522.409C267.032 525.121 269.395 527.641 271.991 529.9L287.787 534.318L300.677 451.116L264.269 406.375Z" fill="#B35341"/>
<path d="M310.053 462.249C277.392 449.529 254.717 436.001 241.554 426.994C233.021 421.155 228.705 410.86 230.454 400.67L247.296 302.499C249.029 292.394 255.729 283.804 265.151 279.764C292.171 268.178 318.478 261.557 341.693 258.347C341.693 258.347 354.697 257.298 371.282 258.933C382.196 260.009 407.181 267.372 423.063 272.304C432.037 275.091 439.24 281.811 442.638 290.572C449.297 307.737 460.116 336.722 463.565 352.388C475.479 406.489 473.526 402.485 473.526 402.485L485.83 485.687L355.169 493.011L321.771 477.777L310.053 462.249Z" fill="#7500FD"/>
<path d="M390.911 164.89C390.911 164.89 379.338 141.16 348.577 152C326.312 147.166 309.32 173.533 325.726 209.421L356.634 216.598L390.911 164.89Z" fill="#102048"/>
<path d="M374.505 231.977V273.952C374.505 283.772 366.536 291.741 356.716 291.741C343.404 291.741 332.611 280.948 332.611 267.636V231.977H374.505Z" fill="#F9B384"/>
<path d="M374.505 249.395V272.293C355.837 272.386 343.45 248.246 343.45 248.246L374.505 249.395Z" fill="#E28B6D"/>
<path d="M392.973 226.694C391.848 232.507 390.243 238.46 387.934 243.698C383.903 252.897 377.751 259.905 368.352 260.104C346.357 260.573 329.388 230.515 329.388 230.515L332.904 189.5L349.603 170.75L395.598 199.167C395.598 199.167 395.727 212.503 392.973 226.694Z" fill="#F9B384"/>
<path d="M332.172 218.503C332.172 218.503 336.713 200.046 352.533 188.035C352.533 188.035 375.531 218.064 399.847 203.562C424.162 189.06 413.616 160.496 390.911 164.891L364.837 161.961L332.172 172.361L326.605 197.996L332.172 218.503Z" fill="#102048"/>
<path opacity="0.4" d="M355.257 431.22C333.099 383.343 305.17 406.194 298.335 388.616C288.756 363.986 290.572 336.124 290.522 327.68L277.177 402.825C277.177 402.825 306.972 405.658 317.987 423.598L355.257 431.22Z" fill="#1F3C88"/>
<path d="M291.202 326.398C290.371 332.826 289.391 339.229 288.379 345.625C287.395 352.027 286.237 358.398 285.175 364.786C284.063 371.165 282.894 377.534 281.645 383.888L279.735 393.414C279.045 396.58 278.402 399.754 277.661 402.911L276.692 402.739C277.079 399.52 277.565 396.318 278.003 393.108L279.479 383.505C280.485 377.108 281.574 370.724 282.718 364.351C283.913 357.987 285.013 351.606 286.285 345.255C287.529 338.899 288.807 332.55 290.232 326.227L291.202 326.398Z" fill="#1F3C88"/>
<path d="M420.658 314.516C422.431 322.865 424.068 331.238 425.673 339.617C427.304 347.992 428.775 356.395 430.334 364.782C431.821 373.182 433.276 381.588 434.691 390.001L436.736 402.634C437.367 406.854 438.042 411.066 438.626 415.295L437.725 415.456C436.811 411.286 435.989 407.1 435.123 402.922L432.675 390.36C431.095 381.977 429.556 373.586 428.048 365.189C426.612 356.78 425.088 348.386 423.725 339.965C422.335 331.547 420.977 323.124 419.756 314.676L420.658 314.516Z" fill="#1F3C88"/>
<path opacity="0.4" d="M426.848 353.266C428.41 368.5 426.066 447.404 389.348 448.576L389.739 465.764L447.55 462.248L426.848 353.266Z" fill="#1F3C88"/>
<path d="M351.361 446.429C377.434 435.296 382.419 435.711 385.93 435.882C397.942 436.468 415.227 460.491 415.227 460.491L414.934 464.885H349.017L351.361 446.429Z" fill="#E28B6D"/>
<path d="M451.652 460.586H370.501V472.89H451.652V460.586Z" fill="white"/>
<path d="M562.001 472.901H420.988L452.628 346.887H593.641L562.001 472.901Z" fill="#FBC343"/>
<path d="M574.781 421.362C560.829 419.278 515.713 409.903 422.746 466.543L420.598 474.355L562.002 472.901L574.781 421.362Z" fill="#C89B35"/>
<path d="M577.455 449.357C576.576 455.289 576.283 464.005 557.9 462.906L552.479 460.123L557.607 454.483L568.666 448.844L577.455 449.357Z" fill="#F9B384"/>
<path d="M579.188 433.34C579.188 433.34 589.249 446.483 579.139 450.527C568.153 454.922 557.606 454.482 557.606 454.482C562.294 441.299 577.528 442.178 577.528 442.178L579.188 433.34Z" fill="#F9B384"/>
<path d="M579.481 424.844C579.481 424.844 593.348 437.734 580.458 441.347C562.254 446.45 556.63 446.816 556.63 446.816C555.654 437.148 573.72 430.898 573.72 430.898L579.481 424.844Z" fill="#F9B384"/>
<path d="M576.649 413.613C576.649 413.613 595.594 425.136 577.821 431.582C560.048 438.027 555.849 437.929 555.849 437.929C554.872 428.261 573.915 424.941 573.915 424.941L576.649 413.613Z" fill="#F9B384"/>
<path d="M555.849 437.926C555.849 437.926 576.503 434.996 582.655 430.016" stroke="#E28B6D" stroke-width="2.5" stroke-miterlimit="10"/>
<path d="M556.63 446.816C556.63 446.816 578.114 443.789 584.852 439.102" stroke="#E28B6D" stroke-width="2.5" stroke-miterlimit="10"/>
<path d="M557.606 454.483C557.606 454.483 570.351 454.922 577.528 451.406" stroke="#E28B6D" stroke-width="2.5" stroke-miterlimit="10"/>
<path d="M357.513 639.198C359.661 638.027 393.645 645.448 431.339 617.519L382.708 603.652L357.513 639.198Z" fill="#102048"/>
<path d="M573.45 477.894C575.067 475.585 576.462 472.187 574.423 470.242C572.302 468.203 568.833 469.996 566.607 471.918C562.681 475.292 559.118 478.996 555.825 482.933L473.725 498.191L361.228 525.53L380.57 550.218C436.819 554.32 468.855 555.375 504.056 549.163C521.998 545.996 538.037 542.732 550.001 532.982C552.849 530.65 555.544 526.736 553.693 523.561C552.439 521.416 549.837 520.854 547.224 520.877C553.236 519.459 559.072 517.385 564.614 514.678C567.087 513.483 569.841 511.608 569.782 508.866C569.747 506.897 568.153 505.233 566.325 504.53C564.497 503.827 562.482 503.885 560.525 504.026C553.025 504.588 545.607 506.229 538.564 508.877C551.384 499.925 564.427 490.655 573.45 477.894ZM538.388 508.995C538.388 508.972 538.4 508.96 538.423 508.936C538.459 508.925 538.505 508.913 538.541 508.89C538.494 508.925 538.435 508.96 538.388 508.995Z" fill="#B35341"/>
<path d="M385.051 488.615C385.051 488.615 494.62 436.467 530.361 438.811C566.103 441.155 564.931 485.685 551.454 505.021C537.978 524.356 506.338 550.137 389.739 542.52L385.051 488.615Z" fill="#171717"/>
<path d="M439.882 703.791C433.953 705.466 425.539 705.877 413.961 704.037C413.961 704.037 398.961 707.927 384.196 710.986C374.2 713.06 364.321 714.748 359.27 714.583C358.837 714.572 358.403 714.548 357.958 714.513C348.267 713.822 336.056 708.771 329.576 701.552C329.564 701.529 329.552 701.506 329.529 701.494C327.748 699.502 326.4 697.334 325.673 695.06C322.158 684.115 329.587 670.838 369.817 673.569C369.817 673.569 383.094 670.451 386.223 660.678C389.352 650.917 366.302 604.043 366.302 604.043L399.113 581.777L431.339 617.519C431.339 617.519 436.226 649.745 436.226 660.292C436.226 660.292 449.89 679.826 451.847 688.416C453.101 693.9 450.359 700.826 439.882 703.791Z" fill="#F2E5FF"/>
<path d="M255.396 407.002C259.154 405.555 262.984 404.387 266.855 403.313C268.793 402.783 270.744 402.287 272.73 401.898C273.721 401.698 274.724 401.527 275.74 401.386C276.252 401.318 276.76 401.265 277.291 401.223C277.855 401.196 278.407 401.201 278.933 401.254C283.143 401.696 286.959 403.019 290.749 404.419C294.52 405.856 298.212 407.464 301.836 409.206C305.472 410.926 309.009 412.84 312.49 414.848C315.968 416.86 319.391 418.969 322.718 421.227C329.327 425.79 335.687 430.801 341.162 436.707L340.466 437.404C337.52 434.738 334.454 432.219 331.265 429.86C328.101 427.471 324.826 425.227 321.477 423.102C314.834 418.764 307.858 414.947 300.758 411.424C297.206 409.665 293.589 408.039 289.914 406.589C286.242 405.217 282.483 403.746 278.742 403.239C278.275 403.174 277.83 403.158 277.395 403.161C276.932 403.183 276.444 403.221 275.965 403.271C275 403.378 274.029 403.515 273.059 403.684C271.119 404.023 269.176 404.417 267.24 404.852C263.37 405.732 259.513 406.758 255.727 407.93L255.396 407.002Z" fill="#1F3C88"/>
<path d="M274.897 560.39C288.08 559.511 301.036 560.455 310.443 557.168C320.501 553.652 346.77 555.996 346.77 555.996L332.318 535.195L273.725 549.843L274.897 560.39Z" fill="#B35341"/>
<path d="M275.483 522.015C262.007 500.336 262.007 457.563 278.999 438.228C298.419 416.129 339.935 407.76 361.614 433.54C383.294 459.321 423.137 553.655 431.339 617.521C431.339 617.521 387.395 602.873 357.513 639.201C357.513 639.201 318.256 549.554 310.053 516.742L287.787 534.32L275.483 522.015Z" fill="#171717"/>
<path d="M310.053 516.736C310.053 516.736 304.193 514.588 295.99 520.056C295.99 520.056 231.929 518.689 217.672 533.142C203.414 547.595 214.352 566.93 235.25 569.079C252.789 570.882 286.837 557.277 297.329 552.857C299.46 551.959 301.724 551.42 304.031 551.269L321.381 550.134L310.053 516.736Z" fill="#F2E5FF"/>
<path d="M335.636 219.697C335.636 219.697 331.339 205.457 321.887 209.017C312.435 212.577 317.468 231.113 336.127 236.269L335.636 219.697Z" fill="#F9B384"/>
<path d="M325.569 298.216C330.235 301.506 335.207 304.337 340.48 306.343C345.749 308.319 351.308 309.57 356.885 309.437C362.449 309.369 367.959 307.997 372.93 305.455L374.801 304.504C375.414 304.166 375.976 303.742 376.568 303.364C377.735 302.584 378.943 301.852 379.985 300.894L381.631 299.559L382.458 298.89C382.725 298.659 382.964 298.395 383.219 298.149C384.218 297.144 385.232 296.147 386.263 295.156L386.964 295.746C386.042 296.861 385.102 297.97 384.148 299.07C383.906 299.342 383.681 299.631 383.426 299.89L382.633 300.642L381.039 302.147C380.004 303.188 378.788 304.013 377.607 304.885C377.008 305.309 376.437 305.779 375.811 306.165L373.892 307.261C368.755 310.159 362.83 311.724 356.91 311.759C350.989 311.772 345.114 310.489 339.739 308.177C334.348 305.888 329.387 302.718 325.004 298.937L325.569 298.216Z" fill="#1F3C88"/>
<path d="M300.343 479.328L305.42 497.093C307.147 503.003 308.762 508.942 310.566 514.824C312.333 520.716 314.093 526.609 315.946 532.47C316.872 535.399 317.788 538.337 318.804 541.235C319.299 542.689 319.748 544.163 320.273 545.606C320.797 547.05 321.307 548.5 321.803 549.959L320.958 550.312C319.65 547.511 318.423 544.668 317.266 541.801C316.115 538.93 315.066 536.024 314.004 533.121C311.923 527.301 310.083 521.402 308.338 515.48C306.648 509.542 304.976 503.6 303.508 497.605C302.023 491.614 300.62 485.606 299.451 479.539L300.343 479.328Z" fill="#102048"/>
<path opacity="0.1" d="M439.882 703.79C433.953 705.466 425.539 705.876 413.961 704.036C413.961 704.036 389.153 710.388 373.479 712.878C389.592 709.656 413.03 689.734 410.393 677.137C433.537 684.754 439.835 696.326 439.882 703.79Z" fill="#1F3C88"/>
<path opacity="0.4" d="M377.575 705.992C374.587 709.672 370.133 712.168 365.458 713.422C363.009 714.078 360.489 714.429 357.958 714.511C348.267 713.82 336.056 708.769 329.576 701.551C329.564 701.527 329.552 701.504 329.529 701.492C328.837 700.555 328.193 699.582 327.63 698.574C331.076 701.785 334.826 704.41 338.868 706.414C340.896 707.375 342.946 708.301 345.091 708.945C346.134 709.344 347.224 709.578 348.302 709.883C349.368 710.211 350.481 710.34 351.583 710.539C360.337 712.015 369.63 711.101 377.575 705.992Z" fill="#1F3C88"/>
<path d="M331.389 221.718C331.171 220.439 330.57 219.245 329.862 218.156C329.138 217.079 328.276 216.072 327.279 215.368C326.28 214.67 325.197 214.321 324.283 214.815C323.324 215.293 322.564 216.458 321.9 217.639L321.252 217.413C321.531 216.024 322.045 214.494 323.5 213.485C324.217 212.984 325.2 212.806 326.054 212.96C326.911 213.115 327.662 213.484 328.296 213.944C329.561 214.875 330.487 216.084 331.162 217.406C331.816 218.722 332.286 220.209 332.076 221.733L331.389 221.718Z" fill="#E28B6D"/>
<path d="M387.145 221.367C386.733 223.388 385.21 224.784 383.744 224.486C382.277 224.186 381.423 222.306 381.835 220.284C382.247 218.263 383.769 216.867 385.236 217.165C386.702 217.464 387.557 219.345 387.145 221.367Z" fill="#102048"/>
<path d="M364.312 220.451C364.644 218.415 363.716 216.569 362.239 216.328C360.762 216.087 359.295 217.543 358.963 219.579C358.631 221.615 359.56 223.461 361.037 223.702C362.514 223.942 363.981 222.487 364.312 220.451Z" fill="#102048"/>
<path d="M374.004 223.229C374.144 224.893 374.211 226.549 374.229 228.169C374.295 228.789 374.583 229.32 375.101 229.884C375.6 230.443 376.246 231.027 376.804 231.842C377.083 232.243 377.302 232.757 377.41 233.262C377.527 233.764 377.542 234.263 377.509 234.754C377.426 235.729 377.081 236.689 376.432 237.479C376.114 237.876 375.69 238.203 375.227 238.442C374.746 238.648 374.229 238.78 373.732 238.757C372.73 238.712 371.869 238.324 371.154 237.823L371.478 237.217C372.237 237.464 372.995 237.655 373.664 237.528C374.328 237.436 374.857 237.081 375.21 236.536C375.926 235.467 376.031 233.795 375.339 232.798C374.978 232.22 374.379 231.676 373.812 230.962C373.239 230.285 372.691 229.264 372.729 228.201C372.857 226.498 373.059 224.831 373.32 223.172L374.004 223.229Z" fill="#E28B6D"/>
<path d="M355.114 213.417C356.048 212.485 357.158 211.712 358.405 211.157C359.646 210.599 361.055 210.29 362.483 210.378C363.912 210.461 365.313 210.992 366.429 211.824C367.554 212.649 368.421 213.72 369.063 214.876L368.521 215.298C367.552 214.473 366.616 213.697 365.595 213.123C364.577 212.55 363.486 212.201 362.36 212.123C360.088 211.949 357.776 212.854 355.517 213.973L355.114 213.417Z" fill="#102048"/>
<path d="M378.957 215.419C379.345 214.172 380.382 213.188 381.524 212.603C382.677 212 383.978 211.745 385.263 211.767C386.548 211.795 387.841 212.125 388.96 212.783C390.08 213.429 391.007 214.424 391.491 215.579L390.916 215.954C389.323 214.353 387.321 213.587 385.217 213.516C383.143 213.469 380.946 214.042 379.573 215.723L378.957 215.419Z" fill="#102048"/>
<path d="M362.958 242.938L378.502 244.045C378.502 244.045 369.831 255.546 362.958 242.938Z" fill="white"/>
<path opacity="0.4" d="M392.973 226.695C391.848 232.508 390.243 238.461 387.934 243.699C384.899 242.269 382.801 239.176 382.801 235.59C382.801 230.633 386.832 226.613 391.789 226.613C392.188 226.613 392.586 226.637 392.973 226.695Z" fill="#EE6F57"/>
<path opacity="0.4" d="M356.892 241.823C361.467 239.902 363.619 234.635 361.697 230.06C359.776 225.486 354.51 223.334 349.935 225.256C345.36 227.177 343.209 232.443 345.13 237.018C347.051 241.593 352.318 243.744 356.892 241.823Z" fill="#EE6F57"/>
<g filter="url(#filter0_d_797_38177)">
<path d="M502 20C498.686 20 496 22.6863 496 26V297C496 300.314 498.686 303 502 303H530.915H768C771.314 303 774 300.314 774 297V26C774 22.6863 771.314 20 768 20H502Z" fill="white"/>
</g>
<path d="M513.959 75V66.2727H519.371V67.4062H515.276V70.0653H518.983V71.1946H515.276V75H513.959ZM524.504 72.2855V68.4545H525.782V75H524.53V73.8665H524.461C524.311 74.2159 524.069 74.5071 523.737 74.7401C523.407 74.9702 522.997 75.0852 522.505 75.0852C522.085 75.0852 521.713 74.9929 521.389 74.8082C521.068 74.6207 520.815 74.3438 520.63 73.9773C520.449 73.6108 520.358 73.1577 520.358 72.6179V68.4545H521.632V72.4645C521.632 72.9105 521.755 73.2656 522.003 73.5298C522.25 73.794 522.571 73.9261 522.966 73.9261C523.204 73.9261 523.441 73.8665 523.677 73.7472C523.916 73.6278 524.113 73.4474 524.27 73.206C524.429 72.9645 524.507 72.6577 524.504 72.2855ZM528.648 66.2727V75H527.374V66.2727H528.648ZM531.517 66.2727V75H530.243V66.2727H531.517ZM543.313 66.2727V75H542.103L537.667 68.5994H537.586V75H536.269V66.2727H537.488L541.928 72.6818H542.009V66.2727H543.313ZM546.916 75.1449C546.502 75.1449 546.127 75.0682 545.791 74.9148C545.456 74.7585 545.191 74.5327 544.994 74.2372C544.801 73.9418 544.705 73.5795 544.705 73.1506C544.705 72.7812 544.776 72.4773 544.918 72.2386C545.06 72 545.252 71.8111 545.493 71.6719C545.735 71.5327 546.004 71.4276 546.303 71.3565C546.601 71.2855 546.905 71.2315 547.215 71.1946C547.607 71.1491 547.925 71.1122 548.169 71.0838C548.414 71.0526 548.591 71.0028 548.702 70.9347C548.813 70.8665 548.868 70.7557 548.868 70.6023V70.5724C548.868 70.2003 548.763 69.9119 548.553 69.7074C548.345 69.5028 548.036 69.4006 547.624 69.4006C547.195 69.4006 546.857 69.4957 546.61 69.6861C546.365 69.8736 546.196 70.0824 546.102 70.3125L544.905 70.0398C545.047 69.642 545.254 69.321 545.527 69.0767C545.803 68.8295 546.119 68.6506 546.477 68.5398C546.835 68.4261 547.212 68.3693 547.607 68.3693C547.868 68.3693 548.145 68.4006 548.438 68.4631C548.733 68.5227 549.009 68.6335 549.264 68.7955C549.523 68.9574 549.735 69.1889 549.899 69.4901C550.064 69.7884 550.146 70.1761 550.146 70.6534V75H548.902V74.1051H548.851C548.769 74.2699 548.645 74.4318 548.48 74.5909C548.316 74.75 548.104 74.8821 547.845 74.9872C547.587 75.0923 547.277 75.1449 546.916 75.1449ZM547.193 74.1222C547.546 74.1222 547.847 74.0526 548.097 73.9134C548.35 73.7741 548.541 73.5923 548.672 73.3679C548.806 73.1406 548.872 72.8977 548.872 72.6392V71.7955C548.827 71.8409 548.739 71.8835 548.608 71.9233C548.48 71.9602 548.334 71.9929 548.169 72.0213C548.004 72.0469 547.844 72.071 547.688 72.0938C547.531 72.1136 547.401 72.1307 547.296 72.1449C547.048 72.1761 546.823 72.2287 546.618 72.3026C546.416 72.3764 546.254 72.483 546.132 72.6222C546.013 72.7585 545.953 72.9403 545.953 73.1676C545.953 73.483 546.07 73.7216 546.303 73.8835C546.536 74.0426 546.833 74.1222 547.193 74.1222ZM551.724 75V68.4545H552.947V69.5199H553.028C553.164 69.1591 553.387 68.8778 553.697 68.6761C554.006 68.4716 554.377 68.3693 554.809 68.3693C555.246 68.3693 555.613 68.4716 555.908 68.6761C556.207 68.8807 556.427 69.1619 556.569 69.5199H556.637C556.793 69.1705 557.042 68.892 557.383 68.6847C557.724 68.4744 558.13 68.3693 558.601 68.3693C559.195 68.3693 559.68 68.5554 560.055 68.9276C560.432 69.2997 560.621 69.8608 560.621 70.6108V75H559.347V70.7301C559.347 70.2869 559.226 69.9659 558.985 69.767C558.743 69.5682 558.455 69.4688 558.12 69.4688C557.705 69.4688 557.383 69.5966 557.153 69.8523C556.922 70.1051 556.807 70.4304 556.807 70.8281V75H555.537V70.6491C555.537 70.294 555.427 70.0085 555.205 69.7926C554.984 69.5767 554.695 69.4688 554.34 69.4688C554.099 69.4688 553.876 69.5327 553.671 69.6605C553.469 69.7855 553.306 69.9602 553.181 70.1847C553.059 70.4091 552.998 70.669 552.998 70.9645V75H551.724ZM565.03 75.1321C564.385 75.1321 563.83 74.9943 563.364 74.7188C562.901 74.4403 562.543 74.0497 562.29 73.5469C562.04 73.0412 561.915 72.4489 561.915 71.7699C561.915 71.0994 562.04 70.5085 562.29 69.9972C562.543 69.4858 562.895 69.0866 563.347 68.7997C563.801 68.5128 564.333 68.3693 564.941 68.3693C565.31 68.3693 565.668 68.4304 566.014 68.5526C566.361 68.6747 566.672 68.8665 566.948 69.1278C567.223 69.3892 567.441 69.7287 567.6 70.1463C567.759 70.5611 567.838 71.0653 567.838 71.6591V72.1108H562.635V71.1562H566.59C566.59 70.821 566.522 70.5241 566.385 70.2656C566.249 70.0043 566.057 69.7983 565.81 69.6477C565.566 69.4972 565.279 69.4219 564.949 69.4219C564.591 69.4219 564.279 69.5099 564.012 69.6861C563.747 69.8594 563.543 70.0866 563.398 70.3679C563.256 70.6463 563.185 70.9489 563.185 71.2756V72.0213C563.185 72.4588 563.262 72.831 563.415 73.1378C563.571 73.4446 563.789 73.679 564.067 73.8409C564.345 74 564.671 74.0795 565.043 74.0795C565.284 74.0795 565.504 74.0455 565.703 73.9773C565.902 73.9062 566.074 73.8011 566.219 73.6619C566.364 73.5227 566.475 73.3509 566.551 73.1463L567.757 73.3636C567.661 73.7187 567.487 74.0298 567.237 74.2969C566.99 74.5611 566.679 74.767 566.304 74.9148C565.932 75.0597 565.507 75.1321 565.03 75.1321Z" fill="#737373"/>
<rect x="513.5" y="86.5" width="243" height="29" stroke="#D4D4D4"/>
<path d="M529.474 98.3636V99.358H525.358V98.3636H529.474ZM526.591 106V97.3097C526.591 96.8722 526.694 96.5076 526.899 96.2159C527.105 95.9242 527.371 95.7055 527.7 95.5597C528.028 95.4138 528.374 95.3409 528.739 95.3409C529.027 95.3409 529.262 95.3641 529.445 95.4105C529.627 95.4569 529.763 95.5 529.852 95.5398L529.514 96.554C529.455 96.5341 529.372 96.5092 529.266 96.4794C529.163 96.4496 529.027 96.4347 528.858 96.4347C528.47 96.4347 528.19 96.5324 528.018 96.728C527.849 96.9235 527.764 97.2102 527.764 97.5881V106H526.591ZM535.791 102.878V98.3636H536.965V106H535.791V104.707H535.712C535.533 105.095 535.254 105.425 534.877 105.697C534.499 105.965 534.021 106.099 533.445 106.099C532.967 106.099 532.543 105.995 532.172 105.786C531.801 105.574 531.509 105.256 531.297 104.832C531.085 104.404 530.979 103.866 530.979 103.216V98.3636H532.152V103.136C532.152 103.693 532.308 104.137 532.619 104.469C532.934 104.8 533.335 104.966 533.823 104.966C534.114 104.966 534.411 104.891 534.712 104.742C535.017 104.593 535.273 104.364 535.478 104.056C535.687 103.748 535.791 103.355 535.791 102.878ZM540.147 95.8182V106H538.974V95.8182H540.147ZM543.329 95.8182V106H542.156V95.8182H543.329ZM550.309 101.406V106H549.136V98.3636H550.269V99.5568H550.369C550.548 99.169 550.819 98.8575 551.184 98.6222C551.548 98.3835 552.019 98.2642 552.596 98.2642C553.113 98.2642 553.565 98.3703 553.953 98.5824C554.341 98.7912 554.642 99.1094 554.858 99.5369C555.073 99.9612 555.181 100.498 555.181 101.148V106H554.008V101.227C554.008 100.627 553.852 100.16 553.54 99.8253C553.229 99.4872 552.801 99.3182 552.258 99.3182C551.883 99.3182 551.548 99.3994 551.253 99.5618C550.962 99.7242 550.731 99.9612 550.562 100.273C550.393 100.584 550.309 100.962 550.309 101.406ZM559.432 106.179C558.948 106.179 558.509 106.088 558.115 105.906C557.72 105.72 557.407 105.453 557.175 105.105C556.943 104.754 556.827 104.33 556.827 103.832C556.827 103.395 556.913 103.04 557.086 102.768C557.258 102.493 557.488 102.278 557.777 102.122C558.065 101.966 558.383 101.85 558.731 101.774C559.083 101.695 559.436 101.632 559.79 101.585C560.254 101.526 560.63 101.481 560.919 101.451C561.21 101.418 561.422 101.363 561.555 101.287C561.691 101.211 561.759 101.078 561.759 100.889V100.849C561.759 100.359 561.625 99.9777 561.356 99.706C561.091 99.4342 560.688 99.2983 560.148 99.2983C559.588 99.2983 559.149 99.4209 558.831 99.6662C558.512 99.9115 558.289 100.173 558.159 100.452L557.046 100.054C557.245 99.59 557.51 99.2287 557.841 98.9702C558.176 98.7083 558.541 98.526 558.935 98.4233C559.333 98.3172 559.724 98.2642 560.108 98.2642C560.354 98.2642 560.635 98.294 560.954 98.3537C561.275 98.41 561.585 98.5277 561.883 98.7067C562.185 98.8857 562.435 99.1558 562.634 99.517C562.833 99.8783 562.932 100.362 562.932 100.969V106H561.759V104.966H561.699C561.62 105.132 561.487 105.309 561.302 105.498C561.116 105.687 560.869 105.848 560.561 105.98C560.253 106.113 559.876 106.179 559.432 106.179ZM559.611 105.125C560.075 105.125 560.466 105.034 560.784 104.852C561.106 104.669 561.348 104.434 561.51 104.146C561.676 103.857 561.759 103.554 561.759 103.236V102.162C561.709 102.222 561.6 102.276 561.431 102.326C561.265 102.372 561.073 102.414 560.854 102.45C560.639 102.483 560.428 102.513 560.223 102.54C560.02 102.563 559.856 102.583 559.73 102.599C559.426 102.639 559.141 102.704 558.875 102.793C558.614 102.879 558.401 103.01 558.239 103.186C558.08 103.358 558 103.594 558 103.892C558 104.3 558.151 104.608 558.453 104.817C558.758 105.022 559.144 105.125 559.611 105.125ZM564.934 106V98.3636H566.067V99.5568H566.167C566.326 99.1491 566.583 98.8326 566.937 98.6072C567.292 98.3786 567.718 98.2642 568.215 98.2642C568.719 98.2642 569.138 98.3786 569.473 98.6072C569.811 98.8326 570.074 99.1491 570.263 99.5568H570.343C570.538 99.1624 570.832 98.8492 571.223 98.6172C571.614 98.3819 572.083 98.2642 572.63 98.2642C573.312 98.2642 573.871 98.478 574.305 98.9055C574.739 99.3298 574.956 99.991 574.956 100.889V106H573.783V100.889C573.783 100.326 573.629 99.9231 573.321 99.6811C573.013 99.4392 572.65 99.3182 572.232 99.3182C571.695 99.3182 571.279 99.4806 570.984 99.8054C570.689 100.127 570.542 100.535 570.542 101.028V106H569.348V100.77C569.348 100.336 569.208 99.986 568.926 99.7209C568.644 99.4524 568.281 99.3182 567.837 99.3182C567.532 99.3182 567.247 99.3994 566.982 99.5618C566.72 99.7242 566.508 99.9496 566.346 100.238C566.187 100.523 566.107 100.853 566.107 101.227V106H564.934ZM580.163 106.159C579.428 106.159 578.793 105.997 578.259 105.672C577.729 105.344 577.32 104.886 577.031 104.3C576.746 103.71 576.604 103.024 576.604 102.241C576.604 101.459 576.746 100.77 577.031 100.173C577.32 99.5734 577.721 99.1061 578.234 98.7713C578.751 98.4332 579.355 98.2642 580.044 98.2642C580.442 98.2642 580.835 98.3305 581.222 98.4631C581.61 98.5956 581.963 98.8111 582.281 99.1094C582.599 99.4044 582.853 99.7955 583.042 100.283C583.231 100.77 583.325 101.37 583.325 102.082V102.58H577.439V101.565H582.132C582.132 101.134 582.046 100.75 581.874 100.412C581.705 100.074 581.463 99.8071 581.148 99.6115C580.836 99.416 580.468 99.3182 580.044 99.3182C579.577 99.3182 579.172 99.4342 578.831 99.6662C578.493 99.8949 578.233 100.193 578.05 100.561C577.868 100.929 577.777 101.323 577.777 101.744V102.42C577.777 102.997 577.876 103.486 578.075 103.887C578.277 104.285 578.558 104.588 578.916 104.797C579.273 105.002 579.689 105.105 580.163 105.105C580.472 105.105 580.75 105.062 580.999 104.976C581.251 104.886 581.468 104.754 581.65 104.578C581.832 104.399 581.973 104.177 582.072 103.912L583.206 104.23C583.087 104.615 582.886 104.953 582.604 105.244C582.323 105.533 581.975 105.758 581.56 105.92C581.146 106.08 580.68 106.159 580.163 106.159Z" fill="#404040"/>
<path d="M513.959 137V128.273H519.43V129.406H515.276V132.065H519.145V133.195H515.276V135.866H519.482V137H513.959ZM520.967 137V130.455H522.19V131.52H522.271C522.407 131.159 522.63 130.878 522.94 130.676C523.25 130.472 523.62 130.369 524.052 130.369C524.49 130.369 524.856 130.472 525.152 130.676C525.45 130.881 525.67 131.162 525.812 131.52H525.88C526.037 131.17 526.285 130.892 526.626 130.685C526.967 130.474 527.373 130.369 527.845 130.369C528.439 130.369 528.923 130.555 529.298 130.928C529.676 131.3 529.865 131.861 529.865 132.611V137H528.591V132.73C528.591 132.287 528.47 131.966 528.228 131.767C527.987 131.568 527.699 131.469 527.363 131.469C526.949 131.469 526.626 131.597 526.396 131.852C526.166 132.105 526.051 132.43 526.051 132.828V137H524.781V132.649C524.781 132.294 524.67 132.009 524.449 131.793C524.227 131.577 523.939 131.469 523.583 131.469C523.342 131.469 523.119 131.533 522.914 131.661C522.713 131.786 522.549 131.96 522.424 132.185C522.302 132.409 522.241 132.669 522.241 132.964V137H520.967ZM533.357 137.145C532.943 137.145 532.568 137.068 532.232 136.915C531.897 136.759 531.631 136.533 531.435 136.237C531.242 135.942 531.146 135.58 531.146 135.151C531.146 134.781 531.217 134.477 531.359 134.239C531.501 134 531.693 133.811 531.934 133.672C532.175 133.533 532.445 133.428 532.744 133.357C533.042 133.286 533.346 133.232 533.656 133.195C534.048 133.149 534.366 133.112 534.61 133.084C534.854 133.053 535.032 133.003 535.143 132.935C535.254 132.866 535.309 132.756 535.309 132.602V132.572C535.309 132.2 535.204 131.912 534.994 131.707C534.786 131.503 534.477 131.401 534.065 131.401C533.636 131.401 533.298 131.496 533.05 131.686C532.806 131.874 532.637 132.082 532.543 132.312L531.346 132.04C531.488 131.642 531.695 131.321 531.968 131.077C532.244 130.83 532.56 130.651 532.918 130.54C533.276 130.426 533.653 130.369 534.048 130.369C534.309 130.369 534.586 130.401 534.879 130.463C535.174 130.523 535.45 130.634 535.705 130.795C535.964 130.957 536.175 131.189 536.34 131.49C536.505 131.788 536.587 132.176 536.587 132.653V137H535.343V136.105H535.292C535.21 136.27 535.086 136.432 534.921 136.591C534.756 136.75 534.545 136.882 534.286 136.987C534.028 137.092 533.718 137.145 533.357 137.145ZM533.634 136.122C533.987 136.122 534.288 136.053 534.538 135.913C534.791 135.774 534.982 135.592 535.113 135.368C535.247 135.141 535.313 134.898 535.313 134.639V133.795C535.268 133.841 535.18 133.884 535.049 133.923C534.921 133.96 534.775 133.993 534.61 134.021C534.445 134.047 534.285 134.071 534.129 134.094C533.972 134.114 533.842 134.131 533.737 134.145C533.489 134.176 533.264 134.229 533.059 134.303C532.857 134.376 532.695 134.483 532.573 134.622C532.454 134.759 532.394 134.94 532.394 135.168C532.394 135.483 532.511 135.722 532.744 135.884C532.977 136.043 533.273 136.122 533.634 136.122ZM538.165 137V130.455H539.439V137H538.165ZM538.808 129.445C538.586 129.445 538.396 129.371 538.237 129.223C538.081 129.072 538.003 128.893 538.003 128.686C538.003 128.476 538.081 128.297 538.237 128.149C538.396 127.999 538.586 127.923 538.808 127.923C539.03 127.923 539.218 127.999 539.375 128.149C539.534 128.297 539.613 128.476 539.613 128.686C539.613 128.893 539.534 129.072 539.375 129.223C539.218 129.371 539.03 129.445 538.808 129.445ZM542.307 128.273V137H541.033V128.273H542.307Z" fill="#737373"/>
<rect x="513.5" y="148.5" width="243" height="29" stroke="#D4D4D4"/>
<path d="M529.276 168.159C528.54 168.159 527.905 167.997 527.371 167.672C526.841 167.344 526.432 166.886 526.143 166.3C525.858 165.71 525.716 165.024 525.716 164.241C525.716 163.459 525.858 162.77 526.143 162.173C526.432 161.573 526.833 161.106 527.347 160.771C527.864 160.433 528.467 160.264 529.156 160.264C529.554 160.264 529.947 160.33 530.335 160.463C530.722 160.596 531.075 160.811 531.393 161.109C531.712 161.404 531.965 161.795 532.154 162.283C532.343 162.77 532.438 163.37 532.438 164.082V164.58H526.551V163.565H531.244C531.244 163.134 531.158 162.75 530.986 162.412C530.817 162.074 530.575 161.807 530.26 161.612C529.948 161.416 529.58 161.318 529.156 161.318C528.689 161.318 528.285 161.434 527.943 161.666C527.605 161.895 527.345 162.193 527.163 162.561C526.98 162.929 526.889 163.323 526.889 163.744V164.42C526.889 164.997 526.989 165.486 527.188 165.887C527.39 166.285 527.67 166.588 528.028 166.797C528.386 167.002 528.802 167.105 529.276 167.105C529.584 167.105 529.862 167.062 530.111 166.976C530.363 166.886 530.58 166.754 530.762 166.578C530.944 166.399 531.085 166.177 531.185 165.912L532.318 166.23C532.199 166.615 531.998 166.953 531.717 167.244C531.435 167.533 531.087 167.758 530.673 167.92C530.258 168.08 529.793 168.159 529.276 168.159ZM534.082 168V160.364H535.216V161.557H535.315C535.474 161.149 535.731 160.833 536.086 160.607C536.44 160.379 536.866 160.264 537.364 160.264C537.867 160.264 538.287 160.379 538.621 160.607C538.959 160.833 539.223 161.149 539.412 161.557H539.491C539.687 161.162 539.98 160.849 540.371 160.617C540.762 160.382 541.231 160.264 541.778 160.264C542.461 160.264 543.02 160.478 543.454 160.906C543.888 161.33 544.105 161.991 544.105 162.889V168H542.932V162.889C542.932 162.326 542.778 161.923 542.469 161.681C542.161 161.439 541.798 161.318 541.381 161.318C540.844 161.318 540.428 161.481 540.133 161.805C539.838 162.127 539.69 162.535 539.69 163.028V168H538.497V162.77C538.497 162.336 538.356 161.986 538.074 161.721C537.793 161.452 537.43 161.318 536.986 161.318C536.681 161.318 536.396 161.399 536.131 161.562C535.869 161.724 535.657 161.95 535.494 162.238C535.335 162.523 535.256 162.853 535.256 163.227V168H534.082ZM548.357 168.179C547.874 168.179 547.434 168.088 547.04 167.906C546.646 167.72 546.332 167.453 546.1 167.105C545.868 166.754 545.752 166.33 545.752 165.832C545.752 165.395 545.838 165.04 546.011 164.768C546.183 164.493 546.414 164.278 546.702 164.122C546.99 163.966 547.308 163.85 547.656 163.774C548.008 163.695 548.361 163.632 548.715 163.585C549.179 163.526 549.556 163.481 549.844 163.451C550.136 163.418 550.348 163.363 550.48 163.287C550.616 163.211 550.684 163.078 550.684 162.889V162.849C550.684 162.359 550.55 161.978 550.281 161.706C550.016 161.434 549.614 161.298 549.073 161.298C548.513 161.298 548.074 161.421 547.756 161.666C547.438 161.911 547.214 162.173 547.085 162.452L545.971 162.054C546.17 161.59 546.435 161.229 546.767 160.97C547.101 160.708 547.466 160.526 547.86 160.423C548.258 160.317 548.649 160.264 549.034 160.264C549.279 160.264 549.561 160.294 549.879 160.354C550.2 160.41 550.51 160.528 550.808 160.707C551.11 160.886 551.36 161.156 551.559 161.517C551.758 161.878 551.857 162.362 551.857 162.969V168H550.684V166.966H550.624C550.545 167.132 550.412 167.309 550.227 167.498C550.041 167.687 549.794 167.848 549.486 167.98C549.178 168.113 548.802 168.179 548.357 168.179ZM548.536 167.125C549 167.125 549.392 167.034 549.71 166.852C550.031 166.669 550.273 166.434 550.436 166.146C550.601 165.857 550.684 165.554 550.684 165.236V164.162C550.634 164.222 550.525 164.276 550.356 164.326C550.19 164.372 549.998 164.414 549.779 164.45C549.564 164.483 549.353 164.513 549.148 164.54C548.946 164.563 548.782 164.583 548.656 164.599C548.351 164.639 548.066 164.704 547.801 164.793C547.539 164.879 547.327 165.01 547.164 165.186C547.005 165.358 546.926 165.594 546.926 165.892C546.926 166.3 547.076 166.608 547.378 166.817C547.683 167.022 548.069 167.125 548.536 167.125ZM553.859 168V160.364H555.032V168H553.859ZM554.456 159.091C554.227 159.091 554.03 159.013 553.864 158.857C553.702 158.701 553.62 158.514 553.62 158.295C553.62 158.077 553.702 157.889 553.864 157.734C554.03 157.578 554.227 157.5 554.456 157.5C554.684 157.5 554.88 157.578 555.042 157.734C555.208 157.889 555.291 158.077 555.291 158.295C555.291 158.514 555.208 158.701 555.042 158.857C554.88 159.013 554.684 159.091 554.456 159.091ZM558.215 157.818V168H557.041V157.818H558.215ZM566.09 170.685C565.076 170.685 564.179 170.545 563.4 170.267C562.621 169.992 561.967 169.586 561.437 169.049C560.906 168.512 560.505 167.854 560.233 167.075C559.962 166.296 559.826 165.405 559.826 164.401C559.826 163.429 559.963 162.561 560.238 161.795C560.517 161.03 560.919 160.38 561.446 159.847C561.977 159.31 562.62 158.9 563.375 158.619C564.134 158.337 564.993 158.196 565.951 158.196C566.882 158.196 567.697 158.348 568.397 158.653C569.099 158.955 569.686 159.364 570.157 159.881C570.631 160.395 570.985 160.973 571.221 161.616C571.459 162.259 571.579 162.922 571.579 163.605C571.579 164.086 571.555 164.573 571.509 165.067C571.463 165.561 571.365 166.015 571.216 166.429C571.067 166.84 570.836 167.171 570.525 167.423C570.216 167.675 569.799 167.801 569.272 167.801C569.04 167.801 568.785 167.765 568.506 167.692C568.228 167.619 567.981 167.498 567.765 167.329C567.55 167.16 567.422 166.933 567.383 166.648H567.323C567.243 166.84 567.121 167.022 566.955 167.195C566.793 167.367 566.579 167.504 566.314 167.607C566.052 167.71 565.732 167.755 565.354 167.741C564.923 167.725 564.544 167.629 564.216 167.453C563.888 167.274 563.612 167.032 563.39 166.727C563.172 166.419 563.006 166.063 562.893 165.658C562.784 165.251 562.729 164.812 562.729 164.341C562.729 163.893 562.795 163.484 562.928 163.113C563.061 162.742 563.245 162.417 563.48 162.138C563.719 161.86 563.997 161.638 564.315 161.472C564.637 161.303 564.983 161.199 565.354 161.159C565.686 161.126 565.987 161.141 566.259 161.204C566.531 161.263 566.754 161.355 566.93 161.477C567.106 161.597 567.217 161.729 567.263 161.875H567.323V161.318H568.377V165.812C568.377 166.091 568.455 166.336 568.611 166.548C568.766 166.76 568.993 166.866 569.292 166.866C569.63 166.866 569.888 166.75 570.067 166.518C570.25 166.286 570.374 165.929 570.44 165.445C570.51 164.961 570.544 164.341 570.544 163.585C570.544 163.141 570.483 162.704 570.361 162.273C570.241 161.839 570.059 161.433 569.814 161.055C569.572 160.677 569.265 160.344 568.894 160.055C568.523 159.767 568.087 159.542 567.586 159.379C567.089 159.214 566.524 159.131 565.891 159.131C565.112 159.131 564.415 159.252 563.798 159.494C563.185 159.732 562.663 160.082 562.232 160.543C561.804 161 561.478 161.557 561.253 162.213C561.031 162.866 560.919 163.608 560.919 164.44C560.919 165.286 561.031 166.036 561.253 166.692C561.478 167.349 561.809 167.902 562.247 168.353C562.688 168.804 563.233 169.145 563.883 169.377C564.532 169.612 565.281 169.73 566.13 169.73C566.494 169.73 566.854 169.695 567.209 169.626C567.563 169.556 567.876 169.48 568.148 169.397C568.42 169.314 568.616 169.253 568.735 169.213L569.013 170.128C568.808 170.214 568.539 170.3 568.208 170.386C567.88 170.473 567.528 170.544 567.154 170.6C566.783 170.656 566.428 170.685 566.09 170.685ZM565.513 166.727C565.957 166.727 566.317 166.638 566.592 166.459C566.867 166.28 567.068 166.01 567.194 165.648C567.32 165.287 567.383 164.831 567.383 164.281C567.383 163.724 567.313 163.29 567.174 162.979C567.035 162.667 566.829 162.448 566.557 162.322C566.285 162.196 565.951 162.134 565.553 162.134C565.175 162.134 564.852 162.233 564.584 162.432C564.318 162.627 564.115 162.889 563.972 163.217C563.833 163.542 563.763 163.897 563.763 164.281C563.763 164.705 563.82 165.105 563.932 165.479C564.045 165.851 564.229 166.152 564.484 166.384C564.739 166.613 565.082 166.727 565.513 166.727ZM576.397 168.159C575.661 168.159 575.026 167.997 574.492 167.672C573.962 167.344 573.553 166.886 573.264 166.3C572.979 165.71 572.837 165.024 572.837 164.241C572.837 163.459 572.979 162.77 573.264 162.173C573.553 161.573 573.954 161.106 574.468 160.771C574.985 160.433 575.588 160.264 576.277 160.264C576.675 160.264 577.068 160.33 577.455 160.463C577.843 160.596 578.196 160.811 578.514 161.109C578.833 161.404 579.086 161.795 579.275 162.283C579.464 162.77 579.558 163.37 579.558 164.082V164.58H573.672V163.565H578.365C578.365 163.134 578.279 162.75 578.107 162.412C577.938 162.074 577.696 161.807 577.381 161.612C577.069 161.416 576.701 161.318 576.277 161.318C575.81 161.318 575.406 161.434 575.064 161.666C574.726 161.895 574.466 162.193 574.284 162.561C574.101 162.929 574.01 163.323 574.01 163.744V164.42C574.01 164.997 574.11 165.486 574.308 165.887C574.511 166.285 574.791 166.588 575.149 166.797C575.507 167.002 575.923 167.105 576.397 167.105C576.705 167.105 576.983 167.062 577.232 166.976C577.484 166.886 577.701 166.754 577.883 166.578C578.065 166.399 578.206 166.177 578.306 165.912L579.439 166.23C579.32 166.615 579.119 166.953 578.838 167.244C578.556 167.533 578.208 167.758 577.794 167.92C577.379 168.08 576.914 168.159 576.397 168.159ZM581.203 168V160.364H582.337V161.557H582.436C582.595 161.149 582.852 160.833 583.207 160.607C583.561 160.379 583.987 160.264 584.484 160.264C584.988 160.264 585.408 160.379 585.742 160.607C586.08 160.833 586.344 161.149 586.533 161.557H586.612C586.808 161.162 587.101 160.849 587.492 160.617C587.883 160.382 588.352 160.264 588.899 160.264C589.582 160.264 590.141 160.478 590.575 160.906C591.009 161.33 591.226 161.991 591.226 162.889V168H590.053V162.889C590.053 162.326 589.899 161.923 589.59 161.681C589.282 161.439 588.919 161.318 588.502 161.318C587.965 161.318 587.549 161.481 587.254 161.805C586.959 162.127 586.811 162.535 586.811 163.028V168H585.618V162.77C585.618 162.336 585.477 161.986 585.195 161.721C584.914 161.452 584.551 161.318 584.107 161.318C583.802 161.318 583.517 161.399 583.252 161.562C582.99 161.724 582.778 161.95 582.615 162.238C582.456 162.523 582.377 162.853 582.377 163.227V168H581.203ZM595.478 168.179C594.994 168.179 594.555 168.088 594.161 167.906C593.766 167.72 593.453 167.453 593.221 167.105C592.989 166.754 592.873 166.33 592.873 165.832C592.873 165.395 592.959 165.04 593.132 164.768C593.304 164.493 593.534 164.278 593.823 164.122C594.111 163.966 594.429 163.85 594.777 163.774C595.129 163.695 595.482 163.632 595.836 163.585C596.3 163.526 596.677 163.481 596.965 163.451C597.257 163.418 597.469 163.363 597.601 163.287C597.737 163.211 597.805 163.078 597.805 162.889V162.849C597.805 162.359 597.671 161.978 597.402 161.706C597.137 161.434 596.735 161.298 596.194 161.298C595.634 161.298 595.195 161.421 594.877 161.666C594.559 161.911 594.335 162.173 594.206 162.452L593.092 162.054C593.291 161.59 593.556 161.229 593.887 160.97C594.222 160.708 594.587 160.526 594.981 160.423C595.379 160.317 595.77 160.264 596.155 160.264C596.4 160.264 596.681 160.294 597 160.354C597.321 160.41 597.631 160.528 597.929 160.707C598.231 160.886 598.481 161.156 598.68 161.517C598.879 161.878 598.978 162.362 598.978 162.969V168H597.805V166.966H597.745C597.666 167.132 597.533 167.309 597.348 167.498C597.162 167.687 596.915 167.848 596.607 167.98C596.299 168.113 595.922 168.179 595.478 168.179ZM595.657 167.125C596.121 167.125 596.512 167.034 596.831 166.852C597.152 166.669 597.394 166.434 597.556 166.146C597.722 165.857 597.805 165.554 597.805 165.236V164.162C597.755 164.222 597.646 164.276 597.477 164.326C597.311 164.372 597.119 164.414 596.9 164.45C596.685 164.483 596.474 164.513 596.269 164.54C596.067 164.563 595.903 164.583 595.777 164.599C595.472 164.639 595.187 164.704 594.922 164.793C594.66 164.879 594.448 165.01 594.285 165.186C594.126 165.358 594.047 165.594 594.047 165.892C594.047 166.3 594.197 166.608 594.499 166.817C594.804 167.022 595.19 167.125 595.657 167.125ZM600.98 168V160.364H602.153V168H600.98ZM601.576 159.091C601.348 159.091 601.151 159.013 600.985 158.857C600.822 158.701 600.741 158.514 600.741 158.295C600.741 158.077 600.822 157.889 600.985 157.734C601.151 157.578 601.348 157.5 601.576 157.5C601.805 157.5 602.001 157.578 602.163 157.734C602.329 157.889 602.412 158.077 602.412 158.295C602.412 158.514 602.329 158.701 602.163 158.857C602.001 159.013 601.805 159.091 601.576 159.091ZM605.335 157.818V168H604.162V157.818H605.335ZM608.2 168.08C607.954 168.08 607.744 167.992 607.568 167.816C607.392 167.64 607.305 167.43 607.305 167.185C607.305 166.939 607.392 166.729 607.568 166.553C607.744 166.378 607.954 166.29 608.2 166.29C608.445 166.29 608.655 166.378 608.831 166.553C609.007 166.729 609.094 166.939 609.094 167.185C609.094 167.347 609.053 167.496 608.97 167.632C608.891 167.768 608.783 167.877 608.647 167.96C608.514 168.04 608.365 168.08 608.2 168.08ZM614.162 168.159C613.446 168.159 612.83 167.99 612.313 167.652C611.796 167.314 611.398 166.848 611.12 166.255C610.841 165.662 610.702 164.984 610.702 164.222C610.702 163.446 610.844 162.762 611.129 162.168C611.418 161.572 611.819 161.106 612.333 160.771C612.85 160.433 613.453 160.264 614.142 160.264C614.679 160.264 615.163 160.364 615.594 160.562C616.025 160.761 616.378 161.04 616.653 161.398C616.928 161.756 617.099 162.173 617.165 162.651H615.992C615.902 162.303 615.703 161.994 615.395 161.726C615.09 161.454 614.679 161.318 614.162 161.318C613.705 161.318 613.304 161.437 612.959 161.676C612.618 161.911 612.351 162.245 612.159 162.675C611.97 163.103 611.875 163.605 611.875 164.182C611.875 164.772 611.968 165.286 612.154 165.723C612.343 166.161 612.608 166.5 612.949 166.742C613.294 166.984 613.698 167.105 614.162 167.105C614.467 167.105 614.744 167.052 614.992 166.946C615.241 166.84 615.451 166.688 615.624 166.489C615.796 166.29 615.919 166.051 615.992 165.773H617.165C617.099 166.223 616.935 166.629 616.673 166.991C616.414 167.349 616.071 167.634 615.644 167.846C615.219 168.055 614.726 168.159 614.162 168.159ZM621.842 168.159C621.153 168.159 620.548 167.995 620.028 167.667C619.511 167.339 619.106 166.88 618.815 166.29C618.526 165.7 618.382 165.01 618.382 164.222C618.382 163.426 618.526 162.732 618.815 162.138C619.106 161.545 619.511 161.085 620.028 160.756C620.548 160.428 621.153 160.264 621.842 160.264C622.532 160.264 623.135 160.428 623.652 160.756C624.172 161.085 624.577 161.545 624.865 162.138C625.157 162.732 625.303 163.426 625.303 164.222C625.303 165.01 625.157 165.7 624.865 166.29C624.577 166.88 624.172 167.339 623.652 167.667C623.135 167.995 622.532 168.159 621.842 168.159ZM621.842 167.105C622.366 167.105 622.797 166.971 623.135 166.702C623.473 166.434 623.723 166.081 623.886 165.643C624.048 165.206 624.129 164.732 624.129 164.222C624.129 163.711 624.048 163.236 623.886 162.795C623.723 162.354 623.473 161.998 623.135 161.726C622.797 161.454 622.366 161.318 621.842 161.318C621.319 161.318 620.888 161.454 620.55 161.726C620.212 161.998 619.962 162.354 619.799 162.795C619.637 163.236 619.556 163.711 619.556 164.222C619.556 164.732 619.637 165.206 619.799 165.643C619.962 166.081 620.212 166.434 620.55 166.702C620.888 166.971 621.319 167.105 621.842 167.105ZM626.954 168V160.364H628.087V161.557H628.187C628.346 161.149 628.603 160.833 628.957 160.607C629.312 160.379 629.738 160.264 630.235 160.264C630.739 160.264 631.158 160.379 631.493 160.607C631.831 160.833 632.094 161.149 632.283 161.557H632.363C632.558 161.162 632.852 160.849 633.243 160.617C633.634 160.382 634.103 160.264 634.65 160.264C635.332 160.264 635.891 160.478 636.325 160.906C636.759 161.33 636.976 161.991 636.976 162.889V168H635.803V162.889C635.803 162.326 635.649 161.923 635.341 161.681C635.033 161.439 634.67 161.318 634.252 161.318C633.715 161.318 633.299 161.481 633.004 161.805C632.709 162.127 632.562 162.535 632.562 163.028V168H631.368V162.77C631.368 162.336 631.228 161.986 630.946 161.721C630.664 161.452 630.301 161.318 629.857 161.318C629.552 161.318 629.267 161.399 629.002 161.562C628.74 161.724 628.528 161.95 628.366 162.238C628.207 162.523 628.127 162.853 628.127 163.227V168H626.954Z" fill="#404040"/>
<path d="M513.959 199V190.273H517.07C517.749 190.273 518.311 190.396 518.757 190.643C519.203 190.891 519.537 191.229 519.759 191.658C519.98 192.084 520.091 192.564 520.091 193.098C520.091 193.635 519.979 194.118 519.754 194.547C519.533 194.973 519.197 195.311 518.749 195.561C518.303 195.808 517.741 195.932 517.065 195.932H514.926V194.815H516.946C517.375 194.815 517.723 194.741 517.99 194.594C518.257 194.443 518.453 194.239 518.578 193.98C518.703 193.722 518.766 193.428 518.766 193.098C518.766 192.768 518.703 192.476 518.578 192.22C518.453 191.964 518.256 191.764 517.986 191.619C517.719 191.474 517.366 191.402 516.929 191.402H515.276V199H513.959ZM523.259 199.145C522.844 199.145 522.469 199.068 522.134 198.915C521.798 198.759 521.533 198.533 521.337 198.237C521.143 197.942 521.047 197.58 521.047 197.151C521.047 196.781 521.118 196.477 521.26 196.239C521.402 196 521.594 195.811 521.835 195.672C522.077 195.533 522.347 195.428 522.645 195.357C522.943 195.286 523.247 195.232 523.557 195.195C523.949 195.149 524.267 195.112 524.511 195.084C524.756 195.053 524.933 195.003 525.044 194.935C525.155 194.866 525.21 194.756 525.21 194.602V194.572C525.21 194.2 525.105 193.912 524.895 193.707C524.688 193.503 524.378 193.401 523.966 193.401C523.537 193.401 523.199 193.496 522.952 193.686C522.707 193.874 522.538 194.082 522.445 194.312L521.247 194.04C521.389 193.642 521.597 193.321 521.869 193.077C522.145 192.83 522.462 192.651 522.82 192.54C523.178 192.426 523.554 192.369 523.949 192.369C524.21 192.369 524.487 192.401 524.78 192.463C525.075 192.523 525.351 192.634 525.607 192.795C525.865 192.957 526.077 193.189 526.242 193.49C526.406 193.788 526.489 194.176 526.489 194.653V199H525.244V198.105H525.193C525.111 198.27 524.987 198.432 524.822 198.591C524.658 198.75 524.446 198.882 524.188 198.987C523.929 199.092 523.619 199.145 523.259 199.145ZM523.536 198.122C523.888 198.122 524.189 198.053 524.439 197.913C524.692 197.774 524.884 197.592 525.014 197.368C525.148 197.141 525.215 196.898 525.215 196.639V195.795C525.169 195.841 525.081 195.884 524.95 195.923C524.822 195.96 524.676 195.993 524.511 196.021C524.347 196.047 524.186 196.071 524.03 196.094C523.874 196.114 523.743 196.131 523.638 196.145C523.391 196.176 523.165 196.229 522.96 196.303C522.759 196.376 522.597 196.483 522.474 196.622C522.355 196.759 522.295 196.94 522.295 197.168C522.295 197.483 522.412 197.722 522.645 197.884C522.878 198.043 523.175 198.122 523.536 198.122ZM532.971 194.053L531.816 194.257C531.767 194.109 531.691 193.969 531.586 193.835C531.483 193.702 531.344 193.592 531.168 193.507C530.992 193.422 530.772 193.379 530.508 193.379C530.147 193.379 529.846 193.46 529.604 193.622C529.363 193.781 529.242 193.987 529.242 194.24C529.242 194.459 529.323 194.635 529.485 194.768C529.647 194.902 529.908 195.011 530.269 195.097L531.309 195.335C531.911 195.474 532.36 195.689 532.655 195.979C532.951 196.268 533.098 196.645 533.098 197.108C533.098 197.5 532.985 197.849 532.758 198.156C532.533 198.46 532.219 198.699 531.816 198.872C531.415 199.045 530.951 199.132 530.422 199.132C529.689 199.132 529.091 198.976 528.628 198.663C528.165 198.348 527.881 197.901 527.776 197.321L529.008 197.134C529.084 197.455 529.242 197.697 529.481 197.862C529.719 198.024 530.03 198.105 530.414 198.105C530.831 198.105 531.165 198.018 531.415 197.845C531.665 197.669 531.79 197.455 531.79 197.202C531.79 196.997 531.713 196.825 531.56 196.686C531.41 196.547 531.178 196.442 530.865 196.371L529.758 196.128C529.147 195.989 528.695 195.767 528.402 195.463C528.113 195.159 527.968 194.774 527.968 194.308C527.968 193.922 528.076 193.584 528.292 193.294C528.508 193.004 528.806 192.778 529.186 192.616C529.567 192.452 530.003 192.369 530.495 192.369C531.202 192.369 531.759 192.523 532.165 192.83C532.571 193.134 532.84 193.541 532.971 194.053ZM539.284 194.053L538.129 194.257C538.081 194.109 538.004 193.969 537.899 193.835C537.797 193.702 537.658 193.592 537.482 193.507C537.305 193.422 537.085 193.379 536.821 193.379C536.46 193.379 536.159 193.46 535.918 193.622C535.676 193.781 535.555 193.987 535.555 194.24C535.555 194.459 535.636 194.635 535.798 194.768C535.96 194.902 536.222 195.011 536.582 195.097L537.622 195.335C538.225 195.474 538.673 195.689 538.969 195.979C539.264 196.268 539.412 196.645 539.412 197.108C539.412 197.5 539.298 197.849 539.071 198.156C538.847 198.46 538.533 198.699 538.129 198.872C537.729 199.045 537.264 199.132 536.736 199.132C536.003 199.132 535.405 198.976 534.942 198.663C534.479 198.348 534.195 197.901 534.09 197.321L535.321 197.134C535.398 197.455 535.555 197.697 535.794 197.862C536.033 198.024 536.344 198.105 536.727 198.105C537.145 198.105 537.479 198.018 537.729 197.845C537.979 197.669 538.104 197.455 538.104 197.202C538.104 196.997 538.027 196.825 537.874 196.686C537.723 196.547 537.492 196.442 537.179 196.371L536.071 196.128C535.46 195.989 535.009 195.767 534.716 195.463C534.426 195.159 534.281 194.774 534.281 194.308C534.281 193.922 534.389 193.584 534.605 193.294C534.821 193.004 535.119 192.778 535.5 192.616C535.881 192.452 536.317 192.369 536.808 192.369C537.516 192.369 538.073 192.523 538.479 192.83C538.885 193.134 539.153 193.541 539.284 194.053ZM542.112 199L540.186 192.455H541.503L542.785 197.261H542.849L544.136 192.455H545.453L546.731 197.24H546.795L548.069 192.455H549.386L547.464 199H546.165L544.835 194.274H544.737L543.407 199H542.112ZM553.033 199.132C552.42 199.132 551.884 198.991 551.427 198.71C550.969 198.429 550.614 198.036 550.361 197.53C550.108 197.024 549.982 196.433 549.982 195.757C549.982 195.078 550.108 194.484 550.361 193.976C550.614 193.467 550.969 193.072 551.427 192.791C551.884 192.51 552.42 192.369 553.033 192.369C553.647 192.369 554.182 192.51 554.64 192.791C555.097 193.072 555.452 193.467 555.705 193.976C555.958 194.484 556.084 195.078 556.084 195.757C556.084 196.433 555.958 197.024 555.705 197.53C555.452 198.036 555.097 198.429 554.64 198.71C554.182 198.991 553.647 199.132 553.033 199.132ZM553.037 198.062C553.435 198.062 553.765 197.957 554.026 197.747C554.287 197.537 554.481 197.257 554.606 196.908C554.733 196.558 554.797 196.173 554.797 195.753C554.797 195.335 554.733 194.952 554.606 194.602C554.481 194.25 554.287 193.967 554.026 193.754C553.765 193.541 553.435 193.435 553.037 193.435C552.637 193.435 552.304 193.541 552.04 193.754C551.779 193.967 551.584 194.25 551.456 194.602C551.331 194.952 551.269 195.335 551.269 195.753C551.269 196.173 551.331 196.558 551.456 196.908C551.584 197.257 551.779 197.537 552.04 197.747C552.304 197.957 552.637 198.062 553.037 198.062ZM557.387 199V192.455H558.618V193.494H558.686C558.806 193.142 559.016 192.865 559.317 192.663C559.621 192.459 559.965 192.357 560.348 192.357C560.428 192.357 560.521 192.359 560.629 192.365C560.74 192.371 560.827 192.378 560.889 192.386V193.605C560.838 193.591 560.747 193.575 560.617 193.558C560.486 193.538 560.355 193.528 560.225 193.528C559.923 193.528 559.655 193.592 559.419 193.72C559.186 193.845 559.002 194.02 558.865 194.244C558.729 194.466 558.661 194.719 558.661 195.003V199H557.387ZM564.088 199.128C563.56 199.128 563.088 198.993 562.673 198.723C562.261 198.45 561.937 198.062 561.702 197.56C561.469 197.054 561.352 196.447 561.352 195.74C561.352 195.033 561.47 194.428 561.706 193.925C561.944 193.422 562.271 193.037 562.686 192.77C563.101 192.503 563.571 192.369 564.096 192.369C564.503 192.369 564.829 192.438 565.077 192.574C565.327 192.707 565.52 192.864 565.656 193.043C565.795 193.222 565.903 193.379 565.98 193.516H566.057V190.273H567.331V199H566.086V197.982H565.98C565.903 198.121 565.792 198.28 565.648 198.459C565.506 198.638 565.31 198.794 565.06 198.928C564.81 199.061 564.486 199.128 564.088 199.128ZM564.369 198.041C564.736 198.041 565.045 197.945 565.298 197.751C565.554 197.555 565.747 197.284 565.878 196.938C566.011 196.591 566.078 196.187 566.078 195.727C566.078 195.273 566.013 194.875 565.882 194.534C565.751 194.193 565.56 193.928 565.307 193.737C565.054 193.547 564.741 193.452 564.369 193.452C563.986 193.452 563.666 193.551 563.41 193.75C563.155 193.949 562.961 194.22 562.831 194.564C562.703 194.908 562.639 195.295 562.639 195.727C562.639 196.165 562.704 196.558 562.835 196.908C562.966 197.257 563.159 197.534 563.415 197.739C563.673 197.94 563.991 198.041 564.369 198.041Z" fill="#737373"/>
<rect x="513.5" y="210.5" width="243" height="29" stroke="#D4D4D4"/>
<path d="M526.233 230V219.818H532.378V220.912H527.466V224.352H532.06V225.446H527.466V228.906H532.457V230H526.233ZM535.474 225.406V230H534.301V222.364H535.435V223.557H535.534C535.713 223.169 535.985 222.857 536.349 222.622C536.714 222.384 537.185 222.264 537.761 222.264C538.278 222.264 538.731 222.37 539.119 222.582C539.506 222.791 539.808 223.109 540.023 223.537C540.239 223.961 540.347 224.498 540.347 225.148V230H539.173V225.227C539.173 224.627 539.017 224.16 538.706 223.825C538.394 223.487 537.967 223.318 537.423 223.318C537.049 223.318 536.714 223.399 536.419 223.562C536.127 223.724 535.897 223.961 535.728 224.273C535.559 224.584 535.474 224.962 535.474 225.406ZM545.672 222.364V223.358H541.714V222.364H545.672ZM542.868 220.534H544.041V227.812C544.041 228.144 544.089 228.393 544.185 228.558C544.284 228.721 544.41 228.83 544.563 228.886C544.719 228.939 544.883 228.966 545.055 228.966C545.184 228.966 545.29 228.959 545.373 228.946C545.456 228.929 545.522 228.916 545.572 228.906L545.811 229.96C545.731 229.99 545.62 230.02 545.478 230.05C545.335 230.083 545.154 230.099 544.936 230.099C544.604 230.099 544.279 230.028 543.961 229.886C543.646 229.743 543.385 229.526 543.176 229.234C542.97 228.943 542.868 228.575 542.868 228.131V220.534ZM550.416 230.159C549.68 230.159 549.046 229.997 548.512 229.672C547.982 229.344 547.572 228.886 547.284 228.3C546.999 227.71 546.856 227.024 546.856 226.241C546.856 225.459 546.999 224.77 547.284 224.173C547.572 223.573 547.973 223.106 548.487 222.771C549.004 222.433 549.607 222.264 550.297 222.264C550.695 222.264 551.087 222.33 551.475 222.463C551.863 222.596 552.216 222.811 552.534 223.109C552.852 223.404 553.106 223.795 553.295 224.283C553.484 224.77 553.578 225.37 553.578 226.082V226.58H547.692V225.565H552.385C552.385 225.134 552.299 224.75 552.126 224.412C551.957 224.074 551.715 223.807 551.4 223.612C551.089 223.416 550.721 223.318 550.297 223.318C549.829 223.318 549.425 223.434 549.084 223.666C548.746 223.895 548.485 224.193 548.303 224.561C548.121 224.929 548.03 225.323 548.03 225.744V226.42C548.03 226.997 548.129 227.486 548.328 227.887C548.53 228.285 548.81 228.588 549.168 228.797C549.526 229.002 549.942 229.105 550.416 229.105C550.724 229.105 551.003 229.062 551.251 228.976C551.503 228.886 551.72 228.754 551.903 228.578C552.085 228.399 552.226 228.177 552.325 227.912L553.459 228.23C553.339 228.615 553.139 228.953 552.857 229.244C552.575 229.533 552.227 229.758 551.813 229.92C551.399 230.08 550.933 230.159 550.416 230.159ZM555.223 230V222.364H556.356V223.517H556.436C556.575 223.139 556.827 222.833 557.192 222.597C557.556 222.362 557.967 222.244 558.425 222.244C558.511 222.244 558.618 222.246 558.748 222.249C558.877 222.253 558.975 222.258 559.041 222.264V223.457C559.001 223.447 558.91 223.433 558.768 223.413C558.628 223.389 558.481 223.378 558.325 223.378C557.954 223.378 557.622 223.456 557.331 223.612C557.042 223.764 556.814 223.976 556.645 224.248C556.479 224.516 556.396 224.823 556.396 225.168V230H555.223ZM564.248 230V219.818H567.689C568.488 219.818 569.14 219.962 569.648 220.251C570.158 220.536 570.536 220.922 570.781 221.409C571.026 221.896 571.149 222.44 571.149 223.04C571.149 223.64 571.026 224.185 570.781 224.675C570.539 225.166 570.165 225.557 569.658 225.849C569.15 226.137 568.501 226.281 567.709 226.281H565.243V225.188H567.669C568.216 225.188 568.655 225.093 568.986 224.904C569.318 224.715 569.558 224.46 569.707 224.138C569.86 223.814 569.936 223.447 569.936 223.04C569.936 222.632 569.86 222.268 569.707 221.946C569.558 221.625 569.316 221.373 568.981 221.19C568.647 221.005 568.202 220.912 567.649 220.912H565.481V230H564.248ZM575.083 230.179C574.599 230.179 574.16 230.088 573.766 229.906C573.371 229.72 573.058 229.453 572.826 229.105C572.594 228.754 572.478 228.33 572.478 227.832C572.478 227.395 572.564 227.04 572.737 226.768C572.909 226.493 573.139 226.278 573.428 226.122C573.716 225.966 574.034 225.85 574.382 225.774C574.734 225.695 575.087 225.632 575.441 225.585C575.905 225.526 576.281 225.481 576.57 225.451C576.861 225.418 577.074 225.363 577.206 225.287C577.342 225.211 577.41 225.078 577.41 224.889V224.849C577.41 224.359 577.276 223.978 577.007 223.706C576.742 223.434 576.339 223.298 575.799 223.298C575.239 223.298 574.8 223.421 574.482 223.666C574.163 223.911 573.94 224.173 573.81 224.452L572.697 224.054C572.896 223.59 573.161 223.229 573.492 222.97C573.827 222.708 574.192 222.526 574.586 222.423C574.984 222.317 575.375 222.264 575.759 222.264C576.005 222.264 576.286 222.294 576.605 222.354C576.926 222.41 577.236 222.528 577.534 222.707C577.836 222.886 578.086 223.156 578.285 223.517C578.484 223.878 578.583 224.362 578.583 224.969V230H577.41V228.966H577.35C577.271 229.132 577.138 229.309 576.953 229.498C576.767 229.687 576.52 229.848 576.212 229.98C575.904 230.113 575.527 230.179 575.083 230.179ZM575.262 229.125C575.726 229.125 576.117 229.034 576.435 228.852C576.757 228.669 576.999 228.434 577.161 228.146C577.327 227.857 577.41 227.554 577.41 227.236V226.162C577.36 226.222 577.251 226.276 577.082 226.326C576.916 226.372 576.724 226.414 576.505 226.45C576.29 226.483 576.079 226.513 575.874 226.54C575.672 226.563 575.507 226.583 575.382 226.599C575.077 226.639 574.792 226.704 574.526 226.793C574.265 226.879 574.052 227.01 573.89 227.186C573.731 227.358 573.651 227.594 573.651 227.892C573.651 228.3 573.802 228.608 574.104 228.817C574.409 229.022 574.795 229.125 575.262 229.125ZM585.994 224.074L584.94 224.372C584.874 224.196 584.776 224.026 584.647 223.86C584.521 223.691 584.348 223.552 584.129 223.442C583.911 223.333 583.631 223.278 583.289 223.278C582.822 223.278 582.432 223.386 582.121 223.602C581.813 223.814 581.659 224.084 581.659 224.412C581.659 224.704 581.765 224.934 581.977 225.103C582.189 225.272 582.52 225.413 582.971 225.526L584.105 225.804C584.787 225.97 585.296 226.223 585.631 226.565C585.966 226.903 586.133 227.339 586.133 227.872C586.133 228.31 586.007 228.701 585.755 229.045C585.507 229.39 585.159 229.662 584.711 229.861C584.264 230.06 583.743 230.159 583.15 230.159C582.371 230.159 581.727 229.99 581.216 229.652C580.706 229.314 580.383 228.82 580.247 228.17L581.36 227.892C581.466 228.303 581.667 228.611 581.962 228.817C582.26 229.022 582.65 229.125 583.13 229.125C583.677 229.125 584.111 229.009 584.433 228.777C584.758 228.542 584.92 228.26 584.92 227.932C584.92 227.667 584.827 227.445 584.642 227.266C584.456 227.083 584.171 226.947 583.786 226.858L582.514 226.56C581.814 226.394 581.301 226.137 580.973 225.789C580.648 225.438 580.485 224.999 580.485 224.472C580.485 224.041 580.606 223.66 580.848 223.328C581.093 222.997 581.427 222.737 581.848 222.548C582.272 222.359 582.752 222.264 583.289 222.264C584.045 222.264 584.638 222.43 585.069 222.761C585.503 223.093 585.812 223.53 585.994 224.074ZM593.168 224.074L592.114 224.372C592.048 224.196 591.95 224.026 591.821 223.86C591.695 223.691 591.523 223.552 591.304 223.442C591.085 223.333 590.805 223.278 590.464 223.278C589.996 223.278 589.607 223.386 589.295 223.602C588.987 223.814 588.833 224.084 588.833 224.412C588.833 224.704 588.939 224.934 589.151 225.103C589.363 225.272 589.695 225.413 590.146 225.526L591.279 225.804C591.962 225.97 592.471 226.223 592.805 226.565C593.14 226.903 593.307 227.339 593.307 227.872C593.307 228.31 593.182 228.701 592.93 229.045C592.681 229.39 592.333 229.662 591.886 229.861C591.438 230.06 590.918 230.159 590.325 230.159C589.546 230.159 588.901 229.99 588.391 229.652C587.88 229.314 587.557 228.82 587.421 228.17L588.535 227.892C588.641 228.303 588.841 228.611 589.136 228.817C589.435 229.022 589.824 229.125 590.305 229.125C590.852 229.125 591.286 229.009 591.607 228.777C591.932 228.542 592.094 228.26 592.094 227.932C592.094 227.667 592.002 227.445 591.816 227.266C591.63 227.083 591.345 226.947 590.961 226.858L589.688 226.56C588.989 226.394 588.475 226.137 588.147 225.789C587.822 225.438 587.66 224.999 587.66 224.472C587.66 224.041 587.781 223.66 588.023 223.328C588.268 222.997 588.601 222.737 589.022 222.548C589.446 222.359 589.927 222.264 590.464 222.264C591.219 222.264 591.813 222.43 592.244 222.761C592.678 223.093 592.986 223.53 593.168 224.074ZM596.664 230L594.337 222.364H595.57L597.221 228.21H597.3L598.931 222.364H600.184L601.794 228.19H601.874L603.525 222.364H604.757L602.431 230H601.277L599.607 224.134H599.488L597.817 230H596.664ZM609.011 230.159C608.322 230.159 607.717 229.995 607.197 229.667C606.679 229.339 606.275 228.88 605.983 228.29C605.695 227.7 605.551 227.01 605.551 226.222C605.551 225.426 605.695 224.732 605.983 224.138C606.275 223.545 606.679 223.085 607.197 222.756C607.717 222.428 608.322 222.264 609.011 222.264C609.701 222.264 610.304 222.428 610.821 222.756C611.341 223.085 611.746 223.545 612.034 224.138C612.326 224.732 612.471 225.426 612.471 226.222C612.471 227.01 612.326 227.7 612.034 228.29C611.746 228.88 611.341 229.339 610.821 229.667C610.304 229.995 609.701 230.159 609.011 230.159ZM609.011 229.105C609.535 229.105 609.966 228.971 610.304 228.702C610.642 228.434 610.892 228.081 611.054 227.643C611.217 227.206 611.298 226.732 611.298 226.222C611.298 225.711 611.217 225.236 611.054 224.795C610.892 224.354 610.642 223.998 610.304 223.726C609.966 223.454 609.535 223.318 609.011 223.318C608.487 223.318 608.057 223.454 607.719 223.726C607.38 223.998 607.13 224.354 606.968 224.795C606.805 225.236 606.724 225.711 606.724 226.222C606.724 226.732 606.805 227.206 606.968 227.643C607.13 228.081 607.38 228.434 607.719 228.702C608.057 228.971 608.487 229.105 609.011 229.105ZM614.122 230V222.364H615.256V223.517H615.335C615.475 223.139 615.727 222.833 616.091 222.597C616.456 222.362 616.867 222.244 617.324 222.244C617.41 222.244 617.518 222.246 617.647 222.249C617.776 222.253 617.874 222.258 617.941 222.264V223.457C617.901 223.447 617.81 223.433 617.667 223.413C617.528 223.389 617.38 223.378 617.225 223.378C616.853 223.378 616.522 223.456 616.23 223.612C615.942 223.764 615.713 223.976 615.544 224.248C615.379 224.516 615.296 224.823 615.296 225.168V230H614.122ZM621.842 230.159C621.206 230.159 620.644 229.998 620.157 229.677C619.67 229.352 619.289 228.895 619.014 228.305C618.739 227.711 618.601 227.01 618.601 226.202C618.601 225.4 618.739 224.704 619.014 224.114C619.289 223.524 619.672 223.068 620.162 222.746C620.653 222.425 621.219 222.264 621.862 222.264C622.36 222.264 622.752 222.347 623.041 222.513C623.332 222.675 623.554 222.861 623.707 223.07C623.863 223.275 623.984 223.444 624.07 223.577H624.169V219.818H625.342V230H624.209V228.827H624.07C623.984 228.966 623.861 229.142 623.702 229.354C623.543 229.562 623.316 229.75 623.021 229.915C622.726 230.078 622.333 230.159 621.842 230.159ZM622.002 229.105C622.472 229.105 622.87 228.982 623.195 228.737C623.52 228.489 623.766 228.146 623.936 227.708C624.105 227.267 624.189 226.759 624.189 226.182C624.189 225.612 624.106 225.113 623.94 224.685C623.775 224.254 623.529 223.92 623.205 223.681C622.88 223.439 622.479 223.318 622.002 223.318C621.504 223.318 621.09 223.446 620.759 223.701C620.431 223.953 620.184 224.296 620.018 224.73C619.855 225.161 619.774 225.645 619.774 226.182C619.774 226.725 619.857 227.219 620.023 227.663C620.192 228.104 620.44 228.455 620.769 228.717C621.1 228.976 621.511 229.105 622.002 229.105Z" fill="#404040"/>
<path d="M740 227.698C739.466 227.698 738.944 227.54 738.5 227.243C738.056 226.946 737.71 226.525 737.506 226.031C737.301 225.538 737.248 224.995 737.352 224.471C737.456 223.948 737.713 223.467 738.091 223.089C738.468 222.711 738.95 222.454 739.473 222.35C739.997 222.246 740.54 222.299 741.033 222.504C741.527 222.708 741.948 223.054 742.245 223.498C742.542 223.942 742.7 224.464 742.7 224.998C742.698 225.714 742.413 226.399 741.907 226.905C741.401 227.411 740.715 227.696 740 227.698ZM740 223.423C739.688 223.423 739.384 223.515 739.125 223.689C738.866 223.862 738.664 224.108 738.545 224.395C738.426 224.683 738.394 225 738.455 225.305C738.516 225.611 738.666 225.892 738.886 226.112C739.107 226.332 739.387 226.482 739.693 226.543C739.998 226.604 740.315 226.572 740.603 226.453C740.891 226.334 741.137 226.132 741.31 225.873C741.483 225.614 741.575 225.31 741.575 224.998C741.575 224.58 741.409 224.18 741.114 223.884C740.818 223.589 740.418 223.423 740 223.423ZM740 231.981C737.968 231.887 736.035 231.074 734.548 229.686C732.912 228.253 731.938 226.498 731.938 224.998C731.938 221.668 736.16 218.016 740 218.016C743.84 218.016 748.062 221.766 748.062 224.998C748.062 228.388 743.915 231.981 740 231.981ZM740 219.141C736.827 219.141 733.062 222.313 733.062 224.998C733.062 226.168 733.918 227.638 735.312 228.838C736.593 230.035 738.25 230.749 740 230.856C743.57 230.856 746.938 227.556 746.938 224.998C746.938 222.576 743.352 219.141 740 219.141Z" fill="#737373"/>
<rect x="513" y="253" width="244" height="38" rx="6" fill="#DAC0FE"/>
<path d="M612.472 269.562C612.419 269.066 612.195 268.68 611.801 268.403C611.411 268.127 610.903 267.989 610.278 267.989C609.839 267.989 609.462 268.055 609.148 268.188C608.833 268.32 608.593 268.5 608.426 268.727C608.259 268.955 608.174 269.214 608.17 269.506C608.17 269.748 608.225 269.958 608.335 270.136C608.449 270.314 608.602 270.466 608.795 270.591C608.989 270.712 609.203 270.814 609.438 270.898C609.672 270.981 609.909 271.051 610.148 271.108L611.239 271.381C611.678 271.483 612.1 271.621 612.506 271.795C612.915 271.97 613.28 272.189 613.602 272.455C613.928 272.72 614.186 273.04 614.375 273.415C614.564 273.79 614.659 274.229 614.659 274.733C614.659 275.415 614.485 276.015 614.136 276.534C613.788 277.049 613.284 277.453 612.625 277.744C611.97 278.032 611.176 278.176 610.244 278.176C609.339 278.176 608.553 278.036 607.886 277.756C607.223 277.475 606.705 277.066 606.33 276.528C605.958 275.991 605.758 275.335 605.727 274.562H607.801C607.831 274.968 607.956 275.305 608.176 275.574C608.396 275.843 608.682 276.044 609.034 276.176C609.39 276.309 609.788 276.375 610.227 276.375C610.686 276.375 611.087 276.307 611.432 276.17C611.78 276.03 612.053 275.837 612.25 275.591C612.447 275.341 612.547 275.049 612.551 274.716C612.547 274.413 612.458 274.163 612.284 273.966C612.11 273.765 611.866 273.598 611.551 273.466C611.241 273.33 610.877 273.208 610.46 273.102L609.136 272.761C608.178 272.515 607.42 272.142 606.864 271.642C606.311 271.138 606.034 270.47 606.034 269.636C606.034 268.951 606.22 268.35 606.591 267.835C606.966 267.32 607.475 266.92 608.119 266.636C608.763 266.348 609.492 266.205 610.307 266.205C611.133 266.205 611.856 266.348 612.477 266.636C613.102 266.92 613.593 267.316 613.949 267.824C614.305 268.328 614.489 268.907 614.5 269.562H612.472ZM616.447 278V269.273H618.504V278H616.447ZM617.482 268.034C617.156 268.034 616.875 267.926 616.641 267.71C616.406 267.491 616.288 267.227 616.288 266.92C616.288 266.61 616.406 266.347 616.641 266.131C616.875 265.911 617.156 265.801 617.482 265.801C617.811 265.801 618.091 265.911 618.322 266.131C618.557 266.347 618.675 266.61 618.675 266.92C618.675 267.227 618.557 267.491 618.322 267.71C618.091 267.926 617.811 268.034 617.482 268.034ZM624.415 281.455C623.676 281.455 623.042 281.354 622.511 281.153C621.981 280.956 621.555 280.691 621.233 280.358C620.911 280.025 620.688 279.655 620.562 279.25L622.415 278.801C622.498 278.972 622.619 279.14 622.778 279.307C622.938 279.477 623.152 279.617 623.42 279.727C623.693 279.841 624.036 279.898 624.449 279.898C625.032 279.898 625.515 279.756 625.898 279.472C626.28 279.191 626.472 278.729 626.472 278.085V276.432H626.369C626.263 276.644 626.108 276.862 625.903 277.085C625.703 277.309 625.436 277.496 625.102 277.648C624.773 277.799 624.358 277.875 623.858 277.875C623.188 277.875 622.58 277.718 622.034 277.403C621.492 277.085 621.061 276.612 620.739 275.983C620.42 275.35 620.261 274.559 620.261 273.608C620.261 272.65 620.42 271.841 620.739 271.182C621.061 270.519 621.494 270.017 622.04 269.676C622.585 269.331 623.193 269.159 623.864 269.159C624.375 269.159 624.795 269.246 625.125 269.42C625.458 269.591 625.723 269.797 625.92 270.04C626.117 270.278 626.267 270.504 626.369 270.716H626.483V269.273H628.511V278.142C628.511 278.888 628.333 279.506 627.977 279.994C627.621 280.483 627.134 280.848 626.517 281.091C625.9 281.333 625.199 281.455 624.415 281.455ZM624.432 276.261C624.867 276.261 625.239 276.155 625.545 275.943C625.852 275.731 626.085 275.426 626.244 275.028C626.403 274.631 626.483 274.153 626.483 273.597C626.483 273.047 626.403 272.566 626.244 272.153C626.089 271.741 625.858 271.42 625.551 271.193C625.248 270.962 624.875 270.847 624.432 270.847C623.973 270.847 623.591 270.966 623.284 271.205C622.977 271.443 622.746 271.771 622.591 272.188C622.436 272.6 622.358 273.07 622.358 273.597C622.358 274.131 622.436 274.598 622.591 275C622.75 275.398 622.983 275.708 623.29 275.932C623.6 276.152 623.981 276.261 624.432 276.261ZM632.676 272.886V278H630.619V269.273H632.585V270.756H632.688C632.888 270.267 633.208 269.879 633.648 269.591C634.091 269.303 634.638 269.159 635.29 269.159C635.892 269.159 636.417 269.288 636.864 269.545C637.314 269.803 637.663 270.176 637.909 270.665C638.159 271.153 638.282 271.746 638.278 272.443V278H636.222V272.761C636.222 272.178 636.07 271.722 635.767 271.392C635.468 271.062 635.053 270.898 634.523 270.898C634.163 270.898 633.843 270.977 633.562 271.136C633.286 271.292 633.068 271.517 632.909 271.812C632.754 272.108 632.676 272.466 632.676 272.886ZM651.764 266.364H653.872V273.966C653.872 274.799 653.675 275.532 653.281 276.165C652.891 276.797 652.342 277.292 651.634 277.648C650.925 278 650.098 278.176 649.151 278.176C648.2 278.176 647.37 278 646.662 277.648C645.954 277.292 645.404 276.797 645.014 276.165C644.624 275.532 644.429 274.799 644.429 273.966V266.364H646.537V273.79C646.537 274.275 646.643 274.706 646.855 275.085C647.071 275.464 647.374 275.761 647.764 275.977C648.154 276.189 648.616 276.295 649.151 276.295C649.685 276.295 650.147 276.189 650.537 275.977C650.931 275.761 651.234 275.464 651.446 275.085C651.658 274.706 651.764 274.275 651.764 273.79V266.364ZM656.072 281.273V269.273H658.095V270.716H658.214C658.321 270.504 658.47 270.278 658.663 270.04C658.857 269.797 659.118 269.591 659.447 269.42C659.777 269.246 660.197 269.159 660.709 269.159C661.383 269.159 661.991 269.331 662.533 269.676C663.078 270.017 663.51 270.523 663.828 271.193C664.15 271.86 664.311 272.678 664.311 273.648C664.311 274.606 664.154 275.42 663.839 276.091C663.525 276.761 663.097 277.273 662.555 277.625C662.014 277.977 661.4 278.153 660.714 278.153C660.214 278.153 659.8 278.07 659.47 277.903C659.141 277.737 658.875 277.536 658.675 277.301C658.478 277.062 658.324 276.837 658.214 276.625H658.129V281.273H656.072ZM658.089 273.636C658.089 274.201 658.169 274.695 658.328 275.119C658.491 275.544 658.724 275.875 659.027 276.114C659.334 276.348 659.705 276.466 660.141 276.466C660.595 276.466 660.976 276.345 661.283 276.102C661.589 275.856 661.821 275.521 661.976 275.097C662.135 274.669 662.214 274.182 662.214 273.636C662.214 273.095 662.137 272.614 661.982 272.193C661.826 271.773 661.595 271.443 661.288 271.205C660.982 270.966 660.599 270.847 660.141 270.847C659.701 270.847 659.328 270.962 659.021 271.193C658.714 271.424 658.482 271.748 658.322 272.165C658.167 272.581 658.089 273.072 658.089 273.636Z" fill="#7500FD"/>
<path d="M611.613 38.7102C611.567 38.2519 611.372 37.8958 611.028 37.642C610.683 37.3883 610.215 37.2614 609.624 37.2614C609.223 37.2614 608.884 37.3182 608.607 37.4318C608.331 37.5417 608.119 37.6951 607.971 37.892C607.827 38.089 607.755 38.3125 607.755 38.5625C607.747 38.7708 607.791 38.9527 607.886 39.108C607.984 39.2633 608.119 39.3977 608.289 39.5114C608.46 39.6212 608.656 39.7178 608.88 39.8011C609.103 39.8807 609.342 39.9489 609.596 40.0057L610.641 40.2557C611.149 40.3693 611.615 40.5208 612.039 40.7102C612.463 40.8996 612.831 41.1326 613.141 41.4091C613.452 41.6856 613.692 42.0114 613.863 42.3864C614.037 42.7614 614.126 43.1913 614.13 43.6761C614.126 44.3883 613.944 45.0057 613.585 45.5284C613.228 46.0473 612.713 46.4508 612.039 46.7386C611.369 47.0227 610.56 47.1648 609.613 47.1648C608.674 47.1648 607.855 47.0208 607.158 46.733C606.465 46.4451 605.924 46.0189 605.533 45.4545C605.147 44.8864 604.944 44.1837 604.925 43.3466H607.306C607.333 43.7367 607.444 44.0625 607.641 44.3239C607.842 44.5814 608.109 44.7765 608.442 44.9091C608.78 45.0379 609.16 45.1023 609.585 45.1023C610.001 45.1023 610.363 45.0417 610.67 44.9205C610.98 44.7992 611.221 44.6307 611.391 44.4148C611.562 44.1989 611.647 43.9508 611.647 43.6705C611.647 43.4091 611.569 43.1894 611.414 43.0114C611.263 42.8333 611.039 42.6818 610.744 42.5568C610.452 42.4318 610.094 42.3182 609.67 42.2159L608.403 41.8977C607.422 41.6591 606.647 41.286 606.079 40.7784C605.511 40.2708 605.228 39.5871 605.232 38.7273C605.228 38.0227 605.416 37.4072 605.795 36.8807C606.177 36.3542 606.702 35.9432 607.369 35.6477C608.035 35.3523 608.793 35.2045 609.641 35.2045C610.505 35.2045 611.259 35.3523 611.903 35.6477C612.55 35.9432 613.054 36.3542 613.414 36.8807C613.774 37.4072 613.96 38.017 613.971 38.7102H611.613ZM615.739 47V38.2727H618.16V47H615.739ZM616.955 37.1477C616.595 37.1477 616.287 37.0284 616.029 36.7898C615.775 36.5473 615.648 36.2576 615.648 35.9205C615.648 35.5871 615.775 35.3011 616.029 35.0625C616.287 34.8201 616.595 34.6989 616.955 34.6989C617.315 34.6989 617.622 34.8201 617.876 35.0625C618.133 35.3011 618.262 35.5871 618.262 35.9205C618.262 36.2576 618.133 36.5473 617.876 36.7898C617.622 37.0284 617.315 37.1477 616.955 37.1477ZM624.031 50.4545C623.246 50.4545 622.574 50.3466 622.013 50.1307C621.457 49.9186 621.013 49.6288 620.684 49.2614C620.354 48.8939 620.14 48.4811 620.042 48.0227L622.281 47.7216C622.349 47.8958 622.457 48.0587 622.604 48.2102C622.752 48.3617 622.947 48.483 623.19 48.5739C623.436 48.6686 623.735 48.7159 624.087 48.7159C624.614 48.7159 625.048 48.5871 625.388 48.3295C625.733 48.0758 625.906 47.6496 625.906 47.0511V45.4545H625.803C625.697 45.697 625.538 45.9261 625.326 46.142C625.114 46.358 624.841 46.5341 624.508 46.6705C624.174 46.8068 623.777 46.875 623.315 46.875C622.659 46.875 622.063 46.7235 621.525 46.4205C620.991 46.1136 620.565 45.6458 620.246 45.017C619.932 44.3845 619.775 43.5852 619.775 42.6193C619.775 41.6307 619.936 40.8049 620.258 40.142C620.58 39.4792 621.008 38.983 621.542 38.6534C622.08 38.3239 622.669 38.1591 623.309 38.1591C623.798 38.1591 624.207 38.2424 624.536 38.4091C624.866 38.572 625.131 38.7765 625.332 39.0227C625.536 39.2652 625.693 39.5038 625.803 39.7386H625.894V38.2727H628.298V47.0852C628.298 47.8277 628.116 48.4489 627.752 48.9489C627.388 49.4489 626.885 49.8239 626.241 50.0739C625.601 50.3277 624.864 50.4545 624.031 50.4545ZM624.082 45.0568C624.472 45.0568 624.801 44.9602 625.07 44.767C625.343 44.5701 625.551 44.2898 625.695 43.9261C625.843 43.5587 625.917 43.1193 625.917 42.608C625.917 42.0966 625.845 41.6534 625.701 41.2784C625.557 40.8996 625.349 40.6061 625.076 40.3977C624.803 40.1894 624.472 40.0852 624.082 40.0852C623.684 40.0852 623.349 40.1932 623.076 40.4091C622.803 40.6212 622.597 40.9167 622.457 41.2955C622.317 41.6742 622.246 42.1117 622.246 42.608C622.246 43.1117 622.317 43.5473 622.457 43.9148C622.601 44.2784 622.807 44.5606 623.076 44.7614C623.349 44.9583 623.684 45.0568 624.082 45.0568ZM632.644 41.9545V47H630.224V38.2727H632.531V39.8125H632.633C632.826 39.3049 633.15 38.9034 633.604 38.608C634.059 38.3087 634.61 38.1591 635.258 38.1591C635.864 38.1591 636.392 38.2917 636.843 38.5568C637.294 38.822 637.644 39.2008 637.894 39.6932C638.144 40.1818 638.269 40.7652 638.269 41.4432V47H635.849V41.875C635.853 41.3409 635.716 40.9242 635.44 40.625C635.163 40.322 634.782 40.1705 634.298 40.1705C633.972 40.1705 633.684 40.2405 633.434 40.3807C633.188 40.5208 632.995 40.7254 632.854 40.9943C632.718 41.2595 632.648 41.5795 632.644 41.9545ZM651.113 35.3636H653.573V42.9205C653.573 43.7689 653.371 44.5114 652.965 45.1477C652.564 45.7841 652.001 46.2803 651.278 46.6364C650.554 46.9886 649.711 47.1648 648.749 47.1648C647.783 47.1648 646.939 46.9886 646.215 46.6364C645.492 46.2803 644.929 45.7841 644.528 45.1477C644.126 44.5114 643.925 43.7689 643.925 42.9205V35.3636H646.386V42.7102C646.386 43.1534 646.482 43.5473 646.675 43.892C646.872 44.2367 647.149 44.5076 647.505 44.7045C647.861 44.9015 648.276 45 648.749 45C649.227 45 649.641 44.9015 649.994 44.7045C650.35 44.5076 650.624 44.2367 650.817 43.892C651.014 43.5473 651.113 43.1534 651.113 42.7102V35.3636ZM655.552 50.2727V38.2727H657.938V39.7386H658.046C658.152 39.5038 658.306 39.2652 658.506 39.0227C658.711 38.7765 658.976 38.572 659.302 38.4091C659.631 38.2424 660.04 38.1591 660.529 38.1591C661.165 38.1591 661.753 38.3258 662.29 38.6591C662.828 38.9886 663.258 39.4867 663.58 40.1534C663.902 40.8163 664.063 41.6477 664.063 42.6477C664.063 43.6212 663.906 44.4432 663.592 45.1136C663.281 45.7803 662.857 46.286 662.319 46.6307C661.785 46.9716 661.186 47.142 660.523 47.142C660.054 47.142 659.654 47.0644 659.325 46.9091C658.999 46.7538 658.732 46.5587 658.523 46.3239C658.315 46.0852 658.156 45.8447 658.046 45.6023H657.972V50.2727H655.552ZM657.921 42.6364C657.921 43.1553 657.993 43.608 658.137 43.9943C658.281 44.3807 658.489 44.6818 658.762 44.8977C659.035 45.1098 659.366 45.2159 659.756 45.2159C660.15 45.2159 660.484 45.108 660.756 44.892C661.029 44.6723 661.236 44.3693 661.376 43.983C661.52 43.5928 661.592 43.1439 661.592 42.6364C661.592 42.1326 661.522 41.6894 661.381 41.3068C661.241 40.9242 661.035 40.625 660.762 40.4091C660.489 40.1932 660.154 40.0852 659.756 40.0852C659.362 40.0852 659.029 40.1894 658.756 40.3977C658.487 40.6061 658.281 40.9015 658.137 41.2841C657.993 41.6667 657.921 42.1174 657.921 42.6364Z" fill="#404040"/>
<defs>
<filter id="filter0_d_797_38177" x="472" y="0" width="326" height="331" filterUnits="userSpaceOnUse" color-interpolation-filters="sRGB">
<feFlood flood-opacity="0" result="BackgroundImageFix"/>
<feColorMatrix in="SourceAlpha" type="matrix" values="0 0 0 0 0 0 0 0 0 0 0 0 0 0 0 0 0 0 127 0" result="hardAlpha"/>
<feOffset dy="4"/>
<feGaussianBlur stdDeviation="12"/>
<feComposite in2="hardAlpha" operator="out"/>
<feColorMatrix type="matrix" values="0 0 0 0 0 0 0 0 0 0 0 0 0 0 0 0 0 0 0.1 0"/>
<feBlend mode="normal" in2="BackgroundImageFix" result="effect1_dropShadow_797_38177"/>
<feBlend mode="normal" in="SourceGraphic" in2="effect1_dropShadow_797_38177" result="shape"/>
</filter>
</defs>
</svg>
