<svg width="938" height="713" viewBox="0 0 938 713" fill="none" xmlns="http://www.w3.org/2000/svg">
<path d="M687.894 449.8C693.742 445.697 699.768 441.864 706.164 438.577C739.071 421.667 769.878 404.312 795.579 377.675C826.021 346.125 847.359 303.516 847.362 258.811C847.366 214.107 823.31 168.274 783.704 149.731C734.412 126.654 678.021 148.597 624.385 154.128C555.244 161.259 486.502 140.213 418.272 125.679C350.042 111.145 275.889 103.752 213.922 135.747C164.029 161.507 127.286 212.495 117.684 269.297C108.081 326.098 125.845 387.371 164.212 429.786C219.57 490.984 306.643 507.464 387.381 511.368C446.878 514.245 506.557 512.175 565.648 505.186C592.302 502.033 617.249 496.611 640.786 483.353C657.719 473.816 672.166 460.834 687.894 449.8Z" stroke="#F2E5FF" stroke-width="2.5965" stroke-miterlimit="10"/>
<path d="M321.51 505.9C279.947 500.984 238.124 490.942 201.4 468.933C164.675 446.925 133.327 411.792 121.096 368.809C108.865 325.826 118.529 275.178 150.01 246.515C189.189 210.843 247.234 216.516 298.248 207.164C364.009 195.108 421.694 156.069 480.688 123.431C539.683 90.7933 606.096 63.4014 672.037 77.2152C725.13 88.337 772.986 127.312 797.386 179.301C821.785 231.29 822.151 295.063 798.343 346.341C763.994 420.325 688.141 459.988 614.696 485.826C560.572 504.867 504.928 519.201 448.482 528.644C427.732 532.115 406.554 534.926 385.652 531.64C364.751 528.353 343.879 518.255 330.946 500.171L321.51 505.9Z" fill="#F2E5FF"/>
<path d="M0 588.789H937.105" stroke="#D4D4D4" stroke-width="5" stroke-miterlimit="10"/>
<g filter="url(#filter0_d_797_38176)">
<path d="M502 20C498.686 20 496 22.6863 496 26V249C496 252.314 498.686 255 502 255H530.915H768C771.314 255 774 252.314 774 249V26C774 22.6863 771.314 20 768 20H502Z" fill="white"/>
</g>
<path opacity="0.15" d="M114.06 640.711C138.654 640.711 158.591 636.915 158.591 632.233C158.591 627.55 138.654 623.754 114.06 623.754C89.4667 623.754 69.5298 627.55 69.5298 632.233C69.5298 636.915 89.4667 640.711 114.06 640.711Z" fill="#171717"/>
<path d="M93.632 615.733C83.997 615.733 73.2717 601.628 73.2717 592.069C73.2717 582.354 81.0182 574.449 90.5392 574.449C100.061 574.449 107.808 582.354 107.808 592.069C107.807 601.219 103.959 615.733 93.632 615.733ZM90.5392 580.308C84.2487 580.308 79.131 585.584 79.131 592.069C79.131 599.224 87.8041 609.873 93.632 609.873C98.9864 609.873 101.948 599.346 101.948 592.069C101.948 585.584 96.8297 580.308 90.5392 580.308Z" fill="#171717"/>
<path d="M126.944 630.975H101.592C97.3796 630.975 93.8711 627.746 93.5228 623.548L88.2799 560.371H141.306L135.002 623.68C134.589 627.821 131.105 630.975 126.944 630.975Z" fill="#171717"/>
<path d="M94.4288 484.597C92.6523 490.544 91.8583 496.665 92.8665 502.553C93.3676 505.486 94.2029 508.349 95.3626 511.095C96.5565 513.829 98.0363 516.45 99.7228 518.951C101.467 521.417 103.318 523.834 105.411 526.069C105.907 526.608 106.448 527.275 106.991 527.926C107.522 528.585 108.086 529.204 108.582 529.896L109.989 532.058C110.475 532.762 110.766 533.628 111.152 534.406C111.56 535.175 111.757 536.073 112.011 536.926C112.307 537.766 112.355 538.697 112.462 539.593C112.531 540.041 112.519 540.498 112.478 540.957L112.385 542.321C112.321 542.771 112.196 543.214 112.1 543.656C112 544.099 111.904 544.541 111.716 544.953L111.204 546.197C110.995 546.589 110.766 546.969 110.547 547.351C110.34 547.743 110.073 548.089 109.811 548.437C109.549 548.784 109.302 549.143 108.994 549.445C107.838 550.744 106.55 551.789 105.012 552.656L104.035 551.106C106.205 549.195 107.982 546.627 108.584 543.982C108.702 543.66 108.73 543.32 108.767 542.985C108.8 542.649 108.867 542.32 108.88 541.986L108.836 540.981C108.837 540.649 108.816 540.317 108.72 539.986C108.566 539.327 108.523 538.662 108.223 538.024C107.969 537.383 107.805 536.727 107.41 536.122C107.042 535.514 106.787 534.874 106.348 534.292L105.09 532.534C104.642 531.964 104.108 531.437 103.625 530.886L102.068 529.189C100.956 527.996 99.8447 526.801 98.8266 525.511C97.7541 524.273 96.8096 522.916 95.8618 521.57C94.0726 518.799 92.3992 515.913 91.2105 512.784C90.0335 509.66 89.1972 506.384 88.8958 503.048C88.2105 496.358 89.8005 489.643 92.7329 483.902L94.4288 484.597Z" fill="#DAC0FE"/>
<path d="M117.458 482.789C120.737 485.477 123.421 489.219 124.658 493.537C125.306 495.679 125.583 497.922 125.615 500.148C125.646 502.38 125.286 504.569 124.844 506.71C124.345 508.838 123.629 510.892 122.798 512.871L122.243 514.229C122.079 514.654 121.877 515.079 121.738 515.505L121.383 516.784C121.252 517.214 121.238 517.62 121.148 518.044C121.041 518.474 121.083 518.867 121.064 519.278C121.017 519.701 121.13 520.069 121.166 520.467C121.18 520.878 121.368 521.214 121.447 521.61C121.622 521.955 121.749 522.341 121.987 522.668C122.801 524.048 124.364 525.223 125.996 525.965L125.637 527.762C123.311 527.52 121.143 526.527 119.408 524.693C118.974 524.247 118.646 523.698 118.293 523.174C118.037 522.606 117.68 522.044 117.531 521.437C117.366 520.834 117.164 520.215 117.136 519.606C117.078 518.996 116.98 518.365 117.04 517.778C117.086 517.189 117.054 516.558 117.185 515.997L117.535 514.288C117.676 513.731 117.873 513.209 118.043 512.667C118.223 512.127 118.396 511.572 118.562 511.15C119.295 509.344 119.822 507.488 120.303 505.643C120.745 503.791 121.02 501.919 121.135 500.053C121.222 498.187 121.091 496.33 120.774 494.493C120.125 490.809 118.397 487.338 116.124 484.044L117.458 482.789Z" fill="#DAC0FE"/>
<path opacity="0.15" d="M790.513 644.843C839.699 644.843 879.573 638.941 879.573 631.66C879.573 624.379 839.699 618.477 790.513 618.477C741.326 618.477 701.452 624.379 701.452 631.66C701.452 638.941 741.326 644.843 790.513 644.843Z" fill="#171717"/>
<path d="M796.182 416.922H783.682V539.185H796.182V416.922Z" fill="#27481F"/>
<path d="M793.055 408.705C792.891 417.553 792.071 425.006 791.38 429.822C790.852 433.525 790.407 435.658 790.407 435.658C756.283 424.584 740.627 403.432 734.111 382.093C733.502 380.147 732.986 378.19 732.541 376.245C725.65 346.55 734.885 318.262 734.885 318.262C750.529 321.531 762.095 328.351 770.591 337.129C772.056 338.629 773.415 340.175 774.692 341.781C790.419 361.491 793.43 388.667 793.055 408.705Z" fill="#49883A"/>
<path d="M837.293 349.596C836.613 373.338 827.379 400.994 798.739 427.548C796.548 429.587 794.227 431.626 791.79 433.653C791.532 433.876 791.274 434.087 791.016 434.298C791.016 434.298 786.27 427.337 781.384 416.017C781.313 415.853 781.243 415.701 781.184 415.537C779.474 411.541 777.751 407.006 776.228 402.049C774.974 398.006 773.849 393.693 772.946 389.147C769.501 371.674 769.489 350.956 779.017 330.448C786.165 315.003 798.727 299.687 819.281 285.941C819.281 285.941 838.348 313.175 837.293 349.596Z" fill="#49883A"/>
<path opacity="0.5" d="M798.739 427.549C796.548 429.588 794.227 431.627 791.79 433.654C791.532 433.877 791.274 434.088 791.016 434.299C791.016 434.299 786.271 427.338 781.384 416.018C781.317 415.863 781.25 415.694 781.184 415.538L781.185 415.538C780.771 414.572 780.357 413.572 779.946 412.546C779.789 412.154 779.635 411.741 779.478 411.34C779.21 410.652 778.94 409.97 778.675 409.257C778.468 408.698 778.266 408.111 778.061 407.538C777.847 406.936 777.63 406.347 777.42 405.73C777.012 404.531 776.613 403.305 776.228 402.05C774.974 398.007 773.849 393.694 772.947 389.147C770.134 374.898 769.607 358.48 774.693 341.781C773.415 340.176 772.056 338.629 770.591 337.129C767.307 345.797 761.97 365.669 761.336 383.589C753.448 380.497 743.961 377.962 732.541 376.245C732.986 378.191 733.502 380.148 734.111 382.093C729.248 380.933 723.986 379.913 718.303 379.07C722.791 394.374 740.791 443.123 787.759 443.85C788.954 443.873 790.161 443.861 791.391 443.814C793.325 443.756 795.305 443.604 797.344 443.369C797.344 443.369 799.454 436.725 798.739 427.549Z" fill="#27481F"/>
<path d="M791.684 441.257C791.684 441.292 791.684 441.339 791.673 441.374C791.649 441.667 791.626 441.948 791.591 442.218C791.567 442.346 791.555 442.475 791.544 442.604C791.52 442.827 791.497 443.038 791.462 443.249C791.38 443.893 791.286 444.491 791.192 445.065C791.134 445.44 791.063 445.803 790.993 446.155C790.372 449.307 789.669 451.182 789.669 451.182C786.329 451.393 783.142 451.381 780.071 451.17C724.467 447.444 713.053 378.328 713.053 378.328C714.846 378.551 716.592 378.797 718.303 379.066C723.986 379.91 729.248 380.93 734.111 382.09C754.208 386.871 767.509 394.078 776.228 402.046C778.853 404.437 781.056 406.91 782.895 409.394C788.052 416.331 790.454 423.456 791.38 429.819C791.579 431.132 791.708 432.409 791.79 433.651C791.966 436.417 791.895 438.983 791.684 441.257Z" fill="#49883A"/>
<path opacity="0.38" d="M837.293 349.594C836.953 361.465 834.469 374.308 828.492 387.515C822.528 400.722 813.059 414.268 798.739 427.545C798.68 427.592 798.622 427.651 798.563 427.698C797.719 428.483 796.852 429.268 795.962 430.053C795.704 430.288 795.446 430.522 795.176 430.756C794.075 431.717 792.95 432.69 791.79 433.651C791.708 432.409 791.579 431.131 791.38 429.819C790.454 423.456 788.052 416.331 782.895 409.393C781.056 406.909 778.853 404.436 776.228 402.046C774.974 398.003 773.849 393.691 772.946 389.144C776.122 390.995 778.935 392.952 781.395 394.991C783.142 396.421 784.688 397.886 786.106 399.374C793.43 380.214 808.184 360.597 837.293 349.594Z" fill="#27481F"/>
<path opacity="0.2" d="M791.684 441.257C791.684 441.292 791.684 441.339 791.673 441.374C791.649 441.667 791.626 441.949 791.591 442.218C791.567 442.347 791.555 442.476 791.544 442.605C791.52 442.828 791.497 443.038 791.462 443.249C791.38 443.894 791.286 444.492 791.192 445.066C791.122 445.441 791.063 445.804 790.993 446.156C790.372 449.308 789.669 451.183 789.669 451.183C786.329 451.394 783.141 451.382 780.071 451.171C779.556 447.339 778.067 433.078 781.384 416.016C781.806 413.848 782.309 411.633 782.895 409.395C788.051 416.332 790.454 423.457 791.38 429.82C791.579 431.132 791.708 432.41 791.79 433.652C791.965 436.417 791.895 438.984 791.684 441.257Z" fill="#27481F"/>
<path d="M845.203 523.555L831.457 613.53C829.922 623.561 821.297 630.967 811.149 630.967H769.876C760.888 630.967 753.083 625.154 750.365 616.846C750.013 615.78 749.744 614.666 749.568 613.53L735.822 523.555H845.203Z" fill="#FD7F0B"/>
<path d="M788.227 451.293C788.227 451.293 773.167 361.971 868.952 349.094C868.952 349.094 874.96 446.974 788.227 451.293Z" fill="#49883A"/>
<path opacity="0.4" d="M845.203 523.555L831.457 613.53C829.922 623.561 821.297 630.967 811.149 630.967H769.876C760.888 630.967 753.083 625.154 750.365 616.846C803.954 608.256 818.321 553.085 821.227 523.555H845.203Z" fill="#C86000"/>
<path opacity="0.15" d="M646.054 632.747C646.054 621.757 548.148 612.848 427.375 612.848C306.602 612.848 208.696 621.757 208.696 632.747C208.696 641.661 273.109 649.206 361.888 651.738C371.556 667.599 355.418 686.57 343.049 693.413C321.33 694.497 305.743 696.914 308.197 702.069C319.805 726.444 418.449 700.507 418.449 700.507C418.449 700.507 457.023 702.905 457.023 699.237C457.023 697.549 450.228 696.009 439.057 694.837L439.882 694.788L398.239 652.471C407.772 652.586 417.495 652.647 427.375 652.647C548.148 652.647 646.054 643.737 646.054 632.747Z" fill="#171717"/>
<path d="M665.37 486.572C662.488 534.138 638.511 581.668 599.207 607.824C552.357 639.007 486.85 632.105 433.496 636.077C387.372 639.511 340.896 642.464 294.76 637.554C256.956 633.523 218.824 618.546 200.766 581.844C182.672 545.06 180.715 496.182 198.809 458.952C204.574 447.069 212.297 436.511 221.379 427.3C222.855 425.788 224.39 424.312 225.949 422.87C227.003 421.898 228.07 420.937 229.16 419.999C230.824 418.558 232.535 417.152 234.269 415.781C234.843 415.335 235.417 414.89 236.003 414.445C236.577 413.999 237.163 413.566 237.749 413.132C238.335 412.699 238.921 412.265 239.519 411.843C239.964 411.527 240.409 411.21 240.855 410.894C241.593 410.367 242.343 409.851 243.105 409.347C249.843 404.8 256.944 400.804 264.268 397.371C271.393 394.008 278.729 391.172 286.112 388.875C310.381 381.34 335.728 378.668 360.771 375.375C413.914 368.403 468.019 366.024 521.584 366.059C565.294 366.071 614.512 372.61 643.738 410.132C660.238 431.319 667.023 459.479 665.37 486.572Z" fill="#FD7F0B"/>
<path d="M575.385 406.238C575.385 406.238 586.659 395.647 592.634 389.517C598.608 383.386 585.573 383.188 579.148 390.827C572.723 398.467 575.385 406.238 575.385 406.238Z" fill="#F9B384"/>
<path d="M264.268 397.375C256.944 400.809 249.843 404.805 243.105 409.351C242.343 409.855 241.593 410.371 240.855 410.898C240.409 411.215 239.964 411.531 239.519 411.847C238.921 412.269 238.335 412.703 237.749 413.136C237.163 413.57 236.577 414.004 236.003 414.449C235.417 414.894 234.843 415.339 234.269 415.785C232.558 417.144 230.882 418.539 229.23 419.968L229.16 420.003C228.07 420.941 227.003 421.902 225.949 422.874C224.39 424.316 222.855 425.792 221.379 427.304C221.507 428.546 222.316 429.742 223.645 430.014C232.44 431.794 236.845 440.185 243.934 444.956C249.195 448.496 255.414 449.468 261.367 447.438C254.958 461.012 251.423 474.478 254.19 489.67C255.032 494.264 256.491 498.737 258.482 502.961C250.245 496.843 242.311 483.738 239.047 470.448C238.584 468.562 236.678 467.38 234.795 467.873C232.91 468.336 231.756 470.239 232.219 472.126C236.259 488.579 246.543 504.389 257.228 510.57C259.773 512.042 262.356 512.978 264.915 513.409C267.032 516.121 269.395 518.641 271.99 520.9L287.787 525.318L300.677 442.116L264.268 397.375Z" fill="#B35341"/>
<path d="M310.053 453.249C277.392 440.529 254.717 427.001 241.554 417.994C233.021 412.155 228.705 401.86 230.454 391.67L247.296 293.499C249.029 283.394 255.729 274.804 265.151 270.764C292.171 259.178 318.478 252.557 341.693 249.347C341.693 249.347 354.697 248.298 371.282 249.933C382.196 251.009 407.181 258.372 423.063 263.304C432.037 266.091 439.24 272.811 442.638 281.572C449.297 298.737 460.116 327.722 463.565 343.388C475.479 397.489 473.526 393.485 473.526 393.485L485.83 476.687L355.169 484.011L321.771 468.777L310.053 453.249Z" fill="#7500FD"/>
<path d="M390.911 155.89C390.911 155.89 379.338 132.16 348.577 143C326.312 138.166 309.32 164.533 325.726 200.421L356.634 207.598L390.911 155.89Z" fill="#102048"/>
<path d="M374.505 222.977V264.952C374.505 274.772 366.536 282.741 356.716 282.741C343.404 282.741 332.611 271.948 332.611 258.636V222.977H374.505Z" fill="#F9B384"/>
<path d="M374.505 240.395V263.293C355.837 263.386 343.45 239.246 343.45 239.246L374.505 240.395Z" fill="#E28B6D"/>
<path d="M392.973 217.694C391.848 223.507 390.243 229.46 387.934 234.698C383.903 243.897 377.751 250.905 368.352 251.104C346.357 251.573 329.388 221.515 329.388 221.515L332.904 180.5L349.603 161.75L395.598 190.167C395.598 190.167 395.727 203.503 392.973 217.694Z" fill="#F9B384"/>
<path d="M332.172 209.503C332.172 209.503 336.713 191.046 352.533 179.035C352.533 179.035 375.531 209.064 399.847 194.562C424.163 180.06 413.616 151.496 390.911 155.891L364.837 152.961L332.172 163.361L326.605 188.996L332.172 209.503Z" fill="#102048"/>
<path opacity="0.4" d="M355.257 422.22C333.099 374.343 305.17 397.194 298.335 379.616C288.756 354.986 290.572 327.124 290.522 318.68L277.177 393.825C277.177 393.825 306.972 396.658 317.987 414.598L355.257 422.22Z" fill="#1F3C88"/>
<path d="M291.202 317.398C290.371 323.826 289.391 330.229 288.379 336.625C287.395 343.027 286.237 349.398 285.175 355.786C284.063 362.165 282.894 368.534 281.645 374.888L279.735 384.414C279.045 387.58 278.402 390.754 277.661 393.911L276.692 393.739C277.079 390.52 277.565 387.318 278.002 384.108L279.478 374.505C280.485 368.108 281.574 361.724 282.718 355.351C283.913 348.987 285.013 342.606 286.285 336.255C287.529 329.899 288.807 323.55 290.232 317.227L291.202 317.398Z" fill="#1F3C88"/>
<path d="M420.658 305.516C422.431 313.865 424.068 322.238 425.673 330.617C427.304 338.992 428.775 347.395 430.334 355.782C431.821 364.182 433.276 372.588 434.691 381.001L436.736 393.634C437.367 397.854 438.042 402.066 438.626 406.295L437.725 406.456C436.811 402.286 435.989 398.1 435.123 393.922L432.675 381.36C431.095 372.977 429.556 364.586 428.048 356.189C426.612 347.78 425.088 339.386 423.725 330.965C422.335 322.547 420.977 314.124 419.756 305.676L420.658 305.516Z" fill="#1F3C88"/>
<path opacity="0.4" d="M426.848 344.266C428.41 359.5 426.066 438.404 389.348 439.576L389.739 456.764L447.55 453.248L426.848 344.266Z" fill="#1F3C88"/>
<path d="M351.361 437.429C377.434 426.296 382.419 426.711 385.93 426.882C397.942 427.468 415.227 451.491 415.227 451.491L414.934 455.885H349.017L351.361 437.429Z" fill="#E28B6D"/>
<path d="M451.652 451.586H370.501V463.89H451.652V451.586Z" fill="white"/>
<path d="M562.001 463.901H420.988L452.628 337.887H593.641L562.001 463.901Z" fill="#FBC343"/>
<path d="M574.781 412.362C560.829 410.278 515.713 400.903 422.746 457.543L420.598 465.355L562.002 463.901L574.781 412.362Z" fill="#C89B35"/>
<path d="M577.455 440.357C576.576 446.289 576.283 455.005 557.9 453.906L552.48 451.123L557.607 445.483L568.666 439.844L577.455 440.357Z" fill="#F9B384"/>
<path d="M579.188 424.34C579.188 424.34 589.249 437.483 579.14 441.527C568.153 445.922 557.607 445.482 557.607 445.482C562.294 432.299 577.528 433.178 577.528 433.178L579.188 424.34Z" fill="#F9B384"/>
<path d="M579.481 415.844C579.481 415.844 593.348 428.734 580.458 432.347C562.254 437.45 556.63 437.816 556.63 437.816C555.654 428.148 573.72 421.898 573.72 421.898L579.481 415.844Z" fill="#F9B384"/>
<path d="M576.649 404.613C576.649 404.613 595.594 416.136 577.821 422.582C560.048 429.027 555.849 428.929 555.849 428.929C554.873 419.261 573.915 415.941 573.915 415.941L576.649 404.613Z" fill="#F9B384"/>
<path d="M555.849 428.926C555.849 428.926 576.503 425.996 582.655 421.016" stroke="#E28B6D" stroke-width="2.5" stroke-miterlimit="10"/>
<path d="M556.63 437.816C556.63 437.816 578.114 434.789 584.852 430.102" stroke="#E28B6D" stroke-width="2.5" stroke-miterlimit="10"/>
<path d="M557.607 445.483C557.607 445.483 570.351 445.922 577.528 442.406" stroke="#E28B6D" stroke-width="2.5" stroke-miterlimit="10"/>
<path d="M357.513 630.198C359.661 629.027 393.645 636.448 431.339 608.519L382.708 594.652L357.513 630.198Z" fill="#102048"/>
<path d="M573.45 468.894C575.067 466.585 576.462 463.187 574.423 461.242C572.302 459.203 568.833 460.996 566.607 462.918C562.681 466.292 559.118 469.996 555.825 473.933L473.725 489.191L361.228 516.53L380.57 541.218C436.819 545.32 468.855 546.375 504.056 540.163C521.998 536.996 538.037 533.732 550.001 523.982C552.849 521.65 555.544 517.736 553.693 514.561C552.439 512.416 549.837 511.854 547.224 511.877C553.236 510.459 559.072 508.385 564.614 505.678C567.087 504.483 569.841 502.608 569.782 499.866C569.747 497.897 568.153 496.233 566.325 495.53C564.497 494.827 562.482 494.885 560.525 495.026C553.025 495.588 545.607 497.229 538.564 499.877C551.384 490.925 564.427 481.655 573.45 468.894ZM538.388 499.995C538.388 499.972 538.4 499.96 538.423 499.936C538.459 499.925 538.505 499.913 538.541 499.89C538.494 499.925 538.435 499.96 538.388 499.995Z" fill="#B35341"/>
<path d="M385.051 479.615C385.051 479.615 494.62 427.467 530.361 429.811C566.103 432.155 564.931 476.685 551.454 496.021C537.978 515.356 506.338 541.137 389.739 533.52L385.051 479.615Z" fill="#171717"/>
<path d="M439.882 694.791C433.953 696.466 425.539 696.877 413.961 695.037C413.961 695.037 398.961 698.927 384.196 701.986C374.2 704.06 364.321 705.748 359.271 705.583C358.837 705.572 358.403 705.548 357.958 705.513C348.267 704.822 336.056 699.771 329.576 692.552C329.564 692.529 329.552 692.506 329.529 692.494C327.748 690.502 326.4 688.334 325.674 686.06C322.158 675.115 329.588 661.838 369.817 664.569C369.817 664.569 383.094 661.451 386.223 651.678C389.352 641.917 366.302 595.043 366.302 595.043L399.114 572.777L431.34 608.519C431.34 608.519 436.226 640.745 436.226 651.292C436.226 651.292 449.89 670.826 451.847 679.416C453.101 684.9 450.359 691.826 439.882 694.791Z" fill="#F2E5FF"/>
<path d="M255.396 398.002C259.154 396.555 262.984 395.387 266.855 394.313C268.793 393.783 270.744 393.287 272.73 392.898C273.722 392.698 274.724 392.527 275.74 392.386C276.252 392.318 276.76 392.265 277.291 392.223C277.855 392.196 278.408 392.201 278.933 392.254C283.143 392.696 286.959 394.019 290.75 395.419C294.521 396.856 298.212 398.464 301.836 400.206C305.472 401.926 309.009 403.84 312.49 405.848C315.968 407.86 319.391 409.969 322.718 412.227C329.327 416.79 335.687 421.801 341.162 427.707L340.467 428.404C337.521 425.738 334.454 423.219 331.265 420.86C328.101 418.471 324.826 416.227 321.477 414.102C314.834 409.764 307.859 405.947 300.759 402.424C297.206 400.665 293.589 399.039 289.914 397.589C286.243 396.217 282.483 394.746 278.742 394.239C278.275 394.174 277.831 394.158 277.396 394.161C276.932 394.183 276.444 394.221 275.965 394.271C275 394.378 274.03 394.515 273.059 394.684C271.12 395.023 269.176 395.417 267.24 395.852C263.37 396.732 259.513 397.758 255.727 398.93L255.396 398.002Z" fill="#1F3C88"/>
<path d="M274.897 551.39C288.08 550.511 301.036 551.455 310.443 548.168C320.501 544.652 346.771 546.996 346.771 546.996L332.318 526.195L273.725 540.843L274.897 551.39Z" fill="#B35341"/>
<path d="M275.483 513.015C262.007 491.336 262.007 448.563 278.999 429.228C298.419 407.129 339.935 398.76 361.614 424.54C383.294 450.321 423.137 544.655 431.339 608.521C431.339 608.521 387.395 593.873 357.513 630.201C357.513 630.201 318.256 540.554 310.053 507.742L287.787 525.32L275.483 513.015Z" fill="#171717"/>
<path d="M310.053 507.736C310.053 507.736 304.193 505.588 295.99 511.056C295.99 511.056 231.929 509.689 217.672 524.142C203.414 538.595 214.352 557.93 235.25 560.079C252.789 561.882 286.837 548.277 297.329 543.857C299.46 542.959 301.724 542.42 304.031 542.269L321.381 541.134L310.053 507.736Z" fill="#F2E5FF"/>
<path d="M335.636 210.697C335.636 210.697 331.339 196.457 321.887 200.017C312.435 203.577 317.468 222.113 336.127 227.269L335.636 210.697Z" fill="#F9B384"/>
<path d="M325.569 289.216C330.235 292.506 335.207 295.337 340.48 297.343C345.749 299.319 351.308 300.57 356.885 300.437C362.449 300.369 367.959 298.997 372.93 296.455L374.801 295.504C375.414 295.166 375.976 294.742 376.568 294.364C377.735 293.584 378.943 292.852 379.985 291.894L381.631 290.559L382.458 289.89C382.725 289.659 382.964 289.395 383.218 289.149C384.218 288.144 385.232 287.147 386.263 286.156L386.964 286.746C386.042 287.861 385.102 288.97 384.147 290.07C383.906 290.342 383.681 290.631 383.426 290.89L382.632 291.642L381.039 293.147C380.004 294.188 378.788 295.013 377.607 295.885C377.008 296.309 376.437 296.779 375.811 297.165L373.892 298.261C368.754 301.159 362.83 302.724 356.909 302.759C350.989 302.772 345.113 301.489 339.739 299.177C334.348 296.888 329.387 293.718 325.004 289.937L325.569 289.216Z" fill="#1F3C88"/>
<path d="M300.343 470.328L305.42 488.093C307.147 494.003 308.762 499.942 310.567 505.824C312.333 511.716 314.093 517.609 315.946 523.47C316.873 526.399 317.788 529.337 318.804 532.235C319.299 533.689 319.748 535.163 320.273 536.606C320.797 538.05 321.307 539.5 321.803 540.959L320.958 541.312C319.65 538.511 318.424 535.668 317.266 532.801C316.115 529.93 315.066 527.024 314.004 524.121C311.923 518.301 310.083 512.402 308.339 506.48C306.648 500.542 304.976 494.6 303.508 488.605C302.023 482.614 300.62 476.606 299.451 470.539L300.343 470.328Z" fill="#102048"/>
<path opacity="0.1" d="M439.882 694.79C433.953 696.466 425.539 696.876 413.961 695.036C413.961 695.036 389.153 701.388 373.479 703.878C389.592 700.656 413.03 680.734 410.393 668.137C433.537 675.754 439.835 687.326 439.882 694.79Z" fill="#1F3C88"/>
<path opacity="0.4" d="M377.575 696.992C374.587 700.672 370.134 703.168 365.458 704.422C363.009 705.078 360.489 705.429 357.958 705.511C348.267 704.82 336.056 699.769 329.576 692.551C329.564 692.527 329.552 692.504 329.529 692.492C328.837 691.555 328.193 690.582 327.63 689.574C331.076 692.785 334.826 695.41 338.869 697.414C340.896 698.375 342.947 699.301 345.091 699.945C346.134 700.344 347.224 700.578 348.302 700.883C349.368 701.211 350.482 701.34 351.583 701.539C360.337 703.015 369.63 702.101 377.575 696.992Z" fill="#1F3C88"/>
<path d="M331.389 212.718C331.171 211.439 330.57 210.245 329.862 209.156C329.138 208.079 328.276 207.072 327.279 206.368C326.281 205.67 325.197 205.321 324.283 205.815C323.324 206.293 322.564 207.458 321.901 208.639L321.252 208.413C321.531 207.024 322.045 205.494 323.5 204.485C324.218 203.984 325.2 203.806 326.054 203.96C326.911 204.115 327.662 204.484 328.296 204.944C329.561 205.875 330.487 207.084 331.162 208.406C331.816 209.722 332.286 211.209 332.076 212.733L331.389 212.718Z" fill="#E28B6D"/>
<path d="M387.145 212.367C386.733 214.388 385.21 215.784 383.744 215.486C382.277 215.186 381.423 213.306 381.835 211.284C382.247 209.263 383.769 207.867 385.236 208.165C386.702 208.464 387.557 210.345 387.145 212.367Z" fill="#102048"/>
<path d="M364.313 211.451C364.645 209.415 363.716 207.569 362.239 207.328C360.762 207.087 359.295 208.543 358.963 210.579C358.632 212.615 359.56 214.461 361.037 214.702C362.514 214.942 363.981 213.487 364.313 211.451Z" fill="#102048"/>
<path d="M374.004 214.229C374.144 215.893 374.211 217.549 374.229 219.169C374.295 219.789 374.583 220.32 375.101 220.884C375.6 221.443 376.246 222.027 376.804 222.842C377.083 223.243 377.302 223.757 377.41 224.262C377.527 224.764 377.542 225.263 377.509 225.754C377.426 226.729 377.081 227.689 376.432 228.479C376.114 228.876 375.69 229.203 375.227 229.442C374.746 229.648 374.229 229.78 373.732 229.757C372.73 229.712 371.869 229.324 371.154 228.823L371.478 228.217C372.237 228.464 372.995 228.655 373.664 228.528C374.328 228.436 374.857 228.081 375.21 227.536C375.926 226.467 376.031 224.795 375.339 223.798C374.978 223.22 374.379 222.676 373.812 221.962C373.239 221.285 372.691 220.264 372.729 219.201C372.857 217.498 373.059 215.831 373.32 214.172L374.004 214.229Z" fill="#E28B6D"/>
<path d="M355.114 204.417C356.048 203.485 357.158 202.712 358.405 202.157C359.646 201.599 361.055 201.29 362.483 201.378C363.912 201.461 365.313 201.992 366.429 202.824C367.554 203.649 368.421 204.72 369.063 205.876L368.521 206.298C367.552 205.473 366.616 204.697 365.595 204.123C364.577 203.55 363.486 203.201 362.36 203.123C360.088 202.949 357.776 203.854 355.517 204.973L355.114 204.417Z" fill="#102048"/>
<path d="M378.957 206.419C379.345 205.172 380.382 204.188 381.524 203.603C382.678 203 383.978 202.745 385.263 202.767C386.548 202.795 387.841 203.125 388.96 203.783C390.08 204.429 391.007 205.424 391.491 206.579L390.916 206.954C389.323 205.353 387.321 204.587 385.217 204.516C383.143 204.469 380.946 205.042 379.574 206.723L378.957 206.419Z" fill="#102048"/>
<path d="M362.958 233.938L378.503 235.045C378.503 235.045 369.831 246.546 362.958 233.938Z" fill="white"/>
<path opacity="0.4" d="M392.973 217.695C391.848 223.508 390.243 229.461 387.934 234.699C384.899 233.269 382.801 230.176 382.801 226.59C382.801 221.633 386.833 217.613 391.79 217.613C392.188 217.613 392.586 217.637 392.973 217.695Z" fill="#EE6F57"/>
<path opacity="0.4" d="M356.892 232.823C361.467 230.902 363.619 225.635 361.697 221.06C359.776 216.486 354.51 214.334 349.935 216.256C345.36 218.177 343.209 223.443 345.13 228.018C347.051 232.593 352.318 234.744 356.892 232.823Z" fill="#EE6F57"/>
<path d="M513.959 75V66.2727H519.43V67.4062H515.276V70.0653H519.145V71.1946H515.276V73.8665H519.482V75H513.959ZM520.967 75V68.4545H522.19V69.5199H522.271C522.407 69.1591 522.63 68.8778 522.94 68.6761C523.25 68.4716 523.62 68.3693 524.052 68.3693C524.49 68.3693 524.856 68.4716 525.152 68.6761C525.45 68.8807 525.67 69.1619 525.812 69.5199H525.88C526.037 69.1705 526.285 68.892 526.626 68.6847C526.967 68.4744 527.373 68.3693 527.845 68.3693C528.439 68.3693 528.923 68.5554 529.298 68.9276C529.676 69.2997 529.865 69.8608 529.865 70.6108V75H528.591V70.7301C528.591 70.2869 528.47 69.9659 528.228 69.767C527.987 69.5682 527.699 69.4688 527.363 69.4688C526.949 69.4688 526.626 69.5966 526.396 69.8523C526.166 70.1051 526.051 70.4304 526.051 70.8281V75H524.781V70.6491C524.781 70.294 524.67 70.0085 524.449 69.7926C524.227 69.5767 523.939 69.4688 523.583 69.4688C523.342 69.4688 523.119 69.5327 522.914 69.6605C522.713 69.7855 522.549 69.9602 522.424 70.1847C522.302 70.4091 522.241 70.669 522.241 70.9645V75H520.967ZM533.357 75.1449C532.943 75.1449 532.568 75.0682 532.232 74.9148C531.897 74.7585 531.631 74.5327 531.435 74.2372C531.242 73.9418 531.146 73.5795 531.146 73.1506C531.146 72.7812 531.217 72.4773 531.359 72.2386C531.501 72 531.693 71.8111 531.934 71.6719C532.175 71.5327 532.445 71.4276 532.744 71.3565C533.042 71.2855 533.346 71.2315 533.656 71.1946C534.048 71.1491 534.366 71.1122 534.61 71.0838C534.854 71.0526 535.032 71.0028 535.143 70.9347C535.254 70.8665 535.309 70.7557 535.309 70.6023V70.5724C535.309 70.2003 535.204 69.9119 534.994 69.7074C534.786 69.5028 534.477 69.4006 534.065 69.4006C533.636 69.4006 533.298 69.4957 533.05 69.6861C532.806 69.8736 532.637 70.0824 532.543 70.3125L531.346 70.0398C531.488 69.642 531.695 69.321 531.968 69.0767C532.244 68.8295 532.56 68.6506 532.918 68.5398C533.276 68.4261 533.653 68.3693 534.048 68.3693C534.309 68.3693 534.586 68.4006 534.879 68.4631C535.174 68.5227 535.45 68.6335 535.705 68.7955C535.964 68.9574 536.175 69.1889 536.34 69.4901C536.505 69.7884 536.587 70.1761 536.587 70.6534V75H535.343V74.1051H535.292C535.21 74.2699 535.086 74.4318 534.921 74.5909C534.756 74.75 534.545 74.8821 534.286 74.9872C534.028 75.0923 533.718 75.1449 533.357 75.1449ZM533.634 74.1222C533.987 74.1222 534.288 74.0526 534.538 73.9134C534.791 73.7741 534.982 73.5923 535.113 73.3679C535.247 73.1406 535.313 72.8977 535.313 72.6392V71.7955C535.268 71.8409 535.18 71.8835 535.049 71.9233C534.921 71.9602 534.775 71.9929 534.61 72.0213C534.445 72.0469 534.285 72.071 534.129 72.0938C533.972 72.1136 533.842 72.1307 533.737 72.1449C533.489 72.1761 533.264 72.2287 533.059 72.3026C532.857 72.3764 532.695 72.483 532.573 72.6222C532.454 72.7585 532.394 72.9403 532.394 73.1676C532.394 73.483 532.511 73.7216 532.744 73.8835C532.977 74.0426 533.273 74.1222 533.634 74.1222ZM538.165 75V68.4545H539.439V75H538.165ZM538.808 67.4446C538.586 67.4446 538.396 67.3707 538.237 67.223C538.081 67.0724 538.003 66.8935 538.003 66.6861C538.003 66.4759 538.081 66.2969 538.237 66.1491C538.396 65.9986 538.586 65.9233 538.808 65.9233C539.03 65.9233 539.218 65.9986 539.375 66.1491C539.534 66.2969 539.613 66.4759 539.613 66.6861C539.613 66.8935 539.534 67.0724 539.375 67.223C539.218 67.3707 539.03 67.4446 538.808 67.4446ZM542.307 66.2727V75H541.033V66.2727H542.307Z" fill="#737373"/>
<rect x="513.5" y="86.5" width="243" height="29" stroke="#D4D4D4"/>
<path d="M529.276 106.159C528.54 106.159 527.905 105.997 527.371 105.672C526.841 105.344 526.432 104.886 526.143 104.3C525.858 103.71 525.716 103.024 525.716 102.241C525.716 101.459 525.858 100.77 526.143 100.173C526.432 99.5734 526.833 99.1061 527.347 98.7713C527.864 98.4332 528.467 98.2642 529.156 98.2642C529.554 98.2642 529.947 98.3305 530.335 98.4631C530.722 98.5956 531.075 98.8111 531.393 99.1094C531.712 99.4044 531.965 99.7955 532.154 100.283C532.343 100.77 532.438 101.37 532.438 102.082V102.58H526.551V101.565H531.244C531.244 101.134 531.158 100.75 530.986 100.412C530.817 100.074 530.575 99.8071 530.26 99.6115C529.948 99.416 529.58 99.3182 529.156 99.3182C528.689 99.3182 528.285 99.4342 527.943 99.6662C527.605 99.8949 527.345 100.193 527.163 100.561C526.98 100.929 526.889 101.323 526.889 101.744V102.42C526.889 102.997 526.989 103.486 527.188 103.887C527.39 104.285 527.67 104.588 528.028 104.797C528.386 105.002 528.802 105.105 529.276 105.105C529.584 105.105 529.862 105.062 530.111 104.976C530.363 104.886 530.58 104.754 530.762 104.578C530.944 104.399 531.085 104.177 531.185 103.912L532.318 104.23C532.199 104.615 531.998 104.953 531.717 105.244C531.435 105.533 531.087 105.758 530.673 105.92C530.258 106.08 529.793 106.159 529.276 106.159ZM534.082 106V98.3636H535.216V99.5568H535.315C535.474 99.1491 535.731 98.8326 536.086 98.6072C536.44 98.3786 536.866 98.2642 537.364 98.2642C537.867 98.2642 538.287 98.3786 538.621 98.6072C538.959 98.8326 539.223 99.1491 539.412 99.5568H539.491C539.687 99.1624 539.98 98.8492 540.371 98.6172C540.762 98.3819 541.231 98.2642 541.778 98.2642C542.461 98.2642 543.02 98.478 543.454 98.9055C543.888 99.3298 544.105 99.991 544.105 100.889V106H542.932V100.889C542.932 100.326 542.778 99.9231 542.469 99.6811C542.161 99.4392 541.798 99.3182 541.381 99.3182C540.844 99.3182 540.428 99.4806 540.133 99.8054C539.838 100.127 539.69 100.535 539.69 101.028V106H538.497V100.77C538.497 100.336 538.356 99.986 538.074 99.7209C537.793 99.4524 537.43 99.3182 536.986 99.3182C536.681 99.3182 536.396 99.3994 536.131 99.5618C535.869 99.7242 535.657 99.9496 535.494 100.238C535.335 100.523 535.256 100.853 535.256 101.227V106H534.082ZM548.357 106.179C547.874 106.179 547.434 106.088 547.04 105.906C546.646 105.72 546.332 105.453 546.1 105.105C545.868 104.754 545.752 104.33 545.752 103.832C545.752 103.395 545.838 103.04 546.011 102.768C546.183 102.493 546.414 102.278 546.702 102.122C546.99 101.966 547.308 101.85 547.656 101.774C548.008 101.695 548.361 101.632 548.715 101.585C549.179 101.526 549.556 101.481 549.844 101.451C550.136 101.418 550.348 101.363 550.48 101.287C550.616 101.211 550.684 101.078 550.684 100.889V100.849C550.684 100.359 550.55 99.9777 550.281 99.706C550.016 99.4342 549.614 99.2983 549.073 99.2983C548.513 99.2983 548.074 99.4209 547.756 99.6662C547.438 99.9115 547.214 100.173 547.085 100.452L545.971 100.054C546.17 99.59 546.435 99.2287 546.767 98.9702C547.101 98.7083 547.466 98.526 547.86 98.4233C548.258 98.3172 548.649 98.2642 549.034 98.2642C549.279 98.2642 549.561 98.294 549.879 98.3537C550.2 98.41 550.51 98.5277 550.808 98.7067C551.11 98.8857 551.36 99.1558 551.559 99.517C551.758 99.8783 551.857 100.362 551.857 100.969V106H550.684V104.966H550.624C550.545 105.132 550.412 105.309 550.227 105.498C550.041 105.687 549.794 105.848 549.486 105.98C549.178 106.113 548.802 106.179 548.357 106.179ZM548.536 105.125C549 105.125 549.392 105.034 549.71 104.852C550.031 104.669 550.273 104.434 550.436 104.146C550.601 103.857 550.684 103.554 550.684 103.236V102.162C550.634 102.222 550.525 102.276 550.356 102.326C550.19 102.372 549.998 102.414 549.779 102.45C549.564 102.483 549.353 102.513 549.148 102.54C548.946 102.563 548.782 102.583 548.656 102.599C548.351 102.639 548.066 102.704 547.801 102.793C547.539 102.879 547.327 103.01 547.164 103.186C547.005 103.358 546.926 103.594 546.926 103.892C546.926 104.3 547.076 104.608 547.378 104.817C547.683 105.022 548.069 105.125 548.536 105.125ZM553.859 106V98.3636H555.032V106H553.859ZM554.456 97.0909C554.227 97.0909 554.03 97.013 553.864 96.8572C553.702 96.7015 553.62 96.5142 553.62 96.2955C553.62 96.0767 553.702 95.8894 553.864 95.7337C554.03 95.5779 554.227 95.5 554.456 95.5C554.684 95.5 554.88 95.5779 555.042 95.7337C555.208 95.8894 555.291 96.0767 555.291 96.2955C555.291 96.5142 555.208 96.7015 555.042 96.8572C554.88 97.013 554.684 97.0909 554.456 97.0909ZM558.215 95.8182V106H557.041V95.8182H558.215ZM566.09 108.685C565.076 108.685 564.179 108.545 563.4 108.267C562.621 107.992 561.967 107.586 561.437 107.049C560.906 106.512 560.505 105.854 560.233 105.075C559.962 104.296 559.826 103.405 559.826 102.401C559.826 101.429 559.963 100.561 560.238 99.7955C560.517 99.0298 560.919 98.3802 561.446 97.8466C561.977 97.3097 562.62 96.9003 563.375 96.6186C564.134 96.3369 564.993 96.196 565.951 96.196C566.882 96.196 567.697 96.3485 568.397 96.6534C569.099 96.955 569.686 97.3643 570.157 97.8814C570.631 98.3951 570.985 98.9735 571.221 99.6165C571.459 100.259 571.579 100.922 571.579 101.605C571.579 102.086 571.555 102.573 571.509 103.067C571.463 103.561 571.365 104.015 571.216 104.429C571.067 104.84 570.836 105.171 570.525 105.423C570.216 105.675 569.799 105.801 569.272 105.801C569.04 105.801 568.785 105.765 568.506 105.692C568.228 105.619 567.981 105.498 567.765 105.329C567.55 105.16 567.422 104.933 567.383 104.648H567.323C567.243 104.84 567.121 105.022 566.955 105.195C566.793 105.367 566.579 105.504 566.314 105.607C566.052 105.71 565.732 105.755 565.354 105.741C564.923 105.725 564.544 105.629 564.216 105.453C563.888 105.274 563.612 105.032 563.39 104.727C563.172 104.419 563.006 104.063 562.893 103.658C562.784 103.251 562.729 102.812 562.729 102.341C562.729 101.893 562.795 101.484 562.928 101.113C563.061 100.742 563.245 100.417 563.48 100.138C563.719 99.8601 563.997 99.638 564.315 99.4723C564.637 99.3033 564.983 99.1989 565.354 99.1591C565.686 99.1259 565.987 99.1409 566.259 99.2038C566.531 99.2635 566.754 99.3546 566.93 99.4773C567.106 99.5966 567.217 99.7292 567.263 99.875H567.323V99.3182H568.377V103.812C568.377 104.091 568.455 104.336 568.611 104.548C568.766 104.76 568.993 104.866 569.292 104.866C569.63 104.866 569.888 104.75 570.067 104.518C570.25 104.286 570.374 103.929 570.44 103.445C570.51 102.961 570.544 102.341 570.544 101.585C570.544 101.141 570.483 100.704 570.361 100.273C570.241 99.8385 570.059 99.4325 569.814 99.0547C569.572 98.6768 569.265 98.3437 568.894 98.0554C568.523 97.767 568.087 97.5417 567.586 97.3793C567.089 97.2135 566.524 97.1307 565.891 97.1307C565.112 97.1307 564.415 97.2517 563.798 97.4936C563.185 97.7322 562.663 98.0819 562.232 98.5426C561.804 99 561.478 99.5568 561.253 100.213C561.031 100.866 560.919 101.608 560.919 102.44C560.919 103.286 561.031 104.036 561.253 104.692C561.478 105.349 561.809 105.902 562.247 106.353C562.688 106.804 563.233 107.145 563.883 107.377C564.532 107.612 565.281 107.73 566.13 107.73C566.494 107.73 566.854 107.695 567.209 107.626C567.563 107.556 567.876 107.48 568.148 107.397C568.42 107.314 568.616 107.253 568.735 107.213L569.013 108.128C568.808 108.214 568.539 108.3 568.208 108.386C567.88 108.473 567.528 108.544 567.154 108.6C566.783 108.656 566.428 108.685 566.09 108.685ZM565.513 104.727C565.957 104.727 566.317 104.638 566.592 104.459C566.867 104.28 567.068 104.01 567.194 103.648C567.32 103.287 567.383 102.831 567.383 102.281C567.383 101.724 567.313 101.29 567.174 100.979C567.035 100.667 566.829 100.448 566.557 100.322C566.285 100.196 565.951 100.134 565.553 100.134C565.175 100.134 564.852 100.233 564.584 100.432C564.318 100.627 564.115 100.889 563.972 101.217C563.833 101.542 563.763 101.897 563.763 102.281C563.763 102.705 563.82 103.105 563.932 103.479C564.045 103.851 564.229 104.152 564.484 104.384C564.739 104.613 565.082 104.727 565.513 104.727ZM576.397 106.159C575.661 106.159 575.026 105.997 574.492 105.672C573.962 105.344 573.553 104.886 573.264 104.3C572.979 103.71 572.837 103.024 572.837 102.241C572.837 101.459 572.979 100.77 573.264 100.173C573.553 99.5734 573.954 99.1061 574.468 98.7713C574.985 98.4332 575.588 98.2642 576.277 98.2642C576.675 98.2642 577.068 98.3305 577.455 98.4631C577.843 98.5956 578.196 98.8111 578.514 99.1094C578.833 99.4044 579.086 99.7955 579.275 100.283C579.464 100.77 579.558 101.37 579.558 102.082V102.58H573.672V101.565H578.365C578.365 101.134 578.279 100.75 578.107 100.412C577.938 100.074 577.696 99.8071 577.381 99.6115C577.069 99.416 576.701 99.3182 576.277 99.3182C575.81 99.3182 575.406 99.4342 575.064 99.6662C574.726 99.8949 574.466 100.193 574.284 100.561C574.101 100.929 574.01 101.323 574.01 101.744V102.42C574.01 102.997 574.11 103.486 574.308 103.887C574.511 104.285 574.791 104.588 575.149 104.797C575.507 105.002 575.923 105.105 576.397 105.105C576.705 105.105 576.983 105.062 577.232 104.976C577.484 104.886 577.701 104.754 577.883 104.578C578.065 104.399 578.206 104.177 578.306 103.912L579.439 104.23C579.32 104.615 579.119 104.953 578.838 105.244C578.556 105.533 578.208 105.758 577.794 105.92C577.379 106.08 576.914 106.159 576.397 106.159ZM581.203 106V98.3636H582.337V99.5568H582.436C582.595 99.1491 582.852 98.8326 583.207 98.6072C583.561 98.3786 583.987 98.2642 584.484 98.2642C584.988 98.2642 585.408 98.3786 585.742 98.6072C586.08 98.8326 586.344 99.1491 586.533 99.5568H586.612C586.808 99.1624 587.101 98.8492 587.492 98.6172C587.883 98.3819 588.352 98.2642 588.899 98.2642C589.582 98.2642 590.141 98.478 590.575 98.9055C591.009 99.3298 591.226 99.991 591.226 100.889V106H590.053V100.889C590.053 100.326 589.899 99.9231 589.59 99.6811C589.282 99.4392 588.919 99.3182 588.502 99.3182C587.965 99.3182 587.549 99.4806 587.254 99.8054C586.959 100.127 586.811 100.535 586.811 101.028V106H585.618V100.77C585.618 100.336 585.477 99.986 585.195 99.7209C584.914 99.4524 584.551 99.3182 584.107 99.3182C583.802 99.3182 583.517 99.3994 583.252 99.5618C582.99 99.7242 582.778 99.9496 582.615 100.238C582.456 100.523 582.377 100.853 582.377 101.227V106H581.203ZM595.478 106.179C594.994 106.179 594.555 106.088 594.161 105.906C593.766 105.72 593.453 105.453 593.221 105.105C592.989 104.754 592.873 104.33 592.873 103.832C592.873 103.395 592.959 103.04 593.132 102.768C593.304 102.493 593.534 102.278 593.823 102.122C594.111 101.966 594.429 101.85 594.777 101.774C595.129 101.695 595.482 101.632 595.836 101.585C596.3 101.526 596.677 101.481 596.965 101.451C597.257 101.418 597.469 101.363 597.601 101.287C597.737 101.211 597.805 101.078 597.805 100.889V100.849C597.805 100.359 597.671 99.9777 597.402 99.706C597.137 99.4342 596.735 99.2983 596.194 99.2983C595.634 99.2983 595.195 99.4209 594.877 99.6662C594.559 99.9115 594.335 100.173 594.206 100.452L593.092 100.054C593.291 99.59 593.556 99.2287 593.887 98.9702C594.222 98.7083 594.587 98.526 594.981 98.4233C595.379 98.3172 595.77 98.2642 596.155 98.2642C596.4 98.2642 596.681 98.294 597 98.3537C597.321 98.41 597.631 98.5277 597.929 98.7067C598.231 98.8857 598.481 99.1558 598.68 99.517C598.879 99.8783 598.978 100.362 598.978 100.969V106H597.805V104.966H597.745C597.666 105.132 597.533 105.309 597.348 105.498C597.162 105.687 596.915 105.848 596.607 105.98C596.299 106.113 595.922 106.179 595.478 106.179ZM595.657 105.125C596.121 105.125 596.512 105.034 596.831 104.852C597.152 104.669 597.394 104.434 597.556 104.146C597.722 103.857 597.805 103.554 597.805 103.236V102.162C597.755 102.222 597.646 102.276 597.477 102.326C597.311 102.372 597.119 102.414 596.9 102.45C596.685 102.483 596.474 102.513 596.269 102.54C596.067 102.563 595.903 102.583 595.777 102.599C595.472 102.639 595.187 102.704 594.922 102.793C594.66 102.879 594.448 103.01 594.285 103.186C594.126 103.358 594.047 103.594 594.047 103.892C594.047 104.3 594.197 104.608 594.499 104.817C594.804 105.022 595.19 105.125 595.657 105.125ZM600.98 106V98.3636H602.153V106H600.98ZM601.576 97.0909C601.348 97.0909 601.151 97.013 600.985 96.8572C600.822 96.7015 600.741 96.5142 600.741 96.2955C600.741 96.0767 600.822 95.8894 600.985 95.7337C601.151 95.5779 601.348 95.5 601.576 95.5C601.805 95.5 602.001 95.5779 602.163 95.7337C602.329 95.8894 602.412 96.0767 602.412 96.2955C602.412 96.5142 602.329 96.7015 602.163 96.8572C602.001 97.013 601.805 97.0909 601.576 97.0909ZM605.335 95.8182V106H604.162V95.8182H605.335ZM608.2 106.08C607.954 106.08 607.744 105.992 607.568 105.816C607.392 105.64 607.305 105.43 607.305 105.185C607.305 104.939 607.392 104.729 607.568 104.553C607.744 104.378 607.954 104.29 608.2 104.29C608.445 104.29 608.655 104.378 608.831 104.553C609.007 104.729 609.094 104.939 609.094 105.185C609.094 105.347 609.053 105.496 608.97 105.632C608.891 105.768 608.783 105.877 608.647 105.96C608.514 106.04 608.365 106.08 608.2 106.08ZM614.162 106.159C613.446 106.159 612.83 105.99 612.313 105.652C611.796 105.314 611.398 104.848 611.12 104.255C610.841 103.662 610.702 102.984 610.702 102.222C610.702 101.446 610.844 100.762 611.129 100.168C611.418 99.5717 611.819 99.1061 612.333 98.7713C612.85 98.4332 613.453 98.2642 614.142 98.2642C614.679 98.2642 615.163 98.3636 615.594 98.5625C616.025 98.7614 616.378 99.0398 616.653 99.3977C616.928 99.7557 617.099 100.173 617.165 100.651H615.992C615.902 100.303 615.703 99.9943 615.395 99.7259C615.09 99.4541 614.679 99.3182 614.162 99.3182C613.705 99.3182 613.304 99.4375 612.959 99.6761C612.618 99.9115 612.351 100.245 612.159 100.675C611.97 101.103 611.875 101.605 611.875 102.182C611.875 102.772 611.968 103.286 612.154 103.723C612.343 104.161 612.608 104.5 612.949 104.742C613.294 104.984 613.698 105.105 614.162 105.105C614.467 105.105 614.744 105.052 614.992 104.946C615.241 104.84 615.451 104.688 615.624 104.489C615.796 104.29 615.919 104.051 615.992 103.773H617.165C617.099 104.223 616.935 104.629 616.673 104.991C616.414 105.349 616.071 105.634 615.644 105.846C615.219 106.055 614.726 106.159 614.162 106.159ZM621.842 106.159C621.153 106.159 620.548 105.995 620.028 105.667C619.511 105.339 619.106 104.88 618.815 104.29C618.526 103.7 618.382 103.01 618.382 102.222C618.382 101.426 618.526 100.732 618.815 100.138C619.106 99.5452 619.511 99.0845 620.028 98.7564C620.548 98.4283 621.153 98.2642 621.842 98.2642C622.532 98.2642 623.135 98.4283 623.652 98.7564C624.172 99.0845 624.577 99.5452 624.865 100.138C625.157 100.732 625.303 101.426 625.303 102.222C625.303 103.01 625.157 103.7 624.865 104.29C624.577 104.88 624.172 105.339 623.652 105.667C623.135 105.995 622.532 106.159 621.842 106.159ZM621.842 105.105C622.366 105.105 622.797 104.971 623.135 104.702C623.473 104.434 623.723 104.081 623.886 103.643C624.048 103.206 624.129 102.732 624.129 102.222C624.129 101.711 624.048 101.236 623.886 100.795C623.723 100.354 623.473 99.9976 623.135 99.7259C622.797 99.4541 622.366 99.3182 621.842 99.3182C621.319 99.3182 620.888 99.4541 620.55 99.7259C620.212 99.9976 619.962 100.354 619.799 100.795C619.637 101.236 619.556 101.711 619.556 102.222C619.556 102.732 619.637 103.206 619.799 103.643C619.962 104.081 620.212 104.434 620.55 104.702C620.888 104.971 621.319 105.105 621.842 105.105ZM626.954 106V98.3636H628.087V99.5568H628.187C628.346 99.1491 628.603 98.8326 628.957 98.6072C629.312 98.3786 629.738 98.2642 630.235 98.2642C630.739 98.2642 631.158 98.3786 631.493 98.6072C631.831 98.8326 632.094 99.1491 632.283 99.5568H632.363C632.558 99.1624 632.852 98.8492 633.243 98.6172C633.634 98.3819 634.103 98.2642 634.65 98.2642C635.332 98.2642 635.891 98.478 636.325 98.9055C636.759 99.3298 636.976 99.991 636.976 100.889V106H635.803V100.889C635.803 100.326 635.649 99.9231 635.341 99.6811C635.033 99.4392 634.67 99.3182 634.252 99.3182C633.715 99.3182 633.299 99.4806 633.004 99.8054C632.709 100.127 632.562 100.535 632.562 101.028V106H631.368V100.77C631.368 100.336 631.228 99.986 630.946 99.7209C630.664 99.4524 630.301 99.3182 629.857 99.3182C629.552 99.3182 629.267 99.3994 629.002 99.5618C628.74 99.7242 628.528 99.9496 628.366 100.238C628.207 100.523 628.127 100.853 628.127 101.227V106H626.954Z" fill="#404040"/>
<path d="M513.959 137V128.273H517.07C517.749 128.273 518.311 128.396 518.757 128.643C519.203 128.891 519.537 129.229 519.759 129.658C519.98 130.084 520.091 130.564 520.091 131.098C520.091 131.635 519.979 132.118 519.754 132.547C519.533 132.973 519.197 133.311 518.749 133.561C518.303 133.808 517.741 133.932 517.065 133.932H514.926V132.815H516.946C517.375 132.815 517.723 132.741 517.99 132.594C518.257 132.443 518.453 132.239 518.578 131.98C518.703 131.722 518.766 131.428 518.766 131.098C518.766 130.768 518.703 130.476 518.578 130.22C518.453 129.964 518.256 129.764 517.986 129.619C517.719 129.474 517.366 129.402 516.929 129.402H515.276V137H513.959ZM523.259 137.145C522.844 137.145 522.469 137.068 522.134 136.915C521.798 136.759 521.533 136.533 521.337 136.237C521.143 135.942 521.047 135.58 521.047 135.151C521.047 134.781 521.118 134.477 521.26 134.239C521.402 134 521.594 133.811 521.835 133.672C522.077 133.533 522.347 133.428 522.645 133.357C522.943 133.286 523.247 133.232 523.557 133.195C523.949 133.149 524.267 133.112 524.511 133.084C524.756 133.053 524.933 133.003 525.044 132.935C525.155 132.866 525.21 132.756 525.21 132.602V132.572C525.21 132.2 525.105 131.912 524.895 131.707C524.688 131.503 524.378 131.401 523.966 131.401C523.537 131.401 523.199 131.496 522.952 131.686C522.707 131.874 522.538 132.082 522.445 132.312L521.247 132.04C521.389 131.642 521.597 131.321 521.869 131.077C522.145 130.83 522.462 130.651 522.82 130.54C523.178 130.426 523.554 130.369 523.949 130.369C524.21 130.369 524.487 130.401 524.78 130.463C525.075 130.523 525.351 130.634 525.607 130.795C525.865 130.957 526.077 131.189 526.242 131.49C526.406 131.788 526.489 132.176 526.489 132.653V137H525.244V136.105H525.193C525.111 136.27 524.987 136.432 524.822 136.591C524.658 136.75 524.446 136.882 524.188 136.987C523.929 137.092 523.619 137.145 523.259 137.145ZM523.536 136.122C523.888 136.122 524.189 136.053 524.439 135.913C524.692 135.774 524.884 135.592 525.014 135.368C525.148 135.141 525.215 134.898 525.215 134.639V133.795C525.169 133.841 525.081 133.884 524.95 133.923C524.822 133.96 524.676 133.993 524.511 134.021C524.347 134.047 524.186 134.071 524.03 134.094C523.874 134.114 523.743 134.131 523.638 134.145C523.391 134.176 523.165 134.229 522.96 134.303C522.759 134.376 522.597 134.483 522.474 134.622C522.355 134.759 522.295 134.94 522.295 135.168C522.295 135.483 522.412 135.722 522.645 135.884C522.878 136.043 523.175 136.122 523.536 136.122ZM532.971 132.053L531.816 132.257C531.767 132.109 531.691 131.969 531.586 131.835C531.483 131.702 531.344 131.592 531.168 131.507C530.992 131.422 530.772 131.379 530.508 131.379C530.147 131.379 529.846 131.46 529.604 131.622C529.363 131.781 529.242 131.987 529.242 132.24C529.242 132.459 529.323 132.635 529.485 132.768C529.647 132.902 529.908 133.011 530.269 133.097L531.309 133.335C531.911 133.474 532.36 133.689 532.655 133.979C532.951 134.268 533.098 134.645 533.098 135.108C533.098 135.5 532.985 135.849 532.758 136.156C532.533 136.46 532.219 136.699 531.816 136.872C531.415 137.045 530.951 137.132 530.422 137.132C529.689 137.132 529.091 136.976 528.628 136.663C528.165 136.348 527.881 135.901 527.776 135.321L529.008 135.134C529.084 135.455 529.242 135.697 529.481 135.862C529.719 136.024 530.03 136.105 530.414 136.105C530.831 136.105 531.165 136.018 531.415 135.845C531.665 135.669 531.79 135.455 531.79 135.202C531.79 134.997 531.713 134.825 531.56 134.686C531.41 134.547 531.178 134.442 530.865 134.371L529.758 134.128C529.147 133.989 528.695 133.767 528.402 133.463C528.113 133.159 527.968 132.774 527.968 132.308C527.968 131.922 528.076 131.584 528.292 131.294C528.508 131.004 528.806 130.778 529.186 130.616C529.567 130.452 530.003 130.369 530.495 130.369C531.202 130.369 531.759 130.523 532.165 130.83C532.571 131.134 532.84 131.541 532.971 132.053ZM539.284 132.053L538.129 132.257C538.081 132.109 538.004 131.969 537.899 131.835C537.797 131.702 537.658 131.592 537.482 131.507C537.305 131.422 537.085 131.379 536.821 131.379C536.46 131.379 536.159 131.46 535.918 131.622C535.676 131.781 535.555 131.987 535.555 132.24C535.555 132.459 535.636 132.635 535.798 132.768C535.96 132.902 536.222 133.011 536.582 133.097L537.622 133.335C538.225 133.474 538.673 133.689 538.969 133.979C539.264 134.268 539.412 134.645 539.412 135.108C539.412 135.5 539.298 135.849 539.071 136.156C538.847 136.46 538.533 136.699 538.129 136.872C537.729 137.045 537.264 137.132 536.736 137.132C536.003 137.132 535.405 136.976 534.942 136.663C534.479 136.348 534.195 135.901 534.09 135.321L535.321 135.134C535.398 135.455 535.555 135.697 535.794 135.862C536.033 136.024 536.344 136.105 536.727 136.105C537.145 136.105 537.479 136.018 537.729 135.845C537.979 135.669 538.104 135.455 538.104 135.202C538.104 134.997 538.027 134.825 537.874 134.686C537.723 134.547 537.492 134.442 537.179 134.371L536.071 134.128C535.46 133.989 535.009 133.767 534.716 133.463C534.426 133.159 534.281 132.774 534.281 132.308C534.281 131.922 534.389 131.584 534.605 131.294C534.821 131.004 535.119 130.778 535.5 130.616C535.881 130.452 536.317 130.369 536.808 130.369C537.516 130.369 538.073 130.523 538.479 130.83C538.885 131.134 539.153 131.541 539.284 132.053ZM542.112 137L540.186 130.455H541.503L542.785 135.261H542.849L544.136 130.455H545.453L546.731 135.24H546.795L548.069 130.455H549.386L547.464 137H546.165L544.835 132.274H544.737L543.407 137H542.112ZM553.033 137.132C552.42 137.132 551.884 136.991 551.427 136.71C550.969 136.429 550.614 136.036 550.361 135.53C550.108 135.024 549.982 134.433 549.982 133.757C549.982 133.078 550.108 132.484 550.361 131.976C550.614 131.467 550.969 131.072 551.427 130.791C551.884 130.51 552.42 130.369 553.033 130.369C553.647 130.369 554.182 130.51 554.64 130.791C555.097 131.072 555.452 131.467 555.705 131.976C555.958 132.484 556.084 133.078 556.084 133.757C556.084 134.433 555.958 135.024 555.705 135.53C555.452 136.036 555.097 136.429 554.64 136.71C554.182 136.991 553.647 137.132 553.033 137.132ZM553.037 136.062C553.435 136.062 553.765 135.957 554.026 135.747C554.287 135.537 554.481 135.257 554.606 134.908C554.733 134.558 554.797 134.173 554.797 133.753C554.797 133.335 554.733 132.952 554.606 132.602C554.481 132.25 554.287 131.967 554.026 131.754C553.765 131.541 553.435 131.435 553.037 131.435C552.637 131.435 552.304 131.541 552.04 131.754C551.779 131.967 551.584 132.25 551.456 132.602C551.331 132.952 551.269 133.335 551.269 133.753C551.269 134.173 551.331 134.558 551.456 134.908C551.584 135.257 551.779 135.537 552.04 135.747C552.304 135.957 552.637 136.062 553.037 136.062ZM557.387 137V130.455H558.618V131.494H558.686C558.806 131.142 559.016 130.865 559.317 130.663C559.621 130.459 559.965 130.357 560.348 130.357C560.428 130.357 560.521 130.359 560.629 130.365C560.74 130.371 560.827 130.378 560.889 130.386V131.605C560.838 131.591 560.747 131.575 560.617 131.558C560.486 131.538 560.355 131.528 560.225 131.528C559.923 131.528 559.655 131.592 559.419 131.72C559.186 131.845 559.002 132.02 558.865 132.244C558.729 132.466 558.661 132.719 558.661 133.003V137H557.387ZM564.088 137.128C563.56 137.128 563.088 136.993 562.673 136.723C562.261 136.45 561.937 136.062 561.702 135.56C561.469 135.054 561.352 134.447 561.352 133.74C561.352 133.033 561.47 132.428 561.706 131.925C561.944 131.422 562.271 131.037 562.686 130.77C563.101 130.503 563.571 130.369 564.096 130.369C564.503 130.369 564.829 130.438 565.077 130.574C565.327 130.707 565.52 130.864 565.656 131.043C565.795 131.222 565.903 131.379 565.98 131.516H566.057V128.273H567.331V137H566.086V135.982H565.98C565.903 136.121 565.792 136.28 565.648 136.459C565.506 136.638 565.31 136.794 565.06 136.928C564.81 137.061 564.486 137.128 564.088 137.128ZM564.369 136.041C564.736 136.041 565.045 135.945 565.298 135.751C565.554 135.555 565.747 135.284 565.878 134.938C566.011 134.591 566.078 134.187 566.078 133.727C566.078 133.273 566.013 132.875 565.882 132.534C565.751 132.193 565.56 131.928 565.307 131.737C565.054 131.547 564.741 131.452 564.369 131.452C563.986 131.452 563.666 131.551 563.41 131.75C563.155 131.949 562.961 132.22 562.831 132.564C562.703 132.908 562.639 133.295 562.639 133.727C562.639 134.165 562.704 134.558 562.835 134.908C562.966 135.257 563.159 135.534 563.415 135.739C563.673 135.94 563.991 136.041 564.369 136.041Z" fill="#737373"/>
<rect x="513.5" y="148.5" width="243" height="29" stroke="#D4D4D4"/>
<path d="M526.233 168V157.818H532.378V158.912H527.466V162.352H532.06V163.446H527.466V166.906H532.457V168H526.233ZM535.474 163.406V168H534.301V160.364H535.435V161.557H535.534C535.713 161.169 535.985 160.857 536.349 160.622C536.714 160.384 537.185 160.264 537.761 160.264C538.278 160.264 538.731 160.37 539.119 160.582C539.506 160.791 539.808 161.109 540.023 161.537C540.239 161.961 540.347 162.498 540.347 163.148V168H539.173V163.227C539.173 162.627 539.017 162.16 538.706 161.825C538.394 161.487 537.967 161.318 537.423 161.318C537.049 161.318 536.714 161.399 536.419 161.562C536.127 161.724 535.897 161.961 535.728 162.273C535.559 162.584 535.474 162.962 535.474 163.406ZM545.672 160.364V161.358H541.714V160.364H545.672ZM542.868 158.534H544.041V165.812C544.041 166.144 544.089 166.393 544.185 166.558C544.284 166.721 544.41 166.83 544.563 166.886C544.719 166.939 544.883 166.966 545.055 166.966C545.184 166.966 545.29 166.959 545.373 166.946C545.456 166.929 545.522 166.916 545.572 166.906L545.811 167.96C545.731 167.99 545.62 168.02 545.478 168.05C545.335 168.083 545.154 168.099 544.936 168.099C544.604 168.099 544.279 168.028 543.961 167.886C543.646 167.743 543.385 167.526 543.176 167.234C542.97 166.943 542.868 166.575 542.868 166.131V158.534ZM550.416 168.159C549.68 168.159 549.046 167.997 548.512 167.672C547.982 167.344 547.572 166.886 547.284 166.3C546.999 165.71 546.856 165.024 546.856 164.241C546.856 163.459 546.999 162.77 547.284 162.173C547.572 161.573 547.973 161.106 548.487 160.771C549.004 160.433 549.607 160.264 550.297 160.264C550.695 160.264 551.087 160.33 551.475 160.463C551.863 160.596 552.216 160.811 552.534 161.109C552.852 161.404 553.106 161.795 553.295 162.283C553.484 162.77 553.578 163.37 553.578 164.082V164.58H547.692V163.565H552.385C552.385 163.134 552.299 162.75 552.126 162.412C551.957 162.074 551.715 161.807 551.4 161.612C551.089 161.416 550.721 161.318 550.297 161.318C549.829 161.318 549.425 161.434 549.084 161.666C548.746 161.895 548.485 162.193 548.303 162.561C548.121 162.929 548.03 163.323 548.03 163.744V164.42C548.03 164.997 548.129 165.486 548.328 165.887C548.53 166.285 548.81 166.588 549.168 166.797C549.526 167.002 549.942 167.105 550.416 167.105C550.724 167.105 551.003 167.062 551.251 166.976C551.503 166.886 551.72 166.754 551.903 166.578C552.085 166.399 552.226 166.177 552.325 165.912L553.459 166.23C553.339 166.615 553.139 166.953 552.857 167.244C552.575 167.533 552.227 167.758 551.813 167.92C551.399 168.08 550.933 168.159 550.416 168.159ZM555.223 168V160.364H556.356V161.517H556.436C556.575 161.139 556.827 160.833 557.192 160.597C557.556 160.362 557.967 160.244 558.425 160.244C558.511 160.244 558.618 160.246 558.748 160.249C558.877 160.253 558.975 160.258 559.041 160.264V161.457C559.001 161.447 558.91 161.433 558.768 161.413C558.628 161.389 558.481 161.378 558.325 161.378C557.954 161.378 557.622 161.456 557.331 161.612C557.042 161.764 556.814 161.976 556.645 162.248C556.479 162.516 556.396 162.823 556.396 163.168V168H555.223ZM564.248 168V157.818H567.689C568.488 157.818 569.14 157.962 569.648 158.251C570.158 158.536 570.536 158.922 570.781 159.409C571.026 159.896 571.149 160.44 571.149 161.04C571.149 161.64 571.026 162.185 570.781 162.675C570.539 163.166 570.165 163.557 569.658 163.849C569.15 164.137 568.501 164.281 567.709 164.281H565.243V163.188H567.669C568.216 163.188 568.655 163.093 568.986 162.904C569.318 162.715 569.558 162.46 569.707 162.138C569.86 161.814 569.936 161.447 569.936 161.04C569.936 160.632 569.86 160.268 569.707 159.946C569.558 159.625 569.316 159.373 568.981 159.19C568.647 159.005 568.202 158.912 567.649 158.912H565.481V168H564.248ZM575.083 168.179C574.599 168.179 574.16 168.088 573.766 167.906C573.371 167.72 573.058 167.453 572.826 167.105C572.594 166.754 572.478 166.33 572.478 165.832C572.478 165.395 572.564 165.04 572.737 164.768C572.909 164.493 573.139 164.278 573.428 164.122C573.716 163.966 574.034 163.85 574.382 163.774C574.734 163.695 575.087 163.632 575.441 163.585C575.905 163.526 576.281 163.481 576.57 163.451C576.861 163.418 577.074 163.363 577.206 163.287C577.342 163.211 577.41 163.078 577.41 162.889V162.849C577.41 162.359 577.276 161.978 577.007 161.706C576.742 161.434 576.339 161.298 575.799 161.298C575.239 161.298 574.8 161.421 574.482 161.666C574.163 161.911 573.94 162.173 573.81 162.452L572.697 162.054C572.896 161.59 573.161 161.229 573.492 160.97C573.827 160.708 574.192 160.526 574.586 160.423C574.984 160.317 575.375 160.264 575.759 160.264C576.005 160.264 576.286 160.294 576.605 160.354C576.926 160.41 577.236 160.528 577.534 160.707C577.836 160.886 578.086 161.156 578.285 161.517C578.484 161.878 578.583 162.362 578.583 162.969V168H577.41V166.966H577.35C577.271 167.132 577.138 167.309 576.953 167.498C576.767 167.687 576.52 167.848 576.212 167.98C575.904 168.113 575.527 168.179 575.083 168.179ZM575.262 167.125C575.726 167.125 576.117 167.034 576.435 166.852C576.757 166.669 576.999 166.434 577.161 166.146C577.327 165.857 577.41 165.554 577.41 165.236V164.162C577.36 164.222 577.251 164.276 577.082 164.326C576.916 164.372 576.724 164.414 576.505 164.45C576.29 164.483 576.079 164.513 575.874 164.54C575.672 164.563 575.507 164.583 575.382 164.599C575.077 164.639 574.792 164.704 574.526 164.793C574.265 164.879 574.052 165.01 573.89 165.186C573.731 165.358 573.651 165.594 573.651 165.892C573.651 166.3 573.802 166.608 574.104 166.817C574.409 167.022 574.795 167.125 575.262 167.125ZM585.994 162.074L584.94 162.372C584.874 162.196 584.776 162.026 584.647 161.86C584.521 161.691 584.348 161.552 584.129 161.442C583.911 161.333 583.631 161.278 583.289 161.278C582.822 161.278 582.432 161.386 582.121 161.602C581.813 161.814 581.659 162.084 581.659 162.412C581.659 162.704 581.765 162.934 581.977 163.103C582.189 163.272 582.52 163.413 582.971 163.526L584.105 163.804C584.787 163.97 585.296 164.223 585.631 164.565C585.966 164.903 586.133 165.339 586.133 165.872C586.133 166.31 586.007 166.701 585.755 167.045C585.507 167.39 585.159 167.662 584.711 167.861C584.264 168.06 583.743 168.159 583.15 168.159C582.371 168.159 581.727 167.99 581.216 167.652C580.706 167.314 580.383 166.82 580.247 166.17L581.36 165.892C581.466 166.303 581.667 166.611 581.962 166.817C582.26 167.022 582.65 167.125 583.13 167.125C583.677 167.125 584.111 167.009 584.433 166.777C584.758 166.542 584.92 166.26 584.92 165.932C584.92 165.667 584.827 165.445 584.642 165.266C584.456 165.083 584.171 164.947 583.786 164.858L582.514 164.56C581.814 164.394 581.301 164.137 580.973 163.789C580.648 163.438 580.485 162.999 580.485 162.472C580.485 162.041 580.606 161.66 580.848 161.328C581.093 160.997 581.427 160.737 581.848 160.548C582.272 160.359 582.752 160.264 583.289 160.264C584.045 160.264 584.638 160.43 585.069 160.761C585.503 161.093 585.812 161.53 585.994 162.074ZM593.168 162.074L592.114 162.372C592.048 162.196 591.95 162.026 591.821 161.86C591.695 161.691 591.523 161.552 591.304 161.442C591.085 161.333 590.805 161.278 590.464 161.278C589.996 161.278 589.607 161.386 589.295 161.602C588.987 161.814 588.833 162.084 588.833 162.412C588.833 162.704 588.939 162.934 589.151 163.103C589.363 163.272 589.695 163.413 590.146 163.526L591.279 163.804C591.962 163.97 592.471 164.223 592.805 164.565C593.14 164.903 593.307 165.339 593.307 165.872C593.307 166.31 593.182 166.701 592.93 167.045C592.681 167.39 592.333 167.662 591.886 167.861C591.438 168.06 590.918 168.159 590.325 168.159C589.546 168.159 588.901 167.99 588.391 167.652C587.88 167.314 587.557 166.82 587.421 166.17L588.535 165.892C588.641 166.303 588.841 166.611 589.136 166.817C589.435 167.022 589.824 167.125 590.305 167.125C590.852 167.125 591.286 167.009 591.607 166.777C591.932 166.542 592.094 166.26 592.094 165.932C592.094 165.667 592.002 165.445 591.816 165.266C591.63 165.083 591.345 164.947 590.961 164.858L589.688 164.56C588.989 164.394 588.475 164.137 588.147 163.789C587.822 163.438 587.66 162.999 587.66 162.472C587.66 162.041 587.781 161.66 588.023 161.328C588.268 160.997 588.601 160.737 589.022 160.548C589.446 160.359 589.927 160.264 590.464 160.264C591.219 160.264 591.813 160.43 592.244 160.761C592.678 161.093 592.986 161.53 593.168 162.074ZM596.664 168L594.337 160.364H595.57L597.221 166.21H597.3L598.931 160.364H600.184L601.794 166.19H601.874L603.525 160.364H604.757L602.431 168H601.277L599.607 162.134H599.488L597.817 168H596.664ZM609.011 168.159C608.322 168.159 607.717 167.995 607.197 167.667C606.679 167.339 606.275 166.88 605.983 166.29C605.695 165.7 605.551 165.01 605.551 164.222C605.551 163.426 605.695 162.732 605.983 162.138C606.275 161.545 606.679 161.085 607.197 160.756C607.717 160.428 608.322 160.264 609.011 160.264C609.701 160.264 610.304 160.428 610.821 160.756C611.341 161.085 611.746 161.545 612.034 162.138C612.326 162.732 612.471 163.426 612.471 164.222C612.471 165.01 612.326 165.7 612.034 166.29C611.746 166.88 611.341 167.339 610.821 167.667C610.304 167.995 609.701 168.159 609.011 168.159ZM609.011 167.105C609.535 167.105 609.966 166.971 610.304 166.702C610.642 166.434 610.892 166.081 611.054 165.643C611.217 165.206 611.298 164.732 611.298 164.222C611.298 163.711 611.217 163.236 611.054 162.795C610.892 162.354 610.642 161.998 610.304 161.726C609.966 161.454 609.535 161.318 609.011 161.318C608.487 161.318 608.057 161.454 607.719 161.726C607.38 161.998 607.13 162.354 606.968 162.795C606.805 163.236 606.724 163.711 606.724 164.222C606.724 164.732 606.805 165.206 606.968 165.643C607.13 166.081 607.38 166.434 607.719 166.702C608.057 166.971 608.487 167.105 609.011 167.105ZM614.122 168V160.364H615.256V161.517H615.335C615.475 161.139 615.727 160.833 616.091 160.597C616.456 160.362 616.867 160.244 617.324 160.244C617.41 160.244 617.518 160.246 617.647 160.249C617.776 160.253 617.874 160.258 617.941 160.264V161.457C617.901 161.447 617.81 161.433 617.667 161.413C617.528 161.389 617.38 161.378 617.225 161.378C616.853 161.378 616.522 161.456 616.23 161.612C615.942 161.764 615.713 161.976 615.544 162.248C615.379 162.516 615.296 162.823 615.296 163.168V168H614.122ZM621.842 168.159C621.206 168.159 620.644 167.998 620.157 167.677C619.67 167.352 619.289 166.895 619.014 166.305C618.739 165.711 618.601 165.01 618.601 164.202C618.601 163.4 618.739 162.704 619.014 162.114C619.289 161.524 619.672 161.068 620.162 160.746C620.653 160.425 621.219 160.264 621.862 160.264C622.36 160.264 622.752 160.347 623.041 160.513C623.332 160.675 623.554 160.861 623.707 161.07C623.863 161.275 623.984 161.444 624.07 161.577H624.169V157.818H625.342V168H624.209V166.827H624.07C623.984 166.966 623.861 167.142 623.702 167.354C623.543 167.562 623.316 167.75 623.021 167.915C622.726 168.078 622.333 168.159 621.842 168.159ZM622.002 167.105C622.472 167.105 622.87 166.982 623.195 166.737C623.52 166.489 623.766 166.146 623.936 165.708C624.105 165.267 624.189 164.759 624.189 164.182C624.189 163.612 624.106 163.113 623.94 162.685C623.775 162.254 623.529 161.92 623.205 161.681C622.88 161.439 622.479 161.318 622.002 161.318C621.504 161.318 621.09 161.446 620.759 161.701C620.431 161.953 620.184 162.296 620.018 162.73C619.855 163.161 619.774 163.645 619.774 164.182C619.774 164.725 619.857 165.219 620.023 165.663C620.192 166.104 620.44 166.455 620.769 166.717C621.1 166.976 621.511 167.105 622.002 167.105Z" fill="#404040"/>
<path d="M740 165.698C739.466 165.698 738.944 165.54 738.5 165.243C738.056 164.946 737.71 164.525 737.506 164.031C737.301 163.538 737.248 162.995 737.352 162.471C737.456 161.948 737.713 161.467 738.091 161.089C738.468 160.711 738.95 160.454 739.473 160.35C739.997 160.246 740.54 160.299 741.033 160.504C741.527 160.708 741.948 161.054 742.245 161.498C742.542 161.942 742.7 162.464 742.7 162.998C742.698 163.714 742.413 164.399 741.907 164.905C741.401 165.411 740.715 165.696 740 165.698ZM740 161.423C739.688 161.423 739.384 161.515 739.125 161.689C738.866 161.862 738.664 162.108 738.545 162.395C738.426 162.683 738.394 163 738.455 163.305C738.516 163.611 738.666 163.892 738.886 164.112C739.107 164.332 739.387 164.482 739.693 164.543C739.998 164.604 740.315 164.572 740.603 164.453C740.891 164.334 741.137 164.132 741.31 163.873C741.483 163.614 741.575 163.31 741.575 162.998C741.575 162.58 741.409 162.18 741.114 161.884C740.818 161.589 740.418 161.423 740 161.423ZM740 169.981C737.968 169.887 736.035 169.074 734.548 167.686C732.912 166.253 731.938 164.498 731.938 162.998C731.938 159.668 736.16 156.016 740 156.016C743.84 156.016 748.062 159.766 748.062 162.998C748.062 166.388 743.915 169.981 740 169.981ZM740 157.141C736.827 157.141 733.062 160.313 733.062 162.998C733.062 164.168 733.918 165.638 735.312 166.838C736.593 168.035 738.25 168.749 740 168.856C743.57 168.856 746.938 165.556 746.938 162.998C746.938 160.576 743.352 157.141 740 157.141Z" fill="#737373"/>
<rect x="513" y="199" width="244" height="38" rx="6" fill="#DAC0FE"/>
<path d="M616.472 215.562C616.419 215.066 616.195 214.68 615.801 214.403C615.411 214.127 614.903 213.989 614.278 213.989C613.839 213.989 613.462 214.055 613.148 214.188C612.833 214.32 612.593 214.5 612.426 214.727C612.259 214.955 612.174 215.214 612.17 215.506C612.17 215.748 612.225 215.958 612.335 216.136C612.449 216.314 612.602 216.466 612.795 216.591C612.989 216.712 613.203 216.814 613.438 216.898C613.672 216.981 613.909 217.051 614.148 217.108L615.239 217.381C615.678 217.483 616.1 217.621 616.506 217.795C616.915 217.97 617.28 218.189 617.602 218.455C617.928 218.72 618.186 219.04 618.375 219.415C618.564 219.79 618.659 220.229 618.659 220.733C618.659 221.415 618.485 222.015 618.136 222.534C617.788 223.049 617.284 223.453 616.625 223.744C615.97 224.032 615.176 224.176 614.244 224.176C613.339 224.176 612.553 224.036 611.886 223.756C611.223 223.475 610.705 223.066 610.33 222.528C609.958 221.991 609.758 221.335 609.727 220.562H611.801C611.831 220.968 611.956 221.305 612.176 221.574C612.396 221.843 612.682 222.044 613.034 222.176C613.39 222.309 613.788 222.375 614.227 222.375C614.686 222.375 615.087 222.307 615.432 222.17C615.78 222.03 616.053 221.837 616.25 221.591C616.447 221.341 616.547 221.049 616.551 220.716C616.547 220.413 616.458 220.163 616.284 219.966C616.11 219.765 615.866 219.598 615.551 219.466C615.241 219.33 614.877 219.208 614.46 219.102L613.136 218.761C612.178 218.515 611.42 218.142 610.864 217.642C610.311 217.138 610.034 216.47 610.034 215.636C610.034 214.951 610.22 214.35 610.591 213.835C610.966 213.32 611.475 212.92 612.119 212.636C612.763 212.348 613.492 212.205 614.307 212.205C615.133 212.205 615.856 212.348 616.477 212.636C617.102 212.92 617.593 213.316 617.949 213.824C618.305 214.328 618.489 214.907 618.5 215.562H616.472ZM620.447 224V215.273H622.504V224H620.447ZM621.482 214.034C621.156 214.034 620.875 213.926 620.641 213.71C620.406 213.491 620.288 213.227 620.288 212.92C620.288 212.61 620.406 212.347 620.641 212.131C620.875 211.911 621.156 211.801 621.482 211.801C621.811 211.801 622.091 211.911 622.322 212.131C622.557 212.347 622.675 212.61 622.675 212.92C622.675 213.227 622.557 213.491 622.322 213.71C622.091 213.926 621.811 214.034 621.482 214.034ZM628.415 227.455C627.676 227.455 627.042 227.354 626.511 227.153C625.981 226.956 625.555 226.691 625.233 226.358C624.911 226.025 624.688 225.655 624.562 225.25L626.415 224.801C626.498 224.972 626.619 225.14 626.778 225.307C626.938 225.477 627.152 225.617 627.42 225.727C627.693 225.841 628.036 225.898 628.449 225.898C629.032 225.898 629.515 225.756 629.898 225.472C630.28 225.191 630.472 224.729 630.472 224.085V222.432H630.369C630.263 222.644 630.108 222.862 629.903 223.085C629.703 223.309 629.436 223.496 629.102 223.648C628.773 223.799 628.358 223.875 627.858 223.875C627.188 223.875 626.58 223.718 626.034 223.403C625.492 223.085 625.061 222.612 624.739 221.983C624.42 221.35 624.261 220.559 624.261 219.608C624.261 218.65 624.42 217.841 624.739 217.182C625.061 216.519 625.494 216.017 626.04 215.676C626.585 215.331 627.193 215.159 627.864 215.159C628.375 215.159 628.795 215.246 629.125 215.42C629.458 215.591 629.723 215.797 629.92 216.04C630.117 216.278 630.267 216.504 630.369 216.716H630.483V215.273H632.511V224.142C632.511 224.888 632.333 225.506 631.977 225.994C631.621 226.483 631.134 226.848 630.517 227.091C629.9 227.333 629.199 227.455 628.415 227.455ZM628.432 222.261C628.867 222.261 629.239 222.155 629.545 221.943C629.852 221.731 630.085 221.426 630.244 221.028C630.403 220.631 630.483 220.153 630.483 219.597C630.483 219.047 630.403 218.566 630.244 218.153C630.089 217.741 629.858 217.42 629.551 217.193C629.248 216.962 628.875 216.847 628.432 216.847C627.973 216.847 627.591 216.966 627.284 217.205C626.977 217.443 626.746 217.771 626.591 218.188C626.436 218.6 626.358 219.07 626.358 219.597C626.358 220.131 626.436 220.598 626.591 221C626.75 221.398 626.983 221.708 627.29 221.932C627.6 222.152 627.981 222.261 628.432 222.261ZM636.676 218.886V224H634.619V215.273H636.585V216.756H636.688C636.888 216.267 637.208 215.879 637.648 215.591C638.091 215.303 638.638 215.159 639.29 215.159C639.892 215.159 640.417 215.288 640.864 215.545C641.314 215.803 641.663 216.176 641.909 216.665C642.159 217.153 642.282 217.746 642.278 218.443V224H640.222V218.761C640.222 218.178 640.07 217.722 639.767 217.392C639.468 217.062 639.053 216.898 638.523 216.898C638.163 216.898 637.843 216.977 637.562 217.136C637.286 217.292 637.068 217.517 636.909 217.812C636.754 218.108 636.676 218.466 636.676 218.886ZM650.537 212.364V224H648.429V212.364H650.537ZM654.786 218.886V224H652.729V215.273H654.695V216.756H654.797C654.998 216.267 655.318 215.879 655.757 215.591C656.2 215.303 656.748 215.159 657.399 215.159C658.001 215.159 658.526 215.288 658.973 215.545C659.424 215.803 659.772 216.176 660.018 216.665C660.268 217.153 660.392 217.746 660.388 218.443V224H658.331V218.761C658.331 218.178 658.179 217.722 657.876 217.392C657.577 217.062 657.162 216.898 656.632 216.898C656.272 216.898 655.952 216.977 655.672 217.136C655.395 217.292 655.178 217.517 655.018 217.812C654.863 218.108 654.786 218.466 654.786 218.886Z" fill="#7500FD"/>
<path d="M615.355 38.7102C615.31 38.2519 615.115 37.8958 614.77 37.642C614.425 37.3883 613.957 37.2614 613.366 37.2614C612.965 37.2614 612.626 37.3182 612.349 37.4318C612.073 37.5417 611.861 37.6951 611.713 37.892C611.569 38.089 611.497 38.3125 611.497 38.5625C611.49 38.7708 611.533 38.9527 611.628 39.108C611.726 39.2633 611.861 39.3977 612.031 39.5114C612.202 39.6212 612.399 39.7178 612.622 39.8011C612.846 39.8807 613.084 39.9489 613.338 40.0057L614.384 40.2557C614.891 40.3693 615.357 40.5208 615.781 40.7102C616.205 40.8996 616.573 41.1326 616.884 41.4091C617.194 41.6856 617.435 42.0114 617.605 42.3864C617.779 42.7614 617.868 43.1913 617.872 43.6761C617.868 44.3883 617.687 45.0057 617.327 45.5284C616.971 46.0473 616.455 46.4508 615.781 46.7386C615.111 47.0227 614.302 47.1648 613.355 47.1648C612.416 47.1648 611.598 47.0208 610.901 46.733C610.207 46.4451 609.666 46.0189 609.276 45.4545C608.889 44.8864 608.687 44.1837 608.668 43.3466H611.048C611.075 43.7367 611.187 44.0625 611.384 44.3239C611.584 44.5814 611.851 44.7765 612.185 44.9091C612.522 45.0379 612.902 45.1023 613.327 45.1023C613.743 45.1023 614.105 45.0417 614.412 44.9205C614.723 44.7992 614.963 44.6307 615.134 44.4148C615.304 44.1989 615.389 43.9508 615.389 43.6705C615.389 43.4091 615.312 43.1894 615.156 43.0114C615.005 42.8333 614.781 42.6818 614.486 42.5568C614.194 42.4318 613.836 42.3182 613.412 42.2159L612.145 41.8977C611.164 41.6591 610.389 41.286 609.821 40.7784C609.253 40.2708 608.971 39.5871 608.974 38.7273C608.971 38.0227 609.158 37.4072 609.537 36.8807C609.92 36.3542 610.444 35.9432 611.111 35.6477C611.777 35.3523 612.535 35.2045 613.384 35.2045C614.247 35.2045 615.001 35.3523 615.645 35.6477C616.293 35.9432 616.796 36.3542 617.156 36.8807C617.516 37.4072 617.702 38.017 617.713 38.7102H615.355ZM619.482 47V38.2727H621.902V47H619.482ZM620.697 37.1477C620.338 37.1477 620.029 37.0284 619.771 36.7898C619.518 36.5473 619.391 36.2576 619.391 35.9205C619.391 35.5871 619.518 35.3011 619.771 35.0625C620.029 34.8201 620.338 34.6989 620.697 34.6989C621.057 34.6989 621.364 34.8201 621.618 35.0625C621.875 35.3011 622.004 35.5871 622.004 35.9205C622.004 36.2576 621.875 36.5473 621.618 36.7898C621.364 37.0284 621.057 37.1477 620.697 37.1477ZM627.773 50.4545C626.989 50.4545 626.316 50.3466 625.756 50.1307C625.199 49.9186 624.756 49.6288 624.426 49.2614C624.097 48.8939 623.883 48.4811 623.784 48.0227L626.023 47.7216C626.091 47.8958 626.199 48.0587 626.347 48.2102C626.494 48.3617 626.689 48.483 626.932 48.5739C627.178 48.6686 627.477 48.7159 627.83 48.7159C628.356 48.7159 628.79 48.5871 629.131 48.3295C629.475 48.0758 629.648 47.6496 629.648 47.0511V45.4545H629.545C629.439 45.697 629.28 45.9261 629.068 46.142C628.856 46.358 628.583 46.5341 628.25 46.6705C627.917 46.8068 627.519 46.875 627.057 46.875C626.402 46.875 625.805 46.7235 625.267 46.4205C624.733 46.1136 624.307 45.6458 623.989 45.017C623.674 44.3845 623.517 43.5852 623.517 42.6193C623.517 41.6307 623.678 40.8049 624 40.142C624.322 39.4792 624.75 38.983 625.284 38.6534C625.822 38.3239 626.411 38.1591 627.051 38.1591C627.54 38.1591 627.949 38.2424 628.278 38.4091C628.608 38.572 628.873 38.7765 629.074 39.0227C629.278 39.2652 629.436 39.5038 629.545 39.7386H629.636V38.2727H632.04V47.0852C632.04 47.8277 631.858 48.4489 631.494 48.9489C631.131 49.4489 630.627 49.8239 629.983 50.0739C629.343 50.3277 628.606 50.4545 627.773 50.4545ZM627.824 45.0568C628.214 45.0568 628.544 44.9602 628.812 44.767C629.085 44.5701 629.294 44.2898 629.438 43.9261C629.585 43.5587 629.659 43.1193 629.659 42.608C629.659 42.0966 629.587 41.6534 629.443 41.2784C629.299 40.8996 629.091 40.6061 628.818 40.3977C628.545 40.1894 628.214 40.0852 627.824 40.0852C627.426 40.0852 627.091 40.1932 626.818 40.4091C626.545 40.6212 626.339 40.9167 626.199 41.2955C626.059 41.6742 625.989 42.1117 625.989 42.608C625.989 43.1117 626.059 43.5473 626.199 43.9148C626.343 44.2784 626.549 44.5606 626.818 44.7614C627.091 44.9583 627.426 45.0568 627.824 45.0568ZM636.386 41.9545V47H633.966V38.2727H636.273V39.8125H636.375C636.568 39.3049 636.892 38.9034 637.347 38.608C637.801 38.3087 638.352 38.1591 639 38.1591C639.606 38.1591 640.134 38.2917 640.585 38.5568C641.036 38.822 641.386 39.2008 641.636 39.6932C641.886 40.1818 642.011 40.7652 642.011 41.4432V47H639.591V41.875C639.595 41.3409 639.458 40.9242 639.182 40.625C638.905 40.322 638.525 40.1705 638.04 40.1705C637.714 40.1705 637.426 40.2405 637.176 40.3807C636.93 40.5208 636.737 40.7254 636.597 40.9943C636.46 41.2595 636.39 41.5795 636.386 41.9545ZM647.622 47V38.2727H650.043V47H647.622ZM648.838 37.1477C648.478 37.1477 648.17 37.0284 647.912 36.7898C647.658 36.5473 647.531 36.2576 647.531 35.9205C647.531 35.5871 647.658 35.3011 647.912 35.0625C648.17 34.8201 648.478 34.6989 648.838 34.6989C649.198 34.6989 649.505 34.8201 649.759 35.0625C650.016 35.3011 650.145 35.5871 650.145 35.9205C650.145 36.2576 650.016 36.5473 649.759 36.7898C649.505 37.0284 649.198 37.1477 648.838 37.1477ZM654.402 41.9545V47H651.982V38.2727H654.288V39.8125H654.391C654.584 39.3049 654.908 38.9034 655.362 38.608C655.817 38.3087 656.368 38.1591 657.016 38.1591C657.622 38.1591 658.15 38.2917 658.601 38.5568C659.052 38.822 659.402 39.2008 659.652 39.6932C659.902 40.1818 660.027 40.7652 660.027 41.4432V47H657.607V41.875C657.61 41.3409 657.474 40.9242 657.197 40.625C656.921 40.322 656.54 40.1705 656.055 40.1705C655.73 40.1705 655.442 40.2405 655.192 40.3807C654.946 40.5208 654.752 40.7254 654.612 40.9943C654.476 41.2595 654.406 41.5795 654.402 41.9545Z" fill="#404040"/>
<defs>
<filter id="filter0_d_797_38176" x="472" y="0" width="326" height="283" filterUnits="userSpaceOnUse" color-interpolation-filters="sRGB">
<feFlood flood-opacity="0" result="BackgroundImageFix"/>
<feColorMatrix in="SourceAlpha" type="matrix" values="0 0 0 0 0 0 0 0 0 0 0 0 0 0 0 0 0 0 127 0" result="hardAlpha"/>
<feOffset dy="4"/>
<feGaussianBlur stdDeviation="12"/>
<feComposite in2="hardAlpha" operator="out"/>
<feColorMatrix type="matrix" values="0 0 0 0 0 0 0 0 0 0 0 0 0 0 0 0 0 0 0.1 0"/>
<feBlend mode="normal" in2="BackgroundImageFix" result="effect1_dropShadow_797_38176"/>
<feBlend mode="normal" in="SourceGraphic" in2="effect1_dropShadow_797_38176" result="shape"/>
</filter>
</defs>
</svg>
