<svg width="748" height="318" viewBox="0 0 748 318" fill="none" xmlns="http://www.w3.org/2000/svg">
<path d="M685.228 300.09H628.92V257.555H513.734V204.733L513.875 204.566L629.241 67.4336H685.228V207.301H713.792V257.555H685.228V300.09ZM630.119 298.891H684.029V256.356H712.593V208.5H684.029V68.6328H629.798L514.934 205.17V256.356H630.12L630.119 298.891ZM630.119 208.501H567.361L630.119 134.65V208.501ZM569.953 207.301H628.92V137.913L569.953 207.301Z" fill="#D3CCFF"/>
<path d="M690.172 218.328C690.271 216.392 692.37 215.032 694.302 215.146C696.234 215.26 697.939 216.463 699.327 217.821C701.573 220.018 703.148 222.495 704.68 225.155C704.397 222.255 704.22 219.346 704.134 216.441C704.078 214.52 704.064 212.596 704.091 210.671C699.736 210.421 695.463 208.843 691.999 206.19C690.686 205.184 689.391 203.802 689.479 202.151C689.581 200.221 691.681 198.862 693.609 198.971C695.539 199.08 697.238 200.274 698.62 201.622C700.942 203.887 702.542 206.456 704.12 209.217C704.272 203.287 704.84 197.366 705.92 191.538C701.731 190.576 697.834 188.363 694.878 185.24C693.742 184.039 692.681 182.469 693.029 180.852C693.437 178.964 695.725 177.955 697.612 178.368C699.499 178.781 700.988 180.23 702.139 181.781C704.005 184.295 705.162 186.98 706.248 189.84C707.482 183.715 709.322 177.475 712.731 172.216C712.802 172.106 712.878 172 712.95 171.891C708.886 170.352 705.294 167.58 702.787 164.028C701.833 162.678 701.008 160.972 701.583 159.422C702.256 157.611 704.665 156.938 706.474 157.617C708.283 158.295 709.549 159.942 710.467 161.641C712.085 164.636 712.845 167.713 713.556 170.99C717.659 165.023 722.88 159.787 726.772 153.689C722.622 152.166 718.948 149.363 716.398 145.75C715.444 144.399 714.619 142.694 715.195 141.144C715.868 139.332 718.277 138.66 720.086 139.339C721.895 140.017 723.161 141.663 724.079 143.363C725.74 146.439 726.496 149.6 727.224 152.977C728.17 151.436 729.027 149.838 729.755 148.155C731.228 144.748 731.957 141.058 732.064 137.317C727.555 136.97 723.164 135.193 719.691 132.294C718.422 131.234 717.186 129.798 717.342 128.152C717.526 126.229 719.681 124.959 721.603 125.149C723.526 125.339 725.174 126.603 726.498 128.009C728.928 130.587 730.482 133.49 732.078 136.612C732.126 130.572 730.572 124.437 727.898 119.174C723.875 118.363 720.085 116.409 717.107 113.584C715.908 112.445 714.765 110.934 715.026 109.302C715.332 107.394 717.563 106.263 719.469 106.575C721.376 106.887 722.94 108.253 724.173 109.741C726.139 112.114 727.428 114.689 728.649 117.438C728.74 117.502 728.823 117.59 728.888 117.71C731.264 122.139 732.717 127.037 733.294 132.023C733.422 133.123 733.509 134.233 733.556 135.345C734.908 131.589 737.294 128.206 740.399 125.694C741.685 124.654 743.333 123.719 744.917 124.192C746.769 124.745 747.597 127.105 747.039 128.954C746.48 130.804 744.92 132.175 743.284 133.203C740.232 135.119 737.027 136.081 733.588 137.058C733.582 139.395 733.359 141.729 732.806 143.996C731.97 147.429 730.509 150.559 728.711 153.51C731.671 150.648 735.447 148.631 739.479 147.788C741.097 147.449 742.991 147.369 744.184 148.513C745.579 149.85 745.238 152.328 743.898 153.719C742.557 155.109 740.543 155.617 738.618 155.785C734.93 156.105 731.557 155.457 727.943 154.732C724.837 159.513 720.921 163.853 717.461 168.307C716.372 169.709 715.33 171.132 714.371 172.603C717.424 169.336 721.495 167.031 725.872 166.111C727.49 165.77 729.383 165.687 730.578 166.83C731.975 168.165 731.638 170.643 730.299 172.035C728.96 173.428 726.947 173.938 725.022 174.108C721.25 174.441 717.807 173.759 714.098 173.02C713.092 174.599 712.188 176.24 711.437 177.984C710.064 181.174 709.056 184.515 708.26 187.892C708.048 188.79 707.854 189.692 707.67 190.597C710.145 187.384 713.52 184.867 717.315 183.436C718.862 182.852 720.72 182.481 722.076 183.428C723.66 184.534 723.706 187.034 722.595 188.615C721.484 190.195 719.573 191.008 717.696 191.469C714.23 192.323 710.914 192.24 707.381 192.091C706.328 197.785 705.81 203.589 705.671 209.377C707.351 205.493 710.17 202.105 713.701 199.77C715.08 198.857 716.81 198.084 718.342 198.706C720.132 199.434 720.731 201.862 719.998 203.649C719.265 205.437 717.582 206.653 715.855 207.519C712.578 209.163 709.237 209.809 705.651 210.464C705.639 211.232 705.631 211.999 705.631 212.765C705.633 216.972 705.826 221.194 706.252 225.392C707.946 221.634 710.711 218.361 714.15 216.087C715.53 215.174 717.259 214.401 718.791 215.023C720.581 215.75 721.18 218.179 720.447 219.967C719.714 221.754 718.03 222.97 716.303 223.836C713.116 225.435 709.869 226.09 706.395 226.727C706.938 231.506 707.792 236.247 709.028 240.889C709.286 241.856 707.768 242.189 707.512 241.224C706.263 236.537 705.411 231.746 704.865 226.921C700.491 226.665 696.193 225.069 692.708 222.389C691.39 221.378 690.089 219.986 690.172 218.328Z" fill="#DAC0FE"/>
<path d="M195.629 296.625H139.321V254.09H24.1355V201.268L24.2764 201.101L139.642 63.9688H195.629V203.836H224.193V254.09H195.629V296.625ZM140.52 295.426H194.43V252.891H222.994V205.036H194.43V65.1674H140.2L25.3347 201.706V252.891H140.52V295.426ZM140.52 205.035H77.762L140.52 131.185V205.035ZM80.3542 203.836H139.321V134.448L80.3542 203.836Z" fill="#D3CCFF"/>
<path d="M102.38 150.341C102.06 149.03 100.857 148.043 99.5381 147.766C98.2196 147.489 96.8249 147.847 95.6592 148.523C94.4935 149.199 93.53 150.175 92.654 151.2C91.2048 152.897 89.9317 154.835 89.3625 156.974C87.7752 154.109 86.4101 151.121 85.279 148.043C85.1762 147.763 85.0785 147.481 84.9797 147.2C87.2242 146.55 89.4681 145.902 91.7127 145.252C93.2101 144.819 94.748 144.366 95.9762 143.405C97.2038 142.444 98.0639 140.841 97.6941 139.324C97.3742 138.013 96.171 137.026 94.8519 136.75C93.5334 136.473 92.1387 136.83 90.973 137.506C89.8073 138.183 88.8438 139.158 87.9678 140.184C86.4732 141.934 85.1643 143.941 84.624 146.16C83.4742 142.707 82.6136 139.158 82.0563 135.562C84.3048 134.817 86.5533 134.072 88.8023 133.327C90.2816 132.837 91.8013 132.324 92.9914 131.317C94.1816 130.309 94.9797 128.675 94.552 127.173C94.1821 125.876 92.942 124.935 91.6132 124.71C90.2845 124.484 88.9052 124.894 87.7661 125.615C86.6271 126.335 85.7017 127.347 84.8655 128.405C83.5276 130.099 82.3608 132.013 81.8455 134.091C81.5018 131.481 81.3144 128.85 81.2945 126.216C81.2882 125.437 81.3024 124.657 81.3257 123.878C83.6128 123.036 85.9005 122.194 88.1877 121.352C89.6505 120.813 91.1525 120.251 92.3086 119.205C93.4652 118.159 94.2089 116.498 93.7322 115.012C93.3204 113.727 92.0495 112.829 90.7145 112.647C89.3795 112.465 88.0138 112.92 86.8992 113.678C85.7846 114.436 84.8927 115.478 84.0917 116.563C82.9476 118.113 81.9483 119.834 81.428 121.674C81.6024 119.037 81.9455 116.41 82.4585 113.815C84.0287 112.031 85.5983 110.247 87.1685 108.462C88.199 107.291 89.2528 106.081 89.7726 104.61C90.2924 103.138 90.1578 101.324 89.0324 100.244C88.0593 99.3097 86.5152 99.1246 85.2546 99.6012C83.994 100.077 83.0101 101.129 82.3897 102.327C81.7694 103.525 81.4802 104.866 81.2916 106.202C80.944 108.664 80.94 111.262 81.8671 113.554C81.8648 113.563 81.8614 113.569 81.8597 113.578C81.3087 116.34 80.9502 119.137 80.7798 121.945C80.2134 120.021 79.1039 118.247 77.8439 116.665C77.0037 115.61 76.0737 114.602 74.9319 113.885C73.79 113.169 72.4084 112.764 71.0813 112.994C69.7537 113.225 68.5176 114.17 68.1528 115.469C67.7313 116.972 68.5363 118.604 69.7304 119.607C70.9246 120.61 72.4465 121.116 73.928 121.601C76.1845 122.34 78.4409 123.077 80.6974 123.815C80.5906 127.257 80.765 130.708 81.2127 134.125C80.189 132.278 78.6 130.744 76.9014 129.461C75.826 128.647 74.6757 127.902 73.3918 127.492C72.1085 127.081 70.6695 127.033 69.4407 127.586C68.2119 128.139 67.2484 129.362 67.2178 130.711C67.182 132.271 68.3659 133.652 69.7713 134.327C71.1768 135.002 72.7765 135.114 74.3314 135.215C76.6992 135.369 79.0664 135.523 81.4342 135.677C81.4507 135.784 81.4655 135.892 81.4825 135.999C82.0478 139.508 82.8993 142.97 84.0202 146.34C82.6187 144.434 80.5383 143.08 78.387 142.058C77.1696 141.48 75.8919 140.983 74.5524 140.841C73.2123 140.7 71.7937 140.943 70.7024 141.735C69.6111 142.526 68.9147 143.919 69.1572 145.247C69.4379 146.782 70.8763 147.894 72.3891 148.27C73.9019 148.646 75.4909 148.431 77.0344 148.215C79.4595 147.875 81.8853 147.535 84.3105 147.195C84.3269 147.242 84.344 147.288 84.3604 147.335L84.3184 147.391C84.3372 147.385 84.3553 147.38 84.3741 147.375C85.5193 150.636 86.9208 153.807 88.5717 156.847C86.7413 155.768 84.5831 155.237 82.4551 154.976C81.0917 154.809 79.697 154.739 78.3557 155.034C77.0145 155.328 75.7204 156.019 74.9182 157.134C74.1166 158.248 73.8894 159.818 74.5495 161.022C75.3131 162.415 77.0611 163.027 78.6449 162.904C80.2287 162.781 81.6972 162.063 83.1203 161.358C85.1421 160.357 87.1645 159.356 89.1864 158.355C89.2523 158.336 89.3182 158.317 89.3835 158.298C91.29 161.597 93.4931 164.72 95.9722 167.613C96.2341 167.919 96.7613 167.569 96.496 167.259C94.0583 164.415 91.891 161.35 90.0101 158.117C92.1393 157.501 94.2685 156.885 96.3977 156.269C97.8946 155.836 99.433 155.383 100.661 154.422C101.889 153.46 102.75 151.857 102.38 150.341Z" fill="#DAC0FE"/>
<path d="M36.3024 198.474C39.0338 199.116 43.3132 199.725 50.4626 198.366C54.8465 197.517 60.9291 196.375 67.6007 192.241C67.8887 192.062 68.3983 191.752 69.0374 191.304C69.0704 191.285 69.1079 191.263 69.1368 191.239C69.1982 191.205 69.2595 191.163 69.3254 191.125C69.5442 190.979 69.7731 190.817 70.027 190.666C74.7973 187.293 84.2963 179.433 84.5764 169.012C84.6019 168.413 84.7474 160.833 81.0315 159.339C76.3669 157.517 68.9829 166.425 67.2167 164.997C66.3265 164.269 67.92 161.878 68.7545 158.515C70.7008 150.978 68.4972 140.436 62.1266 137.812C59.1225 136.54 55.063 137.029 52.2112 139.256C47.5364 142.824 49.352 151.224 48.6407 151.297C47.6074 151.36 48.9083 134.71 40.5949 130.087C37.6698 128.478 33.3148 128.219 31.1458 130.171C27.9719 133.039 30.9095 139.512 29.0484 140.362C27.0755 141.263 24.1566 133.954 16.0398 130.745C13.9747 129.946 9.12838 128.039 5.19833 130.383C1.77275 132.379 -0.017869 136.825 0.724056 140.575C1.42849 144.032 4.10817 146.01 4.86032 146.53C9.68567 149.987 13.8657 147.28 23.1772 150.103C26.4284 151.077 29.8796 152.601 29.7324 153.741C29.5677 154.574 27.5072 154.421 24.9474 156.09C24.8912 156.119 24.8071 156.164 24.706 156.247C23.9317 156.765 21.1832 158.627 20.5816 161.663C20.5379 161.787 19.9567 165.096 21.8939 166.714C22.8784 167.568 24.1407 167.599 24.6906 167.633C30.1795 167.883 36.9046 169.858 36.8881 170.754C36.8983 171.782 28.052 171.295 26.9073 174.533C25.9603 177.225 30.8499 180.959 31.4827 181.439C36.7728 185.418 43.2723 185.479 43.1961 185.967C43.1143 186.379 38.0424 185.034 33.2529 187.427C31.0163 188.526 27.6521 191.002 27.9407 193.466C28.2582 196.498 33.9181 197.894 36.3024 198.474Z" fill="#DAC0FE"/>
<path d="M38.789 179.316C39.2127 178.176 40.5404 177.873 41.6339 177.893C43.0127 177.918 44.3619 178.304 45.6327 178.817C48.3067 179.896 50.7666 181.639 53.6576 182.112C55.1187 182.351 56.6349 182.247 57.9694 181.574C55.142 178.023 52.7378 174.134 50.4058 170.247C49.5332 168.793 48.6629 167.331 47.775 165.878C43.6927 163.833 38.9423 165.849 34.6873 164.52C33.5551 164.167 32.5246 163.573 31.7174 162.698C31.5816 162.551 31.823 162.355 31.9588 162.502C33.5063 164.177 35.8428 164.644 38.0328 164.722C40.2001 164.798 42.3662 164.48 44.5318 164.684C45.5509 164.779 46.5508 165.008 47.4887 165.414C45.0823 161.497 42.5304 157.663 39.4042 154.28C35.6173 150.185 30.959 146.696 25.5422 145.134C24.8622 144.941 24.1754 144.778 23.4846 144.649C23.2898 144.607 23.321 144.3 23.517 144.333C28.8781 145.354 33.6381 148.287 37.571 151.991C38.2419 152.621 38.8804 153.279 39.5042 153.949C39.4985 153.915 39.4996 153.878 39.5246 153.84C41.0613 151.544 39.8928 148.74 38.7208 146.576C38.0794 145.393 37.3829 144.227 36.9438 142.948C36.5785 141.887 36.3348 140.691 36.8029 139.622C36.883 139.439 37.175 139.547 37.0949 139.731C36.5478 140.98 37.0273 142.433 37.5369 143.613C38.0913 144.898 38.8458 146.082 39.4673 147.333C40.4892 149.389 41.1613 151.956 39.7791 154.02C39.7348 154.087 39.6695 154.089 39.6121 154.068C43.115 157.861 45.9367 162.233 48.6055 166.646C50.0848 169.091 51.5386 171.561 53.0594 173.984C55.7464 171.901 57.5711 168.67 58.0603 165.314C58.3278 163.481 58.0961 161.72 57.6018 159.945C57.0655 158.018 56.3418 156.11 56.2657 154.09C56.1907 152.096 56.848 149.965 58.5869 148.822C58.7528 148.714 58.951 148.954 58.7834 149.064C57.0314 150.215 56.448 152.379 56.5912 154.374C56.7383 156.419 57.5052 158.34 58.0199 160.307C58.4653 162.009 58.6238 163.714 58.3523 165.458C58.1 167.08 57.5439 168.646 56.7548 170.083C55.8725 171.69 54.6813 173.133 53.2264 174.253C55.0846 177.2 57.0508 180.072 59.3157 182.729C60.8842 184.573 62.6124 186.311 64.4916 187.852C64.5581 182.816 69.0426 179.401 70.882 175.032C71.4206 173.754 71.7285 172.387 71.6166 170.996C71.6001 170.797 71.908 170.747 71.9245 170.948C72.3364 176.062 67.8479 179.656 65.8158 183.896C65.2017 185.178 64.7995 186.545 64.7967 187.975C64.7967 188.017 64.7773 188.044 64.7552 188.066C66.1891 189.218 67.7081 190.256 69.3255 191.12C69.2602 191.158 69.1982 191.2 69.1369 191.234C69.1079 191.257 69.0704 191.28 69.0375 191.299C66.2817 189.81 63.7747 187.837 61.537 185.603C60.3394 184.406 59.2248 183.139 58.1671 181.826C55.9305 182.993 53.2974 182.571 51.0455 181.68C48.4317 180.644 46.0525 178.985 43.2695 178.398C41.9862 178.128 39.6627 177.86 39.0804 179.425C39.0105 179.613 38.7191 179.504 38.789 179.316Z" fill="white"/>
<path d="M365.568 309.364C296.313 309.364 239.97 253.021 239.97 183.766C239.97 114.512 296.313 58.168 365.568 58.168C399.118 58.168 430.66 71.2318 454.38 94.9529C478.101 118.674 491.165 150.215 491.165 183.766C491.165 253.02 434.822 309.364 365.568 309.364ZM365.568 59.3672C296.974 59.3672 241.169 115.172 241.169 183.766C241.169 252.359 296.974 308.164 365.568 308.164C434.161 308.164 489.966 252.359 489.966 183.766C489.966 115.172 434.162 59.3672 365.568 59.3672ZM365.568 268.654C318.76 268.654 280.68 230.574 280.68 183.766C280.68 136.958 318.76 98.8779 365.568 98.8779C412.375 98.8779 450.456 136.959 450.456 183.766C450.456 230.573 412.375 268.654 365.568 268.654ZM365.568 100.077C319.421 100.077 281.879 137.62 281.879 183.766C281.879 229.912 319.422 267.455 365.568 267.455C411.714 267.455 449.256 229.912 449.256 183.766C449.256 137.62 411.714 100.077 365.568 100.077Z" fill="#D3CCFF"/>
<path d="M490.461 132.624C491.709 132.014 492.436 130.587 492.423 129.201C492.411 127.815 491.745 126.492 490.808 125.469C489.872 124.446 488.679 123.692 487.455 123.038C485.431 121.955 483.203 121.102 480.928 121.001C483.457 118.775 486.16 116.745 489.005 114.931C489.263 114.765 489.525 114.605 489.786 114.444C490.932 116.556 492.079 118.669 493.226 120.782C493.991 122.191 494.785 123.638 496.021 124.66C497.258 125.683 499.058 126.194 500.501 125.489C501.748 124.878 502.476 123.451 502.463 122.065C502.451 120.679 501.785 119.356 500.849 118.333C499.912 117.311 498.72 116.557 497.496 115.903C495.408 114.786 493.102 113.912 490.753 113.858C493.97 111.942 497.348 110.296 500.839 108.944C502.083 111.04 503.327 113.135 504.571 115.232C505.389 116.611 506.239 118.026 507.514 119C508.788 119.974 510.607 120.416 512.022 119.656C513.245 118.999 513.917 117.545 513.851 116.16C513.786 114.775 513.069 113.479 512.094 112.492C511.119 111.506 509.898 110.799 508.65 110.192C506.653 109.22 504.473 108.469 502.271 108.408C504.819 107.488 507.422 106.721 510.064 106.12C510.847 105.942 511.633 105.785 512.421 105.637C513.772 107.75 515.122 109.864 516.472 111.977C517.336 113.329 518.231 114.715 519.538 115.646C520.844 116.579 522.676 116.96 524.065 116.154C525.266 115.457 525.89 113.982 525.779 112.6C525.668 111.218 524.909 109.946 523.902 108.992C522.895 108.039 521.652 107.372 520.385 106.806C518.574 105.997 516.625 105.371 514.661 105.254C517.351 104.849 520.065 104.615 522.787 104.559C524.926 105.744 527.066 106.929 529.204 108.114C530.608 108.892 532.056 109.684 533.65 109.883C535.243 110.081 537.038 109.546 537.876 108.178C538.6 106.994 538.446 105.401 537.689 104.239C536.933 103.077 535.66 102.32 534.319 101.959C532.978 101.6 531.566 101.604 530.182 101.709C527.631 101.902 525.019 102.47 522.92 103.907C522.91 103.906 522.903 103.905 522.893 103.905C519.997 103.959 517.106 104.215 514.246 104.662C516.055 103.669 517.594 102.163 518.907 100.548C519.782 99.4712 520.591 98.3145 521.059 97.0091C521.528 95.7036 521.631 94.226 521.106 92.9427C520.582 91.6594 519.36 90.6243 517.974 90.5442C516.371 90.4516 514.908 91.6196 514.163 93.041C513.418 94.4623 513.244 96.103 513.083 97.6993C512.838 100.13 512.593 102.56 512.349 104.991C508.865 105.641 505.435 106.576 502.1 107.778C503.731 106.343 504.922 104.408 505.839 102.418C506.419 101.158 506.915 99.837 507.045 98.4566C507.174 97.0761 506.907 95.619 506.08 94.5066C505.253 93.3938 503.811 92.6944 502.449 92.9603C500.873 93.2682 499.745 94.7623 499.377 96.3234C499.008 97.8851 499.247 99.5172 499.488 101.103C499.855 103.517 500.222 105.93 500.588 108.344C500.484 108.384 500.38 108.422 500.276 108.463C496.872 109.804 493.581 111.422 490.44 113.291C492.047 111.462 492.95 109.073 493.503 106.686C493.816 105.335 494.034 103.941 493.881 102.564C493.728 101.186 493.17 99.8137 492.135 98.8912C491.099 97.9686 489.546 97.5755 488.265 98.1117C486.783 98.7315 485.982 100.422 485.938 102.026C485.893 103.629 486.458 105.179 487.016 106.683C487.892 109.045 488.767 111.408 489.643 113.771C489.599 113.798 489.556 113.825 489.512 113.852L489.448 113.822C489.457 113.839 489.467 113.857 489.476 113.874C486.45 115.744 483.572 117.851 480.88 120.179C481.561 118.101 481.619 115.815 481.413 113.619C481.281 112.212 481.044 110.794 480.453 109.511C479.862 108.228 478.882 107.079 477.585 106.518C476.288 105.958 474.66 106.075 473.596 107.004C472.364 108.078 472.134 109.97 472.606 111.535C473.079 113.1 474.124 114.418 475.146 115.694C476.597 117.505 478.048 119.317 479.5 121.129C479.533 121.191 479.567 121.253 479.6 121.315C476.704 123.957 474.05 126.859 471.689 129.989C471.439 130.32 471.907 130.772 472.16 130.437C474.483 127.361 477.086 124.507 479.921 121.905C481.009 123.909 482.096 125.914 483.184 127.918C483.949 129.328 484.743 130.774 485.98 131.797C487.218 132.819 489.018 133.33 490.461 132.624Z" fill="#DAC0FE"/>
<path d="M425.469 52.6559C427.23 60.0928 439.578 70.3911 438.038 77.9637C429.077 78.3148 430.761 65.3931 426.381 59.7394C421.705 54.8948 415.76 73.3963 419.891 82.4596C422.96 89.997 433.293 88.6444 446.873 98.3769C458.6 106.53 458.282 111.186 465.801 112.894C479.559 116.018 494.472 103.599 493.809 101.921C493.541 101.243 490.88 102.626 484.509 102.397C483.91 102.866 459.303 98.9336 468.39 93.8333C479.316 90.9889 485.061 103.811 497.885 97.8514C507.498 93.3794 509.574 78.3012 508.546 77.8092C505.58 85.1592 485.253 86.9447 477.892 82.4221C473.701 79.3453 477.832 78.0552 482.542 78.1058C498.056 76.2203 506.363 76.3021 514.018 66.2929C523.401 54.0239 512.27 41.5072 511.992 24.1174C511.992 24.1174 491.899 16.9532 479.175 23.522C466.93 29.8443 475.612 42.6337 471.638 51.0869C470.276 54.9146 465.067 55.1373 462.989 52.3117C458.519 48.1175 459.278 40.0637 459.889 34.2623C460.907 24.6514 463.456 21.561 461.848 20.2118C457.711 16.4987 442.783 29.4529 444.466 37.9646C442.138 48.0487 457.661 61.9999 451.68 71.6051C443.533 70.6456 437.547 49.0031 438.268 40.2034C439.175 35.6155 441.721 32.7944 441.073 32.2496C436.249 33.7578 424.336 45.8701 425.469 52.6559Z" fill="#DAC0FE"/>
<path d="M424.439 70.0394C424.377 72.4248 424.912 74.7982 425.963 76.9371C426.981 79.0146 428.49 80.7626 430.286 82.2044C432.258 83.7809 434.47 85.0057 436.638 86.2856C438.984 87.6768 441.262 89.1902 443.428 90.8502C444.404 91.6018 445.407 92.3505 446.294 93.2061C447.033 93.9184 447.708 94.8041 447.653 95.8846C447.653 95.8965 447.662 95.9016 447.661 95.9141C447.542 96.0624 447.432 96.2164 447.307 96.3624C446.899 96.8532 446.476 97.3366 446.033 97.8025C446.112 97.8468 446.183 97.8979 446.257 97.9519C447.049 97.1026 447.8 96.2061 448.492 95.2711C448.499 95.2688 448.506 95.2671 448.509 95.262C448.902 94.9524 449.369 94.7211 449.839 94.5399C450.278 94.3672 450.791 94.1979 451.267 94.2786C451.978 94.4036 452.647 94.8007 453.261 95.1665C453.871 95.5375 454.479 95.9244 455.074 96.3232C459.263 99.1267 463.092 102.511 467.627 104.77C471.356 106.623 475.612 107.738 479.762 106.848C479.929 106.812 479.859 106.552 479.684 106.59C477.267 107.105 474.766 106.93 472.381 106.303C467.714 105.076 463.737 102.268 459.895 99.4477C457.768 97.8837 455.654 96.2959 453.391 94.9319C452.557 94.4314 451.581 93.8452 450.576 94.0411C450.014 94.1462 449.439 94.3729 448.924 94.67C450.801 91.9926 452.24 89.0408 453.679 86.1129C453.747 85.9788 453.814 85.8374 453.882 85.7039C453.882 85.7039 453.882 85.7038 453.889 85.7021C455.865 84.3569 458.216 83.6996 460.589 83.54C465.428 83.2105 469.934 85.0239 474.267 86.9622C475.452 87.4928 476.639 88.0302 477.835 88.542C478.954 89.0238 480.094 89.5044 481.278 89.8254C483.295 90.3639 485.595 90.3787 487.343 89.0914C487.48 88.9897 487.346 88.7551 487.207 88.8619C485.009 90.4832 482.148 89.9412 479.77 89.0476C475.048 87.2678 470.628 84.5938 465.624 83.6087C461.782 82.8526 457.483 83.127 454.105 85.2454C455.459 82.5038 456.865 79.7673 458.692 77.3012C459.693 75.9543 460.824 74.7284 462.037 73.5854C462.046 73.5786 462.058 73.5791 462.071 73.5678C462.079 73.5536 462.092 73.5422 462.102 73.5234C463.205 72.4912 464.369 71.5238 465.566 70.5989C467.558 69.06 469.621 67.6165 471.631 66.1002C474.191 65.418 476.888 65.3952 479.517 65.5497C484.235 65.823 488.996 66.9364 493.719 66.1309C497.922 65.4106 502.289 62.694 503.158 58.2396C503.192 58.0686 502.933 58.0038 502.899 58.1754C502.418 60.6528 500.731 62.6684 498.635 64.0079C494.578 66.5973 489.571 66.311 484.986 65.8105C480.765 65.3481 476.35 64.7397 472.156 65.6986C472.412 65.5032 472.673 65.3106 472.931 65.11C475.468 63.1126 477.772 60.8818 479.814 58.3816C483.997 53.2586 487.104 47.3777 490.163 41.5491C490.246 41.3991 490.012 41.2685 489.928 41.4184C489.555 42.1325 489.183 42.846 488.805 43.5579C485.836 49.1592 482.691 54.7674 478.475 59.5399C479.077 57.9277 478.951 56.1013 478.85 54.4175C478.722 52.3076 478.665 49.8494 480.287 48.2463C480.41 48.1242 480.219 47.9384 480.096 48.06C478.574 49.5592 478.444 51.8457 478.548 53.8562C478.655 55.949 478.961 58.2691 477.89 60.1722C477.885 60.1813 477.894 60.187 477.889 60.1961C477.889 60.1961 477.889 60.1961 477.886 60.2012C475.718 62.5514 473.265 64.5647 470.702 66.4672C468.245 68.2879 465.73 70.0268 463.394 72.0066C463.172 72.1958 462.951 72.3929 462.734 72.585C463.929 70.437 463.937 67.7511 463.366 65.3884C462.706 62.6565 461.172 60.2364 459.702 57.8771C458.242 55.5349 456.922 53.1483 455.953 50.5641C454.092 45.5854 453.381 40.1965 453.898 34.907C453.92 34.7349 453.646 34.7422 453.631 34.9121C453.348 37.7952 453.428 40.7077 453.862 43.5715C454.25 46.1404 454.922 48.6638 455.865 51.0862C456.846 53.5846 458.15 55.8888 459.563 58.1612C461.04 60.5307 462.559 62.9666 463.172 65.7276C463.737 68.2777 463.602 71.2358 461.903 73.3502C460.133 75.0306 458.561 76.8831 457.233 78.9504C455.418 81.792 454.009 84.8654 452.512 87.8768C452.38 88.1353 452.251 88.3892 452.123 88.6426C452.127 86.7901 451.582 84.9455 450.757 83.294C449.872 81.5182 448.607 79.9605 447.358 78.43C446.059 76.8473 444.784 75.2533 443.653 73.5433C441.456 70.2268 439.706 66.6302 438.45 62.8598C438.394 62.694 438.131 62.7689 438.189 62.9303C438.881 64.9981 439.714 67.0217 440.691 68.9657C441.568 70.7125 442.555 72.4043 443.646 74.0194C444.77 75.6759 446.023 77.2211 447.288 78.7663C448.551 80.3167 449.816 81.9051 450.671 83.7258C451.464 85.4136 451.96 87.2928 451.843 89.1686C451.845 89.176 451.853 89.1738 451.85 89.1789C450.696 91.4177 449.44 93.5986 447.913 95.5926C447.854 94.6388 447.285 93.8185 446.618 93.1521C445.647 92.1699 444.502 91.3359 443.407 90.4997C441.283 88.8874 439.065 87.4081 436.769 86.0504C434.554 84.7438 432.28 83.4974 430.286 81.8602C428.473 80.3723 426.991 78.5647 426.016 76.4315C425.103 74.4307 424.649 72.2316 424.706 70.0331C424.709 69.8632 424.442 69.8684 424.439 70.0394Z" fill="white"/>
<path d="M378.598 64.3047C309.567 64.3047 253.6 120.263 253.6 189.303C253.6 258.333 309.567 314.301 378.598 314.301C447.637 314.301 503.595 258.333 503.595 189.303C503.595 120.262 447.638 64.3047 378.598 64.3047ZM378.598 273.591C332.046 273.591 294.309 235.854 294.309 189.303C294.309 142.751 332.045 105.014 378.598 105.014C425.149 105.014 462.886 142.751 462.886 189.303C462.886 235.854 425.149 273.591 378.598 273.591Z" fill="#DAC0FE"/>
<path d="M374.495 105.115C373.137 105.05 371.769 105.013 370.393 105.013C323.842 105.013 286.105 142.75 286.105 189.302C286.105 235.854 323.842 273.59 370.393 273.59C371.769 273.59 373.137 273.555 374.495 273.49C329.85 271.35 294.31 234.478 294.31 189.301C294.31 144.126 329.85 107.255 374.495 105.115ZM378.598 64.3047C377.225 64.3047 375.859 64.3342 374.495 64.3785C441.636 66.5435 495.392 121.636 495.392 189.302C495.392 256.96 441.636 312.061 374.495 314.226C375.859 314.269 377.225 314.3 378.598 314.3C447.638 314.3 503.595 258.332 503.595 189.302C503.596 120.262 447.638 64.3047 378.598 64.3047Z" fill="#C194FE"/>
<path d="M511.347 186.328C511.347 186.328 509.468 188.481 506.467 191.795C506.427 191.834 506.401 191.86 506.362 191.899C505.579 192.761 504.705 193.7 503.779 194.692C503.388 195.109 502.996 195.527 502.592 195.957C497.868 200.968 491.749 207.179 485.525 212.725C477.343 220.045 468.979 226.23 463.42 227C463.329 227.013 463.251 227.026 463.16 227.026C462.873 227.065 462.598 227.078 462.324 227.078C462.207 227.078 462.103 227.065 461.985 227.065C450.816 226.543 431.791 215.726 425.437 211.916C424.079 211.12 423.297 210.624 423.297 210.624L425.202 168.047L464.034 198.045L494.137 184.148L495.729 183.418L499.748 181.565L500.218 181.343L506.325 178.537C506.325 178.537 510.056 173.345 516.489 171.165C522.961 168.96 527.189 165.188 528.677 167.016C530.191 168.83 520.352 174.18 522.727 174.675C528.703 175.863 541.712 171.791 546.67 172.457C553.337 173.345 531.285 188.599 511.347 186.328Z" fill="#F9CBCB"/>
<path d="M507.68 193.644C506.884 194.505 505.997 195.457 505.032 196.45L503.818 197.676C500.308 201.238 495.989 205.335 491.409 209.315C481.427 218.006 470.192 226.148 463.42 226.997C463.329 227.009 463.251 227.023 463.16 227.023C462.872 227.062 462.598 227.075 462.324 227.075C462.207 227.075 462.103 227.062 461.985 227.062C450.816 226.54 431.79 215.723 425.436 211.913C424.079 211.117 423.296 210.621 423.296 210.621L422.605 163.711C426.467 165.199 449.002 185.372 464.034 198.042L492.819 182.292L494.346 181.47L498.273 179.317L499.748 181.561L506.468 191.791L507.68 193.644Z" fill="#5400EF"/>
<path d="M505.036 196.456L503.815 197.678L492.821 182.294L494.34 181.469L505.036 196.456Z" fill="white"/>
<path d="M491.409 209.316C481.427 218.006 470.192 226.148 463.42 226.997C463.329 227.01 463.251 227.023 463.16 227.023C462.872 227.062 462.598 227.075 462.324 227.075C462.207 227.075 462.103 227.062 461.985 227.062C450.816 226.54 431.791 215.723 425.436 211.913C425.358 211.73 425.319 211.639 425.319 211.639L424.993 197.586C424.993 197.586 450.372 222.469 464.047 220.486C471.915 219.351 480.045 215.671 485.525 212.722C488.251 211.273 490.326 210.008 491.409 209.316Z" fill="#5840F5"/>
<path d="M240.73 176.394C240.73 176.394 242.397 178.716 245.069 182.301C245.104 182.343 245.128 182.372 245.163 182.414C245.861 183.347 246.642 184.365 247.469 185.44C247.82 185.893 248.169 186.346 248.531 186.813C252.757 192.249 258.259 199.014 263.928 205.126C271.377 213.191 279.116 220.142 284.576 221.437C284.665 221.459 284.742 221.479 284.833 221.488C285.115 221.554 285.386 221.593 285.659 221.618C285.776 221.63 285.882 221.627 285.998 221.638C297.167 222.18 317.133 213.219 323.821 210.03C325.248 209.367 326.074 208.947 326.074 208.947L328.223 166.382L286.716 192.555L258.07 175.86L256.555 174.982L252.731 172.755L252.284 172.49L246.472 169.117C246.472 169.117 243.25 163.593 237.054 160.812C230.82 158.001 226.97 153.846 225.315 155.523C223.637 157.184 232.922 163.445 230.511 163.714C224.449 164.328 211.885 159.039 206.886 159.23C200.164 159.48 220.667 176.76 240.73 176.394Z" fill="#F9CBCB"/>
<path d="M243.685 184.023C244.395 184.956 245.188 185.989 246.055 187.068L247.147 188.404C250.302 192.283 254.212 196.773 258.394 201.17C267.505 210.769 277.915 219.942 284.576 221.43C284.665 221.451 284.742 221.472 284.833 221.48C285.115 221.547 285.386 221.586 285.66 221.611C285.777 221.622 285.882 221.62 285.998 221.63C297.167 222.172 317.133 213.212 323.821 210.023C325.248 209.36 326.074 208.94 326.074 208.94L331.45 162.266C327.464 163.379 302.884 181.363 286.716 192.548L259.558 174.134L258.116 173.171L254.411 170.655L252.73 172.749L245.068 182.294L243.685 184.023Z" fill="#5400EF"/>
<path d="M246.05 187.075L247.15 188.407L259.555 174.138L258.122 173.172L246.05 187.075Z" fill="white"/>
<path d="M258.394 201.171C267.505 210.771 277.915 219.944 284.576 221.432C284.666 221.453 284.742 221.474 284.833 221.482C285.116 221.549 285.387 221.588 285.66 221.613C285.777 221.624 285.882 221.622 285.998 221.632C297.167 222.174 317.134 213.214 323.821 210.025C323.917 209.851 323.964 209.763 323.964 209.763L325.624 195.805C325.624 195.805 297.995 218.164 284.571 214.89C276.846 213.013 269.103 208.577 263.928 205.12C261.351 203.42 259.406 201.963 258.394 201.171Z" fill="#5840F5"/>
<path d="M423.112 197.982V198.163C423.112 198.17 423.112 198.17 423.112 198.176V198.239C423.112 198.245 423.112 198.245 423.112 198.251C423.056 219.388 420.99 245.673 419.377 263.049C410.192 268.154 399.954 271.593 389.062 272.943C385.634 273.37 382.144 273.59 378.603 273.59C376.174 273.59 373.763 273.489 371.384 273.282C358.195 272.159 345.872 267.99 335.13 261.474C332.13 245.014 328.288 221.466 326.862 202.125V202.087C326.769 200.813 326.687 199.564 326.612 198.339V198.239C326.009 187.774 326.234 178.885 327.861 173.511C327.861 173.505 327.861 173.505 327.861 173.492C327.861 173.486 327.861 173.486 327.867 173.48C328.557 171.226 329.48 169.607 330.704 168.74C330.774 168.69 330.843 168.64 330.917 168.595C340.516 162.663 354.409 157.459 362.112 154.803C362.331 154.728 362.545 154.652 362.746 154.583C362.947 154.515 363.148 154.452 363.342 154.376C364.315 154.043 365.156 153.767 365.834 153.548C365.904 153.523 365.973 153.497 366.042 153.479C366.18 153.429 366.318 153.384 366.444 153.347C366.481 153.334 366.513 153.322 366.544 153.309C366.557 153.302 366.563 153.302 366.576 153.302C366.933 153.189 367.21 153.095 367.411 153.039C367.442 153.026 367.473 153.02 367.505 153.007C367.536 152.995 367.561 152.988 367.58 152.982C367.593 152.976 367.605 152.976 367.618 152.97C367.668 152.958 367.706 152.945 367.731 152.938C367.737 152.932 367.75 152.932 367.75 152.932C367.757 152.926 367.763 152.926 367.763 152.926H390.808C390.808 152.926 391.11 153.026 391.662 153.214C391.668 153.214 391.68 153.214 391.687 153.221C391.862 153.277 392.057 153.346 392.277 153.421C392.352 153.446 392.427 153.471 392.509 153.503C392.616 153.54 392.728 153.572 392.842 153.616C392.873 153.629 392.904 153.635 392.942 153.647C393.187 153.729 393.457 153.823 393.739 153.923C393.878 153.974 394.016 154.024 394.16 154.074C394.229 154.099 394.305 154.124 394.386 154.15C394.611 154.231 394.851 154.313 395.101 154.401C400.72 156.435 410.683 160.258 417.707 164.314C420.978 166.203 422.498 175.4 422.956 187.88C422.962 187.905 422.962 187.937 422.962 187.956C422.962 187.962 422.962 187.962 422.962 187.968C422.962 187.975 422.962 187.975 422.962 187.981V188.151C422.962 188.182 422.962 188.213 422.969 188.245C423.068 191.315 423.118 194.579 423.112 197.982Z" fill="white"/>
<path d="M395.097 154.4C392.605 157.818 387.861 166.023 379.413 165.857C369.304 165.658 365.06 158.328 362.111 154.804C365.556 153.605 367.76 152.926 367.76 152.926H390.804C390.804 152.926 392.475 153.473 395.097 154.4Z" fill="#171717"/>
<path d="M425.384 259.361C423.438 260.672 421.435 261.897 419.376 263.045C410.192 268.15 399.953 271.589 389.061 272.939C388.929 232.128 389.588 193.954 391.346 159.476V159.464C391.453 157.367 391.572 155.276 391.686 153.218V153.173H391.692C392.546 153.387 393.97 153.732 395.816 154.216C402.747 156.03 415.358 159.652 422.603 163.707C422.609 163.714 422.615 163.714 422.621 163.72C422.621 163.726 422.628 163.726 422.628 163.726C423.299 164.115 423.864 165.358 424.229 167.336C424.555 168.874 424.787 170.883 424.963 173.3V173.406C424.963 173.413 424.963 173.413 424.963 173.419V173.438C425.39 179.408 425.409 187.801 425.321 197.901V197.908C425.308 201.053 425.264 204.374 425.233 207.826V207.946C425.233 207.952 425.233 207.952 425.233 207.965V208.046C425.214 209.264 425.202 210.501 425.189 211.763V211.769C425.045 225.982 424.919 242.316 425.384 259.361ZM371.383 273.278C358.194 272.154 345.871 267.985 335.129 261.469C332.612 259.95 330.182 258.299 327.848 256.522C327.904 239.71 325.996 223.728 324.52 209.697C324.433 208.863 324.344 208.04 324.269 207.224C324.269 207.217 324.269 207.217 324.269 207.211V207.192C323.918 203.853 323.604 200.645 323.372 197.556C322.562 187.449 322.474 178.779 324.3 172.081C324.69 170.575 325.186 169.193 325.801 167.906V167.894C326.172 167.102 326.592 166.368 327.051 165.653C327.803 164.466 329.342 163.348 331.388 162.287C331.401 162.281 331.413 162.275 331.426 162.268C331.432 162.262 331.439 162.262 331.445 162.262H331.457C339.06 158.351 353.624 155.376 361.71 153.907C365.087 153.341 367.328 152.965 367.579 152.965C367.579 152.965 367.579 152.965 367.579 152.971C367.579 152.971 367.579 152.971 367.579 152.977C367.585 153.085 367.61 153.618 367.762 154.403C368 156.838 368.238 159.33 368.459 161.873V161.892C371.07 192.252 371.779 230.47 371.383 273.278Z" fill="#5400EF"/>
<path d="M391.69 153.179C391.101 153.941 390.498 154.31 389.909 155.004C382.491 163.358 375.004 163.843 367.516 152.82L370.393 135.352L371.468 128.8L387.377 128.695L391.69 153.179Z" fill="#F9CBCB"/>
<path d="M391.69 153.178C391.101 153.94 390.498 154.31 389.909 155.003C389.25 152.404 386.754 143.703 383.287 139.266C380.481 135.696 374.137 135.211 370.394 135.35L371.468 128.799L387.378 128.694L391.69 153.178ZM410.212 99.8969C409.097 101.339 407.982 102.651 406.802 103.832L407.982 100.487L408.441 99.2413C408.441 99.2413 408.704 99.1101 409.162 99.0448C409.359 98.9789 409.556 98.9136 409.818 98.8477C409.884 98.8477 410.015 98.913 410.08 98.9789C410.344 99.176 410.41 99.5691 410.212 99.8969Z" fill="#EBB0B0"/>
<path d="M405.032 114.522H404.966C404.506 114.588 403.982 114.652 403.392 114.652H402.998L406.802 103.833C407.982 102.652 409.097 101.34 410.212 99.8979C410.409 99.5702 410.344 99.1765 410.081 98.9799C410.015 98.914 409.884 98.8487 409.818 98.8487C411.654 98.4556 414.868 98.1931 416.901 100.357C419.261 102.849 418.409 113.21 405.032 114.522Z" fill="#EBB0B0"/>
<path d="M407.72 98.2565C407.72 105.777 405.281 112.995 401.28 118.735C401.136 118.954 400.985 119.165 400.832 119.376V119.435C395.523 126.72 387.723 131.507 379.391 131.507C369.228 131.507 359.715 122.719 356.313 110.26C355.394 107.044 354.87 103.566 354.87 99.9613C354.87 82.3193 363.126 66.3906 378.995 66.3906C382.186 66.3906 385.258 66.9644 388.129 68.0364C399.515 72.2743 407.72 84.2184 407.72 98.2565Z" fill="#F9CBCB"/>
<path d="M401.887 116.83C408.066 98.8079 397.96 86.2622 394.14 83.2707C389.24 79.4327 371.819 83.3513 371.819 83.3513L388.128 68.0391C399.516 72.277 407.72 84.2211 407.72 98.2592C407.72 105.78 405.281 112.998 401.28 118.738C401.457 118.147 401.652 117.514 401.887 116.83Z" fill="#EBB0B0"/>
<path d="M361.632 97.8744C361.632 95.7003 363.394 93.9375 365.568 93.9375C367.743 93.9375 369.505 95.7008 369.505 97.8744C369.505 100.049 367.742 101.811 365.568 101.811C363.394 101.811 361.632 100.049 361.632 97.8744ZM387.413 97.8744C387.413 95.7003 389.175 93.9375 391.35 93.9375C393.523 93.9375 395.286 95.7008 395.286 97.8744C395.286 100.049 393.523 101.811 391.35 101.811C389.175 101.811 387.413 100.049 387.413 97.8744Z" fill="#FDEAEA"/>
<path d="M362.56 97.8662C362.56 96.2051 363.907 94.8587 365.568 94.8587C367.23 94.8587 368.576 96.2057 368.576 97.8662C368.576 99.5279 367.23 100.874 365.568 100.874C363.907 100.874 362.56 99.5279 362.56 97.8662ZM388.341 97.8088C388.341 96.1472 389.688 94.8008 391.35 94.8008C393.011 94.8008 394.358 96.1477 394.358 97.8088C394.358 99.4699 393.011 100.816 391.35 100.816C389.688 100.816 388.341 99.4693 388.341 97.8088Z" fill="#0B2D50"/>
<path d="M366.007 96.85C365.696 96.5387 365.696 96.0331 366.007 95.7218C366.318 95.4105 366.823 95.4105 367.135 95.7218C367.446 96.0331 367.446 96.5387 367.135 96.85C366.823 97.1613 366.318 97.1613 366.007 96.85ZM391.664 96.85C391.353 96.5387 391.353 96.0331 391.664 95.7218C391.977 95.4105 392.481 95.4105 392.792 95.7218C393.104 96.0331 393.104 96.5387 392.792 96.85C392.481 97.1613 391.977 97.1613 391.664 96.85Z" fill="white"/>
<path d="M372.804 90.6228C372.618 90.186 372.015 89.8769 371.563 90.1212C369.49 91.2403 366.898 90.9529 365.262 89.2015C364.913 88.8282 364.365 88.6981 363.933 89.0316C363.558 89.3219 363.412 89.9843 363.764 90.3592C365.947 92.6958 369.446 93.407 372.303 91.8641C372.752 91.6221 373.017 91.1245 372.804 90.6228ZM395.087 89.7247C394.792 89.3531 394.128 89.2162 393.757 89.5724C392.058 91.2034 389.483 91.6176 387.439 90.3655C387.003 90.0985 386.44 90.1195 386.113 90.5558C385.829 90.9358 385.866 91.613 386.304 91.8811C389.03 93.5513 392.593 93.3036 394.935 91.0551C395.303 90.7012 395.427 90.1513 395.087 89.7247Z" fill="#0B2D50"/>
<path d="M358.699 105.159C358.699 104.072 360.428 103.191 362.56 103.191C364.692 103.191 366.42 104.072 366.42 105.159C366.42 106.245 364.692 107.126 362.56 107.126C360.428 107.126 358.699 106.245 358.699 105.159ZM391.426 105.159C391.426 104.072 393.154 103.191 395.286 103.191C397.419 103.191 399.147 104.072 399.147 105.159C399.147 106.245 397.418 107.126 395.286 107.126C393.154 107.126 391.426 106.245 391.426 105.159Z" fill="#FFB3B3"/>
<path d="M388.659 115.89C388.629 115.107 388.368 114.298 387.899 113.666C387.654 113.337 387.378 113.039 387.045 112.798C386.636 112.503 386.234 112.298 385.753 112.14C385.536 112.069 385.225 112.147 385.039 112.265C384.843 112.389 384.664 112.625 384.622 112.857C384.58 113.099 384.603 113.364 384.747 113.571C384.878 113.759 385.041 113.87 385.244 113.95C385.357 113.994 385.465 114.044 385.572 114.099C383.507 116.059 380.679 117.029 377.83 116.81C377.32 116.771 376.908 117.337 376.931 117.803C376.958 118.366 377.411 118.663 377.923 118.702C381.125 118.948 384.358 117.774 386.726 115.625C386.728 115.637 386.731 115.648 386.734 115.66C386.748 115.768 386.763 115.875 386.767 115.984C386.786 116.478 387.254 116.93 387.759 116.883C388.275 116.835 388.679 116.421 388.659 115.89Z" fill="#F5A7A7"/>
<path d="M352.251 52.1289C347.415 57.0554 345.489 79.4285 358.37 83.9823C369.234 87.8237 383.801 75.8546 394.501 80.3845C401.632 83.4045 407.251 95.4168 404.9 110.252C404.9 110.252 419.973 96.2632 417.269 78.29C415.408 65.9204 408.175 60.1742 397.306 61.1769C382.351 52.3482 374.774 64.4565 364.068 64.2247C355.169 64.0332 353.618 58.2592 352.251 52.1289Z" fill="#333382"/>
<path d="M376.907 104.4C376.907 104.397 376.916 104.296 376.916 104.257C376.924 104.226 376.932 104.19 376.935 104.182C376.952 104.118 376.974 104.055 376.998 103.992C377.005 103.977 377.016 103.954 377.026 103.934C377.055 103.879 377.083 103.823 377.114 103.768C377.182 103.643 377.256 103.521 377.328 103.399C377.476 103.151 377.624 102.903 377.771 102.654C378.084 102.128 378.397 101.602 378.71 101.076C378.963 100.65 378.82 100.018 378.37 99.7805C377.913 99.5391 377.345 99.6652 377.075 100.12C376.71 100.734 376.345 101.348 375.98 101.961C375.623 102.561 375.178 103.187 375.064 103.89C374.94 104.656 375.116 105.433 375.721 105.958C376.201 106.373 376.806 106.569 377.416 106.7C377.899 106.804 378.462 106.557 378.58 106.039C378.689 105.563 378.437 104.986 377.919 104.875C377.72 104.832 377.521 104.785 377.327 104.722C377.282 104.708 377.237 104.691 377.193 104.675C377.19 104.674 377.19 104.674 377.188 104.673C377.147 104.651 377.105 104.63 377.065 104.607C377.06 104.604 377.014 104.572 376.984 104.551C376.973 104.542 376.964 104.533 376.96 104.529C376.948 104.518 376.938 104.506 376.927 104.494C376.919 104.479 376.912 104.464 376.905 104.451C376.905 104.449 376.904 104.447 376.903 104.445C376.905 104.433 376.907 104.42 376.907 104.4Z" fill="#FFB3B3"/>
<path d="M151.122 265.157H35.9371V213.153L151.122 76.2344H206.232V216.102H234.795V265.157H206.232V307.692H151.122V265.157ZM151.122 216.103V144.483L90.2602 216.103H151.122Z" fill="#DAC0FE"/>
<path d="M234.795 216.102H222.941V265.156H234.795V216.102Z" fill="#C194FE"/>
<path d="M206.232 76.2344H194.378V216.102H206.232V76.2344Z" fill="#C194FE"/>
<path d="M90.26 216.11L151.122 146.175V132.227L78.4062 216.11H90.26Z" fill="#C194FE"/>
<path d="M206.232 265.152H194.378V307.688H206.232V265.152Z" fill="#C194FE"/>
<path d="M641.94 265.157H526.754V213.153L641.94 76.2344H697.049V216.102H725.613V265.157H697.049V307.692H641.94V265.157ZM641.94 216.103V144.483L581.078 216.103H641.94Z" fill="#DAC0FE"/>
<path d="M725.613 216.102H713.759V265.156H725.613V216.102Z" fill="#C194FE"/>
<path d="M697.049 76.2344H685.196V216.102H697.049V76.2344Z" fill="#C194FE"/>
<path d="M581.078 216.11L641.94 146.175V132.227L569.224 216.11H581.078Z" fill="#C194FE"/>
<path d="M697.049 265.152H685.196V307.688H697.049V265.152Z" fill="#C194FE"/>
<path d="M575.053 19.447C574.854 19.447 574.655 19.3714 574.503 19.2192C574.199 18.9153 574.199 18.4233 574.503 18.1194L578.559 14.0632C579.663 12.9588 581.461 12.9583 582.565 14.0632L585.946 17.4433C586.445 17.9416 587.255 17.9416 587.754 17.4433L591.185 14.0121C592.29 12.9071 594.088 12.9077 595.192 14.0121L598.64 17.4598C599.138 17.958 599.949 17.958 600.447 17.4598L603.726 14.1808C604.831 13.0759 606.629 13.0764 607.732 14.1808L610.505 16.9525C611.004 17.4507 611.814 17.4507 612.312 16.9525L614.402 14.8125C616.221 12.9935 618.63 13.06 620.545 14.975L620.606 15.0443L623.04 18.1375C623.305 18.475 623.247 18.9635 622.91 19.2294C622.572 19.4947 622.083 19.4362 621.818 19.0993L619.414 16.0441C618.636 15.2806 617.124 14.2899 615.507 15.9067L613.418 18.0466C612.307 19.1578 610.51 19.1584 609.405 18.0535L606.633 15.2818C606.134 14.7835 605.324 14.7835 604.825 15.2818L601.546 18.5608C600.442 19.6657 598.644 19.6651 597.539 18.5608L594.092 15.113C593.593 14.6143 592.782 14.6148 592.284 15.113L588.853 18.5443C587.748 19.6487 585.95 19.6487 584.846 18.5443L581.466 15.1642C580.968 14.666 580.157 14.6654 579.658 15.1642L575.602 19.2203C575.45 19.3714 575.251 19.447 575.053 19.447Z" fill="#FFBDE9"/>
<path d="M555.156 6.56752C554.957 6.56752 554.759 6.49139 554.606 6.33971C554.302 6.03635 554.302 5.54382 554.606 5.24046L558.663 1.1843C559.198 0.649161 559.909 0.354323 560.666 0.354323C561.423 0.354323 562.135 0.649161 562.67 1.1843L566.05 4.56443C566.549 5.06265 567.359 5.06322 567.858 4.56443L571.288 1.13318C572.393 0.028809 574.191 0.0282409 575.295 1.13318L578.743 4.58091C579.242 5.07913 580.052 5.07913 580.55 4.58091L583.829 1.3019C584.934 0.196962 586.732 0.19753 587.836 1.3019L590.608 4.0736C591.107 4.57182 591.917 4.57182 592.416 4.0736L594.505 1.93361C595.429 1.0099 596.504 0.554862 597.618 0.608263C598.678 0.659959 599.726 1.17407 600.648 2.09608L600.709 2.16482L603.143 5.25808C603.408 5.59552 603.35 6.08408 603.013 6.34994C602.675 6.61524 602.186 6.55729 601.921 6.21985L599.517 3.16467C598.882 2.54034 598.2 2.19437 597.542 2.16199C596.873 2.13074 596.218 2.42047 595.611 3.02719L593.522 5.16718C592.411 6.27893 590.613 6.27836 589.509 5.17343L586.737 2.40172C586.495 2.16028 586.175 2.02735 585.833 2.02735C585.492 2.02735 585.171 2.16028 584.929 2.40172L581.65 5.68074C580.545 6.7851 578.748 6.7851 577.644 5.68074L574.196 2.233C573.954 1.99156 573.633 1.85862 573.291 1.85862C572.95 1.85862 572.629 1.99156 572.388 2.233L568.957 5.66426C568.422 6.1994 567.71 6.49424 566.953 6.49424C566.197 6.49424 565.485 6.1994 564.95 5.66426L561.569 2.28413C561.328 2.04269 561.007 1.90976 560.666 1.90976C560.324 1.90976 560.003 2.04269 559.762 2.28413L555.705 6.34085C555.554 6.49196 555.355 6.56752 555.156 6.56752Z" fill="#AFA3FF"/>
<path d="M64.0223 317.736C63.8235 317.736 63.6246 317.66 63.4724 317.508C63.1685 317.204 63.1685 316.712 63.4724 316.409L67.5286 312.352C68.6329 311.248 70.4309 311.247 71.5353 312.352L74.916 315.732C75.4148 316.231 76.2249 316.231 76.7237 315.732L80.1549 312.301C81.2598 311.196 83.0579 311.197 84.1617 312.301L87.6094 315.749C88.1082 316.247 88.9188 316.247 89.417 315.749L92.6961 312.47C93.801 311.365 95.5984 311.365 96.7028 312.47L99.4751 315.242C99.9739 315.74 100.784 315.74 101.283 315.242L103.372 313.102C105.191 311.283 107.6 311.349 109.515 313.264L109.576 313.333L112.01 316.427C112.275 316.764 112.217 317.253 111.88 317.518C111.542 317.783 111.053 317.725 110.788 317.388L108.384 314.333C107.607 313.57 106.094 312.579 104.478 314.196L102.389 316.336C101.278 317.447 99.4808 317.447 98.3758 316.343L95.6035 313.571C95.1048 313.073 94.2947 313.073 93.7959 313.571L90.5169 316.85C89.4125 317.955 87.6145 317.954 86.5101 316.85L83.0624 313.402C82.5636 312.903 81.753 312.904 81.2547 313.402L77.8235 316.833C76.7185 317.938 74.9211 317.938 73.8173 316.833L70.4366 313.453C69.9384 312.955 69.1277 312.954 68.6289 313.453L64.5728 317.51C64.42 317.661 64.2211 317.736 64.0223 317.736Z" fill="#FFBDE9"/>
<path d="M44.126 304.857C43.9272 304.857 43.7283 304.78 43.5761 304.629C43.2722 304.325 43.2722 303.833 43.5761 303.53L47.6323 299.473C48.1674 298.938 48.8786 298.643 49.6353 298.643C50.3926 298.643 51.1038 298.938 51.639 299.473L55.0191 302.853C55.5179 303.352 56.3286 303.352 56.8268 302.853L60.2575 299.422C61.3618 298.318 63.1598 298.317 64.2642 299.422L67.7125 302.87C68.2113 303.368 69.0214 303.368 69.5202 302.87L72.7992 299.591C73.9041 298.486 75.7016 298.487 76.8059 299.591L79.5776 302.363C80.0764 302.861 80.8871 302.861 81.3853 302.363L83.4747 300.223C84.3985 299.299 85.4733 298.844 86.5873 298.897C87.6485 298.949 88.696 299.463 89.6175 300.385L89.6788 300.453L92.1125 303.547C92.3778 303.884 92.3199 304.373 91.9824 304.638C91.645 304.904 91.1559 304.845 90.8906 304.508L88.4864 301.453C87.8519 300.829 87.1696 300.483 86.5117 300.45C85.8425 300.419 85.1875 300.709 84.5808 301.316L82.4914 303.456C81.3808 304.567 79.5828 304.567 78.4784 303.462L75.7067 300.691C75.4652 300.449 75.1443 300.316 74.8028 300.316C74.4609 300.316 74.1405 300.449 73.899 300.691L70.62 303.97C69.5151 305.074 67.7176 305.074 66.6138 303.97L63.1655 300.522C62.9241 300.281 62.6031 300.148 62.2617 300.148C61.9203 300.148 61.5993 300.281 61.3579 300.522L57.9272 303.953C57.392 304.488 56.6808 304.783 55.9235 304.783C55.1668 304.783 54.4556 304.488 53.9204 303.953L50.5397 300.573C50.2983 300.332 49.9773 300.199 49.6359 300.199C49.2945 300.199 48.9735 300.332 48.7321 300.573L44.6753 304.63C44.5237 304.78 44.3248 304.857 44.126 304.857Z" fill="#AFA3FF"/>
<path d="M569.224 294.498C571.933 294.498 574.129 292.302 574.129 289.593C574.129 286.884 571.933 284.688 569.224 284.688C566.515 284.688 564.318 286.884 564.318 289.593C564.318 292.302 566.515 294.498 569.224 294.498Z" fill="#E5E0FF"/>
<path d="M576.018 97.2301C578.519 96.1887 579.702 93.317 578.661 90.8159C577.62 88.3149 574.748 87.1316 572.247 88.173C569.746 89.2144 568.562 92.0861 569.604 94.5872C570.645 97.0882 573.517 98.2715 576.018 97.2301Z" fill="#E5E0FF"/>
<path d="M719.686 68.8695C722.395 68.8695 724.591 66.6733 724.591 63.964C724.591 61.2548 722.395 59.0586 719.686 59.0586C716.977 59.0586 714.78 61.2548 714.78 63.964C714.78 66.6733 716.977 68.8695 719.686 68.8695Z" fill="#E5E0FF"/>
<path d="M236.264 86.1C238.974 86.1 241.17 83.9037 241.17 81.1945C241.17 78.4853 238.974 76.2891 236.264 76.2891C233.555 76.2891 231.359 78.4853 231.359 81.1945C231.359 83.9037 233.555 86.1 236.264 86.1Z" fill="#E5E0FF"/>
<path d="M92.2796 45.6312C94.9888 45.6312 97.1851 43.435 97.1851 40.7258C97.1851 38.0166 94.9888 35.8203 92.2796 35.8203C89.5704 35.8203 87.3741 38.0166 87.3741 40.7258C87.3741 43.435 89.5704 45.6312 92.2796 45.6312Z" fill="#E5E0FF"/>
<path d="M117.028 295.058C119.529 294.017 120.712 291.145 119.671 288.644C118.63 286.143 115.758 284.96 113.257 286.001C110.756 287.043 109.572 289.914 110.614 292.415C111.655 294.916 114.527 296.1 117.028 295.058Z" fill="#E5E0FF"/>
<path d="M275.731 309.756C278.44 309.756 280.636 307.56 280.636 304.851C280.636 302.142 278.44 299.945 275.731 299.945C273.021 299.945 270.825 302.142 270.825 304.851C270.825 307.56 273.021 309.756 275.731 309.756Z" fill="#E5E0FF"/>
</svg>
